G04*
G04 #@! TF.GenerationSoftware,Altium Limited,Altium Designer,24.1.2 (44)*
G04*
G04 Layer_Physical_Order=5*
G04 Layer_Color=1265191*
%FSLAX44Y44*%
%MOMM*%
G71*
G04*
G04 #@! TF.SameCoordinates,8DB790BD-C0D2-442E-8808-D1DB86FAA070*
G04*
G04*
G04 #@! TF.FilePolarity,Positive*
G04*
G01*
G75*
%ADD122C,5.0000*%
%ADD123C,0.5000*%
%ADD124C,1.4580*%
%ADD125C,2.3000*%
%ADD127C,1.2580*%
%ADD128C,1.5200*%
%ADD129R,1.5200X1.5200*%
%ADD130C,1.3700*%
%ADD131R,1.3700X1.3700*%
%ADD132R,1.6000X1.6000*%
%ADD133C,1.6000*%
%ADD134C,0.4000*%
G36*
X2225072Y1680190D02*
X2225072Y1680190D01*
Y1680190D01*
X2226335Y1680186D01*
X2231894Y1679821D01*
X2238006Y1678606D01*
X2243908Y1676602D01*
X2249497Y1673846D01*
X2254679Y1670384D01*
X2259364Y1666274D01*
X2263474Y1661589D01*
X2266936Y1656407D01*
X2269692Y1650818D01*
X2271696Y1644916D01*
X2272911Y1638804D01*
X2273280Y1633188D01*
X2273280Y1633188D01*
X2273280D01*
X2273291Y1633176D01*
Y763270D01*
X2273320Y763123D01*
X2272863Y756138D01*
X2271468Y749128D01*
X2269171Y742360D01*
X2266010Y735950D01*
X2262039Y730007D01*
X2257326Y724634D01*
X2251953Y719921D01*
X2246010Y715950D01*
X2239600Y712789D01*
X2232832Y710492D01*
X2225822Y709098D01*
X2218837Y708640D01*
X2218690Y708669D01*
X1287648D01*
X1286416Y708724D01*
X1286416D01*
X1286416Y708724D01*
X1284605Y708605D01*
X1278050Y709035D01*
X1271607Y710316D01*
X1265387Y712428D01*
X1259495Y715333D01*
X1254033Y718983D01*
X1249094Y723314D01*
X1244763Y728253D01*
X1241113Y733715D01*
X1238208Y739607D01*
X1236096Y745827D01*
X1234815Y752270D01*
X1234504Y757014D01*
X1234504Y757014D01*
X1234504D01*
X1234449Y757067D01*
Y1623173D01*
X1234512Y1623176D01*
X1234449Y1624140D01*
Y1626870D01*
X1234440Y1626917D01*
X1234821Y1632739D01*
X1236217Y1639756D01*
X1238517Y1646531D01*
X1241681Y1652948D01*
X1245656Y1658897D01*
X1250374Y1664276D01*
X1255753Y1668993D01*
X1261702Y1672968D01*
X1268118Y1676133D01*
X1274893Y1678432D01*
X1281911Y1679828D01*
X1286626Y1680137D01*
X1286626Y1680137D01*
Y1680137D01*
X1286687Y1680201D01*
X2223813D01*
X2225072Y1680190D01*
D02*
G37*
%LPC*%
G36*
X2130737Y1659470D02*
X2128423D01*
X2126187Y1658871D01*
X2124183Y1657714D01*
X2122546Y1656077D01*
X2121389Y1654073D01*
X2120790Y1651837D01*
Y1649523D01*
X2121389Y1647287D01*
X2122546Y1645283D01*
X2124183Y1643646D01*
X2126187Y1642489D01*
X2128423Y1641890D01*
X2130737D01*
X2132973Y1642489D01*
X2134977Y1643646D01*
X2136614Y1645283D01*
X2137771Y1647287D01*
X2138370Y1649523D01*
Y1651837D01*
X2137771Y1654073D01*
X2136614Y1656077D01*
X2134977Y1657714D01*
X2132973Y1658871D01*
X2130737Y1659470D01*
D02*
G37*
G36*
X1945737D02*
X1943423D01*
X1941187Y1658871D01*
X1939183Y1657714D01*
X1937546Y1656077D01*
X1936389Y1654073D01*
X1935790Y1651837D01*
Y1649523D01*
X1936389Y1647287D01*
X1937546Y1645283D01*
X1939183Y1643646D01*
X1941187Y1642489D01*
X1943423Y1641890D01*
X1945737D01*
X1947973Y1642489D01*
X1949977Y1643646D01*
X1951614Y1645283D01*
X1952771Y1647287D01*
X1953370Y1649523D01*
Y1651837D01*
X1952771Y1654073D01*
X1951614Y1656077D01*
X1949977Y1657714D01*
X1947973Y1658871D01*
X1945737Y1659470D01*
D02*
G37*
G36*
X1291136Y1655910D02*
X1286964D01*
X1282845Y1655258D01*
X1278877Y1653969D01*
X1275161Y1652075D01*
X1271786Y1649623D01*
X1268837Y1646674D01*
X1266385Y1643299D01*
X1264492Y1639583D01*
X1263203Y1635615D01*
X1262550Y1631496D01*
Y1627324D01*
X1263203Y1623205D01*
X1264492Y1619238D01*
X1266385Y1615521D01*
X1268837Y1612146D01*
X1271786Y1609197D01*
X1275161Y1606745D01*
X1278877Y1604852D01*
X1282845Y1603562D01*
X1286964Y1602910D01*
X1291136D01*
X1295255Y1603562D01*
X1299223Y1604852D01*
X1302939Y1606745D01*
X1306314Y1609197D01*
X1309263Y1612146D01*
X1311715Y1615521D01*
X1313609Y1619238D01*
X1314897Y1623205D01*
X1315550Y1627324D01*
Y1631496D01*
X1314897Y1635615D01*
X1313609Y1639583D01*
X1311715Y1643299D01*
X1309263Y1646674D01*
X1306314Y1649623D01*
X1302939Y1652075D01*
X1299223Y1653969D01*
X1295255Y1655258D01*
X1291136Y1655910D01*
D02*
G37*
G36*
X2218236Y1652100D02*
X2214064D01*
X2209945Y1651447D01*
X2205977Y1650159D01*
X2202261Y1648265D01*
X2198886Y1645813D01*
X2195937Y1642864D01*
X2193485Y1639489D01*
X2191591Y1635773D01*
X2190302Y1631805D01*
X2189650Y1627686D01*
Y1623514D01*
X2190302Y1619395D01*
X2191591Y1615428D01*
X2193485Y1611711D01*
X2195937Y1608336D01*
X2198886Y1605387D01*
X2202261Y1602935D01*
X2205977Y1601042D01*
X2209945Y1599753D01*
X2214064Y1599100D01*
X2218236D01*
X2222355Y1599753D01*
X2226322Y1601042D01*
X2230039Y1602935D01*
X2233414Y1605387D01*
X2236363Y1608336D01*
X2238815Y1611711D01*
X2240708Y1615428D01*
X2241998Y1619395D01*
X2242650Y1623514D01*
Y1627686D01*
X2241998Y1631805D01*
X2240708Y1635773D01*
X2238815Y1639489D01*
X2236363Y1642864D01*
X2233414Y1645813D01*
X2230039Y1648265D01*
X2226322Y1650159D01*
X2222355Y1651447D01*
X2218236Y1652100D01*
D02*
G37*
G36*
X2130737Y1611970D02*
X2128423D01*
X2126187Y1611371D01*
X2124183Y1610214D01*
X2122546Y1608577D01*
X2121389Y1606573D01*
X2120790Y1604337D01*
Y1602023D01*
X2121389Y1599787D01*
X2122546Y1597783D01*
X2124183Y1596146D01*
X2126187Y1594989D01*
X2128423Y1594390D01*
X2130737D01*
X2132973Y1594989D01*
X2134977Y1596146D01*
X2136614Y1597783D01*
X2137771Y1599787D01*
X2138370Y1602023D01*
Y1604337D01*
X2137771Y1606573D01*
X2136614Y1608577D01*
X2134977Y1610214D01*
X2132973Y1611371D01*
X2130737Y1611970D01*
D02*
G37*
G36*
X1945737D02*
X1943423D01*
X1941187Y1611371D01*
X1939183Y1610214D01*
X1937546Y1608577D01*
X1936389Y1606573D01*
X1935790Y1604337D01*
Y1602023D01*
X1936389Y1599787D01*
X1937546Y1597783D01*
X1939183Y1596146D01*
X1941187Y1594989D01*
X1943423Y1594390D01*
X1945737D01*
X1947973Y1594989D01*
X1949977Y1596146D01*
X1951614Y1597783D01*
X1952771Y1599787D01*
X1953370Y1602023D01*
Y1604337D01*
X1952771Y1606573D01*
X1951614Y1608577D01*
X1949977Y1610214D01*
X1947973Y1611371D01*
X1945737Y1611970D01*
D02*
G37*
G36*
X1695841Y1597150D02*
X1694449D01*
X1693162Y1596617D01*
X1692178Y1595633D01*
X1691645Y1594346D01*
Y1592954D01*
X1692178Y1591667D01*
X1693162Y1590683D01*
X1694449Y1590150D01*
X1695841D01*
X1697128Y1590683D01*
X1698112Y1591667D01*
X1698645Y1592954D01*
Y1594346D01*
X1698112Y1595633D01*
X1697128Y1596617D01*
X1695841Y1597150D01*
D02*
G37*
G36*
X1676588Y1597096D02*
X1675196D01*
X1673909Y1596563D01*
X1672925Y1595579D01*
X1672392Y1594292D01*
Y1592900D01*
X1672925Y1591613D01*
X1673909Y1590629D01*
X1675196Y1590096D01*
X1676588D01*
X1677875Y1590629D01*
X1678859Y1591613D01*
X1679392Y1592900D01*
Y1594292D01*
X1678859Y1595579D01*
X1677875Y1596563D01*
X1676588Y1597096D01*
D02*
G37*
G36*
X1438336Y1596080D02*
X1436944D01*
X1435657Y1595547D01*
X1434673Y1594563D01*
X1434140Y1593276D01*
Y1591884D01*
X1434673Y1590597D01*
X1435657Y1589613D01*
X1436944Y1589080D01*
X1438336D01*
X1439623Y1589613D01*
X1440607Y1590597D01*
X1441140Y1591884D01*
Y1593276D01*
X1440607Y1594563D01*
X1439623Y1595547D01*
X1438336Y1596080D01*
D02*
G37*
G36*
X1548521Y1594610D02*
X1547129D01*
X1545842Y1594077D01*
X1544858Y1593093D01*
X1544325Y1591806D01*
Y1590414D01*
X1544858Y1589128D01*
X1545842Y1588143D01*
X1547129Y1587610D01*
X1548521D01*
X1549807Y1588143D01*
X1550792Y1589128D01*
X1551325Y1590414D01*
Y1591806D01*
X1550792Y1593093D01*
X1549807Y1594077D01*
X1548521Y1594610D01*
D02*
G37*
G36*
X1529268Y1594556D02*
X1527876D01*
X1526589Y1594023D01*
X1525605Y1593039D01*
X1525072Y1591752D01*
Y1590360D01*
X1525605Y1589073D01*
X1526589Y1588089D01*
X1527876Y1587556D01*
X1529268D01*
X1530555Y1588089D01*
X1531539Y1589073D01*
X1532072Y1590360D01*
Y1591752D01*
X1531539Y1593039D01*
X1530555Y1594023D01*
X1529268Y1594556D01*
D02*
G37*
G36*
X1638996Y1591960D02*
X1637604D01*
X1636317Y1591427D01*
X1635333Y1590443D01*
X1634800Y1589156D01*
Y1587764D01*
X1635333Y1586477D01*
X1636317Y1585493D01*
X1637604Y1584960D01*
X1638996D01*
X1640283Y1585493D01*
X1641267Y1586477D01*
X1641800Y1587764D01*
Y1589156D01*
X1641267Y1590443D01*
X1640283Y1591427D01*
X1638996Y1591960D01*
D02*
G37*
G36*
X2107626Y1591000D02*
X2106234D01*
X2104947Y1590467D01*
X2103963Y1589483D01*
X2103430Y1588196D01*
Y1586804D01*
X2103963Y1585517D01*
X2104947Y1584533D01*
X2106234Y1584000D01*
X2107626D01*
X2108913Y1584533D01*
X2109897Y1585517D01*
X2110430Y1586804D01*
Y1588196D01*
X2109897Y1589483D01*
X2108913Y1590467D01*
X2107626Y1591000D01*
D02*
G37*
G36*
X2068256D02*
X2066864D01*
X2065577Y1590467D01*
X2064593Y1589483D01*
X2064060Y1588196D01*
Y1586804D01*
X2064593Y1585517D01*
X2065577Y1584533D01*
X2066864Y1584000D01*
X2068256D01*
X2069543Y1584533D01*
X2070527Y1585517D01*
X2071060Y1586804D01*
Y1588196D01*
X2070527Y1589483D01*
X2069543Y1590467D01*
X2068256Y1591000D01*
D02*
G37*
G36*
X2027616D02*
X2026224D01*
X2024937Y1590467D01*
X2023953Y1589483D01*
X2023420Y1588196D01*
Y1586804D01*
X2023953Y1585517D01*
X2024937Y1584533D01*
X2026224Y1584000D01*
X2027616D01*
X2028903Y1584533D01*
X2029887Y1585517D01*
X2030420Y1586804D01*
Y1588196D01*
X2029887Y1589483D01*
X2028903Y1590467D01*
X2027616Y1591000D01*
D02*
G37*
G36*
X1986976D02*
X1985584D01*
X1984297Y1590467D01*
X1983313Y1589483D01*
X1982780Y1588196D01*
Y1586804D01*
X1983313Y1585517D01*
X1984297Y1584533D01*
X1985584Y1584000D01*
X1986976D01*
X1988263Y1584533D01*
X1989247Y1585517D01*
X1989780Y1586804D01*
Y1588196D01*
X1989247Y1589483D01*
X1988263Y1590467D01*
X1986976Y1591000D01*
D02*
G37*
G36*
X1495518Y1590174D02*
X1494126D01*
X1492840Y1589641D01*
X1491855Y1588656D01*
X1491322Y1587370D01*
Y1585977D01*
X1491855Y1584691D01*
X1492840Y1583707D01*
X1494126Y1583174D01*
X1495518D01*
X1496805Y1583707D01*
X1497789Y1584691D01*
X1498322Y1585977D01*
Y1587370D01*
X1497789Y1588656D01*
X1496805Y1589641D01*
X1495518Y1590174D01*
D02*
G37*
G36*
X1631340Y1585480D02*
X1629948D01*
X1628662Y1584948D01*
X1627677Y1583963D01*
X1627144Y1582677D01*
Y1581284D01*
X1627677Y1579998D01*
X1628662Y1579013D01*
X1629948Y1578481D01*
X1631340D01*
X1632627Y1579013D01*
X1633611Y1579998D01*
X1634144Y1581284D01*
Y1582677D01*
X1633611Y1583963D01*
X1632627Y1584948D01*
X1631340Y1585480D01*
D02*
G37*
G36*
X1592006Y1591960D02*
X1590614D01*
X1589327Y1591427D01*
X1588343Y1590443D01*
X1587810Y1589156D01*
Y1587764D01*
X1588343Y1586477D01*
X1588781Y1586040D01*
X1589188Y1585210D01*
X1588781Y1584380D01*
X1588343Y1583943D01*
X1587810Y1582656D01*
Y1581264D01*
X1588343Y1579977D01*
X1589327Y1578993D01*
X1590614Y1578460D01*
X1592006D01*
X1593293Y1578993D01*
X1594277Y1579977D01*
X1594810Y1581264D01*
Y1582656D01*
X1594277Y1583943D01*
X1593839Y1584380D01*
X1593432Y1585210D01*
X1593839Y1586040D01*
X1594277Y1586477D01*
X1594810Y1587764D01*
Y1589156D01*
X1594277Y1590443D01*
X1593293Y1591427D01*
X1592006Y1591960D01*
D02*
G37*
G36*
X1487866Y1584190D02*
X1486474D01*
X1485187Y1583657D01*
X1484203Y1582673D01*
X1483670Y1581386D01*
Y1579994D01*
X1484203Y1578707D01*
X1485187Y1577723D01*
X1486474Y1577190D01*
X1487866D01*
X1489153Y1577723D01*
X1490137Y1578707D01*
X1490670Y1579994D01*
Y1581386D01*
X1490137Y1582673D01*
X1489153Y1583657D01*
X1487866Y1584190D01*
D02*
G37*
G36*
X1447226D02*
X1445834D01*
X1444547Y1583657D01*
X1443563Y1582673D01*
X1443030Y1581386D01*
Y1579994D01*
X1443563Y1578707D01*
X1444547Y1577723D01*
X1445834Y1577190D01*
X1447226D01*
X1448513Y1577723D01*
X1449497Y1578707D01*
X1450030Y1579994D01*
Y1581386D01*
X1449497Y1582673D01*
X1448513Y1583657D01*
X1447226Y1584190D01*
D02*
G37*
G36*
X1640266Y1578300D02*
X1638874D01*
X1637587Y1577767D01*
X1636603Y1576783D01*
X1636070Y1575496D01*
Y1574104D01*
X1636603Y1572817D01*
X1637587Y1571833D01*
X1638874Y1571300D01*
X1640266D01*
X1641553Y1571833D01*
X1642537Y1572817D01*
X1643070Y1574104D01*
Y1575496D01*
X1642537Y1576783D01*
X1641553Y1577767D01*
X1640266Y1578300D01*
D02*
G37*
G36*
X1494216Y1577690D02*
X1492824D01*
X1491537Y1577157D01*
X1490553Y1576173D01*
X1490020Y1574886D01*
Y1573494D01*
X1490553Y1572207D01*
X1491537Y1571223D01*
X1492824Y1570690D01*
X1494216D01*
X1495503Y1571223D01*
X1496487Y1572207D01*
X1497020Y1573494D01*
Y1574886D01*
X1496487Y1576173D01*
X1495503Y1577157D01*
X1494216Y1577690D01*
D02*
G37*
G36*
X1966656Y1564330D02*
X1965264D01*
X1963977Y1563797D01*
X1962993Y1562813D01*
X1962460Y1561526D01*
Y1560134D01*
X1962993Y1558847D01*
X1963977Y1557863D01*
X1965264Y1557330D01*
X1966656D01*
X1967943Y1557863D01*
X1968927Y1558847D01*
X1969460Y1560134D01*
Y1561526D01*
X1968927Y1562813D01*
X1967943Y1563797D01*
X1966656Y1564330D01*
D02*
G37*
G36*
X2107626Y1563060D02*
X2106234D01*
X2104947Y1562527D01*
X2103963Y1561543D01*
X2103430Y1560256D01*
Y1558864D01*
X2103963Y1557577D01*
X2104947Y1556593D01*
X2106234Y1556060D01*
X2107626D01*
X2108913Y1556593D01*
X2109897Y1557577D01*
X2110430Y1558864D01*
Y1560256D01*
X2109897Y1561543D01*
X2108913Y1562527D01*
X2107626Y1563060D01*
D02*
G37*
G36*
X2088576D02*
X2087184D01*
X2085897Y1562527D01*
X2084913Y1561543D01*
X2084380Y1560256D01*
Y1558864D01*
X2084913Y1557577D01*
X2085897Y1556593D01*
X2087184Y1556060D01*
X2088576D01*
X2089863Y1556593D01*
X2090847Y1557577D01*
X2091380Y1558864D01*
Y1560256D01*
X2090847Y1561543D01*
X2089863Y1562527D01*
X2088576Y1563060D01*
D02*
G37*
G36*
X2068256D02*
X2066864D01*
X2065577Y1562527D01*
X2064593Y1561543D01*
X2064060Y1560256D01*
Y1558864D01*
X2064593Y1557577D01*
X2065577Y1556593D01*
X2066864Y1556060D01*
X2068256D01*
X2069543Y1556593D01*
X2070527Y1557577D01*
X2071060Y1558864D01*
Y1560256D01*
X2070527Y1561543D01*
X2069543Y1562527D01*
X2068256Y1563060D01*
D02*
G37*
G36*
X2047936D02*
X2046544D01*
X2045257Y1562527D01*
X2044273Y1561543D01*
X2043740Y1560256D01*
Y1558864D01*
X2044273Y1557577D01*
X2045257Y1556593D01*
X2046544Y1556060D01*
X2047936D01*
X2049223Y1556593D01*
X2050207Y1557577D01*
X2050740Y1558864D01*
Y1560256D01*
X2050207Y1561543D01*
X2049223Y1562527D01*
X2047936Y1563060D01*
D02*
G37*
G36*
X2027616D02*
X2026224D01*
X2024937Y1562527D01*
X2023953Y1561543D01*
X2023420Y1560256D01*
Y1558864D01*
X2023953Y1557577D01*
X2024937Y1556593D01*
X2026224Y1556060D01*
X2027616D01*
X2028903Y1556593D01*
X2029887Y1557577D01*
X2030420Y1558864D01*
Y1560256D01*
X2029887Y1561543D01*
X2028903Y1562527D01*
X2027616Y1563060D01*
D02*
G37*
G36*
X2007296D02*
X2005904D01*
X2004617Y1562527D01*
X2003633Y1561543D01*
X2003100Y1560256D01*
Y1558864D01*
X2003633Y1557577D01*
X2004617Y1556593D01*
X2005904Y1556060D01*
X2007296D01*
X2008583Y1556593D01*
X2009567Y1557577D01*
X2010100Y1558864D01*
Y1560256D01*
X2009567Y1561543D01*
X2008583Y1562527D01*
X2007296Y1563060D01*
D02*
G37*
G36*
X1988246D02*
X1986854D01*
X1985567Y1562527D01*
X1984583Y1561543D01*
X1984050Y1560256D01*
Y1558864D01*
X1984583Y1557577D01*
X1985567Y1556593D01*
X1986854Y1556060D01*
X1988246D01*
X1989533Y1556593D01*
X1990517Y1557577D01*
X1991050Y1558864D01*
Y1560256D01*
X1990517Y1561543D01*
X1989533Y1562527D01*
X1988246Y1563060D01*
D02*
G37*
G36*
X1962846Y1554170D02*
X1961454D01*
X1960167Y1553637D01*
X1959183Y1552653D01*
X1958650Y1551366D01*
Y1549974D01*
X1959183Y1548687D01*
X1960167Y1547703D01*
X1961454Y1547170D01*
X1962846D01*
X1964133Y1547703D01*
X1965117Y1548687D01*
X1965650Y1549974D01*
Y1551366D01*
X1965117Y1552653D01*
X1964133Y1553637D01*
X1962846Y1554170D01*
D02*
G37*
G36*
X1518346Y1524960D02*
X1516954D01*
X1515667Y1524427D01*
X1514683Y1523443D01*
X1514150Y1522156D01*
Y1520764D01*
X1514683Y1519477D01*
X1515667Y1518493D01*
X1516954Y1517960D01*
X1518346D01*
X1519633Y1518493D01*
X1520617Y1519477D01*
X1521150Y1520764D01*
Y1522156D01*
X1520617Y1523443D01*
X1519633Y1524427D01*
X1518346Y1524960D01*
D02*
G37*
G36*
X1727316Y1520570D02*
X1725924D01*
X1724637Y1520037D01*
X1723653Y1519053D01*
X1723120Y1517766D01*
Y1516374D01*
X1723653Y1515087D01*
X1724637Y1514103D01*
X1725924Y1513570D01*
X1727316D01*
X1728602Y1514103D01*
X1729587Y1515087D01*
X1730120Y1516374D01*
Y1517766D01*
X1729587Y1519053D01*
X1728602Y1520037D01*
X1727316Y1520570D01*
D02*
G37*
G36*
X1956496Y1517340D02*
X1955104D01*
X1953817Y1516807D01*
X1952833Y1515823D01*
X1952300Y1514536D01*
Y1513144D01*
X1952833Y1511857D01*
X1953817Y1510873D01*
X1955104Y1510340D01*
X1956496D01*
X1957783Y1510873D01*
X1958767Y1511857D01*
X1959300Y1513144D01*
Y1514536D01*
X1958767Y1515823D01*
X1957783Y1516807D01*
X1956496Y1517340D01*
D02*
G37*
G36*
X1924746Y1516070D02*
X1923354D01*
X1922067Y1515537D01*
X1921083Y1514553D01*
X1920550Y1513266D01*
Y1511874D01*
X1921083Y1510587D01*
X1922067Y1509603D01*
X1923354Y1509070D01*
X1924746D01*
X1926033Y1509603D01*
X1927017Y1510587D01*
X1927550Y1511874D01*
Y1513266D01*
X1927017Y1514553D01*
X1926033Y1515537D01*
X1924746Y1516070D01*
D02*
G37*
G36*
X1639888Y1512261D02*
X1638496D01*
X1637209Y1511728D01*
X1636225Y1510744D01*
X1635692Y1509457D01*
Y1508065D01*
X1636225Y1506779D01*
X1637209Y1505794D01*
X1638496Y1505261D01*
X1639888D01*
X1641175Y1505794D01*
X1642159Y1506779D01*
X1642692Y1508065D01*
Y1509457D01*
X1642159Y1510744D01*
X1641175Y1511728D01*
X1639888Y1512261D01*
D02*
G37*
G36*
X1551366Y1512260D02*
X1549974D01*
X1548687Y1511727D01*
X1547703Y1510743D01*
X1547170Y1509456D01*
Y1508064D01*
X1547703Y1506777D01*
X1548687Y1505793D01*
X1549974Y1505260D01*
X1551366D01*
X1552653Y1505793D01*
X1553637Y1506777D01*
X1554170Y1508064D01*
Y1509456D01*
X1553637Y1510743D01*
X1552653Y1511727D01*
X1551366Y1512260D01*
D02*
G37*
G36*
X1815526Y1507180D02*
X1814134D01*
X1812847Y1506647D01*
X1811863Y1505663D01*
X1811330Y1504376D01*
Y1502984D01*
X1811863Y1501697D01*
X1812847Y1500713D01*
X1814134Y1500180D01*
X1815526D01*
X1816813Y1500713D01*
X1817797Y1501697D01*
X1818330Y1502984D01*
Y1504376D01*
X1817797Y1505663D01*
X1816813Y1506647D01*
X1815526Y1507180D01*
D02*
G37*
G36*
X1733756Y1501980D02*
X1732364D01*
X1731077Y1501447D01*
X1730093Y1500463D01*
X1729560Y1499176D01*
Y1497784D01*
X1730093Y1496497D01*
X1731077Y1495513D01*
X1732364Y1494980D01*
X1733756D01*
X1735043Y1495513D01*
X1736027Y1496497D01*
X1736560Y1497784D01*
Y1499176D01*
X1736027Y1500463D01*
X1735043Y1501447D01*
X1733756Y1501980D01*
D02*
G37*
G36*
X1712656Y1501900D02*
X1711264D01*
X1709977Y1501367D01*
X1708993Y1500383D01*
X1708460Y1499096D01*
Y1497704D01*
X1708993Y1496417D01*
X1709977Y1495433D01*
X1711264Y1494900D01*
X1712656D01*
X1713943Y1495433D01*
X1714927Y1496417D01*
X1715460Y1497704D01*
Y1499096D01*
X1714927Y1500383D01*
X1713943Y1501367D01*
X1712656Y1501900D01*
D02*
G37*
G36*
X1548826Y1499560D02*
X1547434D01*
X1546147Y1499027D01*
X1545163Y1498043D01*
X1544630Y1496756D01*
Y1495364D01*
X1545163Y1494077D01*
X1546147Y1493093D01*
X1547434Y1492560D01*
X1548826D01*
X1550113Y1493093D01*
X1551097Y1494077D01*
X1551630Y1495364D01*
Y1496756D01*
X1551097Y1498043D01*
X1550113Y1499027D01*
X1548826Y1499560D01*
D02*
G37*
G36*
X1797746Y1504260D02*
X1796354D01*
X1795067Y1503727D01*
X1794083Y1502743D01*
X1793550Y1501456D01*
Y1500064D01*
X1794083Y1498777D01*
X1795067Y1497793D01*
X1796354Y1497260D01*
X1797746D01*
X1797948Y1497344D01*
X1798959Y1496466D01*
Y1495074D01*
X1799492Y1493787D01*
X1800477Y1492803D01*
X1801763Y1492270D01*
X1803155D01*
X1804442Y1492803D01*
X1805426Y1493787D01*
X1805959Y1495074D01*
Y1496466D01*
X1805426Y1497753D01*
X1804442Y1498737D01*
X1803155Y1499270D01*
X1801763D01*
X1801561Y1499186D01*
X1800550Y1500064D01*
Y1501456D01*
X1800017Y1502743D01*
X1799033Y1503727D01*
X1797746Y1504260D01*
D02*
G37*
G36*
X1708839Y1491947D02*
X1707447D01*
X1706160Y1491414D01*
X1705176Y1490430D01*
X1704643Y1489143D01*
Y1487751D01*
X1705176Y1486464D01*
X1706160Y1485480D01*
X1707447Y1484947D01*
X1708839D01*
X1710126Y1485480D01*
X1711110Y1486464D01*
X1711643Y1487751D01*
Y1489143D01*
X1711110Y1490430D01*
X1710126Y1491414D01*
X1708839Y1491947D01*
D02*
G37*
G36*
X1733756Y1491820D02*
X1732364D01*
X1731077Y1491287D01*
X1730093Y1490303D01*
X1729560Y1489016D01*
Y1487624D01*
X1730093Y1486337D01*
X1731077Y1485353D01*
X1732364Y1484820D01*
X1733756D01*
X1735043Y1485353D01*
X1736027Y1486337D01*
X1736560Y1487624D01*
Y1489016D01*
X1736027Y1490303D01*
X1735043Y1491287D01*
X1733756Y1491820D01*
D02*
G37*
G36*
X1797746Y1489400D02*
X1796354D01*
X1795067Y1488867D01*
X1794083Y1487883D01*
X1793550Y1486596D01*
Y1485204D01*
X1794083Y1483917D01*
X1795067Y1482933D01*
X1796354Y1482400D01*
X1797746D01*
X1799033Y1482933D01*
X1800017Y1483917D01*
X1800550Y1485204D01*
Y1486596D01*
X1800017Y1487883D01*
X1799033Y1488867D01*
X1797746Y1489400D01*
D02*
G37*
G36*
X1811026Y1494520D02*
X1809634D01*
X1808347Y1493987D01*
X1807363Y1493003D01*
X1806830Y1491716D01*
Y1490324D01*
X1807312Y1489160D01*
X1806478Y1488815D01*
X1805494Y1487830D01*
X1804961Y1486543D01*
Y1485151D01*
X1805494Y1483865D01*
X1806478Y1482880D01*
X1807765Y1482347D01*
X1809157D01*
X1810444Y1482880D01*
X1811428Y1483865D01*
X1811961Y1485151D01*
Y1486543D01*
X1811479Y1487708D01*
X1812313Y1488053D01*
X1813297Y1489037D01*
X1813830Y1490324D01*
Y1491716D01*
X1813297Y1493003D01*
X1812313Y1493987D01*
X1811026Y1494520D01*
D02*
G37*
G36*
X1752606Y1503915D02*
X1751214D01*
X1749927Y1503382D01*
X1748943Y1502398D01*
X1748410Y1501111D01*
Y1499719D01*
X1747729Y1499560D01*
X1747514D01*
X1746227Y1499027D01*
X1745243Y1498043D01*
X1744710Y1496756D01*
Y1495364D01*
X1745243Y1494077D01*
X1746227Y1493093D01*
X1747514Y1492560D01*
X1747891D01*
X1748757Y1491333D01*
Y1489941D01*
X1749290Y1488655D01*
X1750275Y1487670D01*
X1751561Y1487137D01*
X1751928D01*
X1752754Y1485867D01*
X1752530Y1485326D01*
Y1483934D01*
X1753063Y1482647D01*
X1754047Y1481663D01*
X1755334Y1481130D01*
X1756726D01*
X1758013Y1481663D01*
X1758997Y1482647D01*
X1759530Y1483934D01*
Y1485326D01*
X1758997Y1486613D01*
X1758013Y1487597D01*
X1756726Y1488130D01*
X1756359D01*
X1755533Y1489400D01*
X1755757Y1489941D01*
Y1491333D01*
X1755224Y1492620D01*
X1754240Y1493604D01*
X1752953Y1494137D01*
X1752577D01*
X1751710Y1495364D01*
Y1496756D01*
X1752391Y1496915D01*
X1752606D01*
X1753893Y1497448D01*
X1754877Y1498432D01*
X1755410Y1499719D01*
Y1501111D01*
X1754877Y1502398D01*
X1753893Y1503382D01*
X1752606Y1503915D01*
D02*
G37*
G36*
X1503106Y1486860D02*
X1501714D01*
X1500427Y1486327D01*
X1499443Y1485343D01*
X1498910Y1484056D01*
Y1482664D01*
X1499443Y1481377D01*
X1500427Y1480393D01*
X1501714Y1479860D01*
X1503106D01*
X1504393Y1480393D01*
X1505377Y1481377D01*
X1505910Y1482664D01*
Y1484056D01*
X1505377Y1485343D01*
X1504393Y1486327D01*
X1503106Y1486860D01*
D02*
G37*
G36*
X1915856Y1485590D02*
X1914464D01*
X1913177Y1485057D01*
X1912193Y1484073D01*
X1911660Y1482786D01*
Y1481394D01*
X1912193Y1480107D01*
X1913177Y1479123D01*
X1914464Y1478590D01*
X1915856D01*
X1917143Y1479123D01*
X1918127Y1480107D01*
X1918660Y1481394D01*
Y1482786D01*
X1918127Y1484073D01*
X1917143Y1485057D01*
X1915856Y1485590D01*
D02*
G37*
G36*
X1480253Y1485583D02*
X1478861D01*
X1477574Y1485050D01*
X1476590Y1484066D01*
X1476057Y1482779D01*
Y1481387D01*
X1476590Y1480100D01*
X1477574Y1479116D01*
X1478861Y1478583D01*
X1480253D01*
X1481540Y1479116D01*
X1482524Y1480100D01*
X1483057Y1481387D01*
Y1482779D01*
X1482524Y1484066D01*
X1481540Y1485050D01*
X1480253Y1485583D01*
D02*
G37*
G36*
X1929826Y1484320D02*
X1928434D01*
X1927147Y1483787D01*
X1926163Y1482803D01*
X1925630Y1481516D01*
Y1480124D01*
X1926163Y1478837D01*
X1927147Y1477853D01*
X1928434Y1477320D01*
X1929826D01*
X1931113Y1477853D01*
X1932097Y1478837D01*
X1932630Y1480124D01*
Y1481516D01*
X1932097Y1482803D01*
X1931113Y1483787D01*
X1929826Y1484320D01*
D02*
G37*
G36*
X1670056Y1484236D02*
X1668664D01*
X1667377Y1483704D01*
X1666393Y1482719D01*
X1665860Y1481433D01*
Y1480040D01*
X1666393Y1478754D01*
X1667377Y1477769D01*
X1668664Y1477236D01*
X1670056D01*
X1671343Y1477769D01*
X1672327Y1478754D01*
X1672860Y1480040D01*
Y1481433D01*
X1672327Y1482719D01*
X1671343Y1483704D01*
X1670056Y1484236D01*
D02*
G37*
G36*
X1677676Y1477955D02*
X1676284D01*
X1674997Y1477422D01*
X1674013Y1476438D01*
X1673480Y1475151D01*
Y1473759D01*
X1674013Y1472472D01*
X1674997Y1471488D01*
X1676284Y1470955D01*
X1677676D01*
X1678963Y1471488D01*
X1679947Y1472472D01*
X1680480Y1473759D01*
Y1475151D01*
X1679947Y1476438D01*
X1678963Y1477422D01*
X1677676Y1477955D01*
D02*
G37*
G36*
X1727889Y1474167D02*
X1726497D01*
X1725210Y1473634D01*
X1724226Y1472650D01*
X1723693Y1471363D01*
Y1469971D01*
X1724226Y1468684D01*
X1725210Y1467700D01*
X1726497Y1467167D01*
X1727889D01*
X1729176Y1467700D01*
X1730160Y1468684D01*
X1730693Y1469971D01*
Y1471363D01*
X1730160Y1472650D01*
X1729176Y1473634D01*
X1727889Y1474167D01*
D02*
G37*
G36*
X1629586Y1472950D02*
X1628194D01*
X1626907Y1472417D01*
X1625923Y1471433D01*
X1625390Y1470146D01*
Y1468754D01*
X1625923Y1467467D01*
X1626907Y1466483D01*
X1628194Y1465950D01*
X1629586D01*
X1630873Y1466483D01*
X1631857Y1467467D01*
X1632390Y1468754D01*
Y1470146D01*
X1631857Y1471433D01*
X1630873Y1472417D01*
X1629586Y1472950D01*
D02*
G37*
G36*
X1669476Y1472890D02*
X1668084D01*
X1666797Y1472357D01*
X1665813Y1471373D01*
X1665280Y1470086D01*
Y1468694D01*
X1665813Y1467407D01*
X1666797Y1466423D01*
X1668084Y1465890D01*
X1669476D01*
X1670763Y1466423D01*
X1671747Y1467407D01*
X1672280Y1468694D01*
Y1470086D01*
X1671747Y1471373D01*
X1670763Y1472357D01*
X1669476Y1472890D01*
D02*
G37*
G36*
X1828226Y1470350D02*
X1826834D01*
X1825547Y1469817D01*
X1824563Y1468833D01*
X1824030Y1467546D01*
Y1466154D01*
X1824563Y1464867D01*
X1825547Y1463883D01*
X1826834Y1463350D01*
X1828226D01*
X1829513Y1463883D01*
X1830497Y1464867D01*
X1831030Y1466154D01*
Y1467546D01*
X1830497Y1468833D01*
X1829513Y1469817D01*
X1828226Y1470350D01*
D02*
G37*
G36*
X1741286Y1469080D02*
X1739894D01*
X1738607Y1468547D01*
X1737623Y1467563D01*
X1737090Y1466276D01*
Y1464884D01*
X1737623Y1463597D01*
X1738607Y1462613D01*
X1739894Y1462080D01*
X1741286D01*
X1742573Y1462613D01*
X1743557Y1463597D01*
X1744090Y1464884D01*
Y1466276D01*
X1743557Y1467563D01*
X1742573Y1468547D01*
X1741286Y1469080D01*
D02*
G37*
G36*
X1677676Y1468010D02*
X1676284D01*
X1674997Y1467477D01*
X1674013Y1466493D01*
X1673480Y1465206D01*
Y1463814D01*
X1674013Y1462527D01*
X1674997Y1461543D01*
X1676284Y1461010D01*
X1677676D01*
X1678963Y1461543D01*
X1679947Y1462527D01*
X1680480Y1463814D01*
Y1465206D01*
X1679947Y1466493D01*
X1678963Y1467477D01*
X1677676Y1468010D01*
D02*
G37*
G36*
X1716466Y1467810D02*
X1715074D01*
X1713787Y1467277D01*
X1712803Y1466293D01*
X1712270Y1465006D01*
Y1463614D01*
X1712803Y1462327D01*
X1713787Y1461343D01*
X1715074Y1460810D01*
X1716466D01*
X1717753Y1461343D01*
X1718737Y1462327D01*
X1719270Y1463614D01*
Y1465006D01*
X1718737Y1466293D01*
X1717753Y1467277D01*
X1716466Y1467810D01*
D02*
G37*
G36*
X1551366Y1465270D02*
X1549974D01*
X1548687Y1464737D01*
X1547703Y1463753D01*
X1547170Y1462466D01*
Y1461074D01*
X1547703Y1459787D01*
X1548687Y1458803D01*
X1549974Y1458270D01*
X1551366D01*
X1552653Y1458803D01*
X1553637Y1459787D01*
X1554170Y1461074D01*
Y1462466D01*
X1553637Y1463753D01*
X1552653Y1464737D01*
X1551366Y1465270D01*
D02*
G37*
G36*
X1616136Y1460190D02*
X1614744D01*
X1613457Y1459657D01*
X1612473Y1458673D01*
X1611940Y1457386D01*
Y1455994D01*
X1612473Y1454707D01*
X1613457Y1453723D01*
X1614744Y1453190D01*
X1616136D01*
X1617423Y1453723D01*
X1618407Y1454707D01*
X1618940Y1455994D01*
Y1457386D01*
X1618407Y1458673D01*
X1617423Y1459657D01*
X1616136Y1460190D01*
D02*
G37*
G36*
X1525966Y1457404D02*
X1524574D01*
X1523287Y1456871D01*
X1522303Y1455887D01*
X1521770Y1454600D01*
Y1453208D01*
X1522303Y1451921D01*
X1523287Y1450937D01*
X1524574Y1450404D01*
X1525966D01*
X1527253Y1450937D01*
X1528237Y1451921D01*
X1528770Y1453208D01*
Y1454600D01*
X1528237Y1455887D01*
X1527253Y1456871D01*
X1525966Y1457404D01*
D02*
G37*
G36*
X1651696Y1461460D02*
X1650304D01*
X1649017Y1460927D01*
X1648033Y1459943D01*
X1647500Y1458656D01*
Y1457264D01*
X1648033Y1455977D01*
X1649017Y1454993D01*
X1650304Y1454460D01*
X1651407D01*
X1651781Y1454363D01*
X1652580Y1453451D01*
Y1452764D01*
X1653113Y1451477D01*
X1654097Y1450493D01*
X1655384Y1449960D01*
X1656776D01*
X1658063Y1450493D01*
X1659047Y1451477D01*
X1659580Y1452764D01*
Y1454156D01*
X1659047Y1455443D01*
X1658063Y1456427D01*
X1656776Y1456960D01*
X1655673D01*
X1655299Y1457057D01*
X1654500Y1457969D01*
Y1458656D01*
X1653967Y1459943D01*
X1652983Y1460927D01*
X1651696Y1461460D01*
D02*
G37*
G36*
X1635186D02*
X1633794D01*
X1632507Y1460927D01*
X1631523Y1459943D01*
X1630990Y1458656D01*
Y1457264D01*
X1631523Y1455977D01*
X1632507Y1454993D01*
X1633794Y1454460D01*
X1635186D01*
X1635902Y1454757D01*
X1636622Y1453680D01*
X1636534Y1453593D01*
X1636001Y1452306D01*
Y1450914D01*
X1636534Y1449627D01*
X1637519Y1448643D01*
X1638805Y1448110D01*
X1640198D01*
X1641484Y1448643D01*
X1642469Y1449627D01*
X1643001Y1450914D01*
Y1452306D01*
X1642469Y1453593D01*
X1641484Y1454577D01*
X1640198Y1455110D01*
X1638805D01*
X1638089Y1454813D01*
X1637370Y1455890D01*
X1637457Y1455977D01*
X1637990Y1457264D01*
Y1458656D01*
X1637457Y1459943D01*
X1636473Y1460927D01*
X1635186Y1461460D01*
D02*
G37*
G36*
X1928556Y1453840D02*
X1927164D01*
X1925877Y1453307D01*
X1924893Y1452323D01*
X1924360Y1451036D01*
Y1449644D01*
X1924893Y1448357D01*
X1925877Y1447373D01*
X1927164Y1446840D01*
X1928556D01*
X1929843Y1447373D01*
X1930827Y1448357D01*
X1931360Y1449644D01*
Y1451036D01*
X1930827Y1452323D01*
X1929843Y1453307D01*
X1928556Y1453840D01*
D02*
G37*
G36*
X1727896Y1452570D02*
X1726504D01*
X1725217Y1452037D01*
X1724233Y1451053D01*
X1723700Y1449766D01*
Y1448374D01*
X1724233Y1447087D01*
X1725217Y1446103D01*
X1726504Y1445570D01*
X1727896D01*
X1729183Y1446103D01*
X1730167Y1447087D01*
X1730700Y1448374D01*
Y1449766D01*
X1730167Y1451053D01*
X1729183Y1452037D01*
X1727896Y1452570D01*
D02*
G37*
G36*
X1551366D02*
X1549974D01*
X1548687Y1452037D01*
X1547703Y1451053D01*
X1547170Y1449766D01*
Y1448374D01*
X1547703Y1447087D01*
X1548687Y1446103D01*
X1549974Y1445570D01*
X1551366D01*
X1552653Y1446103D01*
X1553637Y1447087D01*
X1554170Y1448374D01*
Y1449766D01*
X1553637Y1451053D01*
X1552653Y1452037D01*
X1551366Y1452570D01*
D02*
G37*
G36*
X2174168Y1460710D02*
X2171772D01*
X2169458Y1460090D01*
X2167383Y1458892D01*
X2165688Y1457198D01*
X2164490Y1455123D01*
X2163870Y1452808D01*
Y1450412D01*
X2164490Y1448098D01*
X2165688Y1446022D01*
X2167383Y1444328D01*
X2169458Y1443130D01*
X2171772Y1442510D01*
X2174168D01*
X2176483Y1443130D01*
X2178557Y1444328D01*
X2180252Y1446022D01*
X2181450Y1448098D01*
X2182070Y1450412D01*
Y1452808D01*
X2181450Y1455123D01*
X2180252Y1457198D01*
X2178557Y1458892D01*
X2176483Y1460090D01*
X2174168Y1460710D01*
D02*
G37*
G36*
X1350407Y1455900D02*
X1348093D01*
X1345857Y1455301D01*
X1343853Y1454144D01*
X1342216Y1452507D01*
X1341059Y1450503D01*
X1340460Y1448267D01*
Y1445953D01*
X1341059Y1443717D01*
X1342216Y1441713D01*
X1343853Y1440076D01*
X1345857Y1438919D01*
X1348093Y1438320D01*
X1350407D01*
X1352643Y1438919D01*
X1354647Y1440076D01*
X1356284Y1441713D01*
X1357441Y1443717D01*
X1358040Y1445953D01*
Y1448267D01*
X1357441Y1450503D01*
X1356284Y1452507D01*
X1354647Y1454144D01*
X1352643Y1455301D01*
X1350407Y1455900D01*
D02*
G37*
G36*
X1302907D02*
X1300593D01*
X1298357Y1455301D01*
X1296353Y1454144D01*
X1294716Y1452507D01*
X1293559Y1450503D01*
X1292960Y1448267D01*
Y1445953D01*
X1293559Y1443717D01*
X1294716Y1441713D01*
X1296353Y1440076D01*
X1298357Y1438919D01*
X1300593Y1438320D01*
X1302907D01*
X1305143Y1438919D01*
X1307147Y1440076D01*
X1308784Y1441713D01*
X1309941Y1443717D01*
X1310540Y1445953D01*
Y1448267D01*
X1309941Y1450503D01*
X1308784Y1452507D01*
X1307147Y1454144D01*
X1305143Y1455301D01*
X1302907Y1455900D01*
D02*
G37*
G36*
X1478976Y1440174D02*
X1477584D01*
X1476297Y1439641D01*
X1475313Y1438657D01*
X1474780Y1437370D01*
Y1435978D01*
X1475313Y1434691D01*
X1476297Y1433707D01*
X1477584Y1433174D01*
X1478976D01*
X1480263Y1433707D01*
X1481247Y1434691D01*
X1481780Y1435978D01*
Y1437370D01*
X1481247Y1438657D01*
X1480263Y1439641D01*
X1478976Y1440174D01*
D02*
G37*
G36*
X1495486Y1439870D02*
X1494094D01*
X1492807Y1439337D01*
X1491823Y1438353D01*
X1491290Y1437066D01*
Y1435674D01*
X1491823Y1434387D01*
X1492807Y1433403D01*
X1494094Y1432870D01*
X1495486D01*
X1496773Y1433403D01*
X1497757Y1434387D01*
X1498290Y1435674D01*
Y1437066D01*
X1497757Y1438353D01*
X1496773Y1439337D01*
X1495486Y1439870D01*
D02*
G37*
G36*
X1818954Y1438983D02*
X1817561D01*
X1816275Y1438450D01*
X1815290Y1437465D01*
X1814757Y1436179D01*
Y1434787D01*
X1815290Y1433500D01*
X1816275Y1432516D01*
X1817561Y1431983D01*
X1818954D01*
X1820240Y1432516D01*
X1821225Y1433500D01*
X1821757Y1434787D01*
Y1436179D01*
X1821225Y1437465D01*
X1820240Y1438450D01*
X1818954Y1438983D01*
D02*
G37*
G36*
X1712656Y1437330D02*
X1711264D01*
X1709977Y1436797D01*
X1708993Y1435813D01*
X1708460Y1434526D01*
Y1433134D01*
X1708993Y1431847D01*
X1709977Y1430863D01*
X1711264Y1430330D01*
X1712656D01*
X1713943Y1430863D01*
X1714927Y1431847D01*
X1715460Y1433134D01*
Y1434526D01*
X1714927Y1435813D01*
X1713943Y1436797D01*
X1712656Y1437330D01*
D02*
G37*
G36*
X1734246Y1436060D02*
X1732854D01*
X1731567Y1435527D01*
X1730583Y1434543D01*
X1730050Y1433256D01*
Y1431864D01*
X1730583Y1430577D01*
X1731567Y1429593D01*
X1732854Y1429060D01*
X1734246D01*
X1735533Y1429593D01*
X1736517Y1430577D01*
X1737050Y1431864D01*
Y1433256D01*
X1736517Y1434543D01*
X1735533Y1435527D01*
X1734246Y1436060D01*
D02*
G37*
G36*
X1569836Y1431622D02*
X1568444D01*
X1567157Y1431089D01*
X1566173Y1430105D01*
X1565640Y1428818D01*
Y1427426D01*
X1566173Y1426139D01*
X1567157Y1425155D01*
X1568444Y1424622D01*
X1569836D01*
X1571123Y1425155D01*
X1572107Y1426139D01*
X1572640Y1427426D01*
Y1428818D01*
X1572107Y1430105D01*
X1571123Y1431089D01*
X1569836Y1431622D01*
D02*
G37*
G36*
X1758376Y1433520D02*
X1756984D01*
X1755697Y1432987D01*
X1754713Y1432003D01*
X1754180Y1430716D01*
Y1429613D01*
X1754042Y1429203D01*
X1753171Y1428440D01*
X1752394D01*
X1751107Y1427907D01*
X1750123Y1426923D01*
X1749590Y1425636D01*
Y1424244D01*
X1750123Y1422957D01*
X1751107Y1421973D01*
X1752394Y1421440D01*
X1753786D01*
X1755073Y1421973D01*
X1756057Y1422957D01*
X1756590Y1424244D01*
Y1425347D01*
X1756728Y1425757D01*
X1757599Y1426520D01*
X1758376D01*
X1759663Y1427053D01*
X1760647Y1428037D01*
X1761180Y1429324D01*
Y1430716D01*
X1760647Y1432003D01*
X1759663Y1432987D01*
X1758376Y1433520D01*
D02*
G37*
G36*
X1799016Y1434790D02*
X1797624D01*
X1796337Y1434257D01*
X1795353Y1433273D01*
X1794820Y1431986D01*
Y1430594D01*
X1795353Y1429307D01*
X1796164Y1428496D01*
X1796174Y1427454D01*
X1796098Y1427047D01*
X1795193Y1426143D01*
X1794660Y1424856D01*
Y1423464D01*
X1795193Y1422177D01*
X1796177Y1421193D01*
X1797464Y1420660D01*
X1798856D01*
X1800143Y1421193D01*
X1801127Y1422177D01*
X1801660Y1423464D01*
Y1424856D01*
X1801127Y1426143D01*
X1800316Y1426954D01*
X1800306Y1427996D01*
X1800382Y1428403D01*
X1801287Y1429307D01*
X1801820Y1430594D01*
Y1431986D01*
X1801287Y1433273D01*
X1800303Y1434257D01*
X1799016Y1434790D01*
D02*
G37*
G36*
X1734246Y1425900D02*
X1732854D01*
X1731567Y1425367D01*
X1730583Y1424383D01*
X1730050Y1423096D01*
Y1421704D01*
X1730583Y1420417D01*
X1731567Y1419433D01*
X1732854Y1418900D01*
X1734246D01*
X1735533Y1419433D01*
X1736517Y1420417D01*
X1737050Y1421704D01*
Y1423096D01*
X1736517Y1424383D01*
X1735533Y1425367D01*
X1734246Y1425900D01*
D02*
G37*
G36*
X1713583Y1425543D02*
X1712191D01*
X1710904Y1425010D01*
X1709920Y1424026D01*
X1709387Y1422739D01*
Y1421347D01*
X1709920Y1420060D01*
X1710904Y1419076D01*
X1712191Y1418543D01*
X1713583D01*
X1714870Y1419076D01*
X1715854Y1420060D01*
X1716387Y1421347D01*
Y1422739D01*
X1715854Y1424026D01*
X1714870Y1425010D01*
X1713583Y1425543D01*
D02*
G37*
G36*
X2174168Y1435310D02*
X2171772D01*
X2169458Y1434690D01*
X2167383Y1433492D01*
X2165688Y1431797D01*
X2164490Y1429722D01*
X2163870Y1427408D01*
Y1425012D01*
X2164490Y1422697D01*
X2165688Y1420623D01*
X2167383Y1418928D01*
X2169458Y1417730D01*
X2171772Y1417110D01*
X2174168D01*
X2176483Y1417730D01*
X2178557Y1418928D01*
X2180252Y1420623D01*
X2181450Y1422697D01*
X2182070Y1425012D01*
Y1427408D01*
X2181450Y1429722D01*
X2180252Y1431797D01*
X2178557Y1433492D01*
X2176483Y1434690D01*
X2174168Y1435310D01*
D02*
G37*
G36*
X1927286Y1422090D02*
X1925894D01*
X1924607Y1421557D01*
X1923623Y1420573D01*
X1923090Y1419286D01*
Y1417894D01*
X1923623Y1416607D01*
X1924607Y1415623D01*
X1925894Y1415090D01*
X1927286D01*
X1928573Y1415623D01*
X1929557Y1416607D01*
X1930090Y1417894D01*
Y1419286D01*
X1929557Y1420573D01*
X1928573Y1421557D01*
X1927286Y1422090D01*
D02*
G37*
G36*
X1809176Y1417010D02*
X1807784D01*
X1806497Y1416477D01*
X1805513Y1415493D01*
X1804980Y1414206D01*
Y1412814D01*
X1805513Y1411527D01*
X1806497Y1410543D01*
X1807784Y1410010D01*
X1809176D01*
X1810463Y1410543D01*
X1811447Y1411527D01*
X1811980Y1412814D01*
Y1414206D01*
X1811447Y1415493D01*
X1810463Y1416477D01*
X1809176Y1417010D01*
D02*
G37*
G36*
X1614859Y1409383D02*
X1613467D01*
X1612180Y1408850D01*
X1611196Y1407866D01*
X1610663Y1406579D01*
Y1405187D01*
X1611196Y1403900D01*
X1612180Y1402916D01*
X1613467Y1402383D01*
X1614859D01*
X1616146Y1402916D01*
X1617130Y1403900D01*
X1617663Y1405187D01*
Y1406579D01*
X1617130Y1407866D01*
X1616146Y1408850D01*
X1614859Y1409383D01*
D02*
G37*
G36*
X1727033Y1408810D02*
X1725641D01*
X1724355Y1408277D01*
X1723370Y1407292D01*
X1722837Y1406006D01*
Y1404614D01*
X1723370Y1403327D01*
X1724355Y1402343D01*
X1725641Y1401810D01*
X1727033D01*
X1728320Y1402343D01*
X1729304Y1403327D01*
X1729837Y1404614D01*
Y1406006D01*
X1729304Y1407292D01*
X1728320Y1408277D01*
X1727033Y1408810D01*
D02*
G37*
G36*
X1525966Y1407239D02*
X1524574D01*
X1523287Y1406706D01*
X1522303Y1405721D01*
X1521770Y1404435D01*
Y1403043D01*
X1522303Y1401756D01*
X1523287Y1400772D01*
X1524574Y1400239D01*
X1525966D01*
X1527253Y1400772D01*
X1528237Y1401756D01*
X1528770Y1403043D01*
Y1404435D01*
X1528237Y1405721D01*
X1527253Y1406706D01*
X1525966Y1407239D01*
D02*
G37*
G36*
X1834576Y1405580D02*
X1833184D01*
X1831897Y1405047D01*
X1830913Y1404063D01*
X1830380Y1402776D01*
Y1401384D01*
X1830913Y1400097D01*
X1831897Y1399113D01*
X1833184Y1398580D01*
X1834576D01*
X1835863Y1399113D01*
X1836847Y1400097D01*
X1837380Y1401384D01*
Y1402776D01*
X1836847Y1404063D01*
X1835863Y1405047D01*
X1834576Y1405580D01*
D02*
G37*
G36*
X1550096D02*
X1548704D01*
X1547417Y1405047D01*
X1546433Y1404063D01*
X1545900Y1402776D01*
Y1401384D01*
X1546433Y1400097D01*
X1547417Y1399113D01*
X1548704Y1398580D01*
X1550096D01*
X1551383Y1399113D01*
X1552367Y1400097D01*
X1552900Y1401384D01*
Y1402776D01*
X1552367Y1404063D01*
X1551383Y1405047D01*
X1550096Y1405580D01*
D02*
G37*
G36*
X2174168Y1409910D02*
X2171772D01*
X2169458Y1409290D01*
X2167383Y1408092D01*
X2165688Y1406398D01*
X2164490Y1404323D01*
X2163870Y1402008D01*
Y1399612D01*
X2164490Y1397298D01*
X2165688Y1395222D01*
X2167383Y1393528D01*
X2169458Y1392330D01*
X2171772Y1391710D01*
X2174168D01*
X2176483Y1392330D01*
X2178557Y1393528D01*
X2180252Y1395222D01*
X2181450Y1397298D01*
X2182070Y1399612D01*
Y1402008D01*
X2181450Y1404323D01*
X2180252Y1406398D01*
X2178557Y1408092D01*
X2176483Y1409290D01*
X2174168Y1409910D01*
D02*
G37*
G36*
X1747336Y1397570D02*
X1745943D01*
X1744657Y1397038D01*
X1743672Y1396053D01*
X1743140Y1394767D01*
Y1393374D01*
X1743672Y1392088D01*
X1744657Y1391103D01*
X1745943Y1390570D01*
X1747336D01*
X1748622Y1391103D01*
X1749607Y1392088D01*
X1750140Y1393374D01*
Y1394767D01*
X1749607Y1396053D01*
X1748622Y1397038D01*
X1747336Y1397570D01*
D02*
G37*
G36*
X1802826Y1394730D02*
X1801434D01*
X1800147Y1394197D01*
X1799163Y1393213D01*
X1798630Y1391926D01*
Y1390534D01*
X1799163Y1389247D01*
X1800147Y1388263D01*
X1801434Y1387730D01*
X1802826D01*
X1804113Y1388263D01*
X1805097Y1389247D01*
X1805630Y1390534D01*
Y1391926D01*
X1805097Y1393213D01*
X1804113Y1394197D01*
X1802826Y1394730D01*
D02*
G37*
G36*
X1500566Y1392880D02*
X1499174D01*
X1497887Y1392347D01*
X1496903Y1391363D01*
X1496370Y1390076D01*
Y1388684D01*
X1496903Y1387397D01*
X1497887Y1386413D01*
X1499174Y1385880D01*
X1500566D01*
X1501853Y1386413D01*
X1502837Y1387397D01*
X1503370Y1388684D01*
Y1390076D01*
X1502837Y1391363D01*
X1501853Y1392347D01*
X1500566Y1392880D01*
D02*
G37*
G36*
X1838386Y1391610D02*
X1836994D01*
X1835707Y1391077D01*
X1834723Y1390093D01*
X1834190Y1388806D01*
Y1387414D01*
X1834723Y1386127D01*
X1835707Y1385143D01*
X1836994Y1384610D01*
X1838386D01*
X1839673Y1385143D01*
X1840657Y1386127D01*
X1841190Y1387414D01*
Y1388806D01*
X1840657Y1390093D01*
X1839673Y1391077D01*
X1838386Y1391610D01*
D02*
G37*
G36*
X1758383Y1390333D02*
X1756991D01*
X1755704Y1389800D01*
X1754720Y1388816D01*
X1754187Y1387529D01*
Y1386137D01*
X1754720Y1384850D01*
X1755704Y1383866D01*
X1756991Y1383333D01*
X1758383D01*
X1759670Y1383866D01*
X1760654Y1384850D01*
X1761187Y1386137D01*
Y1387529D01*
X1760654Y1388816D01*
X1759670Y1389800D01*
X1758383Y1390333D01*
D02*
G37*
G36*
X1777426Y1386530D02*
X1776034D01*
X1774747Y1385997D01*
X1773763Y1385013D01*
X1773230Y1383726D01*
Y1383661D01*
X1772773Y1383427D01*
X1771960Y1383271D01*
X1771147Y1384084D01*
X1769861Y1384617D01*
X1768469D01*
X1767182Y1384084D01*
X1766198Y1383099D01*
X1765665Y1381813D01*
Y1380421D01*
X1766198Y1379134D01*
X1767182Y1378150D01*
X1768469Y1377617D01*
X1769861D01*
X1771147Y1378150D01*
X1772132Y1379134D01*
X1772665Y1380421D01*
Y1380486D01*
X1773122Y1380720D01*
X1773935Y1380876D01*
X1774747Y1380063D01*
X1776034Y1379530D01*
X1777426D01*
X1778713Y1380063D01*
X1779697Y1381047D01*
X1780230Y1382334D01*
Y1383726D01*
X1779697Y1385013D01*
X1778713Y1385997D01*
X1777426Y1386530D01*
D02*
G37*
G36*
X1733604Y1388442D02*
X1732212D01*
X1730925Y1387909D01*
X1729941Y1386925D01*
X1729408Y1385638D01*
Y1384246D01*
X1729941Y1382959D01*
X1730925Y1381975D01*
X1732212Y1381442D01*
X1733604D01*
X1734891Y1381975D01*
X1735875Y1382959D01*
X1736408Y1384246D01*
Y1385638D01*
X1735875Y1386925D01*
X1734891Y1387909D01*
X1733604Y1388442D01*
D02*
G37*
G36*
X1786316Y1386530D02*
X1784924D01*
X1783637Y1385997D01*
X1782653Y1385013D01*
X1782120Y1383726D01*
Y1382334D01*
X1782653Y1381047D01*
X1783637Y1380063D01*
X1784924Y1379530D01*
X1786316D01*
X1787603Y1380063D01*
X1787701Y1380161D01*
X1788947Y1379913D01*
X1789003Y1379777D01*
X1789987Y1378793D01*
X1791274Y1378260D01*
X1792666D01*
X1793953Y1378793D01*
X1794937Y1379777D01*
X1795470Y1381064D01*
Y1382456D01*
X1794937Y1383743D01*
X1793953Y1384727D01*
X1792666Y1385260D01*
X1791274D01*
X1789987Y1384727D01*
X1789889Y1384629D01*
X1788643Y1384877D01*
X1788587Y1385013D01*
X1787603Y1385997D01*
X1786316Y1386530D01*
D02*
G37*
G36*
X1707576Y1385260D02*
X1706184D01*
X1704897Y1384727D01*
X1703913Y1383743D01*
X1703380Y1382456D01*
Y1381064D01*
X1703913Y1379777D01*
X1704897Y1378793D01*
X1706184Y1378260D01*
X1707576D01*
X1708863Y1378793D01*
X1709847Y1379777D01*
X1710380Y1381064D01*
Y1382456D01*
X1709847Y1383743D01*
X1708863Y1384727D01*
X1707576Y1385260D01*
D02*
G37*
G36*
X1688056Y1382650D02*
X1686664D01*
X1685377Y1382117D01*
X1684393Y1381133D01*
X1683860Y1379846D01*
Y1378454D01*
X1684393Y1377167D01*
X1685377Y1376183D01*
X1686664Y1375650D01*
X1688056D01*
X1689343Y1376183D01*
X1690327Y1377167D01*
X1690860Y1378454D01*
Y1379846D01*
X1690327Y1381133D01*
X1689343Y1382117D01*
X1688056Y1382650D01*
D02*
G37*
G36*
X1722816Y1385260D02*
X1721424D01*
X1720137Y1384727D01*
X1719153Y1383743D01*
X1718909Y1383154D01*
X1718039Y1382140D01*
X1716646D01*
X1715360Y1381607D01*
X1714375Y1380623D01*
X1713842Y1379336D01*
Y1377944D01*
X1714375Y1376657D01*
X1715360Y1375673D01*
X1716646Y1375140D01*
X1718039D01*
X1719325Y1375673D01*
X1720309Y1376657D01*
X1720553Y1377246D01*
X1721424Y1378260D01*
X1722816D01*
X1724103Y1378793D01*
X1725087Y1379777D01*
X1725620Y1381064D01*
Y1382456D01*
X1725087Y1383743D01*
X1724103Y1384727D01*
X1722816Y1385260D01*
D02*
G37*
G36*
X1961576Y1381450D02*
X1960184D01*
X1958897Y1380917D01*
X1957913Y1379933D01*
X1957380Y1378646D01*
Y1377254D01*
X1957913Y1375967D01*
X1958897Y1374983D01*
X1960184Y1374450D01*
X1961576D01*
X1962863Y1374983D01*
X1963847Y1375967D01*
X1964380Y1377254D01*
Y1378646D01*
X1963847Y1379933D01*
X1962863Y1380917D01*
X1961576Y1381450D01*
D02*
G37*
G36*
X1988861Y1380180D02*
X1987469D01*
X1986183Y1379647D01*
X1985198Y1378663D01*
X1984665Y1377376D01*
Y1375984D01*
X1985198Y1374697D01*
X1986183Y1373713D01*
X1987469Y1373180D01*
X1988861D01*
X1990148Y1373713D01*
X1991132Y1374697D01*
X1991665Y1375984D01*
Y1377376D01*
X1991132Y1378663D01*
X1990148Y1379647D01*
X1988861Y1380180D01*
D02*
G37*
G36*
X1569836Y1377640D02*
X1568444D01*
X1567157Y1377107D01*
X1566173Y1376123D01*
X1565640Y1374836D01*
Y1373444D01*
X1566173Y1372157D01*
X1567157Y1371173D01*
X1568444Y1370640D01*
X1569836D01*
X1571123Y1371173D01*
X1572107Y1372157D01*
X1572640Y1373444D01*
Y1374836D01*
X1572107Y1376123D01*
X1571123Y1377107D01*
X1569836Y1377640D01*
D02*
G37*
G36*
X2022876Y1376440D02*
X2021484D01*
X2020197Y1375907D01*
X2019213Y1374923D01*
X2018680Y1373636D01*
Y1372244D01*
X2019213Y1370957D01*
X2020197Y1369973D01*
X2021484Y1369440D01*
X2022876D01*
X2024163Y1369973D01*
X2025147Y1370957D01*
X2025680Y1372244D01*
Y1373636D01*
X2025147Y1374923D01*
X2024163Y1375907D01*
X2022876Y1376440D01*
D02*
G37*
G36*
X1698522Y1367386D02*
X1697130D01*
X1695843Y1366853D01*
X1694859Y1365868D01*
X1693997Y1366666D01*
X1693852Y1366811D01*
X1692566Y1367344D01*
X1691174D01*
X1689887Y1366811D01*
X1688903Y1365826D01*
X1688370Y1364540D01*
Y1363147D01*
X1688903Y1361861D01*
X1689887Y1360876D01*
X1691174Y1360344D01*
X1692566D01*
X1693852Y1360876D01*
X1694837Y1361861D01*
X1695698Y1361063D01*
X1695843Y1360918D01*
X1697130Y1360385D01*
X1698522D01*
X1699808Y1360918D01*
X1700793Y1361903D01*
X1701326Y1363189D01*
Y1364582D01*
X1700793Y1365868D01*
X1699808Y1366853D01*
X1698522Y1367386D01*
D02*
G37*
G36*
X2063176Y1368750D02*
X2061784D01*
X2060497Y1368217D01*
X2059513Y1367233D01*
X2058980Y1365946D01*
Y1364554D01*
X2059513Y1363267D01*
X2060497Y1362283D01*
X2061784Y1361750D01*
X2063176D01*
X2064463Y1362283D01*
X2065447Y1363267D01*
X2065980Y1364554D01*
Y1365946D01*
X2065447Y1367233D01*
X2064463Y1368217D01*
X2063176Y1368750D01*
D02*
G37*
G36*
X1646616Y1372560D02*
X1645224D01*
X1643937Y1372027D01*
X1642953Y1371043D01*
X1642420Y1369756D01*
Y1368364D01*
X1642953Y1367077D01*
X1643937Y1366093D01*
X1645224Y1365560D01*
X1646616D01*
X1647500Y1364969D01*
Y1364554D01*
X1648033Y1363267D01*
X1649017Y1362283D01*
X1650304Y1361750D01*
X1651696D01*
X1652040Y1361892D01*
X1653310Y1361044D01*
Y1360744D01*
X1653843Y1359457D01*
X1654827Y1358473D01*
X1656114Y1357940D01*
X1657506D01*
X1658793Y1358473D01*
X1659777Y1359457D01*
X1660310Y1360744D01*
Y1362136D01*
X1659777Y1363423D01*
X1658793Y1364407D01*
X1657506Y1364940D01*
X1656114D01*
X1655770Y1364798D01*
X1654500Y1365646D01*
Y1365946D01*
X1653967Y1367233D01*
X1652983Y1368217D01*
X1651696Y1368750D01*
X1650304D01*
X1649420Y1369341D01*
Y1369756D01*
X1648887Y1371043D01*
X1647903Y1372027D01*
X1646616Y1372560D01*
D02*
G37*
G36*
X1706711Y1364075D02*
X1705319D01*
X1704033Y1363542D01*
X1703048Y1362558D01*
X1702515Y1361271D01*
Y1359879D01*
X1703048Y1358593D01*
X1704033Y1357608D01*
X1705319Y1357075D01*
X1706711D01*
X1707998Y1357608D01*
X1708982Y1358593D01*
X1709515Y1359879D01*
Y1361271D01*
X1708982Y1362558D01*
X1707998Y1363542D01*
X1706711Y1364075D01*
D02*
G37*
G36*
X1861239Y1363663D02*
X1859847D01*
X1858560Y1363130D01*
X1857576Y1362146D01*
X1857043Y1360859D01*
Y1359467D01*
X1857576Y1358180D01*
X1858560Y1357196D01*
X1859847Y1356663D01*
X1861239D01*
X1862526Y1357196D01*
X1863510Y1358180D01*
X1864043Y1359467D01*
Y1360859D01*
X1863510Y1362146D01*
X1862526Y1363130D01*
X1861239Y1363663D01*
D02*
G37*
G36*
X1675826Y1361130D02*
X1674434D01*
X1673147Y1360597D01*
X1672163Y1359613D01*
X1671630Y1358326D01*
Y1356934D01*
X1672163Y1355647D01*
X1673147Y1354663D01*
X1674434Y1354130D01*
X1675826D01*
X1677113Y1354663D01*
X1678097Y1355647D01*
X1678630Y1356934D01*
Y1358326D01*
X1678097Y1359613D01*
X1677113Y1360597D01*
X1675826Y1361130D01*
D02*
G37*
G36*
X1797746Y1359860D02*
X1796354D01*
X1795067Y1359327D01*
X1794083Y1358343D01*
X1793550Y1357056D01*
Y1355664D01*
X1794083Y1354377D01*
X1795067Y1353393D01*
X1796354Y1352860D01*
X1797746D01*
X1799033Y1353393D01*
X1800017Y1354377D01*
X1800550Y1355664D01*
Y1357056D01*
X1800017Y1358343D01*
X1799033Y1359327D01*
X1797746Y1359860D01*
D02*
G37*
G36*
X1759646Y1354780D02*
X1758254D01*
X1756967Y1354247D01*
X1755983Y1353263D01*
X1755566Y1352257D01*
X1754573Y1352043D01*
X1754219Y1352071D01*
X1753320Y1352970D01*
X1752033Y1353503D01*
X1750641D01*
X1749354Y1352970D01*
X1748370Y1351986D01*
X1747837Y1350699D01*
Y1349307D01*
X1748370Y1348020D01*
X1749354Y1347036D01*
X1750641Y1346503D01*
X1752033D01*
X1753320Y1347036D01*
X1754304Y1348020D01*
X1754721Y1349026D01*
X1755714Y1349240D01*
X1756068Y1349212D01*
X1756967Y1348313D01*
X1758254Y1347780D01*
X1759646D01*
X1760933Y1348313D01*
X1761917Y1349297D01*
X1762450Y1350584D01*
Y1351976D01*
X1761917Y1353263D01*
X1760933Y1354247D01*
X1759646Y1354780D01*
D02*
G37*
G36*
X1550096Y1352240D02*
X1548704D01*
X1547417Y1351707D01*
X1546433Y1350723D01*
X1545900Y1349436D01*
Y1348044D01*
X1546433Y1346757D01*
X1547417Y1345773D01*
X1548704Y1345240D01*
X1550096D01*
X1551383Y1345773D01*
X1552367Y1346757D01*
X1552900Y1348044D01*
Y1349436D01*
X1552367Y1350723D01*
X1551383Y1351707D01*
X1550096Y1352240D01*
D02*
G37*
G36*
X1732983Y1352233D02*
X1731591D01*
X1730304Y1351700D01*
X1729320Y1350716D01*
X1728787Y1349429D01*
Y1348037D01*
X1729320Y1346750D01*
X1730304Y1345766D01*
X1731591Y1345233D01*
X1732983D01*
X1734270Y1345766D01*
X1735254Y1346750D01*
X1735787Y1348037D01*
Y1349429D01*
X1735254Y1350716D01*
X1734270Y1351700D01*
X1732983Y1352233D01*
D02*
G37*
G36*
X1892996Y1349700D02*
X1891604D01*
X1890317Y1349167D01*
X1889333Y1348183D01*
X1888800Y1346896D01*
Y1345504D01*
X1889333Y1344217D01*
X1890317Y1343233D01*
X1891604Y1342700D01*
X1892996D01*
X1894283Y1343233D01*
X1895267Y1344217D01*
X1895800Y1345504D01*
Y1346896D01*
X1895267Y1348183D01*
X1894283Y1349167D01*
X1892996Y1349700D01*
D02*
G37*
G36*
X2182070Y1359110D02*
X2163870D01*
Y1340910D01*
X2182070D01*
Y1359110D01*
D02*
G37*
G36*
X1647886Y1347160D02*
X1646494D01*
X1645207Y1346627D01*
X1644223Y1345643D01*
X1643690Y1344356D01*
Y1342964D01*
X1644223Y1341677D01*
X1645207Y1340693D01*
X1646494Y1340160D01*
X1647886D01*
X1649173Y1340693D01*
X1650157Y1341677D01*
X1650690Y1342964D01*
Y1344356D01*
X1650157Y1345643D01*
X1649173Y1346627D01*
X1647886Y1347160D01*
D02*
G37*
G36*
X1826956Y1345890D02*
X1825564D01*
X1824277Y1345357D01*
X1823293Y1344373D01*
X1822760Y1343086D01*
Y1341694D01*
X1823293Y1340407D01*
X1824277Y1339423D01*
X1825564Y1338890D01*
X1826956D01*
X1828243Y1339423D01*
X1829227Y1340407D01*
X1829760Y1341694D01*
Y1343086D01*
X1829227Y1344373D01*
X1828243Y1345357D01*
X1826956Y1345890D01*
D02*
G37*
G36*
X1453576Y1340810D02*
X1452184D01*
X1450897Y1340277D01*
X1449913Y1339293D01*
X1449380Y1338006D01*
Y1336614D01*
X1449913Y1335327D01*
X1450897Y1334343D01*
X1452184Y1333810D01*
X1453576D01*
X1454863Y1334343D01*
X1455847Y1335327D01*
X1456380Y1336614D01*
Y1338006D01*
X1455847Y1339293D01*
X1454863Y1340277D01*
X1453576Y1340810D01*
D02*
G37*
G36*
X1502285Y1339077D02*
X1500892D01*
X1499606Y1338545D01*
X1498622Y1337560D01*
X1498089Y1336274D01*
Y1334881D01*
X1498622Y1333595D01*
X1499606Y1332610D01*
X1500892Y1332077D01*
X1502285D01*
X1503571Y1332610D01*
X1504556Y1333595D01*
X1505089Y1334881D01*
Y1336274D01*
X1504556Y1337560D01*
X1503571Y1338545D01*
X1502285Y1339077D01*
D02*
G37*
G36*
X1799016Y1338270D02*
X1797624D01*
X1796337Y1337737D01*
X1795353Y1336753D01*
X1794820Y1335466D01*
Y1334074D01*
X1795353Y1332787D01*
X1796337Y1331803D01*
X1797624Y1331270D01*
X1799016D01*
X1800303Y1331803D01*
X1801287Y1332787D01*
X1801820Y1334074D01*
Y1335466D01*
X1801287Y1336753D01*
X1800303Y1337737D01*
X1799016Y1338270D01*
D02*
G37*
G36*
X1674556Y1325570D02*
X1673164D01*
X1671877Y1325037D01*
X1670893Y1324053D01*
X1670360Y1322766D01*
Y1321374D01*
X1670893Y1320087D01*
X1671877Y1319103D01*
X1673164Y1318570D01*
X1674556D01*
X1675843Y1319103D01*
X1676827Y1320087D01*
X1677360Y1321374D01*
Y1322766D01*
X1676827Y1324053D01*
X1675843Y1325037D01*
X1674556Y1325570D01*
D02*
G37*
G36*
X1711385Y1323922D02*
X1709993D01*
X1708706Y1323389D01*
X1707722Y1322405D01*
X1707189Y1321118D01*
Y1319726D01*
X1707722Y1318439D01*
X1708706Y1317455D01*
X1709993Y1316922D01*
X1711385D01*
X1712671Y1317455D01*
X1713656Y1318439D01*
X1714189Y1319726D01*
Y1321118D01*
X1713656Y1322405D01*
X1712671Y1323389D01*
X1711385Y1323922D01*
D02*
G37*
G36*
X1599626Y1321760D02*
X1598234D01*
X1596947Y1321227D01*
X1595963Y1320243D01*
X1595430Y1318956D01*
Y1317564D01*
X1595963Y1316277D01*
X1596947Y1315293D01*
X1598234Y1314760D01*
X1599626D01*
X1600913Y1315293D01*
X1601897Y1316277D01*
X1602430Y1317564D01*
Y1318956D01*
X1601897Y1320243D01*
X1600913Y1321227D01*
X1599626Y1321760D01*
D02*
G37*
G36*
X1420556Y1319220D02*
X1419164D01*
X1417877Y1318687D01*
X1416893Y1317703D01*
X1416360Y1316416D01*
Y1315024D01*
X1416893Y1313737D01*
X1417877Y1312753D01*
X1419164Y1312220D01*
X1420556D01*
X1421843Y1312753D01*
X1422827Y1313737D01*
X1423360Y1315024D01*
Y1316416D01*
X1422827Y1317703D01*
X1421843Y1318687D01*
X1420556Y1319220D01*
D02*
G37*
G36*
X1524061Y1319100D02*
X1522669D01*
X1521382Y1318567D01*
X1520398Y1317583D01*
X1519865Y1316296D01*
Y1314904D01*
X1520398Y1313617D01*
X1521382Y1312633D01*
X1522669Y1312100D01*
X1524061D01*
X1525348Y1312633D01*
X1526332Y1313617D01*
X1526865Y1314904D01*
Y1316296D01*
X1526332Y1317583D01*
X1525348Y1318567D01*
X1524061Y1319100D01*
D02*
G37*
G36*
X2182070Y1324820D02*
X2163870D01*
Y1306620D01*
X2182070D01*
Y1324820D01*
D02*
G37*
G36*
X1599626Y1312870D02*
X1598234D01*
X1596947Y1312337D01*
X1595963Y1311353D01*
X1595430Y1310066D01*
Y1308674D01*
X1595963Y1307387D01*
X1596947Y1306403D01*
X1598234Y1305870D01*
X1599626D01*
X1600913Y1306403D01*
X1601897Y1307387D01*
X1602430Y1308674D01*
Y1310066D01*
X1601897Y1311353D01*
X1600913Y1312337D01*
X1599626Y1312870D01*
D02*
G37*
G36*
X1825531Y1318129D02*
X1824139D01*
X1822853Y1317596D01*
X1821868Y1316612D01*
X1821335Y1315325D01*
Y1313933D01*
X1821868Y1312647D01*
X1822592Y1311922D01*
X1821783Y1311113D01*
X1821250Y1309826D01*
Y1308434D01*
X1821783Y1307147D01*
X1822767Y1306163D01*
X1824054Y1305630D01*
X1825446D01*
X1826733Y1306163D01*
X1827717Y1307147D01*
X1828250Y1308434D01*
Y1309826D01*
X1827717Y1311113D01*
X1826993Y1311837D01*
X1827802Y1312647D01*
X1828335Y1313933D01*
Y1315325D01*
X1827802Y1316612D01*
X1826818Y1317596D01*
X1825531Y1318129D01*
D02*
G37*
G36*
X1784142Y1311234D02*
X1782749D01*
X1781463Y1310702D01*
X1780479Y1309717D01*
X1779946Y1308431D01*
Y1307038D01*
X1780479Y1305752D01*
X1781463Y1304767D01*
X1782749Y1304234D01*
X1784142D01*
X1785428Y1304767D01*
X1786413Y1305752D01*
X1786946Y1307038D01*
Y1308431D01*
X1786413Y1309717D01*
X1785428Y1310702D01*
X1784142Y1311234D01*
D02*
G37*
G36*
X1674556Y1307210D02*
X1673164D01*
X1671877Y1306677D01*
X1670893Y1305693D01*
X1670360Y1304406D01*
Y1303014D01*
X1670893Y1301727D01*
X1671877Y1300743D01*
X1673164Y1300210D01*
X1674556D01*
X1675843Y1300743D01*
X1676827Y1301727D01*
X1677360Y1303014D01*
Y1304406D01*
X1676827Y1305693D01*
X1675843Y1306677D01*
X1674556Y1307210D01*
D02*
G37*
G36*
X1588947Y1298381D02*
X1587555D01*
X1586269Y1297849D01*
X1585284Y1296864D01*
X1584751Y1295578D01*
Y1294185D01*
X1585284Y1292899D01*
X1586269Y1291914D01*
X1587555Y1291381D01*
X1588947D01*
X1590234Y1291914D01*
X1591219Y1292899D01*
X1591751Y1294185D01*
Y1295578D01*
X1591219Y1296864D01*
X1590234Y1297849D01*
X1588947Y1298381D01*
D02*
G37*
G36*
X1795206Y1292550D02*
X1793814D01*
X1792527Y1292017D01*
X1791543Y1291033D01*
X1791010Y1289746D01*
Y1288354D01*
X1791543Y1287067D01*
X1792527Y1286083D01*
X1793814Y1285550D01*
X1795206D01*
X1796493Y1286083D01*
X1797477Y1287067D01*
X1798010Y1288354D01*
Y1289746D01*
X1797477Y1291033D01*
X1796493Y1292017D01*
X1795206Y1292550D01*
D02*
G37*
G36*
X1830678Y1303129D02*
X1829286D01*
X1827999Y1302596D01*
X1827015Y1301612D01*
X1826482Y1300325D01*
Y1298933D01*
X1827015Y1297647D01*
X1827826Y1296836D01*
X1827103Y1296113D01*
X1826570Y1294826D01*
Y1293605D01*
X1825816Y1292805D01*
X1825606Y1292630D01*
X1824214D01*
X1822927Y1292097D01*
X1821943Y1291113D01*
X1821410Y1289826D01*
Y1288434D01*
X1821943Y1287147D01*
X1822927Y1286163D01*
X1824214Y1285630D01*
X1825606D01*
X1826852Y1286146D01*
X1827007Y1286075D01*
X1827912Y1285386D01*
X1827680Y1284826D01*
Y1283434D01*
X1828025Y1282601D01*
X1826948Y1281881D01*
X1826733Y1282097D01*
X1825446Y1282630D01*
X1824054D01*
X1822767Y1282097D01*
X1821783Y1281113D01*
X1821250Y1279826D01*
Y1278434D01*
X1821783Y1277147D01*
X1822767Y1276163D01*
X1824054Y1275630D01*
X1825446D01*
X1826733Y1276163D01*
X1827063Y1276493D01*
X1828326Y1276644D01*
X1828626Y1276397D01*
X1829357Y1275665D01*
X1830644Y1275132D01*
X1832036D01*
X1833323Y1275665D01*
X1834307Y1276650D01*
X1834840Y1277936D01*
Y1279329D01*
X1834307Y1280615D01*
X1833461Y1281461D01*
X1834147Y1282147D01*
X1834680Y1283434D01*
Y1284826D01*
X1834147Y1286113D01*
X1833163Y1287097D01*
X1831876Y1287630D01*
X1830484D01*
X1829238Y1287114D01*
X1829083Y1287185D01*
X1828178Y1287874D01*
X1828410Y1288434D01*
Y1289655D01*
X1829164Y1290455D01*
X1829374Y1290630D01*
X1830766D01*
X1832053Y1291163D01*
X1833037Y1292147D01*
X1833570Y1293434D01*
Y1294826D01*
X1833037Y1296113D01*
X1832226Y1296924D01*
X1832949Y1297647D01*
X1833482Y1298933D01*
Y1300325D01*
X1832949Y1301612D01*
X1831965Y1302596D01*
X1830678Y1303129D01*
D02*
G37*
G36*
X2174168Y1299420D02*
X2171772D01*
X2169458Y1298800D01*
X2167383Y1297602D01*
X2165688Y1295907D01*
X2164490Y1293833D01*
X2163870Y1291518D01*
Y1289122D01*
X2164490Y1286808D01*
X2165688Y1284733D01*
X2167383Y1283038D01*
X2169458Y1281840D01*
X2171772Y1281220D01*
X2174168D01*
X2176483Y1281840D01*
X2178557Y1283038D01*
X2180252Y1284733D01*
X2181450Y1286808D01*
X2182070Y1289122D01*
Y1291518D01*
X2181450Y1293833D01*
X2180252Y1295907D01*
X2178557Y1297602D01*
X2176483Y1298800D01*
X2174168Y1299420D01*
D02*
G37*
G36*
X1589473Y1286207D02*
X1588081D01*
X1586794Y1285674D01*
X1585810Y1284690D01*
X1585277Y1283403D01*
Y1282011D01*
X1585810Y1280724D01*
X1586794Y1279740D01*
X1588081Y1279207D01*
X1589473D01*
X1590760Y1279740D01*
X1591744Y1280724D01*
X1592277Y1282011D01*
Y1283403D01*
X1591744Y1284690D01*
X1590760Y1285674D01*
X1589473Y1286207D01*
D02*
G37*
G36*
X1892996Y1273500D02*
X1891604D01*
X1890317Y1272967D01*
X1889333Y1271983D01*
X1888800Y1270696D01*
Y1269304D01*
X1889333Y1268017D01*
X1890317Y1267033D01*
X1891604Y1266500D01*
X1892996D01*
X1894283Y1267033D01*
X1895267Y1268017D01*
X1895800Y1269304D01*
Y1270696D01*
X1895267Y1271983D01*
X1894283Y1272967D01*
X1892996Y1273500D01*
D02*
G37*
G36*
X1670746Y1287630D02*
X1669354D01*
X1668067Y1287097D01*
X1667083Y1286113D01*
X1666550Y1284827D01*
Y1283434D01*
X1667083Y1282148D01*
X1668067Y1281163D01*
X1669354Y1280630D01*
X1670746D01*
X1672033Y1281163D01*
X1672997Y1282127D01*
X1673200Y1282128D01*
X1674332Y1282003D01*
X1674703Y1281107D01*
X1675285Y1280525D01*
X1675553Y1279720D01*
X1675285Y1278915D01*
X1674703Y1278333D01*
X1674170Y1277046D01*
Y1275654D01*
X1674703Y1274367D01*
X1675066Y1274005D01*
X1675563Y1273175D01*
X1675066Y1272345D01*
X1674703Y1271983D01*
X1674170Y1270696D01*
Y1269304D01*
X1673348Y1267970D01*
X1673147Y1267887D01*
X1672163Y1266903D01*
X1671630Y1265616D01*
Y1264224D01*
X1672163Y1262937D01*
X1673147Y1261953D01*
X1674434Y1261420D01*
X1675826D01*
X1677113Y1261953D01*
X1678097Y1262937D01*
X1678630Y1264224D01*
Y1265616D01*
X1679452Y1266950D01*
X1679653Y1267033D01*
X1680637Y1268017D01*
X1681170Y1269304D01*
Y1270696D01*
X1680637Y1271983D01*
X1680274Y1272345D01*
X1679777Y1273175D01*
X1680274Y1274005D01*
X1680637Y1274367D01*
X1681170Y1275654D01*
Y1277046D01*
X1680637Y1278333D01*
X1680055Y1278915D01*
X1679787Y1279720D01*
X1680055Y1280525D01*
X1680637Y1281107D01*
X1681170Y1282394D01*
Y1283786D01*
X1680637Y1285073D01*
X1679653Y1286057D01*
X1678366Y1286590D01*
X1676974D01*
X1675687Y1286057D01*
X1674723Y1285093D01*
X1674520Y1285093D01*
X1673388Y1285217D01*
X1673017Y1286113D01*
X1672033Y1287097D01*
X1670746Y1287630D01*
D02*
G37*
G36*
X1350407Y1270900D02*
X1348093D01*
X1345857Y1270301D01*
X1343853Y1269144D01*
X1342216Y1267507D01*
X1341059Y1265503D01*
X1340460Y1263267D01*
Y1260953D01*
X1341059Y1258717D01*
X1342216Y1256713D01*
X1343853Y1255076D01*
X1345857Y1253919D01*
X1348093Y1253320D01*
X1350407D01*
X1352643Y1253919D01*
X1354647Y1255076D01*
X1356284Y1256713D01*
X1357441Y1258717D01*
X1358040Y1260953D01*
Y1263267D01*
X1357441Y1265503D01*
X1356284Y1267507D01*
X1354647Y1269144D01*
X1352643Y1270301D01*
X1350407Y1270900D01*
D02*
G37*
G36*
X1302907D02*
X1300593D01*
X1298357Y1270301D01*
X1296353Y1269144D01*
X1294716Y1267507D01*
X1293559Y1265503D01*
X1292960Y1263267D01*
Y1260953D01*
X1293559Y1258717D01*
X1294716Y1256713D01*
X1296353Y1255076D01*
X1298357Y1253919D01*
X1300593Y1253320D01*
X1302907D01*
X1305143Y1253919D01*
X1307147Y1255076D01*
X1308784Y1256713D01*
X1309941Y1258717D01*
X1310540Y1260953D01*
Y1263267D01*
X1309941Y1265503D01*
X1308784Y1267507D01*
X1307147Y1269144D01*
X1305143Y1270301D01*
X1302907Y1270900D01*
D02*
G37*
G36*
X1618676Y1258260D02*
X1617284D01*
X1615997Y1257727D01*
X1615013Y1256743D01*
X1614480Y1255456D01*
Y1254064D01*
X1615013Y1252777D01*
X1615997Y1251793D01*
X1617284Y1251260D01*
X1618676D01*
X1619963Y1251793D01*
X1620947Y1252777D01*
X1621480Y1254064D01*
Y1255456D01*
X1620947Y1256743D01*
X1619963Y1257727D01*
X1618676Y1258260D01*
D02*
G37*
G36*
X1677096Y1254450D02*
X1675704D01*
X1674417Y1253917D01*
X1673433Y1252933D01*
X1672900Y1251646D01*
Y1250254D01*
X1673433Y1248967D01*
X1674417Y1247983D01*
X1675704Y1247450D01*
X1677096D01*
X1678383Y1247983D01*
X1679367Y1248967D01*
X1679900Y1250254D01*
Y1251646D01*
X1679367Y1252933D01*
X1678383Y1253917D01*
X1677096Y1254450D01*
D02*
G37*
G36*
X1729166Y1251910D02*
X1727774D01*
X1726487Y1251377D01*
X1725503Y1250393D01*
X1724970Y1249106D01*
Y1247714D01*
X1725315Y1246881D01*
X1724238Y1246161D01*
X1724103Y1246297D01*
X1722816Y1246830D01*
X1721424D01*
X1720137Y1246297D01*
X1719153Y1245313D01*
X1718620Y1244026D01*
Y1242634D01*
X1719153Y1241347D01*
X1720137Y1240363D01*
X1721424Y1239830D01*
X1722816D01*
X1724103Y1240363D01*
X1725087Y1241347D01*
X1725620Y1242634D01*
Y1244026D01*
X1725275Y1244859D01*
X1726352Y1245579D01*
X1726487Y1245443D01*
X1727774Y1244910D01*
X1729166D01*
X1730453Y1245443D01*
X1731437Y1246427D01*
X1731970Y1247714D01*
Y1249106D01*
X1731437Y1250393D01*
X1730453Y1251377D01*
X1729166Y1251910D01*
D02*
G37*
G36*
X1715196D02*
X1713804D01*
X1712517Y1251377D01*
X1711533Y1250393D01*
X1711000Y1249106D01*
Y1247714D01*
X1711533Y1246427D01*
X1712517Y1245443D01*
X1713804Y1244910D01*
X1715196D01*
X1716483Y1245443D01*
X1717467Y1246427D01*
X1718000Y1247714D01*
Y1249106D01*
X1717467Y1250393D01*
X1716483Y1251377D01*
X1715196Y1251910D01*
D02*
G37*
G36*
X1706564Y1249923D02*
X1705171D01*
X1703885Y1249390D01*
X1702900Y1248406D01*
X1702367Y1247119D01*
Y1245727D01*
X1702900Y1244440D01*
X1703885Y1243456D01*
X1705171Y1242923D01*
X1706564D01*
X1707850Y1243456D01*
X1708835Y1244440D01*
X1709367Y1245727D01*
Y1247119D01*
X1708835Y1248406D01*
X1707850Y1249390D01*
X1706564Y1249923D01*
D02*
G37*
G36*
X1599626Y1248680D02*
X1598234D01*
X1596947Y1248147D01*
X1595963Y1247163D01*
X1595430Y1245876D01*
Y1244484D01*
X1595963Y1243197D01*
X1596947Y1242213D01*
X1598234Y1241680D01*
X1599626D01*
X1600913Y1242213D01*
X1601897Y1243197D01*
X1602430Y1244484D01*
Y1245876D01*
X1601897Y1247163D01*
X1600913Y1248147D01*
X1599626Y1248680D01*
D02*
G37*
G36*
X1649156Y1248100D02*
X1647764D01*
X1646477Y1247567D01*
X1645493Y1246583D01*
X1644960Y1245296D01*
Y1243904D01*
X1645493Y1242617D01*
X1646477Y1241633D01*
X1646419Y1240282D01*
X1646230Y1239826D01*
Y1238434D01*
X1646763Y1237147D01*
X1647747Y1236163D01*
X1649034Y1235630D01*
X1650426D01*
X1651713Y1236163D01*
X1652697Y1237147D01*
X1653230Y1238434D01*
Y1239826D01*
X1652697Y1241113D01*
X1651713Y1242097D01*
X1651771Y1243448D01*
X1651960Y1243904D01*
Y1245296D01*
X1651427Y1246583D01*
X1650443Y1247567D01*
X1649156Y1248100D01*
D02*
G37*
G36*
X1604706Y1240590D02*
X1603314D01*
X1602027Y1240057D01*
X1601043Y1239073D01*
X1600510Y1237786D01*
Y1236394D01*
X1601043Y1235107D01*
X1602027Y1234123D01*
X1603314Y1233590D01*
X1604706D01*
X1605993Y1234123D01*
X1606977Y1235107D01*
X1607510Y1236394D01*
Y1237786D01*
X1606977Y1239073D01*
X1605993Y1240057D01*
X1604706Y1240590D01*
D02*
G37*
G36*
X1786316Y1240480D02*
X1784924D01*
X1783637Y1239947D01*
X1782653Y1238963D01*
X1782120Y1237676D01*
Y1236284D01*
X1782653Y1234997D01*
X1782751Y1234899D01*
X1782503Y1233653D01*
X1782367Y1233597D01*
X1781383Y1232613D01*
X1780850Y1231326D01*
Y1229934D01*
X1781383Y1228647D01*
X1782367Y1227663D01*
X1783654Y1227130D01*
X1785046D01*
X1786333Y1227663D01*
X1787317Y1228647D01*
X1787850Y1229934D01*
Y1231326D01*
X1787317Y1232613D01*
X1787219Y1232711D01*
X1787467Y1233957D01*
X1787603Y1234013D01*
X1788587Y1234997D01*
X1789120Y1236284D01*
Y1237676D01*
X1788587Y1238963D01*
X1787603Y1239947D01*
X1786316Y1240480D01*
D02*
G37*
G36*
X1689796Y1231590D02*
X1688404D01*
X1687117Y1231057D01*
X1686133Y1230073D01*
X1685600Y1228786D01*
Y1227394D01*
X1686133Y1226107D01*
X1687117Y1225123D01*
X1688404Y1224590D01*
X1689796D01*
X1691083Y1225123D01*
X1692067Y1226107D01*
X1692600Y1227394D01*
Y1228786D01*
X1692067Y1230073D01*
X1691083Y1231057D01*
X1689796Y1231590D01*
D02*
G37*
G36*
X1733056Y1225630D02*
X1731664D01*
X1730377Y1225097D01*
X1729393Y1224113D01*
X1728860Y1222826D01*
Y1221434D01*
X1729393Y1220147D01*
X1730377Y1219163D01*
X1731664Y1218630D01*
X1733056D01*
X1734343Y1219163D01*
X1735327Y1220147D01*
X1735860Y1221434D01*
Y1222826D01*
X1735327Y1224113D01*
X1734343Y1225097D01*
X1733056Y1225630D01*
D02*
G37*
G36*
X1849816Y1220160D02*
X1848424D01*
X1847137Y1219627D01*
X1846153Y1218643D01*
X1845620Y1217356D01*
Y1215964D01*
X1846153Y1214677D01*
X1847137Y1213693D01*
X1848424Y1213160D01*
X1849816D01*
X1851103Y1213693D01*
X1852087Y1214677D01*
X1852620Y1215964D01*
Y1217356D01*
X1852087Y1218643D01*
X1851103Y1219627D01*
X1849816Y1220160D01*
D02*
G37*
G36*
X1738056Y1207460D02*
X1736664D01*
X1735377Y1206927D01*
X1734393Y1205943D01*
X1733860Y1204656D01*
Y1203264D01*
X1734393Y1201977D01*
X1735377Y1200993D01*
X1736664Y1200460D01*
X1738056D01*
X1739343Y1200993D01*
X1740327Y1201977D01*
X1740860Y1203264D01*
Y1204656D01*
X1740327Y1205943D01*
X1739343Y1206927D01*
X1738056Y1207460D01*
D02*
G37*
G36*
X1849815Y1206191D02*
X1848423D01*
X1847136Y1205658D01*
X1846152Y1204674D01*
X1845619Y1203387D01*
Y1201995D01*
X1846152Y1200709D01*
X1847136Y1199724D01*
X1848423Y1199191D01*
X1849815D01*
X1851101Y1199724D01*
X1852086Y1200709D01*
X1852619Y1201995D01*
Y1203387D01*
X1852086Y1204674D01*
X1851101Y1205658D01*
X1849815Y1206191D01*
D02*
G37*
G36*
X1689796Y1196030D02*
X1688404D01*
X1687117Y1195497D01*
X1686133Y1194513D01*
X1685600Y1193226D01*
Y1191834D01*
X1686133Y1190547D01*
X1687117Y1189563D01*
X1688404Y1189030D01*
X1689796D01*
X1691083Y1189563D01*
X1692067Y1190547D01*
X1692600Y1191834D01*
Y1193226D01*
X1692067Y1194513D01*
X1691083Y1195497D01*
X1689796Y1196030D01*
D02*
G37*
G36*
X1792673Y1194753D02*
X1791281D01*
X1789994Y1194220D01*
X1789010Y1193236D01*
X1788477Y1191949D01*
Y1190557D01*
X1789010Y1189270D01*
X1789994Y1188286D01*
X1791281Y1187753D01*
X1792673D01*
X1793960Y1188286D01*
X1794944Y1189270D01*
X1795477Y1190557D01*
Y1191949D01*
X1794944Y1193236D01*
X1793960Y1194220D01*
X1792673Y1194753D01*
D02*
G37*
G36*
X1333329Y1189450D02*
X1331131D01*
X1329007Y1188881D01*
X1327103Y1187782D01*
X1325548Y1186227D01*
X1324449Y1184323D01*
X1323880Y1182199D01*
Y1180001D01*
X1324449Y1177877D01*
X1325548Y1175973D01*
X1327103Y1174418D01*
X1329007Y1173319D01*
X1331131Y1172750D01*
X1333329D01*
X1335453Y1173319D01*
X1337357Y1174418D01*
X1338912Y1175973D01*
X1340011Y1177877D01*
X1340580Y1180001D01*
Y1182199D01*
X1340011Y1184323D01*
X1338912Y1186227D01*
X1337357Y1187782D01*
X1335453Y1188881D01*
X1333329Y1189450D01*
D02*
G37*
G36*
X1307929D02*
X1305731D01*
X1303607Y1188881D01*
X1301703Y1187782D01*
X1300148Y1186227D01*
X1299049Y1184323D01*
X1298480Y1182199D01*
Y1180001D01*
X1299049Y1177877D01*
X1300148Y1175973D01*
X1301703Y1174418D01*
X1303607Y1173319D01*
X1305731Y1172750D01*
X1307929D01*
X1310053Y1173319D01*
X1311957Y1174418D01*
X1313512Y1175973D01*
X1314611Y1177877D01*
X1315180Y1180001D01*
Y1182199D01*
X1314611Y1184323D01*
X1313512Y1186227D01*
X1311957Y1187782D01*
X1310053Y1188881D01*
X1307929Y1189450D01*
D02*
G37*
G36*
X1875216Y1169360D02*
X1873824D01*
X1872537Y1168827D01*
X1871553Y1167843D01*
X1871020Y1166556D01*
Y1165164D01*
X1871553Y1163877D01*
X1872537Y1162893D01*
X1873824Y1162360D01*
X1875216D01*
X1876503Y1162893D01*
X1877487Y1163877D01*
X1878020Y1165164D01*
Y1166556D01*
X1877487Y1167843D01*
X1876503Y1168827D01*
X1875216Y1169360D01*
D02*
G37*
G36*
X1767266D02*
X1765874D01*
X1764587Y1168827D01*
X1763603Y1167843D01*
X1763070Y1166556D01*
Y1165164D01*
X1763603Y1163877D01*
X1764587Y1162893D01*
X1765874Y1162360D01*
X1767266D01*
X1768553Y1162893D01*
X1769537Y1163877D01*
X1770070Y1165164D01*
Y1166556D01*
X1769537Y1167843D01*
X1768553Y1168827D01*
X1767266Y1169360D01*
D02*
G37*
G36*
X1746946D02*
X1745554D01*
X1744267Y1168827D01*
X1743283Y1167843D01*
X1742750Y1166556D01*
Y1165164D01*
X1743283Y1163877D01*
X1744267Y1162893D01*
X1745554Y1162360D01*
X1746946D01*
X1748233Y1162893D01*
X1749217Y1163877D01*
X1749750Y1165164D01*
Y1166556D01*
X1749217Y1167843D01*
X1748233Y1168827D01*
X1746946Y1169360D01*
D02*
G37*
G36*
X1804096Y1168090D02*
X1802704D01*
X1801417Y1167557D01*
X1800433Y1166573D01*
X1799900Y1165286D01*
Y1163894D01*
X1800433Y1162607D01*
X1801417Y1161623D01*
X1802704Y1161090D01*
X1804096D01*
X1805383Y1161623D01*
X1806367Y1162607D01*
X1806900Y1163894D01*
Y1165286D01*
X1806367Y1166573D01*
X1805383Y1167557D01*
X1804096Y1168090D01*
D02*
G37*
G36*
X1788856D02*
X1787464D01*
X1786177Y1167557D01*
X1785193Y1166573D01*
X1784660Y1165286D01*
Y1163894D01*
X1785193Y1162607D01*
X1786177Y1161623D01*
X1787464Y1161090D01*
X1788856D01*
X1790143Y1161623D01*
X1791127Y1162607D01*
X1791660Y1163894D01*
Y1165286D01*
X1791127Y1166573D01*
X1790143Y1167557D01*
X1788856Y1168090D01*
D02*
G37*
G36*
X1333329Y1164050D02*
X1331131D01*
X1329007Y1163481D01*
X1327103Y1162382D01*
X1325548Y1160827D01*
X1324449Y1158923D01*
X1323880Y1156799D01*
Y1154601D01*
X1324449Y1152477D01*
X1325548Y1150573D01*
X1327103Y1149018D01*
X1329007Y1147919D01*
X1331131Y1147350D01*
X1333329D01*
X1335453Y1147919D01*
X1337357Y1149018D01*
X1338912Y1150573D01*
X1340011Y1152477D01*
X1340580Y1154601D01*
Y1156799D01*
X1340011Y1158923D01*
X1338912Y1160827D01*
X1337357Y1162382D01*
X1335453Y1163481D01*
X1333329Y1164050D01*
D02*
G37*
G36*
X1307929D02*
X1305731D01*
X1303607Y1163481D01*
X1301703Y1162382D01*
X1300148Y1160827D01*
X1299049Y1158923D01*
X1298480Y1156799D01*
Y1154601D01*
X1299049Y1152477D01*
X1300148Y1150573D01*
X1301703Y1149018D01*
X1303607Y1147919D01*
X1305731Y1147350D01*
X1307929D01*
X1310053Y1147919D01*
X1311957Y1149018D01*
X1313512Y1150573D01*
X1314611Y1152477D01*
X1315180Y1154601D01*
Y1156799D01*
X1314611Y1158923D01*
X1313512Y1160827D01*
X1311957Y1162382D01*
X1310053Y1163481D01*
X1307929Y1164050D01*
D02*
G37*
G36*
X1791396Y1143960D02*
X1790004D01*
X1788717Y1143427D01*
X1787733Y1142443D01*
X1787200Y1141156D01*
Y1139764D01*
X1787733Y1138477D01*
X1788717Y1137493D01*
X1790004Y1136960D01*
X1791396D01*
X1792683Y1137493D01*
X1793667Y1138477D01*
X1794200Y1139764D01*
Y1141156D01*
X1793667Y1142443D01*
X1792683Y1143427D01*
X1791396Y1143960D01*
D02*
G37*
G36*
X1333329Y1138650D02*
X1331131D01*
X1329007Y1138081D01*
X1327103Y1136982D01*
X1325548Y1135427D01*
X1324449Y1133523D01*
X1323880Y1131399D01*
Y1129201D01*
X1324449Y1127077D01*
X1325548Y1125173D01*
X1327103Y1123618D01*
X1329007Y1122519D01*
X1331131Y1121950D01*
X1333329D01*
X1335453Y1122519D01*
X1337357Y1123618D01*
X1338912Y1125173D01*
X1340011Y1127077D01*
X1340580Y1129201D01*
Y1131399D01*
X1340011Y1133523D01*
X1338912Y1135427D01*
X1337357Y1136982D01*
X1335453Y1138081D01*
X1333329Y1138650D01*
D02*
G37*
G36*
X1307929D02*
X1305731D01*
X1303607Y1138081D01*
X1301703Y1136982D01*
X1300148Y1135427D01*
X1299049Y1133523D01*
X1298480Y1131399D01*
Y1129201D01*
X1299049Y1127077D01*
X1300148Y1125173D01*
X1301703Y1123618D01*
X1303607Y1122519D01*
X1305731Y1121950D01*
X1307929D01*
X1310053Y1122519D01*
X1311957Y1123618D01*
X1313512Y1125173D01*
X1314611Y1127077D01*
X1315180Y1129201D01*
Y1131399D01*
X1314611Y1133523D01*
X1313512Y1135427D01*
X1311957Y1136982D01*
X1310053Y1138081D01*
X1307929Y1138650D01*
D02*
G37*
G36*
X1826956Y1127599D02*
X1825564D01*
X1824277Y1127066D01*
X1823293Y1126081D01*
X1822760Y1124795D01*
Y1123403D01*
X1823293Y1122116D01*
X1824277Y1121132D01*
X1825564Y1120599D01*
X1826956D01*
X1828243Y1121132D01*
X1829227Y1122116D01*
X1829760Y1123403D01*
Y1124795D01*
X1829227Y1126081D01*
X1828243Y1127066D01*
X1826956Y1127599D01*
D02*
G37*
G36*
X1612326Y1126760D02*
X1610934D01*
X1609647Y1126227D01*
X1608663Y1125243D01*
X1608130Y1123956D01*
Y1122564D01*
X1608663Y1121277D01*
X1609647Y1120293D01*
X1610934Y1119760D01*
X1612326D01*
X1613613Y1120293D01*
X1614597Y1121277D01*
X1615130Y1122564D01*
Y1123956D01*
X1614597Y1125243D01*
X1613613Y1126227D01*
X1612326Y1126760D01*
D02*
G37*
G36*
X1909506Y1124910D02*
X1908114D01*
X1906827Y1124377D01*
X1905843Y1123393D01*
X1905310Y1122106D01*
Y1120714D01*
X1905843Y1119427D01*
X1906827Y1118443D01*
X1908114Y1117910D01*
X1909506D01*
X1910793Y1118443D01*
X1911777Y1119427D01*
X1912310Y1120714D01*
Y1122106D01*
X1911777Y1123393D01*
X1910793Y1124377D01*
X1909506Y1124910D01*
D02*
G37*
G36*
X1651696Y1118560D02*
X1650304D01*
X1649017Y1118027D01*
X1648033Y1117043D01*
X1647500Y1115756D01*
Y1114364D01*
X1648033Y1113077D01*
X1649017Y1112093D01*
X1650304Y1111560D01*
X1651696D01*
X1652983Y1112093D01*
X1653967Y1113077D01*
X1654500Y1114364D01*
Y1115756D01*
X1653967Y1117043D01*
X1652983Y1118027D01*
X1651696Y1118560D01*
D02*
G37*
G36*
X1612326Y1114750D02*
X1610934D01*
X1609647Y1114217D01*
X1608663Y1113233D01*
X1608130Y1111946D01*
Y1110554D01*
X1608663Y1109267D01*
X1609647Y1108283D01*
X1610934Y1107750D01*
X1612326D01*
X1613613Y1108283D01*
X1614597Y1109267D01*
X1615130Y1110554D01*
Y1111946D01*
X1614597Y1113233D01*
X1613613Y1114217D01*
X1612326Y1114750D01*
D02*
G37*
G36*
X1825679Y1107123D02*
X1824287D01*
X1823000Y1106590D01*
X1822016Y1105606D01*
X1821483Y1104319D01*
Y1102927D01*
X1822016Y1101640D01*
X1823000Y1100656D01*
X1824287Y1100123D01*
X1825679D01*
X1826966Y1100656D01*
X1827950Y1101640D01*
X1828483Y1102927D01*
Y1104319D01*
X1827950Y1105606D01*
X1826966Y1106590D01*
X1825679Y1107123D01*
D02*
G37*
G36*
X1730436Y1105860D02*
X1729044D01*
X1727757Y1105327D01*
X1726773Y1104343D01*
X1726240Y1103056D01*
Y1101664D01*
X1726773Y1100377D01*
X1727757Y1099393D01*
X1729044Y1098860D01*
X1730436D01*
X1731723Y1099393D01*
X1732707Y1100377D01*
X1733240Y1101664D01*
Y1103056D01*
X1732707Y1104343D01*
X1731723Y1105327D01*
X1730436Y1105860D01*
D02*
G37*
G36*
X1333329Y1113250D02*
X1331131D01*
X1329007Y1112681D01*
X1327103Y1111582D01*
X1325548Y1110027D01*
X1324449Y1108123D01*
X1323880Y1105999D01*
Y1103801D01*
X1324449Y1101677D01*
X1325548Y1099773D01*
X1327103Y1098218D01*
X1329007Y1097119D01*
X1331131Y1096550D01*
X1333329D01*
X1335453Y1097119D01*
X1337357Y1098218D01*
X1338912Y1099773D01*
X1340011Y1101677D01*
X1340580Y1103801D01*
Y1105999D01*
X1340011Y1108123D01*
X1338912Y1110027D01*
X1337357Y1111582D01*
X1335453Y1112681D01*
X1333329Y1113250D01*
D02*
G37*
G36*
X1307929D02*
X1305731D01*
X1303607Y1112681D01*
X1301703Y1111582D01*
X1300148Y1110027D01*
X1299049Y1108123D01*
X1298480Y1105999D01*
Y1103801D01*
X1299049Y1101677D01*
X1300148Y1099773D01*
X1301703Y1098218D01*
X1303607Y1097119D01*
X1305731Y1096550D01*
X1307929D01*
X1310053Y1097119D01*
X1311957Y1098218D01*
X1313512Y1099773D01*
X1314611Y1101677D01*
X1315180Y1103801D01*
Y1105999D01*
X1314611Y1108123D01*
X1313512Y1110027D01*
X1311957Y1111582D01*
X1310053Y1112681D01*
X1307929Y1113250D01*
D02*
G37*
G36*
X1651696Y1103320D02*
X1650304D01*
X1649017Y1102787D01*
X1648033Y1101803D01*
X1647500Y1100516D01*
Y1099124D01*
X1648033Y1097837D01*
X1649017Y1096853D01*
X1650304Y1096320D01*
X1651696D01*
X1652983Y1096853D01*
X1653967Y1097837D01*
X1654500Y1099124D01*
Y1100516D01*
X1653967Y1101803D01*
X1652983Y1102787D01*
X1651696Y1103320D01*
D02*
G37*
G36*
X1673286Y1102050D02*
X1671894D01*
X1670607Y1101517D01*
X1669623Y1100533D01*
X1669090Y1099246D01*
Y1097854D01*
X1669623Y1096567D01*
X1670607Y1095583D01*
X1671894Y1095050D01*
X1673286D01*
X1674573Y1095583D01*
X1675557Y1096567D01*
X1676090Y1097854D01*
Y1099246D01*
X1675557Y1100533D01*
X1674573Y1101517D01*
X1673286Y1102050D01*
D02*
G37*
G36*
X1891726Y1096970D02*
X1890334D01*
X1889047Y1096437D01*
X1888063Y1095453D01*
X1887530Y1094166D01*
Y1092774D01*
X1888063Y1091487D01*
X1889047Y1090503D01*
X1890334Y1089970D01*
X1891726D01*
X1893013Y1090503D01*
X1893997Y1091487D01*
X1894530Y1092774D01*
Y1094166D01*
X1893997Y1095453D01*
X1893013Y1096437D01*
X1891726Y1096970D01*
D02*
G37*
G36*
X1826956Y1093160D02*
X1825564D01*
X1824277Y1092627D01*
X1823293Y1091643D01*
X1822760Y1090356D01*
Y1088964D01*
X1823293Y1087677D01*
X1824277Y1086693D01*
X1825564Y1086160D01*
X1826956D01*
X1828243Y1086693D01*
X1829227Y1087677D01*
X1829760Y1088964D01*
Y1090356D01*
X1829227Y1091643D01*
X1828243Y1092627D01*
X1826956Y1093160D01*
D02*
G37*
G36*
X1730436D02*
X1729044D01*
X1727757Y1092627D01*
X1726773Y1091643D01*
X1726240Y1090356D01*
Y1088964D01*
X1726773Y1087677D01*
X1727757Y1086693D01*
X1729044Y1086160D01*
X1730436D01*
X1731723Y1086693D01*
X1732707Y1087677D01*
X1733240Y1088964D01*
Y1090356D01*
X1732707Y1091643D01*
X1731723Y1092627D01*
X1730436Y1093160D01*
D02*
G37*
G36*
X1909506Y1084270D02*
X1908114D01*
X1906827Y1083737D01*
X1905843Y1082753D01*
X1905310Y1081466D01*
Y1080074D01*
X1905843Y1078787D01*
X1906827Y1077803D01*
X1908114Y1077270D01*
X1909506D01*
X1910793Y1077803D01*
X1911777Y1078787D01*
X1912310Y1080074D01*
Y1081466D01*
X1911777Y1082753D01*
X1910793Y1083737D01*
X1909506Y1084270D01*
D02*
G37*
G36*
X1730436Y1080460D02*
X1729044D01*
X1727757Y1079927D01*
X1726773Y1078943D01*
X1726240Y1077656D01*
Y1076264D01*
X1726773Y1074977D01*
X1727757Y1073993D01*
X1729044Y1073460D01*
X1730436D01*
X1731723Y1073993D01*
X1732707Y1074977D01*
X1733240Y1076264D01*
Y1077656D01*
X1732707Y1078943D01*
X1731723Y1079927D01*
X1730436Y1080460D01*
D02*
G37*
G36*
X1333329Y1087850D02*
X1331131D01*
X1329007Y1087281D01*
X1327103Y1086182D01*
X1325548Y1084627D01*
X1324449Y1082723D01*
X1323880Y1080599D01*
Y1078401D01*
X1324449Y1076277D01*
X1325548Y1074373D01*
X1327103Y1072818D01*
X1329007Y1071719D01*
X1331131Y1071150D01*
X1333329D01*
X1335453Y1071719D01*
X1337357Y1072818D01*
X1338912Y1074373D01*
X1340011Y1076277D01*
X1340580Y1078401D01*
Y1080599D01*
X1340011Y1082723D01*
X1338912Y1084627D01*
X1337357Y1086182D01*
X1335453Y1087281D01*
X1333329Y1087850D01*
D02*
G37*
G36*
X1307929D02*
X1305731D01*
X1303607Y1087281D01*
X1301703Y1086182D01*
X1300148Y1084627D01*
X1299049Y1082723D01*
X1298480Y1080599D01*
Y1078401D01*
X1299049Y1076277D01*
X1300148Y1074373D01*
X1301703Y1072818D01*
X1303607Y1071719D01*
X1305731Y1071150D01*
X1307929D01*
X1310053Y1071719D01*
X1311957Y1072818D01*
X1313512Y1074373D01*
X1314611Y1076277D01*
X1315180Y1078401D01*
Y1080599D01*
X1314611Y1082723D01*
X1313512Y1084627D01*
X1311957Y1086182D01*
X1310053Y1087281D01*
X1307929Y1087850D01*
D02*
G37*
G36*
X1826955Y1077921D02*
X1825563D01*
X1824276Y1077388D01*
X1823292Y1076404D01*
X1822759Y1075117D01*
Y1073725D01*
X1823292Y1072439D01*
X1824276Y1071454D01*
X1825563Y1070921D01*
X1826955D01*
X1828241Y1071454D01*
X1829226Y1072439D01*
X1829759Y1073725D01*
Y1075117D01*
X1829226Y1076404D01*
X1828241Y1077388D01*
X1826955Y1077921D01*
D02*
G37*
G36*
X1621216Y1077920D02*
X1619824D01*
X1618537Y1077387D01*
X1617553Y1076403D01*
X1617020Y1075116D01*
Y1073724D01*
X1617553Y1072437D01*
X1618537Y1071453D01*
X1619824Y1070920D01*
X1621216D01*
X1622503Y1071453D01*
X1623487Y1072437D01*
X1624020Y1073724D01*
Y1075116D01*
X1623487Y1076403D01*
X1622503Y1077387D01*
X1621216Y1077920D01*
D02*
G37*
G36*
X1909506Y1074110D02*
X1908114D01*
X1906827Y1073577D01*
X1905843Y1072593D01*
X1905310Y1071306D01*
Y1069914D01*
X1905843Y1068627D01*
X1906827Y1067643D01*
X1908114Y1067110D01*
X1909506D01*
X1910793Y1067643D01*
X1911777Y1068627D01*
X1912310Y1069914D01*
Y1071306D01*
X1911777Y1072593D01*
X1910793Y1073577D01*
X1909506Y1074110D01*
D02*
G37*
G36*
X1891726Y1072840D02*
X1890334D01*
X1889047Y1072307D01*
X1888063Y1071323D01*
X1887530Y1070036D01*
Y1068644D01*
X1888063Y1067357D01*
X1889047Y1066373D01*
X1890334Y1065840D01*
X1891726D01*
X1893013Y1066373D01*
X1893997Y1067357D01*
X1894530Y1068644D01*
Y1070036D01*
X1893997Y1071323D01*
X1893013Y1072307D01*
X1891726Y1072840D01*
D02*
G37*
G36*
X1730436Y1067760D02*
X1729044D01*
X1727757Y1067227D01*
X1726773Y1066243D01*
X1726240Y1064956D01*
Y1063564D01*
X1726773Y1062277D01*
X1727757Y1061293D01*
X1729044Y1060760D01*
X1730436D01*
X1731723Y1061293D01*
X1732707Y1062277D01*
X1733240Y1063564D01*
Y1064956D01*
X1732707Y1066243D01*
X1731723Y1067227D01*
X1730436Y1067760D01*
D02*
G37*
G36*
X1589466Y1065220D02*
X1588074D01*
X1586787Y1064687D01*
X1585803Y1063703D01*
X1585270Y1062416D01*
Y1061024D01*
X1585803Y1059737D01*
X1586787Y1058753D01*
X1588074Y1058220D01*
X1589466D01*
X1590753Y1058753D01*
X1591737Y1059737D01*
X1592270Y1061024D01*
Y1062416D01*
X1591737Y1063703D01*
X1590753Y1064687D01*
X1589466Y1065220D01*
D02*
G37*
G36*
X1826956Y1062680D02*
X1825564D01*
X1824277Y1062147D01*
X1823293Y1061163D01*
X1822760Y1059876D01*
Y1058484D01*
X1823293Y1057197D01*
X1824277Y1056213D01*
X1825564Y1055680D01*
X1826956D01*
X1828243Y1056213D01*
X1829227Y1057197D01*
X1829760Y1058484D01*
Y1059876D01*
X1829227Y1061163D01*
X1828243Y1062147D01*
X1826956Y1062680D01*
D02*
G37*
G36*
X1705036Y1059020D02*
X1703644D01*
X1702357Y1058487D01*
X1701373Y1057503D01*
X1700840Y1056216D01*
Y1054824D01*
X1701373Y1053537D01*
X1702357Y1052553D01*
X1703644Y1052020D01*
X1705036D01*
X1706322Y1052553D01*
X1707307Y1053537D01*
X1707840Y1054824D01*
Y1056216D01*
X1707307Y1057503D01*
X1706322Y1058487D01*
X1705036Y1059020D01*
D02*
G37*
G36*
X1333329Y1062450D02*
X1331131D01*
X1329007Y1061881D01*
X1327103Y1060782D01*
X1325548Y1059227D01*
X1324449Y1057323D01*
X1323880Y1055199D01*
Y1053001D01*
X1324449Y1050877D01*
X1325548Y1048973D01*
X1327103Y1047418D01*
X1329007Y1046319D01*
X1331131Y1045750D01*
X1333329D01*
X1335453Y1046319D01*
X1337357Y1047418D01*
X1338912Y1048973D01*
X1340011Y1050877D01*
X1340580Y1053001D01*
Y1055199D01*
X1340011Y1057323D01*
X1338912Y1059227D01*
X1337357Y1060782D01*
X1335453Y1061881D01*
X1333329Y1062450D01*
D02*
G37*
G36*
X1307929D02*
X1305731D01*
X1303607Y1061881D01*
X1301703Y1060782D01*
X1300148Y1059227D01*
X1299049Y1057323D01*
X1298480Y1055199D01*
Y1053001D01*
X1299049Y1050877D01*
X1300148Y1048973D01*
X1301703Y1047418D01*
X1303607Y1046319D01*
X1305731Y1045750D01*
X1307929D01*
X1310053Y1046319D01*
X1311957Y1047418D01*
X1313512Y1048973D01*
X1314611Y1050877D01*
X1315180Y1053001D01*
Y1055199D01*
X1314611Y1057323D01*
X1313512Y1059227D01*
X1311957Y1060782D01*
X1310053Y1061881D01*
X1307929Y1062450D01*
D02*
G37*
G36*
X1589466Y1052520D02*
X1588074D01*
X1586787Y1051987D01*
X1585803Y1051003D01*
X1585270Y1049716D01*
Y1048324D01*
X1585803Y1047037D01*
X1586787Y1046053D01*
X1588074Y1045520D01*
X1589466D01*
X1590753Y1046053D01*
X1591737Y1047037D01*
X1592270Y1048324D01*
Y1049716D01*
X1591737Y1051003D01*
X1590753Y1051987D01*
X1589466Y1052520D01*
D02*
G37*
G36*
X1697416Y1046320D02*
X1696024D01*
X1694737Y1045787D01*
X1693753Y1044803D01*
X1693220Y1043516D01*
Y1042124D01*
X1693753Y1040837D01*
X1694737Y1039853D01*
X1696024Y1039320D01*
X1697416D01*
X1698703Y1039853D01*
X1699687Y1040837D01*
X1699843Y1041212D01*
X1701217D01*
X1701373Y1040837D01*
X1702357Y1039853D01*
X1703644Y1039320D01*
X1705036D01*
X1706322Y1039853D01*
X1707307Y1040837D01*
X1707840Y1042124D01*
Y1043516D01*
X1707307Y1044803D01*
X1706322Y1045787D01*
X1705036Y1046320D01*
X1703644D01*
X1702357Y1045787D01*
X1701373Y1044803D01*
X1701217Y1044427D01*
X1699843D01*
X1699687Y1044803D01*
X1698703Y1045787D01*
X1697416Y1046320D01*
D02*
G37*
G36*
X1792666Y1034740D02*
X1791273D01*
X1789987Y1034207D01*
X1789002Y1033222D01*
X1788470Y1031936D01*
Y1030543D01*
X1789002Y1029257D01*
X1789987Y1028272D01*
X1791273Y1027740D01*
X1792666D01*
X1793952Y1028272D01*
X1794937Y1029257D01*
X1795470Y1030543D01*
Y1031936D01*
X1794937Y1033222D01*
X1793952Y1034207D01*
X1792666Y1034740D01*
D02*
G37*
G36*
X1333329Y1037050D02*
X1331131D01*
X1329007Y1036481D01*
X1327103Y1035382D01*
X1325548Y1033827D01*
X1324449Y1031923D01*
X1323880Y1029799D01*
Y1027601D01*
X1324449Y1025477D01*
X1325548Y1023573D01*
X1327103Y1022018D01*
X1329007Y1020919D01*
X1331131Y1020350D01*
X1333329D01*
X1335453Y1020919D01*
X1337357Y1022018D01*
X1338912Y1023573D01*
X1340011Y1025477D01*
X1340580Y1027601D01*
Y1029799D01*
X1340011Y1031923D01*
X1338912Y1033827D01*
X1337357Y1035382D01*
X1335453Y1036481D01*
X1333329Y1037050D01*
D02*
G37*
G36*
X1315180D02*
X1298480D01*
Y1020350D01*
X1315180D01*
Y1037050D01*
D02*
G37*
G36*
X1434746Y962350D02*
X1433354D01*
X1432067Y961817D01*
X1431083Y960833D01*
X1430550Y959546D01*
Y958154D01*
X1431083Y956867D01*
X1432067Y955883D01*
X1433354Y955350D01*
X1434746D01*
X1436033Y955883D01*
X1437017Y956867D01*
X1437550Y958154D01*
Y959546D01*
X1437017Y960833D01*
X1436033Y961817D01*
X1434746Y962350D01*
D02*
G37*
G36*
X1741866Y957270D02*
X1740474D01*
X1739187Y956737D01*
X1738203Y955753D01*
X1737670Y954466D01*
Y953074D01*
X1738203Y951787D01*
X1739187Y950803D01*
X1740474Y950270D01*
X1741866D01*
X1743153Y950803D01*
X1744137Y951787D01*
X1744670Y953074D01*
Y954466D01*
X1744137Y955753D01*
X1743153Y956737D01*
X1741866Y957270D01*
D02*
G37*
G36*
X2088696Y949650D02*
X2087304D01*
X2086017Y949117D01*
X2085033Y948133D01*
X2084500Y946846D01*
Y945454D01*
X2085033Y944167D01*
X2086017Y943183D01*
X2087304Y942650D01*
X2088696D01*
X2089983Y943183D01*
X2090967Y944167D01*
X2091500Y945454D01*
Y946846D01*
X2090967Y948133D01*
X2089983Y949117D01*
X2088696Y949650D01*
D02*
G37*
G36*
X1524806Y931870D02*
X1523414D01*
X1522127Y931337D01*
X1521143Y930353D01*
X1520610Y929066D01*
Y927674D01*
X1521143Y926387D01*
X1522127Y925403D01*
X1523414Y924870D01*
X1524806D01*
X1526093Y925403D01*
X1527077Y926387D01*
X1527610Y927674D01*
Y929066D01*
X1527077Y930353D01*
X1526093Y931337D01*
X1524806Y931870D01*
D02*
G37*
G36*
X1456106Y931180D02*
X1454714D01*
X1453427Y930647D01*
X1452443Y929663D01*
X1451910Y928376D01*
Y926984D01*
X1452443Y925697D01*
X1453427Y924713D01*
X1454714Y924180D01*
X1456106D01*
X1457393Y924713D01*
X1458377Y925697D01*
X1458910Y926984D01*
Y928376D01*
X1458377Y929663D01*
X1457393Y930647D01*
X1456106Y931180D01*
D02*
G37*
G36*
X1381176Y906470D02*
X1379784D01*
X1378497Y905937D01*
X1377513Y904953D01*
X1376980Y903666D01*
Y902274D01*
X1377513Y900987D01*
X1378497Y900003D01*
X1379784Y899470D01*
X1381176D01*
X1382463Y900003D01*
X1383447Y900987D01*
X1383980Y902274D01*
Y903666D01*
X1383447Y904953D01*
X1382463Y905937D01*
X1381176Y906470D01*
D02*
G37*
G36*
X1627556Y898850D02*
X1626164D01*
X1624877Y898317D01*
X1623893Y897333D01*
X1623360Y896046D01*
Y894654D01*
X1623893Y893367D01*
X1624877Y892383D01*
X1626164Y891850D01*
X1627556D01*
X1628843Y892383D01*
X1629827Y893367D01*
X1630360Y894654D01*
Y896046D01*
X1629827Y897333D01*
X1628843Y898317D01*
X1627556Y898850D01*
D02*
G37*
G36*
X1575496Y889960D02*
X1574104D01*
X1572817Y889427D01*
X1571833Y888443D01*
X1571300Y887156D01*
Y885764D01*
X1571833Y884477D01*
X1572817Y883493D01*
X1574104Y882960D01*
X1575496D01*
X1576783Y883493D01*
X1577767Y884477D01*
X1578300Y885764D01*
Y887156D01*
X1577767Y888443D01*
X1576783Y889427D01*
X1575496Y889960D01*
D02*
G37*
G36*
X1604696Y877260D02*
X1603304D01*
X1602017Y876727D01*
X1601033Y875743D01*
X1600500Y874456D01*
Y873064D01*
X1601033Y871777D01*
X1602017Y870793D01*
X1603304Y870260D01*
X1604696D01*
X1605983Y870793D01*
X1606967Y871777D01*
X1607500Y873064D01*
Y874456D01*
X1606967Y875743D01*
X1605983Y876727D01*
X1604696Y877260D01*
D02*
G37*
G36*
X1599616Y865599D02*
X1598224D01*
X1596937Y865066D01*
X1595953Y864082D01*
X1595420Y862795D01*
Y861403D01*
X1595953Y860117D01*
X1596937Y859132D01*
X1598224Y858599D01*
X1599616D01*
X1600903Y859132D01*
X1601887Y860117D01*
X1602420Y861403D01*
Y862795D01*
X1601887Y864082D01*
X1600903Y865066D01*
X1599616Y865599D01*
D02*
G37*
G36*
X1341816Y848050D02*
X1340424D01*
X1339137Y847517D01*
X1338153Y846533D01*
X1337620Y845246D01*
Y843854D01*
X1338153Y842567D01*
X1339137Y841583D01*
X1340424Y841050D01*
X1341816D01*
X1343103Y841583D01*
X1344087Y842567D01*
X1344620Y843854D01*
Y845246D01*
X1344087Y846533D01*
X1343103Y847517D01*
X1341816Y848050D01*
D02*
G37*
G36*
X1541206Y840430D02*
X1539814D01*
X1538527Y839897D01*
X1537543Y838913D01*
X1537010Y837626D01*
Y836234D01*
X1537543Y834947D01*
X1538527Y833963D01*
X1539814Y833430D01*
X1541206D01*
X1542493Y833963D01*
X1543477Y834947D01*
X1544010Y836234D01*
Y837626D01*
X1543477Y838913D01*
X1542493Y839897D01*
X1541206Y840430D01*
D02*
G37*
G36*
X1332730Y830073D02*
X1331337D01*
X1330051Y829541D01*
X1329066Y828556D01*
X1328533Y827270D01*
Y825877D01*
X1329066Y824591D01*
X1330051Y823606D01*
X1331337Y823073D01*
X1332730D01*
X1334016Y823606D01*
X1335001Y824591D01*
X1335533Y825877D01*
Y827270D01*
X1335001Y828556D01*
X1334016Y829541D01*
X1332730Y830073D01*
D02*
G37*
G36*
X1334196Y815030D02*
X1332804D01*
X1331517Y814497D01*
X1330533Y813513D01*
X1330000Y812226D01*
Y810834D01*
X1330533Y809547D01*
X1331517Y808563D01*
X1332804Y808030D01*
X1334196D01*
X1335483Y808563D01*
X1336467Y809547D01*
X1337000Y810834D01*
Y812226D01*
X1336467Y813513D01*
X1335483Y814497D01*
X1334196Y815030D01*
D02*
G37*
G36*
X1456661Y815950D02*
X1454159D01*
X1451743Y815303D01*
X1449577Y814052D01*
X1447808Y812283D01*
X1446557Y810117D01*
X1445910Y807701D01*
Y805199D01*
X1446557Y802783D01*
X1447808Y800617D01*
X1449577Y798848D01*
X1451743Y797597D01*
X1454159Y796950D01*
X1456661D01*
X1459077Y797597D01*
X1461243Y798848D01*
X1463012Y800617D01*
X1464263Y802783D01*
X1464910Y805199D01*
Y807701D01*
X1464263Y810117D01*
X1463012Y812283D01*
X1461243Y814052D01*
X1459077Y815303D01*
X1456661Y815950D01*
D02*
G37*
G36*
X1945686Y811700D02*
X1943634D01*
X1941653Y811169D01*
X1939877Y810144D01*
X1938427Y808693D01*
X1937401Y806917D01*
X1936870Y804936D01*
Y802884D01*
X1937401Y800903D01*
X1938427Y799127D01*
X1939877Y797676D01*
X1941653Y796651D01*
X1943634Y796120D01*
X1945686D01*
X1947667Y796651D01*
X1949443Y797676D01*
X1950894Y799127D01*
X1951919Y800903D01*
X1952450Y802884D01*
Y804936D01*
X1951919Y806917D01*
X1950894Y808693D01*
X1949443Y810144D01*
X1947667Y811169D01*
X1945686Y811700D01*
D02*
G37*
G36*
X1925686D02*
X1923634D01*
X1921653Y811169D01*
X1919877Y810144D01*
X1918427Y808693D01*
X1917401Y806917D01*
X1916870Y804936D01*
Y802884D01*
X1917401Y800903D01*
X1918427Y799127D01*
X1919877Y797676D01*
X1921653Y796651D01*
X1923634Y796120D01*
X1925686D01*
X1927667Y796651D01*
X1929443Y797676D01*
X1930894Y799127D01*
X1931919Y800903D01*
X1932450Y802884D01*
Y804936D01*
X1931919Y806917D01*
X1930894Y808693D01*
X1929443Y810144D01*
X1927667Y811169D01*
X1925686Y811700D01*
D02*
G37*
G36*
X1905686D02*
X1903634D01*
X1901653Y811169D01*
X1899877Y810144D01*
X1898427Y808693D01*
X1897401Y806917D01*
X1896870Y804936D01*
Y802884D01*
X1897401Y800903D01*
X1898427Y799127D01*
X1899877Y797676D01*
X1901653Y796651D01*
X1903634Y796120D01*
X1905686D01*
X1907667Y796651D01*
X1909443Y797676D01*
X1910894Y799127D01*
X1911919Y800903D01*
X1912450Y802884D01*
Y804936D01*
X1911919Y806917D01*
X1910894Y808693D01*
X1909443Y810144D01*
X1907667Y811169D01*
X1905686Y811700D01*
D02*
G37*
G36*
X1885686D02*
X1883634D01*
X1881653Y811169D01*
X1879877Y810144D01*
X1878427Y808693D01*
X1877401Y806917D01*
X1876870Y804936D01*
Y802884D01*
X1877401Y800903D01*
X1878427Y799127D01*
X1879877Y797676D01*
X1881653Y796651D01*
X1883634Y796120D01*
X1885686D01*
X1887667Y796651D01*
X1889443Y797676D01*
X1890894Y799127D01*
X1891919Y800903D01*
X1892450Y802884D01*
Y804936D01*
X1891919Y806917D01*
X1890894Y808693D01*
X1889443Y810144D01*
X1887667Y811169D01*
X1885686Y811700D01*
D02*
G37*
G36*
X1865686D02*
X1863634D01*
X1861653Y811169D01*
X1859877Y810144D01*
X1858427Y808693D01*
X1857401Y806917D01*
X1856870Y804936D01*
Y802884D01*
X1857401Y800903D01*
X1858427Y799127D01*
X1859877Y797676D01*
X1861653Y796651D01*
X1863634Y796120D01*
X1865686D01*
X1867667Y796651D01*
X1869443Y797676D01*
X1870894Y799127D01*
X1871919Y800903D01*
X1872450Y802884D01*
Y804936D01*
X1871919Y806917D01*
X1870894Y808693D01*
X1869443Y810144D01*
X1867667Y811169D01*
X1865686Y811700D01*
D02*
G37*
G36*
X1845686D02*
X1843634D01*
X1841653Y811169D01*
X1839877Y810144D01*
X1838427Y808693D01*
X1837401Y806917D01*
X1836870Y804936D01*
Y802884D01*
X1837401Y800903D01*
X1838427Y799127D01*
X1839877Y797676D01*
X1841653Y796651D01*
X1843634Y796120D01*
X1845686D01*
X1847667Y796651D01*
X1849443Y797676D01*
X1850894Y799127D01*
X1851919Y800903D01*
X1852450Y802884D01*
Y804936D01*
X1851919Y806917D01*
X1850894Y808693D01*
X1849443Y810144D01*
X1847667Y811169D01*
X1845686Y811700D01*
D02*
G37*
G36*
X1825686D02*
X1823634D01*
X1821653Y811169D01*
X1819877Y810144D01*
X1818427Y808693D01*
X1817401Y806917D01*
X1816870Y804936D01*
Y802884D01*
X1817401Y800903D01*
X1818427Y799127D01*
X1819877Y797676D01*
X1821653Y796651D01*
X1823634Y796120D01*
X1825686D01*
X1827667Y796651D01*
X1829443Y797676D01*
X1830894Y799127D01*
X1831919Y800903D01*
X1832450Y802884D01*
Y804936D01*
X1831919Y806917D01*
X1830894Y808693D01*
X1829443Y810144D01*
X1827667Y811169D01*
X1825686Y811700D01*
D02*
G37*
G36*
X1805686D02*
X1803634D01*
X1801653Y811169D01*
X1799877Y810144D01*
X1798427Y808693D01*
X1797401Y806917D01*
X1796870Y804936D01*
Y802884D01*
X1797401Y800903D01*
X1798427Y799127D01*
X1799877Y797676D01*
X1801653Y796651D01*
X1803634Y796120D01*
X1805686D01*
X1807667Y796651D01*
X1809443Y797676D01*
X1810894Y799127D01*
X1811919Y800903D01*
X1812450Y802884D01*
Y804936D01*
X1811919Y806917D01*
X1810894Y808693D01*
X1809443Y810144D01*
X1807667Y811169D01*
X1805686Y811700D01*
D02*
G37*
G36*
X1785686D02*
X1783634D01*
X1781653Y811169D01*
X1779877Y810144D01*
X1778427Y808693D01*
X1777401Y806917D01*
X1776870Y804936D01*
Y802884D01*
X1777401Y800903D01*
X1778427Y799127D01*
X1779877Y797676D01*
X1781653Y796651D01*
X1783634Y796120D01*
X1785686D01*
X1787667Y796651D01*
X1789443Y797676D01*
X1790894Y799127D01*
X1791919Y800903D01*
X1792450Y802884D01*
Y804936D01*
X1791919Y806917D01*
X1790894Y808693D01*
X1789443Y810144D01*
X1787667Y811169D01*
X1785686Y811700D01*
D02*
G37*
G36*
X1765686D02*
X1763634D01*
X1761653Y811169D01*
X1759877Y810144D01*
X1758427Y808693D01*
X1757401Y806917D01*
X1756870Y804936D01*
Y802884D01*
X1757401Y800903D01*
X1758427Y799127D01*
X1759877Y797676D01*
X1761653Y796651D01*
X1763634Y796120D01*
X1765686D01*
X1767667Y796651D01*
X1769443Y797676D01*
X1770894Y799127D01*
X1771919Y800903D01*
X1772450Y802884D01*
Y804936D01*
X1771919Y806917D01*
X1770894Y808693D01*
X1769443Y810144D01*
X1767667Y811169D01*
X1765686Y811700D01*
D02*
G37*
G36*
X1745686D02*
X1743634D01*
X1741653Y811169D01*
X1739877Y810144D01*
X1738427Y808693D01*
X1737401Y806917D01*
X1736870Y804936D01*
Y802884D01*
X1737401Y800903D01*
X1738427Y799127D01*
X1739877Y797676D01*
X1741653Y796651D01*
X1743634Y796120D01*
X1745686D01*
X1747667Y796651D01*
X1749443Y797676D01*
X1750894Y799127D01*
X1751919Y800903D01*
X1752450Y802884D01*
Y804936D01*
X1751919Y806917D01*
X1750894Y808693D01*
X1749443Y810144D01*
X1747667Y811169D01*
X1745686Y811700D01*
D02*
G37*
G36*
X1725686D02*
X1723634D01*
X1721653Y811169D01*
X1719877Y810144D01*
X1718427Y808693D01*
X1717401Y806917D01*
X1716870Y804936D01*
Y802884D01*
X1717401Y800903D01*
X1718427Y799127D01*
X1719877Y797676D01*
X1721653Y796651D01*
X1723634Y796120D01*
X1725686D01*
X1727667Y796651D01*
X1729443Y797676D01*
X1730894Y799127D01*
X1731919Y800903D01*
X1732450Y802884D01*
Y804936D01*
X1731919Y806917D01*
X1730894Y808693D01*
X1729443Y810144D01*
X1727667Y811169D01*
X1725686Y811700D01*
D02*
G37*
G36*
X1705686D02*
X1703634D01*
X1701653Y811169D01*
X1699877Y810144D01*
X1698427Y808693D01*
X1697401Y806917D01*
X1696870Y804936D01*
Y802884D01*
X1697401Y800903D01*
X1698427Y799127D01*
X1699877Y797676D01*
X1701653Y796651D01*
X1703634Y796120D01*
X1705686D01*
X1707667Y796651D01*
X1709443Y797676D01*
X1710894Y799127D01*
X1711919Y800903D01*
X1712450Y802884D01*
Y804936D01*
X1711919Y806917D01*
X1710894Y808693D01*
X1709443Y810144D01*
X1707667Y811169D01*
X1705686Y811700D01*
D02*
G37*
G36*
X1685686D02*
X1683634D01*
X1681653Y811169D01*
X1679877Y810144D01*
X1678427Y808693D01*
X1677401Y806917D01*
X1676870Y804936D01*
Y802884D01*
X1677401Y800903D01*
X1678427Y799127D01*
X1679877Y797676D01*
X1681653Y796651D01*
X1683634Y796120D01*
X1685686D01*
X1687667Y796651D01*
X1689443Y797676D01*
X1690894Y799127D01*
X1691919Y800903D01*
X1692450Y802884D01*
Y804936D01*
X1691919Y806917D01*
X1690894Y808693D01*
X1689443Y810144D01*
X1687667Y811169D01*
X1685686Y811700D01*
D02*
G37*
G36*
X1665686D02*
X1663634D01*
X1661653Y811169D01*
X1659877Y810144D01*
X1658427Y808693D01*
X1657401Y806917D01*
X1656870Y804936D01*
Y802884D01*
X1657401Y800903D01*
X1658427Y799127D01*
X1659877Y797676D01*
X1661653Y796651D01*
X1663634Y796120D01*
X1665686D01*
X1667667Y796651D01*
X1669443Y797676D01*
X1670894Y799127D01*
X1671919Y800903D01*
X1672450Y802884D01*
Y804936D01*
X1671919Y806917D01*
X1670894Y808693D01*
X1669443Y810144D01*
X1667667Y811169D01*
X1665686Y811700D01*
D02*
G37*
G36*
X1645686D02*
X1643634D01*
X1641653Y811169D01*
X1639877Y810144D01*
X1638427Y808693D01*
X1637401Y806917D01*
X1636870Y804936D01*
Y802884D01*
X1637401Y800903D01*
X1638427Y799127D01*
X1639877Y797676D01*
X1641653Y796651D01*
X1643634Y796120D01*
X1645686D01*
X1647667Y796651D01*
X1649443Y797676D01*
X1650894Y799127D01*
X1651919Y800903D01*
X1652450Y802884D01*
Y804936D01*
X1651919Y806917D01*
X1650894Y808693D01*
X1649443Y810144D01*
X1647667Y811169D01*
X1645686Y811700D01*
D02*
G37*
G36*
X1625686D02*
X1623634D01*
X1621653Y811169D01*
X1619877Y810144D01*
X1618427Y808693D01*
X1617401Y806917D01*
X1616870Y804936D01*
Y802884D01*
X1617401Y800903D01*
X1618427Y799127D01*
X1619877Y797676D01*
X1621653Y796651D01*
X1623634Y796120D01*
X1625686D01*
X1627667Y796651D01*
X1629443Y797676D01*
X1630894Y799127D01*
X1631919Y800903D01*
X1632450Y802884D01*
Y804936D01*
X1631919Y806917D01*
X1630894Y808693D01*
X1629443Y810144D01*
X1627667Y811169D01*
X1625686Y811700D01*
D02*
G37*
G36*
X1605686D02*
X1603634D01*
X1601653Y811169D01*
X1599877Y810144D01*
X1598427Y808693D01*
X1597401Y806917D01*
X1596870Y804936D01*
Y802884D01*
X1597401Y800903D01*
X1598427Y799127D01*
X1599877Y797676D01*
X1601653Y796651D01*
X1603634Y796120D01*
X1605686D01*
X1607667Y796651D01*
X1609443Y797676D01*
X1610894Y799127D01*
X1611919Y800903D01*
X1612450Y802884D01*
Y804936D01*
X1611919Y806917D01*
X1610894Y808693D01*
X1609443Y810144D01*
X1607667Y811169D01*
X1605686Y811700D01*
D02*
G37*
G36*
X1585686D02*
X1583634D01*
X1581653Y811169D01*
X1579877Y810144D01*
X1578427Y808693D01*
X1577401Y806917D01*
X1576870Y804936D01*
Y802884D01*
X1577401Y800903D01*
X1578427Y799127D01*
X1579877Y797676D01*
X1581653Y796651D01*
X1583634Y796120D01*
X1585686D01*
X1587667Y796651D01*
X1589443Y797676D01*
X1590894Y799127D01*
X1591919Y800903D01*
X1592450Y802884D01*
Y804936D01*
X1591919Y806917D01*
X1590894Y808693D01*
X1589443Y810144D01*
X1587667Y811169D01*
X1585686Y811700D01*
D02*
G37*
G36*
X1565686D02*
X1563634D01*
X1561653Y811169D01*
X1559877Y810144D01*
X1558427Y808693D01*
X1557401Y806917D01*
X1556870Y804936D01*
Y802884D01*
X1557401Y800903D01*
X1558427Y799127D01*
X1559877Y797676D01*
X1561653Y796651D01*
X1563634Y796120D01*
X1565686D01*
X1567667Y796651D01*
X1569443Y797676D01*
X1570894Y799127D01*
X1571919Y800903D01*
X1572450Y802884D01*
Y804936D01*
X1571919Y806917D01*
X1570894Y808693D01*
X1569443Y810144D01*
X1567667Y811169D01*
X1565686Y811700D01*
D02*
G37*
G36*
X1545686D02*
X1543634D01*
X1541653Y811169D01*
X1539877Y810144D01*
X1538427Y808693D01*
X1537401Y806917D01*
X1536870Y804936D01*
Y802884D01*
X1537401Y800903D01*
X1538427Y799127D01*
X1539877Y797676D01*
X1541653Y796651D01*
X1543634Y796120D01*
X1545686D01*
X1547667Y796651D01*
X1549443Y797676D01*
X1550894Y799127D01*
X1551919Y800903D01*
X1552450Y802884D01*
Y804936D01*
X1551919Y806917D01*
X1550894Y808693D01*
X1549443Y810144D01*
X1547667Y811169D01*
X1545686Y811700D01*
D02*
G37*
G36*
X1417291Y814680D02*
X1414789D01*
X1412373Y814033D01*
X1410207Y812782D01*
X1408438Y811013D01*
X1407188Y808847D01*
X1406540Y806431D01*
Y803929D01*
X1407188Y801513D01*
X1408438Y799347D01*
X1410207Y797578D01*
X1412373Y796327D01*
X1414789Y795680D01*
X1417291D01*
X1419707Y796327D01*
X1421873Y797578D01*
X1423642Y799347D01*
X1424893Y801513D01*
X1425540Y803929D01*
Y806431D01*
X1424893Y808847D01*
X1423642Y811013D01*
X1421873Y812782D01*
X1419707Y814033D01*
X1417291Y814680D01*
D02*
G37*
G36*
X1981371Y806910D02*
X1977948D01*
X1974642Y806024D01*
X1971678Y804313D01*
X1969258Y801892D01*
X1967546Y798928D01*
X1966660Y795621D01*
Y792198D01*
X1967546Y788892D01*
X1969258Y785928D01*
X1971678Y783507D01*
X1974642Y781796D01*
X1977948Y780910D01*
X1981371D01*
X1984678Y781796D01*
X1987642Y783507D01*
X1990063Y785928D01*
X1991774Y788892D01*
X1992660Y792198D01*
Y795621D01*
X1991774Y798928D01*
X1990063Y801892D01*
X1987642Y804313D01*
X1984678Y806024D01*
X1981371Y806910D01*
D02*
G37*
G36*
X1511371D02*
X1507948D01*
X1504642Y806024D01*
X1501678Y804313D01*
X1499257Y801892D01*
X1497546Y798928D01*
X1496660Y795621D01*
Y792198D01*
X1497546Y788892D01*
X1499257Y785928D01*
X1501678Y783507D01*
X1504642Y781796D01*
X1507948Y780910D01*
X1511371D01*
X1514678Y781796D01*
X1517642Y783507D01*
X1520063Y785928D01*
X1521774Y788892D01*
X1522660Y792198D01*
Y795621D01*
X1521774Y798928D01*
X1520063Y801892D01*
X1517642Y804313D01*
X1514678Y806024D01*
X1511371Y806910D01*
D02*
G37*
G36*
X1945686Y791700D02*
X1943634D01*
X1941653Y791169D01*
X1939877Y790144D01*
X1938427Y788693D01*
X1937401Y786917D01*
X1936870Y784936D01*
Y782884D01*
X1937401Y780903D01*
X1938427Y779127D01*
X1939877Y777676D01*
X1941653Y776651D01*
X1943634Y776120D01*
X1945686D01*
X1947667Y776651D01*
X1949443Y777676D01*
X1950894Y779127D01*
X1951919Y780903D01*
X1952450Y782884D01*
Y784936D01*
X1951919Y786917D01*
X1950894Y788693D01*
X1949443Y790144D01*
X1947667Y791169D01*
X1945686Y791700D01*
D02*
G37*
G36*
X1925686D02*
X1923634D01*
X1921653Y791169D01*
X1919877Y790144D01*
X1918427Y788693D01*
X1917401Y786917D01*
X1916870Y784936D01*
Y782884D01*
X1917401Y780903D01*
X1918427Y779127D01*
X1919877Y777676D01*
X1921653Y776651D01*
X1923634Y776120D01*
X1925686D01*
X1927667Y776651D01*
X1929443Y777676D01*
X1930894Y779127D01*
X1931919Y780903D01*
X1932450Y782884D01*
Y784936D01*
X1931919Y786917D01*
X1930894Y788693D01*
X1929443Y790144D01*
X1927667Y791169D01*
X1925686Y791700D01*
D02*
G37*
G36*
X1905686D02*
X1903634D01*
X1901653Y791169D01*
X1899877Y790144D01*
X1898427Y788693D01*
X1897401Y786917D01*
X1896870Y784936D01*
Y782884D01*
X1897401Y780903D01*
X1898427Y779127D01*
X1899877Y777676D01*
X1901653Y776651D01*
X1903634Y776120D01*
X1905686D01*
X1907667Y776651D01*
X1909443Y777676D01*
X1910894Y779127D01*
X1911919Y780903D01*
X1912450Y782884D01*
Y784936D01*
X1911919Y786917D01*
X1910894Y788693D01*
X1909443Y790144D01*
X1907667Y791169D01*
X1905686Y791700D01*
D02*
G37*
G36*
X1885686D02*
X1883634D01*
X1881653Y791169D01*
X1879877Y790144D01*
X1878427Y788693D01*
X1877401Y786917D01*
X1876870Y784936D01*
Y782884D01*
X1877401Y780903D01*
X1878427Y779127D01*
X1879877Y777676D01*
X1881653Y776651D01*
X1883634Y776120D01*
X1885686D01*
X1887667Y776651D01*
X1889443Y777676D01*
X1890894Y779127D01*
X1891919Y780903D01*
X1892450Y782884D01*
Y784936D01*
X1891919Y786917D01*
X1890894Y788693D01*
X1889443Y790144D01*
X1887667Y791169D01*
X1885686Y791700D01*
D02*
G37*
G36*
X1865686D02*
X1863634D01*
X1861653Y791169D01*
X1859877Y790144D01*
X1858427Y788693D01*
X1857401Y786917D01*
X1856870Y784936D01*
Y782884D01*
X1857401Y780903D01*
X1858427Y779127D01*
X1859877Y777676D01*
X1861653Y776651D01*
X1863634Y776120D01*
X1865686D01*
X1867667Y776651D01*
X1869443Y777676D01*
X1870894Y779127D01*
X1871919Y780903D01*
X1872450Y782884D01*
Y784936D01*
X1871919Y786917D01*
X1870894Y788693D01*
X1869443Y790144D01*
X1867667Y791169D01*
X1865686Y791700D01*
D02*
G37*
G36*
X1845686D02*
X1843634D01*
X1841653Y791169D01*
X1839877Y790144D01*
X1838427Y788693D01*
X1837401Y786917D01*
X1836870Y784936D01*
Y782884D01*
X1837401Y780903D01*
X1838427Y779127D01*
X1839877Y777676D01*
X1841653Y776651D01*
X1843634Y776120D01*
X1845686D01*
X1847667Y776651D01*
X1849443Y777676D01*
X1850894Y779127D01*
X1851919Y780903D01*
X1852450Y782884D01*
Y784936D01*
X1851919Y786917D01*
X1850894Y788693D01*
X1849443Y790144D01*
X1847667Y791169D01*
X1845686Y791700D01*
D02*
G37*
G36*
X1825686D02*
X1823634D01*
X1821653Y791169D01*
X1819877Y790144D01*
X1818427Y788693D01*
X1817401Y786917D01*
X1816870Y784936D01*
Y782884D01*
X1817401Y780903D01*
X1818427Y779127D01*
X1819877Y777676D01*
X1821653Y776651D01*
X1823634Y776120D01*
X1825686D01*
X1827667Y776651D01*
X1829443Y777676D01*
X1830894Y779127D01*
X1831919Y780903D01*
X1832450Y782884D01*
Y784936D01*
X1831919Y786917D01*
X1830894Y788693D01*
X1829443Y790144D01*
X1827667Y791169D01*
X1825686Y791700D01*
D02*
G37*
G36*
X1805686D02*
X1803634D01*
X1801653Y791169D01*
X1799877Y790144D01*
X1798427Y788693D01*
X1797401Y786917D01*
X1796870Y784936D01*
Y782884D01*
X1797401Y780903D01*
X1798427Y779127D01*
X1799877Y777676D01*
X1801653Y776651D01*
X1803634Y776120D01*
X1805686D01*
X1807667Y776651D01*
X1809443Y777676D01*
X1810894Y779127D01*
X1811919Y780903D01*
X1812450Y782884D01*
Y784936D01*
X1811919Y786917D01*
X1810894Y788693D01*
X1809443Y790144D01*
X1807667Y791169D01*
X1805686Y791700D01*
D02*
G37*
G36*
X1785686D02*
X1783634D01*
X1781653Y791169D01*
X1779877Y790144D01*
X1778427Y788693D01*
X1777401Y786917D01*
X1776870Y784936D01*
Y782884D01*
X1777401Y780903D01*
X1778427Y779127D01*
X1779877Y777676D01*
X1781653Y776651D01*
X1783634Y776120D01*
X1785686D01*
X1787667Y776651D01*
X1789443Y777676D01*
X1790894Y779127D01*
X1791919Y780903D01*
X1792450Y782884D01*
Y784936D01*
X1791919Y786917D01*
X1790894Y788693D01*
X1789443Y790144D01*
X1787667Y791169D01*
X1785686Y791700D01*
D02*
G37*
G36*
X1765686D02*
X1763634D01*
X1761653Y791169D01*
X1759877Y790144D01*
X1758427Y788693D01*
X1757401Y786917D01*
X1756870Y784936D01*
Y782884D01*
X1757401Y780903D01*
X1758427Y779127D01*
X1759877Y777676D01*
X1761653Y776651D01*
X1763634Y776120D01*
X1765686D01*
X1767667Y776651D01*
X1769443Y777676D01*
X1770894Y779127D01*
X1771919Y780903D01*
X1772450Y782884D01*
Y784936D01*
X1771919Y786917D01*
X1770894Y788693D01*
X1769443Y790144D01*
X1767667Y791169D01*
X1765686Y791700D01*
D02*
G37*
G36*
X1745686D02*
X1743634D01*
X1741653Y791169D01*
X1739877Y790144D01*
X1738427Y788693D01*
X1737401Y786917D01*
X1736870Y784936D01*
Y782884D01*
X1737401Y780903D01*
X1738427Y779127D01*
X1739877Y777676D01*
X1741653Y776651D01*
X1743634Y776120D01*
X1745686D01*
X1747667Y776651D01*
X1749443Y777676D01*
X1750894Y779127D01*
X1751919Y780903D01*
X1752450Y782884D01*
Y784936D01*
X1751919Y786917D01*
X1750894Y788693D01*
X1749443Y790144D01*
X1747667Y791169D01*
X1745686Y791700D01*
D02*
G37*
G36*
X1725686D02*
X1723634D01*
X1721653Y791169D01*
X1719877Y790144D01*
X1718427Y788693D01*
X1717401Y786917D01*
X1716870Y784936D01*
Y782884D01*
X1717401Y780903D01*
X1718427Y779127D01*
X1719877Y777676D01*
X1721653Y776651D01*
X1723634Y776120D01*
X1725686D01*
X1727667Y776651D01*
X1729443Y777676D01*
X1730894Y779127D01*
X1731919Y780903D01*
X1732450Y782884D01*
Y784936D01*
X1731919Y786917D01*
X1730894Y788693D01*
X1729443Y790144D01*
X1727667Y791169D01*
X1725686Y791700D01*
D02*
G37*
G36*
X1685686D02*
X1683634D01*
X1681653Y791169D01*
X1679877Y790144D01*
X1678427Y788693D01*
X1677401Y786917D01*
X1676870Y784936D01*
Y782884D01*
X1677401Y780903D01*
X1678427Y779127D01*
X1679877Y777676D01*
X1681653Y776651D01*
X1683634Y776120D01*
X1685686D01*
X1687667Y776651D01*
X1689443Y777676D01*
X1690894Y779127D01*
X1691919Y780903D01*
X1692450Y782884D01*
Y784936D01*
X1691919Y786917D01*
X1690894Y788693D01*
X1689443Y790144D01*
X1687667Y791169D01*
X1685686Y791700D01*
D02*
G37*
G36*
X1665686D02*
X1663634D01*
X1661653Y791169D01*
X1659877Y790144D01*
X1658427Y788693D01*
X1657401Y786917D01*
X1656870Y784936D01*
Y782884D01*
X1657401Y780903D01*
X1658427Y779127D01*
X1659877Y777676D01*
X1661653Y776651D01*
X1663634Y776120D01*
X1665686D01*
X1667667Y776651D01*
X1669443Y777676D01*
X1670894Y779127D01*
X1671919Y780903D01*
X1672450Y782884D01*
Y784936D01*
X1671919Y786917D01*
X1670894Y788693D01*
X1669443Y790144D01*
X1667667Y791169D01*
X1665686Y791700D01*
D02*
G37*
G36*
X1645686D02*
X1643634D01*
X1641653Y791169D01*
X1639877Y790144D01*
X1638427Y788693D01*
X1637401Y786917D01*
X1636870Y784936D01*
Y782884D01*
X1637401Y780903D01*
X1638427Y779127D01*
X1639877Y777676D01*
X1641653Y776651D01*
X1643634Y776120D01*
X1645686D01*
X1647667Y776651D01*
X1649443Y777676D01*
X1650894Y779127D01*
X1651919Y780903D01*
X1652450Y782884D01*
Y784936D01*
X1651919Y786917D01*
X1650894Y788693D01*
X1649443Y790144D01*
X1647667Y791169D01*
X1645686Y791700D01*
D02*
G37*
G36*
X1625686D02*
X1623634D01*
X1621653Y791169D01*
X1619877Y790144D01*
X1618427Y788693D01*
X1617401Y786917D01*
X1616870Y784936D01*
Y782884D01*
X1617401Y780903D01*
X1618427Y779127D01*
X1619877Y777676D01*
X1621653Y776651D01*
X1623634Y776120D01*
X1625686D01*
X1627667Y776651D01*
X1629443Y777676D01*
X1630894Y779127D01*
X1631919Y780903D01*
X1632450Y782884D01*
Y784936D01*
X1631919Y786917D01*
X1630894Y788693D01*
X1629443Y790144D01*
X1627667Y791169D01*
X1625686Y791700D01*
D02*
G37*
G36*
X1605686D02*
X1603634D01*
X1601653Y791169D01*
X1599877Y790144D01*
X1598427Y788693D01*
X1597401Y786917D01*
X1596870Y784936D01*
Y782884D01*
X1597401Y780903D01*
X1598427Y779127D01*
X1599877Y777676D01*
X1601653Y776651D01*
X1603634Y776120D01*
X1605686D01*
X1607667Y776651D01*
X1609443Y777676D01*
X1610894Y779127D01*
X1611919Y780903D01*
X1612450Y782884D01*
Y784936D01*
X1611919Y786917D01*
X1610894Y788693D01*
X1609443Y790144D01*
X1607667Y791169D01*
X1605686Y791700D01*
D02*
G37*
G36*
X1464910Y790550D02*
X1445910D01*
Y771550D01*
X1464910D01*
Y790550D01*
D02*
G37*
G36*
X1425540Y789280D02*
X1406540D01*
Y770280D01*
X1425540D01*
Y789280D01*
D02*
G37*
G36*
X2223316Y782150D02*
X2219144D01*
X2215025Y781497D01*
X2211057Y780209D01*
X2207341Y778315D01*
X2203966Y775863D01*
X2201017Y772914D01*
X2198565Y769539D01*
X2196671Y765823D01*
X2195383Y761855D01*
X2194730Y757736D01*
Y753564D01*
X2195383Y749445D01*
X2196671Y745478D01*
X2198565Y741761D01*
X2201017Y738386D01*
X2203966Y735437D01*
X2207341Y732985D01*
X2211057Y731092D01*
X2215025Y729802D01*
X2219144Y729150D01*
X2223316D01*
X2227435Y729802D01*
X2231402Y731092D01*
X2235119Y732985D01*
X2238494Y735437D01*
X2241443Y738386D01*
X2243895Y741761D01*
X2245789Y745478D01*
X2247077Y749445D01*
X2247730Y753564D01*
Y757736D01*
X2247077Y761855D01*
X2245789Y765823D01*
X2243895Y769539D01*
X2241443Y772914D01*
X2238494Y775863D01*
X2235119Y778315D01*
X2231402Y780209D01*
X2227435Y781497D01*
X2223316Y782150D01*
D02*
G37*
G36*
X1286056D02*
X1281884D01*
X1277765Y781497D01*
X1273798Y780209D01*
X1270081Y778315D01*
X1266706Y775863D01*
X1263757Y772914D01*
X1261305Y769539D01*
X1259411Y765823D01*
X1258122Y761855D01*
X1257470Y757736D01*
Y753564D01*
X1258122Y749445D01*
X1259411Y745478D01*
X1261305Y741761D01*
X1263757Y738386D01*
X1266706Y735437D01*
X1270081Y732985D01*
X1273798Y731092D01*
X1277765Y729802D01*
X1281884Y729150D01*
X1286056D01*
X1290175Y729802D01*
X1294142Y731092D01*
X1297859Y732985D01*
X1301234Y735437D01*
X1304183Y738386D01*
X1306635Y741761D01*
X1308528Y745478D01*
X1309818Y749445D01*
X1310470Y753564D01*
Y757736D01*
X1309818Y761855D01*
X1308528Y765823D01*
X1306635Y769539D01*
X1304183Y772914D01*
X1301234Y775863D01*
X1297859Y778315D01*
X1294142Y780209D01*
X1290175Y781497D01*
X1286056Y782150D01*
D02*
G37*
%LPD*%
D122*
X2216150Y1625600D02*
D03*
X1289050Y1629410D02*
D03*
X1283970Y755650D02*
D03*
X2221230D02*
D03*
D123*
X1273810Y1643380D02*
D03*
Y1615440D02*
D03*
X1303020D02*
D03*
Y1644650D02*
D03*
X1268730Y1630680D02*
D03*
X1309370D02*
D03*
X1289050Y1609090D02*
D03*
Y1649730D02*
D03*
X1268730Y769620D02*
D03*
Y741680D02*
D03*
X1297940D02*
D03*
Y770890D02*
D03*
X1263650Y756920D02*
D03*
X1304290D02*
D03*
X1283970Y735330D02*
D03*
Y775970D02*
D03*
X2205990Y769620D02*
D03*
Y741680D02*
D03*
X2235200D02*
D03*
Y770890D02*
D03*
X2200910Y756920D02*
D03*
X2241550D02*
D03*
X2221230Y735330D02*
D03*
Y775970D02*
D03*
X2200910Y1639570D02*
D03*
Y1611630D02*
D03*
X2230120D02*
D03*
Y1640840D02*
D03*
X2195830Y1626870D02*
D03*
X2236470D02*
D03*
X2216150Y1605280D02*
D03*
Y1645920D02*
D03*
X1438060Y889750D02*
D03*
Y878750D02*
D03*
X1449060Y889750D02*
D03*
Y878750D02*
D03*
X1460060Y889750D02*
D03*
Y878750D02*
D03*
D124*
X1349250Y1447110D02*
D03*
Y1262110D02*
D03*
X1301750Y1447110D02*
D03*
Y1262110D02*
D03*
X2129580Y1603180D02*
D03*
X1944580D02*
D03*
X2129580Y1650680D02*
D03*
X1944580D02*
D03*
D125*
X1979660Y793910D02*
D03*
X1509660D02*
D03*
D127*
X1944660Y803910D02*
D03*
Y783910D02*
D03*
X1924660Y803910D02*
D03*
Y783910D02*
D03*
X1904660Y803910D02*
D03*
Y783910D02*
D03*
X1884660Y803910D02*
D03*
Y783910D02*
D03*
X1864660Y803910D02*
D03*
Y783910D02*
D03*
X1844660Y803910D02*
D03*
Y783910D02*
D03*
X1824660Y803910D02*
D03*
Y783910D02*
D03*
X1804660Y803910D02*
D03*
Y783910D02*
D03*
X1784660Y803910D02*
D03*
Y783910D02*
D03*
X1764660Y803910D02*
D03*
Y783910D02*
D03*
X1744660Y803910D02*
D03*
Y783910D02*
D03*
X1724660Y803910D02*
D03*
Y783910D02*
D03*
X1704660Y803910D02*
D03*
Y783910D02*
D03*
X1684660Y803910D02*
D03*
Y783910D02*
D03*
X1664660Y803910D02*
D03*
Y783910D02*
D03*
X1644660Y803910D02*
D03*
Y783910D02*
D03*
X1624660Y803910D02*
D03*
Y783910D02*
D03*
X1604660Y803910D02*
D03*
Y783910D02*
D03*
X1584660Y803910D02*
D03*
Y783910D02*
D03*
X1564660Y803910D02*
D03*
Y783910D02*
D03*
X1544660Y803910D02*
D03*
Y783910D02*
D03*
D128*
X2172970Y1451610D02*
D03*
Y1426210D02*
D03*
Y1400810D02*
D03*
Y1375410D02*
D03*
Y1264920D02*
D03*
Y1290320D02*
D03*
D129*
Y1350010D02*
D03*
Y1315720D02*
D03*
D130*
X1332230Y1181100D02*
D03*
X1306830D02*
D03*
X1332230Y1155700D02*
D03*
X1306830D02*
D03*
X1332230Y1130300D02*
D03*
X1306830D02*
D03*
X1332230Y1104900D02*
D03*
X1306830D02*
D03*
X1332230Y1079500D02*
D03*
X1306830D02*
D03*
X1332230Y1054100D02*
D03*
X1306830D02*
D03*
X1332230Y1028700D02*
D03*
D131*
X1306830D02*
D03*
D132*
X1416040Y779780D02*
D03*
X1455410Y781050D02*
D03*
D133*
X1416040Y805180D02*
D03*
X1455410Y806450D02*
D03*
D134*
X2260001Y1640001D02*
D03*
X2270001Y1620001D02*
D03*
X2260001Y1600001D02*
D03*
X2270001Y1580001D02*
D03*
X2260001Y1560001D02*
D03*
X2270001Y1540001D02*
D03*
X2260001Y1520001D02*
D03*
X2270001Y1500001D02*
D03*
X2260001Y1480001D02*
D03*
X2270001Y1460001D02*
D03*
X2260001Y1440001D02*
D03*
X2270001Y1420001D02*
D03*
X2260001Y1400001D02*
D03*
X2270001Y1380001D02*
D03*
X2260001Y1360001D02*
D03*
X2270001Y1340001D02*
D03*
X2260001Y1320001D02*
D03*
X2270001Y1300001D02*
D03*
X2260001Y1280001D02*
D03*
X2270001Y1260001D02*
D03*
X2260001Y1240001D02*
D03*
X2270001Y1220001D02*
D03*
X2260001Y1200001D02*
D03*
X2270001Y1180001D02*
D03*
X2260001Y1160001D02*
D03*
X2270001Y1140001D02*
D03*
X2260001Y1120001D02*
D03*
X2270001Y1100001D02*
D03*
X2260001Y1080001D02*
D03*
X2270001Y1060001D02*
D03*
X2260001Y1040001D02*
D03*
X2270001Y1020001D02*
D03*
X2260001Y1000001D02*
D03*
X2270001Y980001D02*
D03*
X2260001Y960001D02*
D03*
X2270001Y940001D02*
D03*
X2260001Y920001D02*
D03*
X2270001Y900001D02*
D03*
X2260001Y880001D02*
D03*
X2270001Y860001D02*
D03*
X2260001Y840001D02*
D03*
X2270001Y820000D02*
D03*
X2260001Y800000D02*
D03*
X2270001Y780000D02*
D03*
X2260001Y760000D02*
D03*
X2250001Y1660001D02*
D03*
Y1620001D02*
D03*
X2240001Y1600001D02*
D03*
X2250001Y1580001D02*
D03*
X2240001Y1560001D02*
D03*
X2250001Y1540001D02*
D03*
X2240001Y1520001D02*
D03*
X2250001Y1500001D02*
D03*
X2240001Y1480001D02*
D03*
X2250001Y1460001D02*
D03*
X2240001Y1440001D02*
D03*
X2250001Y1420001D02*
D03*
X2240001Y1400001D02*
D03*
X2250001Y1380001D02*
D03*
X2240001Y1360001D02*
D03*
X2250001Y1340001D02*
D03*
X2240001Y1320001D02*
D03*
X2250001Y1300001D02*
D03*
X2240001Y1280001D02*
D03*
X2250001Y1260001D02*
D03*
X2240001Y1240001D02*
D03*
X2250001Y1220001D02*
D03*
X2240001Y1200001D02*
D03*
X2250001Y1180001D02*
D03*
X2240001Y1160001D02*
D03*
X2250001Y1140001D02*
D03*
X2240001Y1120001D02*
D03*
X2250001Y1100001D02*
D03*
X2240001Y1080001D02*
D03*
X2250001Y1060001D02*
D03*
X2240001Y1040001D02*
D03*
X2250001Y1020001D02*
D03*
X2240001Y1000001D02*
D03*
X2250001Y980001D02*
D03*
X2240001Y960001D02*
D03*
X2250001Y940001D02*
D03*
X2240001Y920001D02*
D03*
X2250001Y900001D02*
D03*
X2240001Y880001D02*
D03*
X2250001Y860001D02*
D03*
X2240001Y840001D02*
D03*
X2250001Y820000D02*
D03*
X2240001Y800000D02*
D03*
X2250001Y780000D02*
D03*
Y740000D02*
D03*
X2240001Y720000D02*
D03*
X2230001Y1660001D02*
D03*
Y1580001D02*
D03*
X2220001Y1560001D02*
D03*
X2230001Y1540001D02*
D03*
X2220001Y1520001D02*
D03*
X2230001Y1500001D02*
D03*
X2220001Y1480001D02*
D03*
X2230001Y1460001D02*
D03*
X2220001Y1440001D02*
D03*
X2230001Y1420001D02*
D03*
X2220001Y1400001D02*
D03*
X2230001Y1380001D02*
D03*
X2220001Y1360001D02*
D03*
X2230001Y1340001D02*
D03*
X2220001Y1320001D02*
D03*
X2230001Y1300001D02*
D03*
X2220001Y1280001D02*
D03*
X2230001Y1260001D02*
D03*
X2220001Y1240001D02*
D03*
X2230001Y1220001D02*
D03*
X2220001Y1200001D02*
D03*
X2230001Y1180001D02*
D03*
X2220001Y1160001D02*
D03*
X2230001Y1140001D02*
D03*
X2220001Y1120001D02*
D03*
X2230001Y1100001D02*
D03*
X2220001Y1080001D02*
D03*
X2230001Y1060001D02*
D03*
X2220001Y1040001D02*
D03*
X2230001Y1020001D02*
D03*
X2220001Y1000001D02*
D03*
X2230001Y980001D02*
D03*
X2220001Y960001D02*
D03*
X2230001Y940001D02*
D03*
X2220001Y920001D02*
D03*
X2230001Y900001D02*
D03*
X2220001Y880001D02*
D03*
X2230001Y860001D02*
D03*
X2220001Y840001D02*
D03*
X2230001Y820000D02*
D03*
X2220001Y800000D02*
D03*
Y720000D02*
D03*
X2210001Y1660001D02*
D03*
X2200001Y1600001D02*
D03*
X2210001Y1580001D02*
D03*
Y1540001D02*
D03*
Y1500001D02*
D03*
Y1460001D02*
D03*
Y1420001D02*
D03*
Y1380001D02*
D03*
Y1340001D02*
D03*
Y1300001D02*
D03*
Y1260001D02*
D03*
Y1220001D02*
D03*
Y1180001D02*
D03*
Y1140001D02*
D03*
Y1100001D02*
D03*
Y820000D02*
D03*
X2200001Y720000D02*
D03*
X2190001Y1660001D02*
D03*
X2180001Y1640001D02*
D03*
Y760000D02*
D03*
X2190001Y740000D02*
D03*
X2180001Y720000D02*
D03*
X2170001Y1660001D02*
D03*
X2160001Y1640001D02*
D03*
Y760000D02*
D03*
X2170001Y740000D02*
D03*
X2160001Y720000D02*
D03*
X2150001Y1660001D02*
D03*
X2140001Y1640001D02*
D03*
X2150001Y740000D02*
D03*
X2140001Y720000D02*
D03*
X2120001Y1640001D02*
D03*
X2130001Y740000D02*
D03*
X2120001Y720000D02*
D03*
X2110001Y1660001D02*
D03*
X2100001Y1640001D02*
D03*
X2110001Y740000D02*
D03*
X2100001Y720000D02*
D03*
X2090001Y1660001D02*
D03*
X2080001Y1640001D02*
D03*
X2090001Y740000D02*
D03*
X2080001Y720000D02*
D03*
X2070001Y1660001D02*
D03*
X2060001Y1640001D02*
D03*
X2070001Y1620001D02*
D03*
X2060001Y1600001D02*
D03*
Y1360001D02*
D03*
Y1280001D02*
D03*
Y1240001D02*
D03*
Y1120001D02*
D03*
X2070001Y740000D02*
D03*
X2060001Y720000D02*
D03*
X2050001Y1660001D02*
D03*
X2040001Y1640001D02*
D03*
X2050001Y1620001D02*
D03*
X2040001Y1600001D02*
D03*
Y1360001D02*
D03*
X2050001Y1340001D02*
D03*
X2040001Y1280001D02*
D03*
X2050001Y1260001D02*
D03*
Y1220001D02*
D03*
X2040001Y1160001D02*
D03*
Y1120001D02*
D03*
X2050001Y740000D02*
D03*
X2040001Y720000D02*
D03*
X2030001Y1660001D02*
D03*
X2020001Y1640001D02*
D03*
X2030001Y1620001D02*
D03*
X2020001Y1600001D02*
D03*
Y1400001D02*
D03*
Y1360001D02*
D03*
X2030001Y1340001D02*
D03*
X2020001Y1280001D02*
D03*
X2030001Y740000D02*
D03*
X2020001Y720000D02*
D03*
X2010001Y1660001D02*
D03*
X2000001Y1640001D02*
D03*
X2010001Y1620001D02*
D03*
X2000001Y1600001D02*
D03*
Y1360001D02*
D03*
X2010001Y1340001D02*
D03*
Y1260001D02*
D03*
X2000001Y1200001D02*
D03*
Y1160001D02*
D03*
Y1120001D02*
D03*
X2010001Y1100001D02*
D03*
Y740000D02*
D03*
X2000001Y720000D02*
D03*
X1990001Y1660001D02*
D03*
X1980001Y1640001D02*
D03*
X1990001Y1620001D02*
D03*
Y1540001D02*
D03*
X1980001Y1360001D02*
D03*
X1990001Y1340001D02*
D03*
Y1220001D02*
D03*
Y1140001D02*
D03*
X1980001Y1120001D02*
D03*
X1990001Y1100001D02*
D03*
Y740000D02*
D03*
X1980001Y720000D02*
D03*
X1970001Y1660001D02*
D03*
X1960001Y1640001D02*
D03*
Y1600001D02*
D03*
Y1360001D02*
D03*
X1970001Y1340001D02*
D03*
X1960001Y1240001D02*
D03*
Y1200001D02*
D03*
Y1160001D02*
D03*
X1970001Y1140001D02*
D03*
X1960001Y1120001D02*
D03*
X1970001Y740000D02*
D03*
X1960001Y720000D02*
D03*
X1940001Y1640001D02*
D03*
Y1560001D02*
D03*
Y1360001D02*
D03*
X1950001Y1340001D02*
D03*
Y1260001D02*
D03*
Y740000D02*
D03*
X1940001Y720000D02*
D03*
X1930001Y1660001D02*
D03*
X1920001Y1640001D02*
D03*
Y1600001D02*
D03*
Y1360001D02*
D03*
X1930001Y1340001D02*
D03*
X1920001Y1280001D02*
D03*
X1930001Y1260001D02*
D03*
X1920001Y1200001D02*
D03*
X1930001Y740000D02*
D03*
X1920001Y720000D02*
D03*
X1910001Y1660001D02*
D03*
X1900001Y1640001D02*
D03*
Y1600001D02*
D03*
X1910001Y1580001D02*
D03*
X1900001Y1560001D02*
D03*
Y1520001D02*
D03*
Y1440001D02*
D03*
X1910001Y740000D02*
D03*
X1900001Y720000D02*
D03*
X1890001Y1660001D02*
D03*
X1880001Y1640001D02*
D03*
Y1600001D02*
D03*
X1890001Y1580001D02*
D03*
X1880001Y1560001D02*
D03*
Y1520001D02*
D03*
X1890001Y740000D02*
D03*
X1880001Y720000D02*
D03*
X1870001Y1660001D02*
D03*
X1860001Y1640001D02*
D03*
X1870001Y1580001D02*
D03*
X1860001Y1560001D02*
D03*
X1870001Y740000D02*
D03*
X1860001Y720000D02*
D03*
X1850001Y1660001D02*
D03*
X1840001Y1640001D02*
D03*
X1850001Y1620001D02*
D03*
X1840001Y1600001D02*
D03*
X1850001Y1580001D02*
D03*
X1840001Y1560001D02*
D03*
X1850001Y740000D02*
D03*
X1840001Y720000D02*
D03*
X1830001Y1660001D02*
D03*
X1820001Y1640001D02*
D03*
X1830001Y1620001D02*
D03*
X1820001Y1600001D02*
D03*
X1830001Y740000D02*
D03*
X1820001Y720000D02*
D03*
X1810001Y1660001D02*
D03*
X1800001Y1640001D02*
D03*
X1810001Y1620001D02*
D03*
X1800001Y1600001D02*
D03*
X1810001Y740000D02*
D03*
X1800001Y720000D02*
D03*
X1790001Y1660001D02*
D03*
X1780001Y1640001D02*
D03*
X1790001Y1620001D02*
D03*
Y740000D02*
D03*
X1780001Y720000D02*
D03*
X1770001Y1660001D02*
D03*
X1760001Y1640001D02*
D03*
X1770001Y1620001D02*
D03*
Y740000D02*
D03*
X1760001Y720000D02*
D03*
X1750001Y1660001D02*
D03*
X1740001Y1640001D02*
D03*
X1750001Y1620001D02*
D03*
Y740000D02*
D03*
X1740001Y720000D02*
D03*
X1730001Y1660001D02*
D03*
X1720001Y1640001D02*
D03*
X1730001Y1620001D02*
D03*
Y740000D02*
D03*
X1720001Y720000D02*
D03*
X1710001Y1660001D02*
D03*
Y1620001D02*
D03*
Y740000D02*
D03*
X1700001Y720000D02*
D03*
X1690001Y1660001D02*
D03*
X1680001Y1640001D02*
D03*
X1690001Y740000D02*
D03*
X1680001Y720000D02*
D03*
X1670001Y1660001D02*
D03*
X1660001Y1640001D02*
D03*
X1670001Y740000D02*
D03*
X1660001Y720000D02*
D03*
X1650001Y1660001D02*
D03*
Y1620001D02*
D03*
Y740000D02*
D03*
X1640001Y720000D02*
D03*
X1630001Y1660001D02*
D03*
X1620001Y1640001D02*
D03*
X1630001Y1620001D02*
D03*
Y740000D02*
D03*
X1620001Y720000D02*
D03*
X1610001Y1660001D02*
D03*
X1600001Y1640001D02*
D03*
X1610001Y1620001D02*
D03*
Y740000D02*
D03*
X1600001Y720000D02*
D03*
X1590001Y1660001D02*
D03*
X1580001Y1640001D02*
D03*
X1590001Y1620001D02*
D03*
Y740000D02*
D03*
X1580001Y720000D02*
D03*
X1570001Y1660001D02*
D03*
Y1620001D02*
D03*
Y740000D02*
D03*
X1560001Y720000D02*
D03*
X1550001Y1660001D02*
D03*
X1540001Y1640001D02*
D03*
X1550001Y740000D02*
D03*
X1540001Y720000D02*
D03*
X1530001Y1660001D02*
D03*
X1520001Y1640001D02*
D03*
X1530001Y740000D02*
D03*
X1520001Y720000D02*
D03*
X1510001Y1660001D02*
D03*
Y740000D02*
D03*
X1500001Y720000D02*
D03*
X1490001Y1660001D02*
D03*
X1480001Y1640001D02*
D03*
X1490001Y1620001D02*
D03*
Y740000D02*
D03*
X1480001Y720000D02*
D03*
X1470001Y1660001D02*
D03*
X1460001Y1640001D02*
D03*
X1470001Y1620001D02*
D03*
Y740000D02*
D03*
X1460001Y720000D02*
D03*
X1450001Y1660001D02*
D03*
X1440001Y1640001D02*
D03*
X1450001Y1620001D02*
D03*
X1440001Y1520001D02*
D03*
X1450001Y1460001D02*
D03*
X1440001Y1440001D02*
D03*
X1450001Y740000D02*
D03*
X1440001Y720000D02*
D03*
X1430001Y1660001D02*
D03*
X1420001Y1640001D02*
D03*
X1430001Y1620001D02*
D03*
X1420001Y1600001D02*
D03*
Y1560001D02*
D03*
Y1520001D02*
D03*
X1430001Y1500001D02*
D03*
X1420001Y1480001D02*
D03*
Y1440001D02*
D03*
X1430001Y740000D02*
D03*
X1420001Y720000D02*
D03*
X1410001Y1660001D02*
D03*
X1400001Y1640001D02*
D03*
X1410001Y1620001D02*
D03*
X1400001Y1600001D02*
D03*
X1410001Y1580001D02*
D03*
X1400001Y1560001D02*
D03*
X1410001Y1540001D02*
D03*
X1400001Y1520001D02*
D03*
X1410001Y1500001D02*
D03*
X1400001Y1480001D02*
D03*
Y1440001D02*
D03*
X1410001Y740000D02*
D03*
X1400001Y720000D02*
D03*
X1390001Y1660001D02*
D03*
X1380001Y1640001D02*
D03*
X1390001Y1620001D02*
D03*
X1380001Y1600001D02*
D03*
X1390001Y1580001D02*
D03*
X1380001Y1560001D02*
D03*
X1390001Y1540001D02*
D03*
X1380001Y1520001D02*
D03*
X1390001Y1500001D02*
D03*
X1380001Y1480001D02*
D03*
X1390001Y1460001D02*
D03*
X1380001Y1440001D02*
D03*
X1390001Y740000D02*
D03*
X1380001Y720000D02*
D03*
X1370001Y1660001D02*
D03*
X1360001Y1640001D02*
D03*
X1370001Y1620001D02*
D03*
X1360001Y1600001D02*
D03*
X1370001Y1580001D02*
D03*
X1360001Y1560001D02*
D03*
X1370001Y1540001D02*
D03*
X1360001Y1520001D02*
D03*
X1370001Y1500001D02*
D03*
X1360001Y1480001D02*
D03*
X1370001Y1460001D02*
D03*
X1360001Y1440001D02*
D03*
X1370001Y740000D02*
D03*
X1360001Y720000D02*
D03*
X1350001Y1660001D02*
D03*
X1340001Y1640001D02*
D03*
X1350001Y1620001D02*
D03*
X1340001Y1600001D02*
D03*
X1350001Y1580001D02*
D03*
X1340001Y1560001D02*
D03*
X1350001Y1540001D02*
D03*
X1340001Y1520001D02*
D03*
X1350001Y1500001D02*
D03*
X1340001Y1480001D02*
D03*
X1350001Y1460001D02*
D03*
X1340001Y1440001D02*
D03*
X1350001Y1420001D02*
D03*
X1340001Y1400001D02*
D03*
X1350001Y740000D02*
D03*
X1340001Y720000D02*
D03*
X1330001Y1660001D02*
D03*
X1320001Y1640001D02*
D03*
X1330001Y1620001D02*
D03*
X1320001Y1600001D02*
D03*
X1330001Y1580001D02*
D03*
X1320001Y1560001D02*
D03*
X1330001Y1540001D02*
D03*
X1320001Y1520001D02*
D03*
X1330001Y1500001D02*
D03*
X1320001Y1480001D02*
D03*
X1330001Y1460001D02*
D03*
X1320001Y1440001D02*
D03*
X1330001Y1420001D02*
D03*
X1320001Y1400001D02*
D03*
X1330001Y1380001D02*
D03*
X1320001Y760000D02*
D03*
X1330001Y740000D02*
D03*
X1320001Y720000D02*
D03*
X1310001Y1660001D02*
D03*
X1300001Y1600001D02*
D03*
X1310001Y1580001D02*
D03*
X1300001Y1560001D02*
D03*
X1310001Y1540001D02*
D03*
X1300001Y1520001D02*
D03*
X1310001Y1500001D02*
D03*
X1300001Y1480001D02*
D03*
X1310001Y1460001D02*
D03*
Y1420001D02*
D03*
X1300001Y1400001D02*
D03*
X1310001Y1380001D02*
D03*
X1300001Y1360001D02*
D03*
X1310001Y740000D02*
D03*
X1300001Y720000D02*
D03*
X1290001Y1660001D02*
D03*
X1280001Y1600001D02*
D03*
X1290001Y1580001D02*
D03*
X1280001Y1560001D02*
D03*
X1290001Y1540001D02*
D03*
X1280001Y1520001D02*
D03*
X1290001Y1500001D02*
D03*
X1280001Y1480001D02*
D03*
X1290001Y1460001D02*
D03*
X1280001Y1440001D02*
D03*
X1290001Y1420001D02*
D03*
X1280001Y1400001D02*
D03*
X1290001Y1380001D02*
D03*
X1280001Y1360001D02*
D03*
X1290001Y1340001D02*
D03*
X1280001Y1320001D02*
D03*
X1290001Y1300001D02*
D03*
X1280001Y1280001D02*
D03*
Y1240001D02*
D03*
Y1200001D02*
D03*
Y1160001D02*
D03*
Y1120001D02*
D03*
Y1080001D02*
D03*
Y1040001D02*
D03*
Y1000001D02*
D03*
Y960001D02*
D03*
Y920001D02*
D03*
Y880001D02*
D03*
Y840001D02*
D03*
Y800000D02*
D03*
Y720000D02*
D03*
X1270001Y1660001D02*
D03*
X1260001Y1640001D02*
D03*
Y1600001D02*
D03*
X1270001Y1580001D02*
D03*
X1260001Y1560001D02*
D03*
X1270001Y1540001D02*
D03*
X1260001Y1520001D02*
D03*
X1270001Y1500001D02*
D03*
X1260001Y1480001D02*
D03*
X1270001Y1460001D02*
D03*
X1260001Y1440001D02*
D03*
X1270001Y1420001D02*
D03*
X1260001Y1400001D02*
D03*
X1270001Y1380001D02*
D03*
X1260001Y1360001D02*
D03*
X1270001Y1340001D02*
D03*
X1260001Y1320001D02*
D03*
X1270001Y1300001D02*
D03*
X1260001Y1280001D02*
D03*
X1270001Y1260001D02*
D03*
X1260001Y1240001D02*
D03*
X1270001Y1220001D02*
D03*
X1260001Y1200001D02*
D03*
X1270001Y1180001D02*
D03*
X1260001Y1160001D02*
D03*
X1270001Y1140001D02*
D03*
X1260001Y1120001D02*
D03*
X1270001Y1100001D02*
D03*
X1260001Y1080001D02*
D03*
X1270001Y1060001D02*
D03*
X1260001Y1040001D02*
D03*
X1270001Y1020001D02*
D03*
X1260001Y1000001D02*
D03*
X1270001Y980001D02*
D03*
X1260001Y960001D02*
D03*
X1270001Y940001D02*
D03*
X1260001Y920001D02*
D03*
X1270001Y900001D02*
D03*
X1260001Y880001D02*
D03*
X1270001Y860001D02*
D03*
X1260001Y840001D02*
D03*
X1270001Y820000D02*
D03*
X1260001Y800000D02*
D03*
Y720000D02*
D03*
X1250001Y1660001D02*
D03*
X1240001Y1640001D02*
D03*
X1250001Y1620001D02*
D03*
X1240001Y1600001D02*
D03*
X1250001Y1580001D02*
D03*
X1240001Y1560001D02*
D03*
X1250001Y1540001D02*
D03*
X1240001Y1520001D02*
D03*
X1250001Y1500001D02*
D03*
X1240001Y1480001D02*
D03*
X1250001Y1460001D02*
D03*
X1240001Y1440001D02*
D03*
X1250001Y1420001D02*
D03*
X1240001Y1400001D02*
D03*
X1250001Y1380001D02*
D03*
X1240001Y1360001D02*
D03*
X1250001Y1340001D02*
D03*
X1240001Y1320001D02*
D03*
X1250001Y1300001D02*
D03*
X1240001Y1280001D02*
D03*
X1250001Y1260001D02*
D03*
X1240001Y1240001D02*
D03*
X1250001Y1220001D02*
D03*
X1240001Y1200001D02*
D03*
X1250001Y1180001D02*
D03*
X1240001Y1160001D02*
D03*
X1250001Y1140001D02*
D03*
X1240001Y1120001D02*
D03*
X1250001Y1100001D02*
D03*
X1240001Y1080001D02*
D03*
X1250001Y1060001D02*
D03*
X1240001Y1040001D02*
D03*
X1250001Y1020001D02*
D03*
X1240001Y1000001D02*
D03*
X1250001Y980001D02*
D03*
X1240001Y960001D02*
D03*
X1250001Y940001D02*
D03*
X1240001Y920001D02*
D03*
X1250001Y900001D02*
D03*
X1240001Y880001D02*
D03*
X1250001Y860001D02*
D03*
X1240001Y840001D02*
D03*
X1250001Y820000D02*
D03*
X1240001Y800000D02*
D03*
X1250001Y780000D02*
D03*
X1240001Y760000D02*
D03*
X1250001Y740000D02*
D03*
X1824750Y1309130D02*
D03*
X1824835Y1314629D02*
D03*
X1829982Y1299629D02*
D03*
X1830070Y1294130D02*
D03*
X1831340Y1278632D02*
D03*
X1831180Y1284130D02*
D03*
X1824750Y1279130D02*
D03*
X1336040Y796290D02*
D03*
X1333500Y811530D02*
D03*
X1332033Y826573D02*
D03*
X1341120Y844550D02*
D03*
Y916940D02*
D03*
X1380480Y902970D02*
D03*
X1726337Y1405310D02*
D03*
X1726620Y1517070D02*
D03*
X1669360Y1480736D02*
D03*
X1783446Y1307734D02*
D03*
X1639192Y1508761D02*
D03*
X1437640Y1592580D02*
D03*
X1523365Y1315600D02*
D03*
X1525270Y1403739D02*
D03*
Y1453904D02*
D03*
X1517650Y1521460D02*
D03*
X1419860Y1315720D02*
D03*
X1791977Y1191253D02*
D03*
X1540510Y836930D02*
D03*
X1791970Y1031240D02*
D03*
X1808480Y1413510D02*
D03*
X1657350Y1470660D02*
D03*
X1640840D02*
D03*
Y1477010D02*
D03*
X1656080D02*
D03*
Y1484630D02*
D03*
X1640840D02*
D03*
X1662430Y1496060D02*
D03*
Y1456690D02*
D03*
X1617980Y1254760D02*
D03*
X1546530Y900430D02*
D03*
X2088000Y946150D02*
D03*
X1657350Y1136650D02*
D03*
X1691880Y895350D02*
D03*
Y953770D02*
D03*
X1570989Y1306830D02*
D03*
X1532890Y1267580D02*
D03*
X1494790D02*
D03*
X1456690D02*
D03*
X1419860D02*
D03*
X1548700Y1336040D02*
D03*
X1549970Y1389380D02*
D03*
Y1436370D02*
D03*
Y1483360D02*
D03*
X1476375Y1359535D02*
D03*
X1478280Y1412360D02*
D03*
Y1465450D02*
D03*
X2011680Y1469630D02*
D03*
X2117090Y1513960D02*
D03*
X1569140Y1374140D02*
D03*
X2075180Y1469390D02*
D03*
X2105660Y1427480D02*
D03*
X2039620Y1428750D02*
D03*
X1948180Y1535430D02*
D03*
X1949450Y1438910D02*
D03*
X1929130Y1468120D02*
D03*
X1910080Y1504950D02*
D03*
X1587500Y1036320D02*
D03*
X1685290Y1567180D02*
D03*
X2175430Y1203260D02*
D03*
X2176780Y1144270D02*
D03*
X2175430Y1052260D02*
D03*
X2172230Y1016000D02*
D03*
X2172230Y952700D02*
D03*
X2174240Y904240D02*
D03*
X2171700Y842010D02*
D03*
X1892300Y1346200D02*
D03*
X1908810Y1121410D02*
D03*
X1892300Y1270000D02*
D03*
X1860543Y1360163D02*
D03*
X1695145Y1593650D02*
D03*
X1675892Y1593596D02*
D03*
X1630644Y1581980D02*
D03*
X1638300Y1588460D02*
D03*
X1639570Y1574800D02*
D03*
X1493520Y1574190D02*
D03*
X1487170Y1580690D02*
D03*
X1494822Y1586674D02*
D03*
X1528572Y1591056D02*
D03*
X1547825Y1591110D02*
D03*
X1446530Y1580690D02*
D03*
X1513840Y1616710D02*
D03*
X1658620Y1615440D02*
D03*
X1537970Y1565910D02*
D03*
X1591310Y1581960D02*
D03*
Y1588460D02*
D03*
X1615440Y1456690D02*
D03*
X1614163Y1405883D02*
D03*
X1717342Y1378640D02*
D03*
X1706880Y1381760D02*
D03*
X1651000Y1457960D02*
D03*
X1687360Y1379150D02*
D03*
X1722120Y1381760D02*
D03*
X1732908Y1384942D02*
D03*
X1711960Y1433830D02*
D03*
X1712887Y1422043D02*
D03*
X1727193Y1470667D02*
D03*
X1740590Y1465580D02*
D03*
X1746640Y1394070D02*
D03*
X1824983Y1103623D02*
D03*
X1826260Y1059180D02*
D03*
X1790700Y1140460D02*
D03*
X1874520Y1165860D02*
D03*
X1766570D02*
D03*
X1803400Y1164590D02*
D03*
X1746250Y1165860D02*
D03*
X1788160Y1164590D02*
D03*
X1776730Y1383030D02*
D03*
X1785620D02*
D03*
X1769165Y1381117D02*
D03*
X1757687Y1386833D02*
D03*
X1604010Y1237090D02*
D03*
X1452880Y1337310D02*
D03*
X1479557Y1482083D02*
D03*
X1588777Y1282707D02*
D03*
X1588251Y1294881D02*
D03*
X1598930Y1309370D02*
D03*
X1714500Y1248410D02*
D03*
X1722120Y1243330D02*
D03*
X1598930Y1318260D02*
D03*
X1673860Y1303710D02*
D03*
X1569140Y1428122D02*
D03*
X1549400Y1402080D02*
D03*
Y1348740D02*
D03*
X1628890Y1469450D02*
D03*
X1587500Y1267460D02*
D03*
X1501589Y1335578D02*
D03*
X1598930Y1245180D02*
D03*
X1478280Y1436674D02*
D03*
X1494790Y1436370D02*
D03*
X1677670Y1259950D02*
D03*
X1675130Y1264920D02*
D03*
X1550670Y1461770D02*
D03*
Y1508760D02*
D03*
X1728470Y1248410D02*
D03*
X1705867Y1246423D02*
D03*
X1677670Y1276350D02*
D03*
Y1283090D02*
D03*
X1670050Y1284130D02*
D03*
X1677670Y1270000D02*
D03*
X1676400Y1250950D02*
D03*
X1502410Y1483360D02*
D03*
X1548130Y1496060D02*
D03*
X1499870Y1389380D02*
D03*
X1550670Y1449070D02*
D03*
X1837690Y1388110D02*
D03*
X1891030Y1069340D02*
D03*
X1785620Y1236980D02*
D03*
X1784350Y1230630D02*
D03*
X1849120Y1216660D02*
D03*
X1802130Y1391230D02*
D03*
X1794510Y1289050D02*
D03*
X1849119Y1202691D02*
D03*
X1891030Y1093470D02*
D03*
X1908810Y1070610D02*
D03*
Y1080770D02*
D03*
X1656080Y1453460D02*
D03*
X1639501Y1451610D02*
D03*
X1751337Y1350003D02*
D03*
X1758950Y1351280D02*
D03*
X1676980Y1474455D02*
D03*
X1668780Y1469390D02*
D03*
X1676980Y1464510D02*
D03*
X1708143Y1488447D02*
D03*
X1753090Y1424940D02*
D03*
X1751910Y1500415D02*
D03*
X1715770Y1464310D02*
D03*
X1748210Y1496060D02*
D03*
X1634490Y1457960D02*
D03*
X1675130Y1357630D02*
D03*
X1684020D02*
D03*
X1732287Y1348733D02*
D03*
X1756030Y1484630D02*
D03*
X1752257Y1490637D02*
D03*
X1689100Y1192530D02*
D03*
X1926590Y1418590D02*
D03*
X1691870Y1363844D02*
D03*
X1814830Y1503680D02*
D03*
X1802459Y1495770D02*
D03*
X1833880Y1402080D02*
D03*
X1727200Y1449070D02*
D03*
X1827530Y1466850D02*
D03*
X1929130Y1480820D02*
D03*
X1962150Y1550670D02*
D03*
X1960880Y1377950D02*
D03*
X1988165Y1376680D02*
D03*
X2062480Y1365250D02*
D03*
X1797050Y1500760D02*
D03*
X2022180Y1372940D02*
D03*
X1924050Y1512570D02*
D03*
X1915160Y1482090D02*
D03*
X1818257Y1435483D02*
D03*
X1955800Y1513840D02*
D03*
X1798320Y1431290D02*
D03*
X1927860Y1450340D02*
D03*
X1711960Y1498400D02*
D03*
X1798160Y1424160D02*
D03*
X1733550Y1422400D02*
D03*
Y1432560D02*
D03*
X1733060Y1498480D02*
D03*
Y1488320D02*
D03*
X1797050Y1485900D02*
D03*
X1757680Y1430020D02*
D03*
X1808461Y1485847D02*
D03*
X2067560Y1559560D02*
D03*
X2047240D02*
D03*
X2026920D02*
D03*
X2006600D02*
D03*
X1987550D02*
D03*
X1965960Y1560830D02*
D03*
X2106930Y1559560D02*
D03*
X2087880D02*
D03*
X1826260Y1124099D02*
D03*
X1611630Y1123260D02*
D03*
X1826260Y1115060D02*
D03*
X1611630Y1111250D02*
D03*
X1810330Y1491020D02*
D03*
X1791970Y1381760D02*
D03*
X1697826Y1363885D02*
D03*
X1706015Y1360575D02*
D03*
X1647190Y1343660D02*
D03*
X1651000Y1365250D02*
D03*
X1656810Y1361440D02*
D03*
X1645920Y1369060D02*
D03*
X1741170Y953770D02*
D03*
X1826260Y1342390D02*
D03*
X1824910Y1289130D02*
D03*
X1986280Y1587500D02*
D03*
X2026920D02*
D03*
X2067560D02*
D03*
X2106930D02*
D03*
X1744980Y1319529D02*
D03*
X1455410Y927680D02*
D03*
X1588770Y1049020D02*
D03*
X1620520Y1074420D02*
D03*
X1588770Y1061720D02*
D03*
X1737360Y1203960D02*
D03*
X1732360Y1222130D02*
D03*
X1682360Y1222314D02*
D03*
X1689100Y1228090D02*
D03*
X1649730Y1239130D02*
D03*
X1826259Y1074421D02*
D03*
X1826260Y1089660D02*
D03*
X1696720Y1042820D02*
D03*
X1729740Y1076960D02*
D03*
X1696720Y1036320D02*
D03*
X1729740Y1064260D02*
D03*
X1704340Y1042820D02*
D03*
X1651000Y1099820D02*
D03*
X1710689Y1320422D02*
D03*
X1574800Y886460D02*
D03*
X1651000Y1115060D02*
D03*
X1587500Y1036320D02*
D03*
X1826260Y1038860D02*
D03*
X1672590Y1098550D02*
D03*
X1704340Y1055520D02*
D03*
X1729740Y1089660D02*
D03*
Y1102360D02*
D03*
X1638300Y957580D02*
D03*
X1598920Y862099D02*
D03*
X1434050Y958850D02*
D03*
X1408420Y881380D02*
D03*
X1604000Y873760D02*
D03*
X1524110Y928370D02*
D03*
X1586219Y902970D02*
D03*
X1626860Y895350D02*
D03*
X1748790Y1233170D02*
D03*
X1648460Y1244600D02*
D03*
X1798320Y1334770D02*
D03*
X1673860Y1322070D02*
D03*
Y1311910D02*
D03*
X1797050Y1356360D02*
D03*
Y1347470D02*
D03*
M02*
