G04*
G04 #@! TF.GenerationSoftware,Altium Limited,Altium Designer,24.1.2 (44)*
G04*
G04 Layer_Color=128*
%FSLAX44Y44*%
%MOMM*%
G71*
G04*
G04 #@! TF.SameCoordinates,8DB790BD-C0D2-442E-8808-D1DB86FAA070*
G04*
G04*
G04 #@! TF.FilePolarity,Positive*
G04*
G01*
G75*
%ADD23R,0.6000X0.9000*%
%ADD31R,1.6000X0.8000*%
%ADD32R,3.0000X2.1000*%
%ADD37R,0.8500X1.2000*%
%ADD40R,1.0000X1.0500*%
%ADD41R,1.0500X1.0000*%
%ADD46R,0.9000X0.6000*%
G04:AMPARAMS|DCode=49|XSize=2.24mm|YSize=2.32mm|CornerRadius=0.28mm|HoleSize=0mm|Usage=FLASHONLY|Rotation=180.000|XOffset=0mm|YOffset=0mm|HoleType=Round|Shape=RoundedRectangle|*
%AMROUNDEDRECTD49*
21,1,2.2400,1.7600,0,0,180.0*
21,1,1.6800,2.3200,0,0,180.0*
1,1,0.5600,-0.8400,0.8800*
1,1,0.5600,0.8400,0.8800*
1,1,0.5600,0.8400,-0.8800*
1,1,0.5600,-0.8400,-0.8800*
%
%ADD49ROUNDEDRECTD49*%
%ADD54R,2.5000X1.7000*%
G04:AMPARAMS|DCode=135|XSize=1.96mm|YSize=0.57mm|CornerRadius=0.1397mm|HoleSize=0mm|Usage=FLASHONLY|Rotation=180.000|XOffset=0mm|YOffset=0mm|HoleType=Round|Shape=RoundedRectangle|*
%AMROUNDEDRECTD135*
21,1,1.9600,0.2907,0,0,180.0*
21,1,1.6807,0.5700,0,0,180.0*
1,1,0.2793,-0.8404,0.1454*
1,1,0.2793,0.8404,0.1454*
1,1,0.2793,0.8404,-0.1454*
1,1,0.2793,-0.8404,-0.1454*
%
%ADD135ROUNDEDRECTD135*%
%ADD136R,1.9000X0.6000*%
%ADD137R,3.0000X1.8500*%
%ADD138R,1.8500X3.0000*%
%ADD139R,2.5000X2.5000*%
%ADD140O,0.4000X0.3500*%
%ADD141O,0.3500X0.4000*%
%ADD142O,1.8000X0.6000*%
%ADD143O,1.6500X0.6000*%
%ADD144R,3.1000X2.6000*%
%ADD145R,0.6000X1.5500*%
%ADD146R,2.7000X3.1000*%
%ADD147R,1.0000X0.9700*%
D23*
X1453772Y1347471D02*
D03*
X1471931Y1347470D02*
D03*
X1909188Y1093469D02*
D03*
X1891029Y1093470D02*
D03*
X1890652Y1080771D02*
D03*
X1908811Y1080770D02*
D03*
X1890652Y1069341D02*
D03*
X1908811Y1069340D02*
D03*
X1639192Y1508761D02*
D03*
X1657351Y1508760D02*
D03*
X1589148Y1295399D02*
D03*
X1570989Y1295400D02*
D03*
X1598552Y1295401D02*
D03*
X1616711Y1295400D02*
D03*
X1598552Y1318261D02*
D03*
X1616711Y1318260D02*
D03*
X1589148Y1318259D02*
D03*
X1570989Y1318260D02*
D03*
X1598552Y1306831D02*
D03*
X1616711Y1306830D02*
D03*
X1589148Y1306829D02*
D03*
X1570989Y1306830D02*
D03*
X1589148Y1282699D02*
D03*
X1570989Y1282700D02*
D03*
X1598552Y1282701D02*
D03*
X1616711Y1282700D02*
D03*
X1874142Y1330961D02*
D03*
X1892301Y1330960D02*
D03*
X1874142Y1355091D02*
D03*
X1892301Y1355090D02*
D03*
X1874142Y1315721D02*
D03*
X1892301Y1315720D02*
D03*
X1874142Y1300481D02*
D03*
X1892301Y1300480D02*
D03*
X1874520Y1285240D02*
D03*
X1892679Y1285239D02*
D03*
X1343282Y828041D02*
D03*
X1361441Y828040D02*
D03*
X1343282Y811531D02*
D03*
X1361441Y811530D02*
D03*
X1604378Y902969D02*
D03*
X1586219Y902970D02*
D03*
X1576952Y886461D02*
D03*
X1595111Y886460D02*
D03*
X1576952Y873761D02*
D03*
X1595111Y873760D02*
D03*
X1760598Y1244599D02*
D03*
X1742439Y1244600D02*
D03*
X1760598Y1211579D02*
D03*
X1742439Y1211580D02*
D03*
X1623952Y1245871D02*
D03*
X1642111Y1245870D02*
D03*
X1623952Y1233171D02*
D03*
X1642111Y1233170D02*
D03*
X1618358Y1268729D02*
D03*
X1600199Y1268730D02*
D03*
X1618358Y1257299D02*
D03*
X1600199Y1257300D02*
D03*
D31*
X2146430Y943740D02*
D03*
Y956240D02*
D03*
Y968740D02*
D03*
Y981240D02*
D03*
Y993740D02*
D03*
Y1006240D02*
D03*
Y1018740D02*
D03*
Y1031240D02*
D03*
Y1043740D02*
D03*
Y1056240D02*
D03*
Y1068740D02*
D03*
Y1081240D02*
D03*
Y1093740D02*
D03*
Y1106240D02*
D03*
Y1118740D02*
D03*
D32*
X2175430Y1144240D02*
D03*
Y918240D02*
D03*
D37*
X1685341Y1568650D02*
D03*
X1675892Y1593596D02*
D03*
X1695145Y1593650D02*
D03*
X1538021Y1566110D02*
D03*
X1528572Y1591056D02*
D03*
X1547825Y1591110D02*
D03*
D40*
X1910080Y1520070D02*
D03*
Y1505070D02*
D03*
X1477010Y1373900D02*
D03*
Y1358900D02*
D03*
X1478280Y1427360D02*
D03*
Y1412360D02*
D03*
Y1480700D02*
D03*
Y1465700D02*
D03*
X1513840Y1315600D02*
D03*
Y1300600D02*
D03*
X1437640Y1315600D02*
D03*
Y1300600D02*
D03*
X1456690Y1315600D02*
D03*
Y1300600D02*
D03*
X1494790Y1282580D02*
D03*
Y1267580D02*
D03*
X1456690Y1282580D02*
D03*
Y1267580D02*
D03*
X1419860Y1315600D02*
D03*
Y1300600D02*
D03*
X1437640Y1282580D02*
D03*
Y1267580D02*
D03*
X1551940Y1282580D02*
D03*
Y1267580D02*
D03*
X1532890Y1282580D02*
D03*
Y1267580D02*
D03*
Y1315600D02*
D03*
Y1300600D02*
D03*
X1551940Y1315600D02*
D03*
Y1300600D02*
D03*
X1475740Y1282580D02*
D03*
Y1267580D02*
D03*
X1419860Y1282580D02*
D03*
Y1267580D02*
D03*
X1513840Y1282580D02*
D03*
Y1267580D02*
D03*
X1475740Y1315600D02*
D03*
Y1300600D02*
D03*
X1494790Y1315600D02*
D03*
Y1300600D02*
D03*
X1929130Y1483240D02*
D03*
Y1468240D02*
D03*
X1922780Y1550550D02*
D03*
Y1535550D02*
D03*
X2075180Y1513960D02*
D03*
Y1528960D02*
D03*
X2061210Y1484510D02*
D03*
Y1469510D02*
D03*
X1935480Y1550550D02*
D03*
Y1535550D02*
D03*
X2039620Y1484510D02*
D03*
Y1469510D02*
D03*
X2103120Y1440300D02*
D03*
Y1455300D02*
D03*
Y1469510D02*
D03*
Y1484510D02*
D03*
X2075180Y1469630D02*
D03*
Y1484630D02*
D03*
X2089150Y1469630D02*
D03*
Y1484630D02*
D03*
X1948180Y1535550D02*
D03*
Y1550550D02*
D03*
X1960880Y1535550D02*
D03*
Y1550550D02*
D03*
X1941830Y1468240D02*
D03*
Y1483240D02*
D03*
X1954530Y1468240D02*
D03*
Y1483240D02*
D03*
X1949450Y1439030D02*
D03*
Y1454030D02*
D03*
X1915160Y1468240D02*
D03*
Y1483240D02*
D03*
X2039620Y1440300D02*
D03*
Y1455300D02*
D03*
X2025650Y1469630D02*
D03*
Y1484630D02*
D03*
X1997710Y1469510D02*
D03*
Y1484510D02*
D03*
X2011680Y1469630D02*
D03*
Y1484630D02*
D03*
X2089150Y1528960D02*
D03*
Y1513960D02*
D03*
X2117090Y1528960D02*
D03*
Y1513960D02*
D03*
X2103120Y1528960D02*
D03*
Y1513960D02*
D03*
X1686560Y1333620D02*
D03*
Y1348620D02*
D03*
X1672590Y1348620D02*
D03*
Y1333620D02*
D03*
D41*
X1454270Y1336040D02*
D03*
X1469270D02*
D03*
X1741170Y953770D02*
D03*
X1726170D02*
D03*
X1691880D02*
D03*
X1706880D02*
D03*
X1741050Y933450D02*
D03*
X1726050D02*
D03*
X1741050Y914400D02*
D03*
X1726050D02*
D03*
X1691880D02*
D03*
X1706880D02*
D03*
X1691880Y933450D02*
D03*
X1706880D02*
D03*
X1691760Y895350D02*
D03*
X1706760D02*
D03*
X1741170D02*
D03*
X1726170D02*
D03*
X1620400Y982980D02*
D03*
X1605400D02*
D03*
X1588650D02*
D03*
X1573650D02*
D03*
X1615560Y829310D02*
D03*
X1630560D02*
D03*
X1630560Y844550D02*
D03*
X1615560D02*
D03*
X1507360Y857250D02*
D03*
X1492360D02*
D03*
X1568320Y928370D02*
D03*
X1553320D02*
D03*
X1539110D02*
D03*
X1524110D02*
D03*
X1775340Y1225550D02*
D03*
X1760340D02*
D03*
X1647310Y1306830D02*
D03*
X1662310D02*
D03*
X1662310Y1291590D02*
D03*
X1647310D02*
D03*
X1647310Y1257300D02*
D03*
X1662310D02*
D03*
X1717160Y1262380D02*
D03*
X1732160D02*
D03*
X1687830Y1276350D02*
D03*
X1702830D02*
D03*
X1717160D02*
D03*
X1732160D02*
D03*
X1687950Y1262380D02*
D03*
X1702950D02*
D03*
X1765180Y1266190D02*
D03*
X1750180D02*
D03*
X1795660D02*
D03*
X1780660D02*
D03*
X1786770Y1328420D02*
D03*
X1771770D02*
D03*
X1662310Y1276350D02*
D03*
X1647310D02*
D03*
X1684140Y1320800D02*
D03*
X1699140D02*
D03*
X1699140Y1308100D02*
D03*
X1684140D02*
D03*
X1699140Y1238250D02*
D03*
X1684140D02*
D03*
X1786770Y1358900D02*
D03*
X1771770D02*
D03*
X1677790Y1291590D02*
D03*
X1692790D02*
D03*
X1771770Y1343660D02*
D03*
X1786770D02*
D03*
X1699380Y1223010D02*
D03*
X1714380D02*
D03*
D46*
X1428751Y1592958D02*
D03*
X1428750Y1574799D02*
D03*
X1612899Y1575692D02*
D03*
X1612900Y1593851D02*
D03*
X1596391Y1520568D02*
D03*
X1596390Y1502409D02*
D03*
X1607819Y1502032D02*
D03*
X1607820Y1520191D02*
D03*
X1468119Y1574422D02*
D03*
X1468120Y1592581D02*
D03*
X1584961Y1520568D02*
D03*
X1584960Y1502409D02*
D03*
X1573531Y1520568D02*
D03*
X1573530Y1502409D02*
D03*
X1478279Y1383922D02*
D03*
X1478280Y1402081D02*
D03*
X1478279Y1437262D02*
D03*
X1478280Y1455421D02*
D03*
X1478279Y1490602D02*
D03*
X1478280Y1508761D02*
D03*
X1795779Y1297562D02*
D03*
X1795780Y1315721D02*
D03*
X1615441Y1474848D02*
D03*
X1615440Y1456689D02*
D03*
X1779270Y1297939D02*
D03*
X1779271Y1316098D02*
D03*
X1744981Y1337688D02*
D03*
X1744980Y1319529D02*
D03*
X1733549Y1320422D02*
D03*
X1733550Y1338581D02*
D03*
X1710689Y1320422D02*
D03*
X1710690Y1338581D02*
D03*
X1722119Y1320422D02*
D03*
X1722120Y1338581D02*
D03*
X1699259Y1331852D02*
D03*
X1699260Y1350011D02*
D03*
X1784351Y1191638D02*
D03*
X1784350Y1173479D02*
D03*
X1799591Y1191638D02*
D03*
X1799590Y1173479D02*
D03*
X1766571Y1194178D02*
D03*
X1766570Y1176019D02*
D03*
X1746249Y1175642D02*
D03*
X1746250Y1193801D02*
D03*
X1409689Y853062D02*
D03*
X1409690Y871221D02*
D03*
X1409691Y916048D02*
D03*
X1409690Y897889D02*
D03*
D49*
X1588980Y838200D02*
D03*
X1540280D02*
D03*
D54*
X1506530Y900430D02*
D03*
X1546530D02*
D03*
D135*
X1499300Y1374140D02*
D03*
Y1361440D02*
D03*
Y1348740D02*
D03*
Y1336040D02*
D03*
X1548700D02*
D03*
Y1348740D02*
D03*
Y1361440D02*
D03*
Y1374140D02*
D03*
X1500570Y1427480D02*
D03*
Y1414780D02*
D03*
Y1402080D02*
D03*
Y1389380D02*
D03*
X1549970D02*
D03*
Y1402080D02*
D03*
Y1414780D02*
D03*
Y1427480D02*
D03*
X1500570Y1474470D02*
D03*
Y1461770D02*
D03*
Y1449070D02*
D03*
Y1436370D02*
D03*
X1549970D02*
D03*
Y1449070D02*
D03*
Y1461770D02*
D03*
Y1474470D02*
D03*
X1500570Y1521460D02*
D03*
Y1508760D02*
D03*
Y1496060D02*
D03*
Y1483360D02*
D03*
X1549970D02*
D03*
Y1496060D02*
D03*
Y1508760D02*
D03*
Y1521460D02*
D03*
D136*
X1839980Y1127760D02*
D03*
Y1115060D02*
D03*
Y1102360D02*
D03*
Y1089660D02*
D03*
Y1076960D02*
D03*
Y1064260D02*
D03*
Y1051560D02*
D03*
Y1038860D02*
D03*
X1744980Y1127760D02*
D03*
Y1115060D02*
D03*
Y1102360D02*
D03*
Y1089660D02*
D03*
Y1064260D02*
D03*
Y1051560D02*
D03*
Y1038860D02*
D03*
Y1076960D02*
D03*
D137*
X2072640Y1422890D02*
D03*
Y1452390D02*
D03*
X1925320Y1449850D02*
D03*
Y1420350D02*
D03*
X2006600Y1452390D02*
D03*
Y1422890D02*
D03*
D138*
X1956580Y1512570D02*
D03*
X1927080D02*
D03*
D139*
X1648460Y1477010D02*
D03*
D140*
X1665460Y1464510D02*
D03*
Y1469510D02*
D03*
Y1474510D02*
D03*
Y1479510D02*
D03*
Y1484510D02*
D03*
Y1489510D02*
D03*
X1631460D02*
D03*
Y1484510D02*
D03*
Y1479510D02*
D03*
Y1474510D02*
D03*
Y1469510D02*
D03*
Y1464510D02*
D03*
D141*
X1660960Y1494010D02*
D03*
X1655960D02*
D03*
X1650960D02*
D03*
X1645960D02*
D03*
X1640960D02*
D03*
X1635960D02*
D03*
Y1460010D02*
D03*
X1640960D02*
D03*
X1645960D02*
D03*
X1650960D02*
D03*
X1655960D02*
D03*
X1660960D02*
D03*
D142*
X1604350Y1036320D02*
D03*
Y1049020D02*
D03*
Y1061720D02*
D03*
Y1074420D02*
D03*
X1710350Y1036320D02*
D03*
Y1049020D02*
D03*
Y1061720D02*
D03*
Y1074420D02*
D03*
D143*
X1685600Y1136650D02*
D03*
Y1123950D02*
D03*
Y1111250D02*
D03*
Y1098550D02*
D03*
X1629100Y1136650D02*
D03*
Y1123950D02*
D03*
Y1111250D02*
D03*
Y1098550D02*
D03*
D144*
X1449060Y884250D02*
D03*
D145*
X1430010Y911250D02*
D03*
X1442710D02*
D03*
X1455410D02*
D03*
X1468110D02*
D03*
X1430010Y857250D02*
D03*
X1442710D02*
D03*
X1455410D02*
D03*
X1468110D02*
D03*
D146*
X1433530Y961390D02*
D03*
X1492530D02*
D03*
D147*
X1780810Y1250950D02*
D03*
X1795510D02*
D03*
M02*
