G04*
G04 #@! TF.GenerationSoftware,Altium Limited,Altium Designer,24.1.2 (44)*
G04*
G04 Layer_Physical_Order=3*
G04 Layer_Color=255*
%FSLAX44Y44*%
%MOMM*%
G71*
G04*
G04 #@! TF.SameCoordinates,8DB790BD-C0D2-442E-8808-D1DB86FAA070*
G04*
G04*
G04 #@! TF.FilePolarity,Positive*
G04*
G01*
G75*
%ADD117C,1.0000*%
%ADD122C,5.0000*%
%ADD123C,0.5000*%
%ADD124C,1.4580*%
%ADD125C,2.3000*%
%ADD127C,1.2580*%
%ADD128C,1.5200*%
%ADD129R,1.5200X1.5200*%
%ADD130C,1.3700*%
%ADD131R,1.3700X1.3700*%
%ADD132R,1.6000X1.6000*%
%ADD133C,1.6000*%
%ADD134C,0.4000*%
G36*
X2179109Y1618274D02*
X2183731Y1616359D01*
X2187892Y1613580D01*
X2191429Y1610042D01*
X2194209Y1605881D01*
X2196124Y1601259D01*
X2197100Y1596352D01*
Y1593850D01*
Y792480D01*
Y789978D01*
X2196124Y785071D01*
X2194209Y780449D01*
X2191429Y776288D01*
X2187892Y772750D01*
X2183731Y769971D01*
X2179109Y768056D01*
X2174202Y767080D01*
X1452371D01*
X1451885Y768253D01*
X1455182Y771550D01*
X1464910D01*
Y790550D01*
X1445910D01*
Y780822D01*
X1436924Y771836D01*
X1425540D01*
Y789280D01*
X1406540D01*
Y771836D01*
X1348176D01*
X1323546Y796466D01*
Y1010744D01*
X1333152Y1020350D01*
X1333329D01*
X1335453Y1020919D01*
X1337357Y1022018D01*
X1338912Y1023573D01*
X1340011Y1025477D01*
X1340580Y1027601D01*
Y1029799D01*
X1340011Y1031923D01*
X1338912Y1033827D01*
X1338786Y1033953D01*
Y1048847D01*
X1338912Y1048973D01*
X1340011Y1050877D01*
X1340580Y1053001D01*
Y1055199D01*
X1340011Y1057323D01*
X1338912Y1059227D01*
X1337357Y1060782D01*
X1335453Y1061881D01*
X1333329Y1062450D01*
X1331131D01*
X1329007Y1061881D01*
X1327103Y1060782D01*
X1325548Y1059227D01*
X1324449Y1057323D01*
X1323880Y1055199D01*
Y1053001D01*
X1324449Y1050877D01*
X1325548Y1048973D01*
X1325674Y1048847D01*
Y1033953D01*
X1325548Y1033827D01*
X1324449Y1031923D01*
X1323880Y1029799D01*
Y1029622D01*
X1316353Y1022095D01*
X1315180Y1022581D01*
Y1037050D01*
X1313386D01*
Y1048847D01*
X1313512Y1048973D01*
X1314611Y1050877D01*
X1315180Y1053001D01*
Y1055199D01*
X1314611Y1057323D01*
X1313512Y1059227D01*
X1311957Y1060782D01*
X1310053Y1061881D01*
X1307929Y1062450D01*
X1305731D01*
X1303607Y1061881D01*
X1301703Y1060782D01*
X1300148Y1059227D01*
X1299049Y1057323D01*
X1298480Y1055199D01*
Y1053001D01*
X1299049Y1050877D01*
X1300148Y1048973D01*
X1300274Y1048847D01*
Y1037050D01*
X1298480D01*
Y1020350D01*
X1312949D01*
X1313435Y1019177D01*
X1312354Y1018096D01*
X1311312Y1016738D01*
X1310657Y1015157D01*
X1310434Y1013460D01*
Y793750D01*
X1310657Y792053D01*
X1311312Y790472D01*
X1312354Y789114D01*
X1333215Y768253D01*
X1332729Y767080D01*
X1328420D01*
X1326006Y767080D01*
X1321219Y767710D01*
X1316556Y768960D01*
X1312095Y770807D01*
X1307914Y773221D01*
X1304084Y776160D01*
X1300670Y779574D01*
X1297731Y783404D01*
X1295317Y787586D01*
X1293470Y792046D01*
X1292220Y796709D01*
X1291590Y801496D01*
X1291590Y803910D01*
Y1273810D01*
X1291590Y1279249D01*
X1292443Y1290093D01*
X1294145Y1300837D01*
X1296684Y1311414D01*
X1300046Y1321760D01*
X1304209Y1331810D01*
X1309147Y1341502D01*
X1314831Y1350777D01*
X1321225Y1359577D01*
X1328289Y1367849D01*
X1335981Y1375541D01*
X1344253Y1382605D01*
X1353053Y1388999D01*
X1362328Y1394683D01*
X1372020Y1399621D01*
X1382070Y1403784D01*
X1392415Y1407146D01*
X1402993Y1409685D01*
X1413737Y1411387D01*
X1424581Y1412240D01*
X1430020Y1412240D01*
X1499932Y1412240D01*
X1501140Y1412240D01*
X1501140Y1412240D01*
X1501140Y1412240D01*
X1502260Y1412295D01*
X1502378Y1412318D01*
X1504458Y1412732D01*
X1506528Y1413589D01*
X1508391Y1414834D01*
X1509976Y1416419D01*
X1511221Y1418282D01*
X1512078Y1420352D01*
X1512515Y1422550D01*
X1512570Y1423670D01*
X1512570Y1494790D01*
X1512570Y1494790D01*
X1512570Y1494790D01*
X1512570Y1494793D01*
X1512533Y1495537D01*
X1512449Y1495959D01*
X1512242Y1497002D01*
X1511670Y1498382D01*
X1510840Y1499624D01*
X1509784Y1500680D01*
X1508542Y1501510D01*
X1507162Y1502082D01*
X1505697Y1502373D01*
X1504950Y1502410D01*
X1490980Y1502410D01*
X1490980Y1502410D01*
X1487735Y1502410D01*
X1481278Y1503046D01*
X1474914Y1504312D01*
X1468705Y1506195D01*
X1462710Y1508678D01*
X1456988Y1511737D01*
X1451592Y1515342D01*
X1446577Y1519459D01*
X1441989Y1524047D01*
X1437872Y1529063D01*
X1434267Y1534458D01*
X1431208Y1540180D01*
X1428725Y1546175D01*
X1426842Y1552384D01*
X1425576Y1558748D01*
X1424940Y1565206D01*
X1424940Y1568450D01*
Y1572260D01*
X1424940Y1572260D01*
X1424940Y1572260D01*
X1424940Y1574590D01*
X1425548Y1579212D01*
X1426755Y1583715D01*
X1428539Y1588021D01*
X1430869Y1592058D01*
X1433707Y1595757D01*
X1437003Y1599053D01*
X1440701Y1601891D01*
X1444738Y1604221D01*
X1449045Y1606005D01*
X1453548Y1607212D01*
X1458169Y1607820D01*
X1460500Y1607820D01*
X1549415Y1607820D01*
X1549823D01*
X1550571Y1607500D01*
X1552787Y1606550D01*
Y1606550D01*
X1555750Y1605280D01*
X1555750Y1605785D01*
X1555363Y1606719D01*
X1555173Y1606909D01*
Y1606909D01*
X1555173Y1606909D01*
X1555173D01*
X1554649Y1607433D01*
X1553715Y1607820D01*
X1553047D01*
Y1607820D01*
X1551054D01*
X1550954Y1607943D01*
X1551499Y1609090D01*
X1725930Y1609090D01*
X1725930Y1609090D01*
X1725930Y1609090D01*
X1730970Y1609090D01*
X1741018Y1608299D01*
X1750973Y1606722D01*
X1760774Y1604369D01*
X1770361Y1601255D01*
X1779673Y1597397D01*
X1788654Y1592821D01*
X1797248Y1587555D01*
X1805403Y1581630D01*
X1813067Y1575084D01*
X1820194Y1567957D01*
X1826740Y1560293D01*
X1832665Y1552138D01*
X1837932Y1543544D01*
X1842507Y1534563D01*
X1846365Y1525251D01*
X1849479Y1515665D01*
X1851832Y1505863D01*
X1853409Y1495908D01*
X1854200Y1485860D01*
X1854200Y1480820D01*
X1854200Y1206500D01*
X1854322Y1204010D01*
X1855294Y1199126D01*
X1857199Y1194526D01*
X1859966Y1190386D01*
X1863486Y1186865D01*
X1867626Y1184099D01*
X1872227Y1182194D01*
X1877110Y1181222D01*
X1879600Y1181100D01*
X1937356D01*
X1941037Y1180368D01*
X1944504Y1178932D01*
X1947624Y1176847D01*
X1950277Y1174194D01*
X1952362Y1171074D01*
X1953798Y1167607D01*
X1954530Y1163926D01*
Y1162050D01*
Y1109980D01*
X1954610Y1108362D01*
X1955241Y1105187D01*
X1956479Y1102197D01*
X1958277Y1099506D01*
X1960566Y1097217D01*
X1963257Y1095419D01*
X1966247Y1094181D01*
X1969422Y1093549D01*
X1971040Y1093470D01*
X2048510D01*
X2050751Y1093580D01*
X2055146Y1094454D01*
X2059286Y1096169D01*
X2063012Y1098659D01*
X2066181Y1101828D01*
X2068671Y1105554D01*
X2070386Y1109694D01*
X2071260Y1114089D01*
X2071370Y1116330D01*
X2071370Y1466454D01*
X2072640Y1466980D01*
X2073197Y1466423D01*
X2074484Y1465890D01*
X2075876D01*
X2077163Y1466423D01*
X2078147Y1467407D01*
X2078680Y1468694D01*
Y1470086D01*
X2078147Y1471373D01*
X2077163Y1472357D01*
X2075876Y1472890D01*
X2074484D01*
X2073197Y1472357D01*
X2072640Y1471800D01*
X2071370Y1472326D01*
X2071370Y1593850D01*
Y1596352D01*
X2072346Y1601259D01*
X2074261Y1605881D01*
X2077041Y1610042D01*
X2080578Y1613580D01*
X2084739Y1616359D01*
X2089361Y1618274D01*
X2094268Y1619250D01*
X2174202D01*
X2179109Y1618274D01*
D02*
G37*
%LPC*%
G36*
X2130737Y1611970D02*
X2128423D01*
X2126187Y1611371D01*
X2124183Y1610214D01*
X2122546Y1608577D01*
X2121389Y1606573D01*
X2120790Y1604337D01*
Y1602023D01*
X2121389Y1599787D01*
X2122546Y1597783D01*
X2124183Y1596146D01*
X2126187Y1594989D01*
X2128423Y1594390D01*
X2130737D01*
X2132973Y1594989D01*
X2134977Y1596146D01*
X2136614Y1597783D01*
X2137771Y1599787D01*
X2138370Y1602023D01*
Y1604337D01*
X2137771Y1606573D01*
X2136614Y1608577D01*
X2134977Y1610214D01*
X2132973Y1611371D01*
X2130737Y1611970D01*
D02*
G37*
G36*
X1695841Y1597150D02*
X1694449D01*
X1693162Y1596617D01*
X1692178Y1595633D01*
X1691645Y1594346D01*
Y1592954D01*
X1692178Y1591667D01*
X1693162Y1590683D01*
X1694449Y1590150D01*
X1695841D01*
X1697128Y1590683D01*
X1698112Y1591667D01*
X1698645Y1592954D01*
Y1594346D01*
X1698112Y1595633D01*
X1697128Y1596617D01*
X1695841Y1597150D01*
D02*
G37*
G36*
X1676588Y1597096D02*
X1675196D01*
X1673909Y1596563D01*
X1672925Y1595579D01*
X1672392Y1594292D01*
Y1592900D01*
X1672925Y1591613D01*
X1673909Y1590629D01*
X1675196Y1590096D01*
X1676588D01*
X1677875Y1590629D01*
X1678859Y1591613D01*
X1679392Y1592900D01*
Y1594292D01*
X1678859Y1595579D01*
X1677875Y1596563D01*
X1676588Y1597096D01*
D02*
G37*
G36*
X1548521Y1594610D02*
X1547129D01*
X1545842Y1594077D01*
X1544858Y1593093D01*
X1544325Y1591806D01*
Y1590414D01*
X1544858Y1589128D01*
X1545842Y1588143D01*
X1547129Y1587610D01*
X1548521D01*
X1549807Y1588143D01*
X1550792Y1589128D01*
X1551325Y1590414D01*
Y1591806D01*
X1550792Y1593093D01*
X1549807Y1594077D01*
X1548521Y1594610D01*
D02*
G37*
G36*
X1529268Y1594556D02*
X1527876D01*
X1526589Y1594023D01*
X1525605Y1593039D01*
X1525072Y1591752D01*
Y1590360D01*
X1525605Y1589073D01*
X1526589Y1588089D01*
X1527876Y1587556D01*
X1529268D01*
X1530555Y1588089D01*
X1531539Y1589073D01*
X1532072Y1590360D01*
Y1591752D01*
X1531539Y1593039D01*
X1530555Y1594023D01*
X1529268Y1594556D01*
D02*
G37*
G36*
X1638996Y1591960D02*
X1637604D01*
X1636317Y1591427D01*
X1635333Y1590443D01*
X1634800Y1589156D01*
Y1587764D01*
X1635333Y1586477D01*
X1636317Y1585493D01*
X1637604Y1584960D01*
X1638996D01*
X1640283Y1585493D01*
X1641267Y1586477D01*
X1641800Y1587764D01*
Y1589156D01*
X1641267Y1590443D01*
X1640283Y1591427D01*
X1638996Y1591960D01*
D02*
G37*
G36*
X1495518Y1590174D02*
X1494126D01*
X1492840Y1589641D01*
X1491855Y1588656D01*
X1491322Y1587370D01*
Y1585977D01*
X1491855Y1584691D01*
X1492840Y1583707D01*
X1494126Y1583174D01*
X1495518D01*
X1496805Y1583707D01*
X1497789Y1584691D01*
X1498322Y1585977D01*
Y1587370D01*
X1497789Y1588656D01*
X1496805Y1589641D01*
X1495518Y1590174D01*
D02*
G37*
G36*
X1631340Y1585480D02*
X1629948D01*
X1628662Y1584948D01*
X1627677Y1583963D01*
X1627144Y1582677D01*
Y1581284D01*
X1627677Y1579998D01*
X1628662Y1579013D01*
X1629948Y1578481D01*
X1631340D01*
X1632627Y1579013D01*
X1633611Y1579998D01*
X1634144Y1581284D01*
Y1582677D01*
X1633611Y1583963D01*
X1632627Y1584948D01*
X1631340Y1585480D01*
D02*
G37*
G36*
X1592006Y1591960D02*
X1590614D01*
X1589327Y1591427D01*
X1588343Y1590443D01*
X1587810Y1589156D01*
Y1587764D01*
X1588343Y1586477D01*
X1588781Y1586040D01*
X1589188Y1585210D01*
X1588781Y1584380D01*
X1588343Y1583943D01*
X1587810Y1582656D01*
Y1581264D01*
X1588343Y1579977D01*
X1589327Y1578993D01*
X1590614Y1578460D01*
X1592006D01*
X1593293Y1578993D01*
X1594277Y1579977D01*
X1594810Y1581264D01*
Y1582656D01*
X1594277Y1583943D01*
X1593839Y1584380D01*
X1593432Y1585210D01*
X1593839Y1586040D01*
X1594277Y1586477D01*
X1594810Y1587764D01*
Y1589156D01*
X1594277Y1590443D01*
X1593293Y1591427D01*
X1592006Y1591960D01*
D02*
G37*
G36*
X1487866Y1584190D02*
X1486474D01*
X1485187Y1583657D01*
X1484203Y1582673D01*
X1483670Y1581386D01*
Y1579994D01*
X1484203Y1578707D01*
X1485187Y1577723D01*
X1486474Y1577190D01*
X1487866D01*
X1489153Y1577723D01*
X1490137Y1578707D01*
X1490670Y1579994D01*
Y1581386D01*
X1490137Y1582673D01*
X1489153Y1583657D01*
X1487866Y1584190D01*
D02*
G37*
G36*
X1447226D02*
X1445834D01*
X1444547Y1583657D01*
X1443563Y1582673D01*
X1443030Y1581386D01*
Y1579994D01*
X1443563Y1578707D01*
X1444547Y1577723D01*
X1445834Y1577190D01*
X1447226D01*
X1448513Y1577723D01*
X1449497Y1578707D01*
X1450030Y1579994D01*
Y1581386D01*
X1449497Y1582673D01*
X1448513Y1583657D01*
X1447226Y1584190D01*
D02*
G37*
G36*
X1640266Y1578300D02*
X1638874D01*
X1637587Y1577767D01*
X1636603Y1576783D01*
X1636070Y1575496D01*
Y1574104D01*
X1636603Y1572817D01*
X1637587Y1571833D01*
X1638874Y1571300D01*
X1640266D01*
X1641553Y1571833D01*
X1642537Y1572817D01*
X1643070Y1574104D01*
Y1575496D01*
X1642537Y1576783D01*
X1641553Y1577767D01*
X1640266Y1578300D01*
D02*
G37*
G36*
X1494216Y1577690D02*
X1492824D01*
X1491537Y1577157D01*
X1490553Y1576173D01*
X1490020Y1574886D01*
Y1573494D01*
X1490553Y1572207D01*
X1491537Y1571223D01*
X1492824Y1570690D01*
X1494216D01*
X1495503Y1571223D01*
X1496487Y1572207D01*
X1497020Y1573494D01*
Y1574886D01*
X1496487Y1576173D01*
X1495503Y1577157D01*
X1494216Y1577690D01*
D02*
G37*
G36*
X1685986Y1570680D02*
X1684594D01*
X1683307Y1570147D01*
X1682323Y1569163D01*
X1681790Y1567876D01*
Y1566484D01*
X1682323Y1565197D01*
X1683307Y1564213D01*
X1684594Y1563680D01*
X1685986D01*
X1687273Y1564213D01*
X1688257Y1565197D01*
X1688790Y1566484D01*
Y1567876D01*
X1688257Y1569163D01*
X1687273Y1570147D01*
X1685986Y1570680D01*
D02*
G37*
G36*
X1538666Y1569410D02*
X1537274D01*
X1535987Y1568877D01*
X1535003Y1567893D01*
X1534470Y1566606D01*
Y1565214D01*
X1535003Y1563927D01*
X1535987Y1562943D01*
X1537274Y1562410D01*
X1538666D01*
X1539953Y1562943D01*
X1540937Y1563927D01*
X1541470Y1565214D01*
Y1566606D01*
X1540937Y1567893D01*
X1539953Y1568877D01*
X1538666Y1569410D01*
D02*
G37*
G36*
X2107626Y1563060D02*
X2106234D01*
X2104947Y1562527D01*
X2103963Y1561543D01*
X2103430Y1560256D01*
Y1558864D01*
X2103963Y1557577D01*
X2104947Y1556593D01*
X2106234Y1556060D01*
X2107626D01*
X2108913Y1556593D01*
X2109897Y1557577D01*
X2110430Y1558864D01*
Y1560256D01*
X2109897Y1561543D01*
X2108913Y1562527D01*
X2107626Y1563060D01*
D02*
G37*
G36*
X2088576D02*
X2087184D01*
X2085897Y1562527D01*
X2084913Y1561543D01*
X2084380Y1560256D01*
Y1558864D01*
X2084913Y1557577D01*
X2085897Y1556593D01*
X2087184Y1556060D01*
X2088576D01*
X2089863Y1556593D01*
X2090847Y1557577D01*
X2091380Y1558864D01*
Y1560256D01*
X2090847Y1561543D01*
X2089863Y1562527D01*
X2088576Y1563060D01*
D02*
G37*
G36*
X1727316Y1520570D02*
X1725924D01*
X1724637Y1520037D01*
X1723653Y1519053D01*
X1723120Y1517766D01*
Y1516374D01*
X1723653Y1515087D01*
X1724637Y1514103D01*
X1725924Y1513570D01*
X1727316D01*
X1728602Y1514103D01*
X1729587Y1515087D01*
X1730120Y1516374D01*
Y1517766D01*
X1729587Y1519053D01*
X1728602Y1520037D01*
X1727316Y1520570D01*
D02*
G37*
G36*
X1600896Y1512260D02*
X1599504D01*
X1598217Y1511727D01*
X1597233Y1510743D01*
X1596700Y1509456D01*
Y1508064D01*
X1597233Y1506777D01*
X1598217Y1505793D01*
X1599504Y1505260D01*
X1600896D01*
X1602183Y1505793D01*
X1603167Y1506777D01*
X1603700Y1508064D01*
Y1509456D01*
X1603167Y1510743D01*
X1602183Y1511727D01*
X1600896Y1512260D01*
D02*
G37*
G36*
X1551366D02*
X1549974D01*
X1548687Y1511727D01*
X1547703Y1510743D01*
X1547170Y1509456D01*
Y1508064D01*
X1547703Y1506777D01*
X1548687Y1505793D01*
X1549974Y1505260D01*
X1551366D01*
X1552653Y1505793D01*
X1553637Y1506777D01*
X1554170Y1508064D01*
Y1509456D01*
X1553637Y1510743D01*
X1552653Y1511727D01*
X1551366Y1512260D01*
D02*
G37*
G36*
X1815526Y1507180D02*
X1814134D01*
X1812847Y1506647D01*
X1811863Y1505663D01*
X1811330Y1504376D01*
Y1502984D01*
X1811863Y1501697D01*
X1812847Y1500713D01*
X1814134Y1500180D01*
X1815526D01*
X1816813Y1500713D01*
X1817797Y1501697D01*
X1818330Y1502984D01*
Y1504376D01*
X1817797Y1505663D01*
X1816813Y1506647D01*
X1815526Y1507180D01*
D02*
G37*
G36*
X1776646Y1502020D02*
X1775254D01*
X1773967Y1501487D01*
X1772983Y1500503D01*
X1772450Y1499216D01*
Y1497824D01*
X1772983Y1496537D01*
X1773967Y1495553D01*
X1775254Y1495020D01*
X1776646D01*
X1777933Y1495553D01*
X1778917Y1496537D01*
X1779450Y1497824D01*
Y1499216D01*
X1778917Y1500503D01*
X1777933Y1501487D01*
X1776646Y1502020D01*
D02*
G37*
G36*
X1733756Y1501980D02*
X1732364D01*
X1731077Y1501447D01*
X1730093Y1500463D01*
X1729560Y1499176D01*
Y1497784D01*
X1730093Y1496497D01*
X1731077Y1495513D01*
X1732364Y1494980D01*
X1733756D01*
X1735043Y1495513D01*
X1736027Y1496497D01*
X1736560Y1497784D01*
Y1499176D01*
X1736027Y1500463D01*
X1735043Y1501447D01*
X1733756Y1501980D01*
D02*
G37*
G36*
X1712656Y1501900D02*
X1711264D01*
X1709977Y1501367D01*
X1708993Y1500383D01*
X1708460Y1499096D01*
Y1497704D01*
X1708993Y1496417D01*
X1709977Y1495433D01*
X1711264Y1494900D01*
X1712656D01*
X1713943Y1495433D01*
X1714927Y1496417D01*
X1715460Y1497704D01*
Y1499096D01*
X1714927Y1500383D01*
X1713943Y1501367D01*
X1712656Y1501900D01*
D02*
G37*
G36*
X1548826Y1499560D02*
X1547434D01*
X1546147Y1499027D01*
X1545163Y1498043D01*
X1544630Y1496756D01*
Y1495364D01*
X1545163Y1494077D01*
X1546147Y1493093D01*
X1547434Y1492560D01*
X1548826D01*
X1550113Y1493093D01*
X1551097Y1494077D01*
X1551630Y1495364D01*
Y1496756D01*
X1551097Y1498043D01*
X1550113Y1499027D01*
X1548826Y1499560D01*
D02*
G37*
G36*
X1797746Y1504260D02*
X1796354D01*
X1795067Y1503727D01*
X1794083Y1502743D01*
X1793550Y1501456D01*
Y1500064D01*
X1794083Y1498777D01*
X1795067Y1497793D01*
X1796354Y1497260D01*
X1797746D01*
X1797948Y1497344D01*
X1798959Y1496466D01*
Y1495074D01*
X1799492Y1493787D01*
X1800477Y1492803D01*
X1801763Y1492270D01*
X1803155D01*
X1804442Y1492803D01*
X1805426Y1493787D01*
X1805959Y1495074D01*
Y1496466D01*
X1805426Y1497753D01*
X1804442Y1498737D01*
X1803155Y1499270D01*
X1801763D01*
X1801561Y1499186D01*
X1800550Y1500064D01*
Y1501456D01*
X1800017Y1502743D01*
X1799033Y1503727D01*
X1797746Y1504260D01*
D02*
G37*
G36*
X1779340Y1492584D02*
X1777948D01*
X1776661Y1492051D01*
X1775677Y1491066D01*
X1775144Y1489780D01*
Y1488387D01*
X1775677Y1487101D01*
X1776661Y1486117D01*
X1777948Y1485584D01*
X1779340D01*
X1780626Y1486117D01*
X1781611Y1487101D01*
X1782144Y1488387D01*
Y1489780D01*
X1781611Y1491066D01*
X1780626Y1492051D01*
X1779340Y1492584D01*
D02*
G37*
G36*
X1708839Y1491947D02*
X1707447D01*
X1706160Y1491414D01*
X1705176Y1490430D01*
X1704643Y1489143D01*
Y1487751D01*
X1705176Y1486464D01*
X1706160Y1485480D01*
X1707447Y1484947D01*
X1708839D01*
X1710126Y1485480D01*
X1711110Y1486464D01*
X1711643Y1487751D01*
Y1489143D01*
X1711110Y1490430D01*
X1710126Y1491414D01*
X1708839Y1491947D01*
D02*
G37*
G36*
X1733756Y1491820D02*
X1732364D01*
X1731077Y1491287D01*
X1730093Y1490303D01*
X1729560Y1489016D01*
Y1487624D01*
X1730093Y1486337D01*
X1731077Y1485353D01*
X1732364Y1484820D01*
X1733756D01*
X1735043Y1485353D01*
X1736027Y1486337D01*
X1736560Y1487624D01*
Y1489016D01*
X1736027Y1490303D01*
X1735043Y1491287D01*
X1733756Y1491820D01*
D02*
G37*
G36*
X1797746Y1489400D02*
X1796354D01*
X1795067Y1488867D01*
X1794083Y1487883D01*
X1793550Y1486596D01*
Y1485204D01*
X1794083Y1483917D01*
X1795067Y1482933D01*
X1796354Y1482400D01*
X1797746D01*
X1799033Y1482933D01*
X1800017Y1483917D01*
X1800550Y1485204D01*
Y1486596D01*
X1800017Y1487883D01*
X1799033Y1488867D01*
X1797746Y1489400D01*
D02*
G37*
G36*
X1811026Y1494520D02*
X1809634D01*
X1808347Y1493987D01*
X1807363Y1493003D01*
X1806830Y1491716D01*
Y1490324D01*
X1807312Y1489160D01*
X1806478Y1488815D01*
X1805494Y1487830D01*
X1804961Y1486543D01*
Y1485151D01*
X1805494Y1483865D01*
X1806478Y1482880D01*
X1807765Y1482347D01*
X1809157D01*
X1810444Y1482880D01*
X1811428Y1483865D01*
X1811961Y1485151D01*
Y1486543D01*
X1811479Y1487708D01*
X1812313Y1488053D01*
X1813297Y1489037D01*
X1813830Y1490324D01*
Y1491716D01*
X1813297Y1493003D01*
X1812313Y1493987D01*
X1811026Y1494520D01*
D02*
G37*
G36*
X1752606Y1503915D02*
X1751214D01*
X1749927Y1503382D01*
X1748943Y1502398D01*
X1748410Y1501111D01*
Y1499719D01*
X1747729Y1499560D01*
X1747514D01*
X1746227Y1499027D01*
X1745243Y1498043D01*
X1744710Y1496756D01*
Y1495364D01*
X1745243Y1494077D01*
X1746227Y1493093D01*
X1747514Y1492560D01*
X1747891D01*
X1748757Y1491333D01*
Y1489941D01*
X1749290Y1488655D01*
X1750275Y1487670D01*
X1751561Y1487137D01*
X1751928D01*
X1752754Y1485867D01*
X1752530Y1485326D01*
Y1483934D01*
X1753063Y1482647D01*
X1754047Y1481663D01*
X1755334Y1481130D01*
X1756726D01*
X1758013Y1481663D01*
X1758997Y1482647D01*
X1759530Y1483934D01*
Y1485326D01*
X1758997Y1486613D01*
X1758013Y1487597D01*
X1756726Y1488130D01*
X1756359D01*
X1755533Y1489400D01*
X1755757Y1489941D01*
Y1491333D01*
X1755224Y1492620D01*
X1754240Y1493604D01*
X1752953Y1494137D01*
X1752577D01*
X1751710Y1495364D01*
Y1496756D01*
X1752391Y1496915D01*
X1752606D01*
X1753893Y1497448D01*
X1754877Y1498432D01*
X1755410Y1499719D01*
Y1501111D01*
X1754877Y1502398D01*
X1753893Y1503382D01*
X1752606Y1503915D01*
D02*
G37*
G36*
X1670056Y1484236D02*
X1668664D01*
X1667377Y1483704D01*
X1666393Y1482719D01*
X1665860Y1481433D01*
Y1480040D01*
X1666393Y1478754D01*
X1667377Y1477769D01*
X1668664Y1477236D01*
X1670056D01*
X1671343Y1477769D01*
X1672327Y1478754D01*
X1672860Y1480040D01*
Y1481433D01*
X1672327Y1482719D01*
X1671343Y1483704D01*
X1670056Y1484236D01*
D02*
G37*
G36*
X2102546Y1480510D02*
X2101154D01*
X2099867Y1479977D01*
X2098883Y1478993D01*
X2098350Y1477706D01*
Y1476314D01*
X2098883Y1475027D01*
X2099867Y1474043D01*
X2101154Y1473510D01*
X2102546D01*
X2103833Y1474043D01*
X2104817Y1475027D01*
X2105350Y1476314D01*
Y1477706D01*
X2104817Y1478993D01*
X2103833Y1479977D01*
X2102546Y1480510D01*
D02*
G37*
G36*
X1796476Y1477970D02*
X1795084D01*
X1793797Y1477437D01*
X1792813Y1476453D01*
X1792280Y1475166D01*
Y1473774D01*
X1792813Y1472487D01*
X1793797Y1471503D01*
X1795084Y1470970D01*
X1796476D01*
X1797763Y1471503D01*
X1798747Y1472487D01*
X1799280Y1473774D01*
Y1475166D01*
X1798747Y1476453D01*
X1797763Y1477437D01*
X1796476Y1477970D01*
D02*
G37*
G36*
X1727889Y1474167D02*
X1726497D01*
X1725210Y1473634D01*
X1724226Y1472650D01*
X1723693Y1471363D01*
Y1469971D01*
X1724226Y1468684D01*
X1725210Y1467700D01*
X1726497Y1467167D01*
X1727889D01*
X1729176Y1467700D01*
X1730160Y1468684D01*
X1730693Y1469971D01*
Y1471363D01*
X1730160Y1472650D01*
X1729176Y1473634D01*
X1727889Y1474167D01*
D02*
G37*
G36*
X1741286Y1469080D02*
X1739894D01*
X1738607Y1468547D01*
X1737623Y1467563D01*
X1737090Y1466276D01*
Y1464884D01*
X1737623Y1463597D01*
X1738607Y1462613D01*
X1739894Y1462080D01*
X1741286D01*
X1742573Y1462613D01*
X1743557Y1463597D01*
X1744090Y1464884D01*
Y1466276D01*
X1743557Y1467563D01*
X1742573Y1468547D01*
X1741286Y1469080D01*
D02*
G37*
G36*
X1828226Y1470350D02*
X1826834D01*
X1825547Y1469817D01*
X1824563Y1468833D01*
X1824030Y1467546D01*
Y1466154D01*
X1824563Y1464867D01*
X1825547Y1463883D01*
X1826834Y1463350D01*
X1828226D01*
X1829513Y1463883D01*
X1829648Y1464019D01*
X1830725Y1463299D01*
X1830380Y1462466D01*
Y1461074D01*
X1830913Y1459787D01*
X1831897Y1458803D01*
X1833184Y1458270D01*
X1834576D01*
X1835863Y1458803D01*
X1836847Y1459787D01*
X1837380Y1461074D01*
Y1462466D01*
X1836847Y1463753D01*
X1835863Y1464737D01*
X1834576Y1465270D01*
X1833184D01*
X1831897Y1464737D01*
X1831762Y1464601D01*
X1830685Y1465321D01*
X1831030Y1466154D01*
Y1467546D01*
X1830497Y1468833D01*
X1829513Y1469817D01*
X1828226Y1470350D01*
D02*
G37*
G36*
X1551366Y1465270D02*
X1549974D01*
X1548687Y1464737D01*
X1547703Y1463753D01*
X1547170Y1462466D01*
Y1461074D01*
X1547703Y1459787D01*
X1548687Y1458803D01*
X1549974Y1458270D01*
X1551366D01*
X1552653Y1458803D01*
X1553637Y1459787D01*
X1554170Y1461074D01*
Y1462466D01*
X1553637Y1463753D01*
X1552653Y1464737D01*
X1551366Y1465270D01*
D02*
G37*
G36*
X1603436Y1462730D02*
X1602044D01*
X1600757Y1462197D01*
X1599773Y1461213D01*
X1599240Y1459926D01*
Y1458534D01*
X1599773Y1457247D01*
X1600757Y1456263D01*
X1602044Y1455730D01*
X1603436D01*
X1604723Y1456263D01*
X1605707Y1457247D01*
X1606240Y1458534D01*
Y1459926D01*
X1605707Y1461213D01*
X1604723Y1462197D01*
X1603436Y1462730D01*
D02*
G37*
G36*
X1656776Y1456960D02*
X1655384D01*
X1654097Y1456427D01*
X1653113Y1455443D01*
X1652580Y1454156D01*
Y1452764D01*
X1653113Y1451477D01*
X1654097Y1450493D01*
X1655384Y1449960D01*
X1656776D01*
X1658063Y1450493D01*
X1659047Y1451477D01*
X1659580Y1452764D01*
Y1454156D01*
X1659047Y1455443D01*
X1658063Y1456427D01*
X1656776Y1456960D01*
D02*
G37*
G36*
X1727896Y1452570D02*
X1726504D01*
X1725217Y1452037D01*
X1724233Y1451053D01*
X1723700Y1449766D01*
Y1448374D01*
X1724233Y1447087D01*
X1725217Y1446103D01*
X1726504Y1445570D01*
X1727896D01*
X1729183Y1446103D01*
X1730167Y1447087D01*
X1730700Y1448374D01*
Y1449766D01*
X1730167Y1451053D01*
X1729183Y1452037D01*
X1727896Y1452570D01*
D02*
G37*
G36*
X1551366D02*
X1549974D01*
X1548687Y1452037D01*
X1547703Y1451053D01*
X1547170Y1449766D01*
Y1448374D01*
X1547703Y1447087D01*
X1548687Y1446103D01*
X1549974Y1445570D01*
X1551366D01*
X1552653Y1446103D01*
X1553637Y1447087D01*
X1554170Y1448374D01*
Y1449766D01*
X1553637Y1451053D01*
X1552653Y1452037D01*
X1551366Y1452570D01*
D02*
G37*
G36*
X2174168Y1460710D02*
X2171772D01*
X2169458Y1460090D01*
X2167383Y1458892D01*
X2165688Y1457198D01*
X2164490Y1455123D01*
X2163870Y1452808D01*
Y1450412D01*
X2164490Y1448098D01*
X2165688Y1446022D01*
X2167383Y1444328D01*
X2169458Y1443130D01*
X2171772Y1442510D01*
X2174168D01*
X2176483Y1443130D01*
X2178557Y1444328D01*
X2180252Y1446022D01*
X2181450Y1448098D01*
X2182070Y1450412D01*
Y1452808D01*
X2181450Y1455123D01*
X2180252Y1457198D01*
X2178557Y1458892D01*
X2176483Y1460090D01*
X2174168Y1460710D01*
D02*
G37*
G36*
X1815526Y1448760D02*
X1814134D01*
X1812847Y1448227D01*
X1811863Y1447243D01*
X1811330Y1445956D01*
Y1444564D01*
X1811863Y1443277D01*
X1812847Y1442293D01*
X1814134Y1441760D01*
X1815526D01*
X1816813Y1442293D01*
X1817797Y1443277D01*
X1818330Y1444564D01*
Y1445956D01*
X1817797Y1447243D01*
X1816813Y1448227D01*
X1815526Y1448760D01*
D02*
G37*
G36*
X1818954Y1438983D02*
X1817561D01*
X1816275Y1438450D01*
X1815290Y1437465D01*
X1814757Y1436179D01*
Y1434787D01*
X1815290Y1433500D01*
X1816275Y1432516D01*
X1817561Y1431983D01*
X1818954D01*
X1820240Y1432516D01*
X1821225Y1433500D01*
X1821757Y1434787D01*
Y1436179D01*
X1821225Y1437465D01*
X1820240Y1438450D01*
X1818954Y1438983D01*
D02*
G37*
G36*
X1777756Y1437740D02*
X1776364D01*
X1775077Y1437207D01*
X1774093Y1436223D01*
X1773560Y1434936D01*
Y1433544D01*
X1774093Y1432257D01*
X1775077Y1431273D01*
X1776364Y1430740D01*
X1777756D01*
X1779043Y1431273D01*
X1780027Y1432257D01*
X1780560Y1433544D01*
Y1434936D01*
X1780027Y1436223D01*
X1779043Y1437207D01*
X1777756Y1437740D01*
D02*
G37*
G36*
X1712656Y1437330D02*
X1711264D01*
X1709977Y1436797D01*
X1708993Y1435813D01*
X1708460Y1434526D01*
Y1433134D01*
X1708993Y1431847D01*
X1709977Y1430863D01*
X1711264Y1430330D01*
X1712656D01*
X1713943Y1430863D01*
X1714927Y1431847D01*
X1715460Y1433134D01*
Y1434526D01*
X1714927Y1435813D01*
X1713943Y1436797D01*
X1712656Y1437330D01*
D02*
G37*
G36*
X1734246Y1436060D02*
X1732854D01*
X1731567Y1435527D01*
X1730583Y1434543D01*
X1730050Y1433256D01*
Y1431864D01*
X1730583Y1430577D01*
X1731567Y1429593D01*
X1732854Y1429060D01*
X1734246D01*
X1735533Y1429593D01*
X1736517Y1430577D01*
X1737050Y1431864D01*
Y1433256D01*
X1736517Y1434543D01*
X1735533Y1435527D01*
X1734246Y1436060D01*
D02*
G37*
G36*
X1603436Y1432250D02*
X1602044D01*
X1600757Y1431717D01*
X1599773Y1430733D01*
X1599240Y1429446D01*
Y1428054D01*
X1599773Y1426767D01*
X1600757Y1425783D01*
X1602044Y1425250D01*
X1603436D01*
X1604723Y1425783D01*
X1605707Y1426767D01*
X1606240Y1428054D01*
Y1429446D01*
X1605707Y1430733D01*
X1604723Y1431717D01*
X1603436Y1432250D01*
D02*
G37*
G36*
X1569836Y1431622D02*
X1568444D01*
X1567157Y1431089D01*
X1566173Y1430105D01*
X1565640Y1428818D01*
Y1427426D01*
X1566173Y1426139D01*
X1567157Y1425155D01*
X1568444Y1424622D01*
X1569836D01*
X1571123Y1425155D01*
X1572107Y1426139D01*
X1572640Y1427426D01*
Y1428818D01*
X1572107Y1430105D01*
X1571123Y1431089D01*
X1569836Y1431622D01*
D02*
G37*
G36*
X2106356Y1430980D02*
X2104964D01*
X2103677Y1430447D01*
X2102693Y1429463D01*
X2102160Y1428176D01*
Y1426784D01*
X2102693Y1425497D01*
X2103677Y1424513D01*
X2104964Y1423980D01*
X2106356D01*
X2107643Y1424513D01*
X2108627Y1425497D01*
X2109160Y1426784D01*
Y1428176D01*
X2108627Y1429463D01*
X2107643Y1430447D01*
X2106356Y1430980D01*
D02*
G37*
G36*
X1758376Y1433520D02*
X1756984D01*
X1755697Y1432987D01*
X1754713Y1432003D01*
X1754180Y1430716D01*
Y1429613D01*
X1754042Y1429203D01*
X1753171Y1428440D01*
X1752394D01*
X1751107Y1427907D01*
X1750123Y1426923D01*
X1749590Y1425636D01*
Y1424244D01*
X1750123Y1422957D01*
X1751107Y1421973D01*
X1752394Y1421440D01*
X1753786D01*
X1755073Y1421973D01*
X1756057Y1422957D01*
X1756590Y1424244D01*
Y1425347D01*
X1756728Y1425757D01*
X1757599Y1426520D01*
X1758376D01*
X1759663Y1427053D01*
X1760647Y1428037D01*
X1761180Y1429324D01*
Y1430716D01*
X1760647Y1432003D01*
X1759663Y1432987D01*
X1758376Y1433520D01*
D02*
G37*
G36*
X1777426Y1427740D02*
X1776034D01*
X1774747Y1427207D01*
X1773763Y1426223D01*
X1773230Y1424936D01*
Y1423544D01*
X1773763Y1422257D01*
X1774747Y1421273D01*
X1776034Y1420740D01*
X1777426D01*
X1778713Y1421273D01*
X1779697Y1422257D01*
X1780230Y1423544D01*
Y1424936D01*
X1779697Y1426223D01*
X1778713Y1427207D01*
X1777426Y1427740D01*
D02*
G37*
G36*
X1799016Y1434790D02*
X1797624D01*
X1796337Y1434257D01*
X1795353Y1433273D01*
X1794820Y1431986D01*
Y1430594D01*
X1795353Y1429307D01*
X1796164Y1428496D01*
X1796174Y1427454D01*
X1796098Y1427047D01*
X1795193Y1426143D01*
X1794660Y1424856D01*
Y1423464D01*
X1795193Y1422177D01*
X1796177Y1421193D01*
X1797464Y1420660D01*
X1798856D01*
X1800143Y1421193D01*
X1801127Y1422177D01*
X1801660Y1423464D01*
Y1424856D01*
X1801127Y1426143D01*
X1800316Y1426954D01*
X1800306Y1427996D01*
X1800382Y1428403D01*
X1801287Y1429307D01*
X1801820Y1430594D01*
Y1431986D01*
X1801287Y1433273D01*
X1800303Y1434257D01*
X1799016Y1434790D01*
D02*
G37*
G36*
X1734246Y1425900D02*
X1732854D01*
X1731567Y1425367D01*
X1730583Y1424383D01*
X1730050Y1423096D01*
Y1421704D01*
X1730583Y1420417D01*
X1731567Y1419433D01*
X1732854Y1418900D01*
X1734246D01*
X1735533Y1419433D01*
X1736517Y1420417D01*
X1737050Y1421704D01*
Y1423096D01*
X1736517Y1424383D01*
X1735533Y1425367D01*
X1734246Y1425900D01*
D02*
G37*
G36*
X1713583Y1425543D02*
X1712191D01*
X1710904Y1425010D01*
X1709920Y1424026D01*
X1709387Y1422739D01*
Y1421347D01*
X1709920Y1420060D01*
X1710904Y1419076D01*
X1712191Y1418543D01*
X1713583D01*
X1714870Y1419076D01*
X1715854Y1420060D01*
X1716387Y1421347D01*
Y1422739D01*
X1715854Y1424026D01*
X1714870Y1425010D01*
X1713583Y1425543D01*
D02*
G37*
G36*
X2174168Y1435310D02*
X2171772D01*
X2169458Y1434690D01*
X2167383Y1433492D01*
X2165688Y1431797D01*
X2164490Y1429722D01*
X2163870Y1427408D01*
Y1425012D01*
X2164490Y1422697D01*
X2165688Y1420623D01*
X2167383Y1418928D01*
X2169458Y1417730D01*
X2171772Y1417110D01*
X2174168D01*
X2176483Y1417730D01*
X2178557Y1418928D01*
X2180252Y1420623D01*
X2181450Y1422697D01*
X2182070Y1425012D01*
Y1427408D01*
X2181450Y1429722D01*
X2180252Y1431797D01*
X2178557Y1433492D01*
X2176483Y1434690D01*
X2174168Y1435310D01*
D02*
G37*
G36*
X1809176Y1417010D02*
X1807784D01*
X1806497Y1416477D01*
X1805513Y1415493D01*
X1804980Y1414206D01*
Y1412814D01*
X1805513Y1411527D01*
X1806497Y1410543D01*
X1807784Y1410010D01*
X1809176D01*
X1810463Y1410543D01*
X1811447Y1411527D01*
X1811980Y1412814D01*
Y1414206D01*
X1811447Y1415493D01*
X1810463Y1416477D01*
X1809176Y1417010D01*
D02*
G37*
G36*
X1732976Y1411930D02*
X1731584D01*
X1730297Y1411397D01*
X1729313Y1410413D01*
X1728861Y1409323D01*
X1728754Y1409116D01*
X1727510Y1408612D01*
X1727033Y1408810D01*
X1725641D01*
X1724355Y1408277D01*
X1723370Y1407292D01*
X1722837Y1406006D01*
Y1404614D01*
X1723370Y1403327D01*
X1724355Y1402343D01*
X1725641Y1401810D01*
X1727033D01*
X1728320Y1402343D01*
X1729304Y1403327D01*
X1729756Y1404417D01*
X1729863Y1404624D01*
X1731107Y1405127D01*
X1731584Y1404930D01*
X1732976D01*
X1734263Y1405463D01*
X1735247Y1406447D01*
X1735780Y1407734D01*
Y1409126D01*
X1735247Y1410413D01*
X1734263Y1411397D01*
X1732976Y1411930D01*
D02*
G37*
G36*
X1600896Y1414470D02*
X1599504D01*
X1598217Y1413937D01*
X1597233Y1412953D01*
X1596700Y1411666D01*
Y1410274D01*
X1597233Y1408987D01*
X1598217Y1408003D01*
X1599504Y1407470D01*
X1600896D01*
X1602183Y1408003D01*
X1603167Y1408987D01*
X1603700Y1410274D01*
Y1411666D01*
X1603167Y1412953D01*
X1602183Y1413937D01*
X1600896Y1414470D01*
D02*
G37*
G36*
X1746946Y1409390D02*
X1745554D01*
X1744267Y1408857D01*
X1743283Y1407873D01*
X1742750Y1406586D01*
Y1405194D01*
X1743283Y1403907D01*
X1744267Y1402923D01*
X1745554Y1402390D01*
X1746946D01*
X1748233Y1402923D01*
X1749217Y1403907D01*
X1749750Y1405194D01*
Y1406586D01*
X1749217Y1407873D01*
X1748233Y1408857D01*
X1746946Y1409390D01*
D02*
G37*
G36*
X1834576Y1405580D02*
X1833184D01*
X1831897Y1405047D01*
X1830913Y1404063D01*
X1830380Y1402776D01*
Y1401384D01*
X1830913Y1400097D01*
X1831897Y1399113D01*
X1833184Y1398580D01*
X1834576D01*
X1835863Y1399113D01*
X1836847Y1400097D01*
X1837380Y1401384D01*
Y1402776D01*
X1836847Y1404063D01*
X1835863Y1405047D01*
X1834576Y1405580D01*
D02*
G37*
G36*
X1550096D02*
X1548704D01*
X1547417Y1405047D01*
X1546433Y1404063D01*
X1545900Y1402776D01*
Y1401384D01*
X1546433Y1400097D01*
X1547417Y1399113D01*
X1548704Y1398580D01*
X1550096D01*
X1551383Y1399113D01*
X1552367Y1400097D01*
X1552900Y1401384D01*
Y1402776D01*
X1552367Y1404063D01*
X1551383Y1405047D01*
X1550096Y1405580D01*
D02*
G37*
G36*
X2174168Y1409910D02*
X2171772D01*
X2169458Y1409290D01*
X2167383Y1408092D01*
X2165688Y1406398D01*
X2164490Y1404323D01*
X2163870Y1402008D01*
Y1399612D01*
X2164490Y1397298D01*
X2165688Y1395222D01*
X2167383Y1393528D01*
X2169458Y1392330D01*
X2171772Y1391710D01*
X2174168D01*
X2176483Y1392330D01*
X2178557Y1393528D01*
X2180252Y1395222D01*
X2181450Y1397298D01*
X2182070Y1399612D01*
Y1402008D01*
X2181450Y1404323D01*
X2180252Y1406398D01*
X2178557Y1408092D01*
X2176483Y1409290D01*
X2174168Y1409910D01*
D02*
G37*
G36*
X1747336Y1397570D02*
X1745943D01*
X1744657Y1397038D01*
X1743672Y1396053D01*
X1743140Y1394767D01*
Y1393374D01*
X1743672Y1392088D01*
X1744657Y1391103D01*
X1745943Y1390570D01*
X1747336D01*
X1748622Y1391103D01*
X1749607Y1392088D01*
X1750140Y1393374D01*
Y1394767D01*
X1749607Y1396053D01*
X1748622Y1397038D01*
X1747336Y1397570D01*
D02*
G37*
G36*
X1802826Y1394730D02*
X1801434D01*
X1800147Y1394197D01*
X1799163Y1393213D01*
X1798630Y1391926D01*
Y1390534D01*
X1799163Y1389247D01*
X1800147Y1388263D01*
X1801434Y1387730D01*
X1802826D01*
X1804113Y1388263D01*
X1804249Y1388400D01*
X1805513Y1388667D01*
X1806497Y1387683D01*
X1807784Y1387150D01*
X1809176D01*
X1810463Y1387683D01*
X1811447Y1388667D01*
X1811980Y1389954D01*
Y1391346D01*
X1811447Y1392633D01*
X1810463Y1393617D01*
X1809176Y1394150D01*
X1807784D01*
X1806497Y1393617D01*
X1806361Y1393481D01*
X1805097Y1393213D01*
X1804113Y1394197D01*
X1802826Y1394730D01*
D02*
G37*
G36*
X1500566Y1392880D02*
X1499174D01*
X1497887Y1392347D01*
X1496903Y1391363D01*
X1496370Y1390076D01*
Y1388684D01*
X1496903Y1387397D01*
X1497887Y1386413D01*
X1499174Y1385880D01*
X1500566D01*
X1501853Y1386413D01*
X1502837Y1387397D01*
X1503370Y1388684D01*
Y1390076D01*
X1502837Y1391363D01*
X1501853Y1392347D01*
X1500566Y1392880D01*
D02*
G37*
G36*
X1758383Y1390333D02*
X1756991D01*
X1755704Y1389800D01*
X1754720Y1388816D01*
X1754187Y1387529D01*
Y1386137D01*
X1754720Y1384850D01*
X1755704Y1383866D01*
X1756991Y1383333D01*
X1758383D01*
X1759670Y1383866D01*
X1760654Y1384850D01*
X1761187Y1386137D01*
Y1387529D01*
X1760654Y1388816D01*
X1759670Y1389800D01*
X1758383Y1390333D01*
D02*
G37*
G36*
X1777426Y1386530D02*
X1776034D01*
X1774747Y1385997D01*
X1773763Y1385013D01*
X1773230Y1383726D01*
Y1383661D01*
X1772773Y1383427D01*
X1771960Y1383271D01*
X1771147Y1384084D01*
X1769861Y1384617D01*
X1768469D01*
X1767182Y1384084D01*
X1766198Y1383099D01*
X1765665Y1381813D01*
Y1380421D01*
X1766198Y1379134D01*
X1767182Y1378150D01*
X1768469Y1377617D01*
X1769861D01*
X1771147Y1378150D01*
X1772132Y1379134D01*
X1772665Y1380421D01*
Y1380486D01*
X1773122Y1380720D01*
X1773935Y1380876D01*
X1774747Y1380063D01*
X1776034Y1379530D01*
X1777426D01*
X1778713Y1380063D01*
X1779697Y1381047D01*
X1780230Y1382334D01*
Y1383726D01*
X1779697Y1385013D01*
X1778713Y1385997D01*
X1777426Y1386530D01*
D02*
G37*
G36*
X1733604Y1388442D02*
X1732212D01*
X1730925Y1387909D01*
X1729941Y1386925D01*
X1729408Y1385638D01*
Y1384246D01*
X1729941Y1382959D01*
X1730925Y1381975D01*
X1732212Y1381442D01*
X1733604D01*
X1734891Y1381975D01*
X1735875Y1382959D01*
X1736408Y1384246D01*
Y1385638D01*
X1735875Y1386925D01*
X1734891Y1387909D01*
X1733604Y1388442D01*
D02*
G37*
G36*
X1817438Y1387158D02*
X1816046D01*
X1814759Y1386625D01*
X1813775Y1385641D01*
X1813242Y1384354D01*
Y1382962D01*
X1813775Y1381675D01*
X1814759Y1380691D01*
X1816046Y1380158D01*
X1817438D01*
X1818725Y1380691D01*
X1819709Y1381675D01*
X1820242Y1382962D01*
Y1384354D01*
X1819709Y1385641D01*
X1818725Y1386625D01*
X1817438Y1387158D01*
D02*
G37*
G36*
X1786316Y1386530D02*
X1784924D01*
X1783637Y1385997D01*
X1782653Y1385013D01*
X1782120Y1383726D01*
Y1382334D01*
X1782653Y1381047D01*
X1783637Y1380063D01*
X1784924Y1379530D01*
X1786316D01*
X1787603Y1380063D01*
X1787701Y1380161D01*
X1788947Y1379913D01*
X1789003Y1379777D01*
X1789987Y1378793D01*
X1791274Y1378260D01*
X1792666D01*
X1793953Y1378793D01*
X1794937Y1379777D01*
X1795470Y1381064D01*
Y1382456D01*
X1794937Y1383743D01*
X1793953Y1384727D01*
X1792666Y1385260D01*
X1791274D01*
X1789987Y1384727D01*
X1789889Y1384629D01*
X1788643Y1384877D01*
X1788587Y1385013D01*
X1787603Y1385997D01*
X1786316Y1386530D01*
D02*
G37*
G36*
X1707576Y1385260D02*
X1706184D01*
X1704897Y1384727D01*
X1703913Y1383743D01*
X1703380Y1382456D01*
Y1381064D01*
X1703913Y1379777D01*
X1704897Y1378793D01*
X1706184Y1378260D01*
X1707576D01*
X1708863Y1378793D01*
X1709847Y1379777D01*
X1710380Y1381064D01*
Y1382456D01*
X1709847Y1383743D01*
X1708863Y1384727D01*
X1707576Y1385260D01*
D02*
G37*
G36*
X1613596Y1383990D02*
X1612204D01*
X1610917Y1383457D01*
X1609933Y1382473D01*
X1609400Y1381186D01*
Y1379794D01*
X1609933Y1378507D01*
X1610917Y1377523D01*
X1612204Y1376990D01*
X1613596D01*
X1614883Y1377523D01*
X1615867Y1378507D01*
X1616400Y1379794D01*
Y1381186D01*
X1615867Y1382473D01*
X1614883Y1383457D01*
X1613596Y1383990D01*
D02*
G37*
G36*
X1688056Y1382650D02*
X1686664D01*
X1685377Y1382117D01*
X1684393Y1381133D01*
X1683860Y1379846D01*
Y1378454D01*
X1684393Y1377167D01*
X1685377Y1376183D01*
X1686664Y1375650D01*
X1688056D01*
X1689343Y1376183D01*
X1690327Y1377167D01*
X1690860Y1378454D01*
Y1379846D01*
X1690327Y1381133D01*
X1689343Y1382117D01*
X1688056Y1382650D01*
D02*
G37*
G36*
X1722816Y1385260D02*
X1721424D01*
X1720137Y1384727D01*
X1719153Y1383743D01*
X1718909Y1383154D01*
X1718039Y1382140D01*
X1716646D01*
X1715360Y1381607D01*
X1714375Y1380623D01*
X1713842Y1379336D01*
Y1377944D01*
X1714375Y1376657D01*
X1715360Y1375673D01*
X1716646Y1375140D01*
X1718039D01*
X1719325Y1375673D01*
X1720309Y1376657D01*
X1720553Y1377246D01*
X1721424Y1378260D01*
X1722816D01*
X1724103Y1378793D01*
X1725087Y1379777D01*
X1725620Y1381064D01*
Y1382456D01*
X1725087Y1383743D01*
X1724103Y1384727D01*
X1722816Y1385260D01*
D02*
G37*
G36*
X1476641Y1377844D02*
X1475248D01*
X1473962Y1377312D01*
X1472977Y1376327D01*
X1472444Y1375041D01*
Y1373648D01*
X1472977Y1372362D01*
X1473962Y1371377D01*
X1475248Y1370844D01*
X1476641D01*
X1477927Y1371377D01*
X1478912Y1372362D01*
X1479444Y1373648D01*
Y1375041D01*
X1478912Y1376327D01*
X1477927Y1377312D01*
X1476641Y1377844D01*
D02*
G37*
G36*
X1569836Y1377640D02*
X1568444D01*
X1567157Y1377107D01*
X1566173Y1376123D01*
X1565640Y1374836D01*
Y1373444D01*
X1566173Y1372157D01*
X1567157Y1371173D01*
X1568444Y1370640D01*
X1569836D01*
X1571123Y1371173D01*
X1572107Y1372157D01*
X1572640Y1373444D01*
Y1374836D01*
X1572107Y1376123D01*
X1571123Y1377107D01*
X1569836Y1377640D01*
D02*
G37*
G36*
X2174168Y1384510D02*
X2171772D01*
X2169458Y1383890D01*
X2167383Y1382692D01*
X2165688Y1380997D01*
X2164490Y1378922D01*
X2163870Y1376608D01*
Y1374212D01*
X2164490Y1371897D01*
X2165688Y1369823D01*
X2167383Y1368128D01*
X2169458Y1366930D01*
X2171772Y1366310D01*
X2174168D01*
X2176483Y1366930D01*
X2178557Y1368128D01*
X2180252Y1369823D01*
X2181450Y1371897D01*
X2182070Y1374212D01*
Y1376608D01*
X2181450Y1378922D01*
X2180252Y1380997D01*
X2178557Y1382692D01*
X2176483Y1383890D01*
X2174168Y1384510D01*
D02*
G37*
G36*
X1698522Y1367386D02*
X1697130D01*
X1695843Y1366853D01*
X1694859Y1365868D01*
X1693997Y1366666D01*
X1693852Y1366811D01*
X1692566Y1367344D01*
X1691174D01*
X1689887Y1366811D01*
X1688903Y1365826D01*
X1688370Y1364540D01*
Y1363147D01*
X1688903Y1361861D01*
X1689887Y1360876D01*
X1691174Y1360344D01*
X1692566D01*
X1693852Y1360876D01*
X1694837Y1361861D01*
X1695698Y1361063D01*
X1695843Y1360918D01*
X1697130Y1360385D01*
X1698522D01*
X1699808Y1360918D01*
X1700793Y1361903D01*
X1701326Y1363189D01*
Y1364582D01*
X1700793Y1365868D01*
X1699808Y1366853D01*
X1698522Y1367386D01*
D02*
G37*
G36*
X1613596Y1370020D02*
X1612204D01*
X1610917Y1369487D01*
X1609933Y1368503D01*
X1609400Y1367216D01*
Y1365824D01*
X1609933Y1364537D01*
X1610917Y1363553D01*
X1612204Y1363020D01*
X1613596D01*
X1614883Y1363553D01*
X1615867Y1364537D01*
X1616400Y1365824D01*
Y1367216D01*
X1615867Y1368503D01*
X1614883Y1369487D01*
X1613596Y1370020D01*
D02*
G37*
G36*
X1646616Y1372560D02*
X1645224D01*
X1643937Y1372027D01*
X1642953Y1371043D01*
X1642420Y1369756D01*
Y1368364D01*
X1642953Y1367077D01*
X1643937Y1366093D01*
X1645224Y1365560D01*
X1646616D01*
X1647500Y1364969D01*
Y1364554D01*
X1648033Y1363267D01*
X1649017Y1362283D01*
X1650304Y1361750D01*
X1651696D01*
X1652040Y1361892D01*
X1653310Y1361044D01*
Y1360744D01*
X1653843Y1359457D01*
X1654827Y1358473D01*
X1656114Y1357940D01*
X1657506D01*
X1658793Y1358473D01*
X1659777Y1359457D01*
X1660310Y1360744D01*
Y1362136D01*
X1659777Y1363423D01*
X1658793Y1364407D01*
X1657506Y1364940D01*
X1656114D01*
X1655770Y1364798D01*
X1654500Y1365646D01*
Y1365946D01*
X1653967Y1367233D01*
X1652983Y1368217D01*
X1651696Y1368750D01*
X1650304D01*
X1649420Y1369341D01*
Y1369756D01*
X1648887Y1371043D01*
X1647903Y1372027D01*
X1646616Y1372560D01*
D02*
G37*
G36*
X1706711Y1364075D02*
X1705319D01*
X1704033Y1363542D01*
X1703048Y1362558D01*
X1702515Y1361271D01*
Y1359879D01*
X1703048Y1358593D01*
X1704033Y1357608D01*
X1705319Y1357075D01*
X1706711D01*
X1707998Y1357608D01*
X1708982Y1358593D01*
X1709515Y1359879D01*
Y1361271D01*
X1708982Y1362558D01*
X1707998Y1363542D01*
X1706711Y1364075D01*
D02*
G37*
G36*
X1684716Y1361130D02*
X1683324D01*
X1682037Y1360597D01*
X1681053Y1359613D01*
X1680520Y1358326D01*
Y1356934D01*
X1681053Y1355647D01*
X1682037Y1354663D01*
X1683324Y1354130D01*
X1684716D01*
X1686003Y1354663D01*
X1686987Y1355647D01*
X1687520Y1356934D01*
Y1358326D01*
X1686987Y1359613D01*
X1686003Y1360597D01*
X1684716Y1361130D01*
D02*
G37*
G36*
X1759646Y1354780D02*
X1758254D01*
X1756967Y1354247D01*
X1755983Y1353263D01*
X1755566Y1352257D01*
X1754573Y1352043D01*
X1754219Y1352071D01*
X1753320Y1352970D01*
X1752033Y1353503D01*
X1750641D01*
X1749354Y1352970D01*
X1748370Y1351986D01*
X1747837Y1350699D01*
Y1349307D01*
X1748370Y1348020D01*
X1749354Y1347036D01*
X1750641Y1346503D01*
X1752033D01*
X1753320Y1347036D01*
X1754304Y1348020D01*
X1754721Y1349026D01*
X1755714Y1349240D01*
X1756068Y1349212D01*
X1756967Y1348313D01*
X1758254Y1347780D01*
X1759646D01*
X1760933Y1348313D01*
X1761917Y1349297D01*
X1762450Y1350584D01*
Y1351976D01*
X1761917Y1353263D01*
X1760933Y1354247D01*
X1759646Y1354780D01*
D02*
G37*
G36*
X1613541Y1356050D02*
X1612149D01*
X1610862Y1355517D01*
X1609878Y1354533D01*
X1609345Y1353246D01*
Y1351854D01*
X1609878Y1350567D01*
X1610862Y1349583D01*
X1612149Y1349050D01*
X1613541D01*
X1614828Y1349583D01*
X1615812Y1350567D01*
X1616345Y1351854D01*
Y1353246D01*
X1615812Y1354533D01*
X1614828Y1355517D01*
X1613541Y1356050D01*
D02*
G37*
G36*
X1550096Y1352240D02*
X1548704D01*
X1547417Y1351707D01*
X1546433Y1350723D01*
X1545900Y1349436D01*
Y1348044D01*
X1546433Y1346757D01*
X1547417Y1345773D01*
X1548704Y1345240D01*
X1550096D01*
X1551383Y1345773D01*
X1552367Y1346757D01*
X1552900Y1348044D01*
Y1349436D01*
X1552367Y1350723D01*
X1551383Y1351707D01*
X1550096Y1352240D01*
D02*
G37*
G36*
X1732983Y1352233D02*
X1731591D01*
X1730304Y1351700D01*
X1729320Y1350716D01*
X1728787Y1349429D01*
Y1348037D01*
X1729320Y1346750D01*
X1730304Y1345766D01*
X1731591Y1345233D01*
X1732983D01*
X1734270Y1345766D01*
X1735254Y1346750D01*
X1735787Y1348037D01*
Y1349429D01*
X1735254Y1350716D01*
X1734270Y1351700D01*
X1732983Y1352233D01*
D02*
G37*
G36*
X1797746Y1350970D02*
X1796354D01*
X1795067Y1350437D01*
X1794083Y1349453D01*
X1793550Y1348166D01*
Y1346774D01*
X1794083Y1345487D01*
X1795067Y1344503D01*
X1796354Y1343970D01*
X1797746D01*
X1799033Y1344503D01*
X1800017Y1345487D01*
X1800550Y1346774D01*
Y1348166D01*
X1800017Y1349453D01*
X1799033Y1350437D01*
X1797746Y1350970D01*
D02*
G37*
G36*
X1647886Y1347160D02*
X1646494D01*
X1645207Y1346627D01*
X1644223Y1345643D01*
X1643690Y1344356D01*
Y1342964D01*
X1644223Y1341677D01*
X1645207Y1340693D01*
X1646494Y1340160D01*
X1647886D01*
X1649173Y1340693D01*
X1650157Y1341677D01*
X1650690Y1342964D01*
Y1344356D01*
X1650157Y1345643D01*
X1649173Y1346627D01*
X1647886Y1347160D01*
D02*
G37*
G36*
X1613596Y1342080D02*
X1612204D01*
X1610917Y1341547D01*
X1609933Y1340563D01*
X1609400Y1339276D01*
Y1337884D01*
X1609933Y1336597D01*
X1610917Y1335613D01*
X1612204Y1335080D01*
X1613596D01*
X1614883Y1335613D01*
X1615867Y1336597D01*
X1616400Y1337884D01*
Y1339276D01*
X1615867Y1340563D01*
X1614883Y1341547D01*
X1613596Y1342080D01*
D02*
G37*
G36*
X1502285Y1339077D02*
X1500892D01*
X1499606Y1338545D01*
X1498622Y1337560D01*
X1498089Y1336274D01*
Y1334881D01*
X1498622Y1333595D01*
X1499606Y1332610D01*
X1500892Y1332077D01*
X1502285D01*
X1503571Y1332610D01*
X1504556Y1333595D01*
X1505089Y1334881D01*
Y1336274D01*
X1504556Y1337560D01*
X1503571Y1338545D01*
X1502285Y1339077D01*
D02*
G37*
G36*
X1799016Y1338270D02*
X1797624D01*
X1796337Y1337737D01*
X1795353Y1336753D01*
X1794820Y1335466D01*
Y1334074D01*
X1795353Y1332787D01*
X1796337Y1331803D01*
X1797624Y1331270D01*
X1799016D01*
X1800303Y1331803D01*
X1801287Y1332787D01*
X1801820Y1334074D01*
Y1335466D01*
X1801287Y1336753D01*
X1800303Y1337737D01*
X1799016Y1338270D01*
D02*
G37*
G36*
X1826956Y1345890D02*
X1825564D01*
X1824277Y1345357D01*
X1823293Y1344373D01*
X1822760Y1343086D01*
Y1341694D01*
X1823293Y1340407D01*
X1823656Y1340045D01*
X1824153Y1339215D01*
X1823656Y1338385D01*
X1823293Y1338023D01*
X1822760Y1336736D01*
Y1335344D01*
X1823293Y1334057D01*
X1823656Y1333695D01*
X1824153Y1332865D01*
X1823656Y1332035D01*
X1823293Y1331673D01*
X1822760Y1330386D01*
Y1328994D01*
X1823293Y1327707D01*
X1824277Y1326723D01*
X1825564Y1326190D01*
X1826956D01*
X1828243Y1326723D01*
X1829227Y1327707D01*
X1829760Y1328994D01*
Y1330386D01*
X1829227Y1331673D01*
X1828864Y1332035D01*
X1828367Y1332865D01*
X1828864Y1333695D01*
X1829227Y1334057D01*
X1829760Y1335344D01*
Y1336736D01*
X1829227Y1338023D01*
X1828864Y1338385D01*
X1828367Y1339215D01*
X1828864Y1340045D01*
X1829227Y1340407D01*
X1829760Y1341694D01*
Y1343086D01*
X1829227Y1344373D01*
X1828243Y1345357D01*
X1826956Y1345890D01*
D02*
G37*
G36*
X1674556Y1315410D02*
X1673164D01*
X1671877Y1314877D01*
X1670893Y1313893D01*
X1670360Y1312606D01*
Y1311214D01*
X1670893Y1309927D01*
X1671877Y1308943D01*
X1673164Y1308410D01*
X1674556D01*
X1675843Y1308943D01*
X1676827Y1309927D01*
X1677360Y1311214D01*
Y1312606D01*
X1676827Y1313893D01*
X1675843Y1314877D01*
X1674556Y1315410D01*
D02*
G37*
G36*
X2182070Y1324820D02*
X2163870D01*
Y1306620D01*
X2182070D01*
Y1324820D01*
D02*
G37*
G36*
X1825531Y1318129D02*
X1824139D01*
X1822853Y1317596D01*
X1821868Y1316612D01*
X1821335Y1315325D01*
Y1313933D01*
X1821868Y1312647D01*
X1822592Y1311922D01*
X1821783Y1311113D01*
X1821250Y1309826D01*
Y1308434D01*
X1821783Y1307147D01*
X1822767Y1306163D01*
X1824054Y1305630D01*
X1825446D01*
X1826733Y1306163D01*
X1827717Y1307147D01*
X1828250Y1308434D01*
Y1309826D01*
X1827717Y1311113D01*
X1826993Y1311837D01*
X1827802Y1312647D01*
X1828335Y1313933D01*
Y1315325D01*
X1827802Y1316612D01*
X1826818Y1317596D01*
X1825531Y1318129D01*
D02*
G37*
G36*
X1795206Y1292550D02*
X1793814D01*
X1792527Y1292017D01*
X1791543Y1291033D01*
X1791010Y1289746D01*
Y1288354D01*
X1791543Y1287067D01*
X1792527Y1286083D01*
X1793814Y1285550D01*
X1795206D01*
X1796493Y1286083D01*
X1797477Y1287067D01*
X1798010Y1288354D01*
Y1289746D01*
X1797477Y1291033D01*
X1796493Y1292017D01*
X1795206Y1292550D01*
D02*
G37*
G36*
X1830678Y1303129D02*
X1829286D01*
X1827999Y1302596D01*
X1827015Y1301612D01*
X1826482Y1300325D01*
Y1298933D01*
X1827015Y1297647D01*
X1827826Y1296836D01*
X1827103Y1296113D01*
X1826570Y1294826D01*
Y1293605D01*
X1825816Y1292805D01*
X1825606Y1292630D01*
X1824214D01*
X1822927Y1292097D01*
X1821943Y1291113D01*
X1821410Y1289826D01*
Y1288434D01*
X1821943Y1287147D01*
X1822927Y1286163D01*
X1824214Y1285630D01*
X1825606D01*
X1826852Y1286146D01*
X1827007Y1286075D01*
X1827912Y1285386D01*
X1827680Y1284826D01*
Y1283434D01*
X1828025Y1282601D01*
X1826948Y1281881D01*
X1826733Y1282097D01*
X1825446Y1282630D01*
X1824054D01*
X1822767Y1282097D01*
X1821783Y1281113D01*
X1821250Y1279826D01*
Y1278434D01*
X1821783Y1277147D01*
X1822767Y1276163D01*
X1824054Y1275630D01*
X1825446D01*
X1826733Y1276163D01*
X1827063Y1276493D01*
X1828326Y1276644D01*
X1828626Y1276397D01*
X1829357Y1275665D01*
X1830644Y1275132D01*
X1832036D01*
X1833323Y1275665D01*
X1834307Y1276650D01*
X1834840Y1277936D01*
Y1279329D01*
X1834307Y1280615D01*
X1833461Y1281461D01*
X1834147Y1282147D01*
X1834680Y1283434D01*
Y1284826D01*
X1834147Y1286113D01*
X1833163Y1287097D01*
X1831876Y1287630D01*
X1830484D01*
X1829238Y1287114D01*
X1829083Y1287185D01*
X1828178Y1287874D01*
X1828410Y1288434D01*
Y1289655D01*
X1829164Y1290455D01*
X1829374Y1290630D01*
X1830766D01*
X1832053Y1291163D01*
X1833037Y1292147D01*
X1833570Y1293434D01*
Y1294826D01*
X1833037Y1296113D01*
X1832226Y1296924D01*
X1832949Y1297647D01*
X1833482Y1298933D01*
Y1300325D01*
X1832949Y1301612D01*
X1831965Y1302596D01*
X1830678Y1303129D01*
D02*
G37*
G36*
X2174168Y1299420D02*
X2171772D01*
X2169458Y1298800D01*
X2167383Y1297602D01*
X2165688Y1295907D01*
X2164490Y1293833D01*
X2163870Y1291518D01*
Y1289122D01*
X2164490Y1286808D01*
X2165688Y1284733D01*
X2167383Y1283038D01*
X2169458Y1281840D01*
X2171772Y1281220D01*
X2174168D01*
X2176483Y1281840D01*
X2178557Y1283038D01*
X2180252Y1284733D01*
X2181450Y1286808D01*
X2182070Y1289122D01*
Y1291518D01*
X2181450Y1293833D01*
X2180252Y1295907D01*
X2178557Y1297602D01*
X2176483Y1298800D01*
X2174168Y1299420D01*
D02*
G37*
G36*
X1670746Y1287630D02*
X1669354D01*
X1668067Y1287097D01*
X1667083Y1286113D01*
X1666550Y1284827D01*
Y1283434D01*
X1667083Y1282148D01*
X1668067Y1281163D01*
X1669354Y1280630D01*
X1670746D01*
X1672033Y1281163D01*
X1672997Y1282127D01*
X1673200Y1282128D01*
X1674332Y1282003D01*
X1674703Y1281107D01*
X1675285Y1280525D01*
X1675553Y1279720D01*
X1675285Y1278915D01*
X1674703Y1278333D01*
X1674170Y1277046D01*
Y1275654D01*
X1674703Y1274367D01*
X1675066Y1274005D01*
X1675563Y1273175D01*
X1675066Y1272345D01*
X1674703Y1271983D01*
X1674170Y1270696D01*
Y1269304D01*
X1674703Y1268017D01*
X1675687Y1267033D01*
X1676974Y1266500D01*
X1678366D01*
X1679653Y1267033D01*
X1680637Y1268017D01*
X1681170Y1269304D01*
Y1270696D01*
X1680637Y1271983D01*
X1680274Y1272345D01*
X1679777Y1273175D01*
X1680274Y1274005D01*
X1680637Y1274367D01*
X1681170Y1275654D01*
Y1277046D01*
X1680637Y1278333D01*
X1680055Y1278915D01*
X1679787Y1279720D01*
X1680055Y1280525D01*
X1680637Y1281107D01*
X1681170Y1282394D01*
Y1283786D01*
X1680637Y1285073D01*
X1679653Y1286057D01*
X1678366Y1286590D01*
X1676974D01*
X1675687Y1286057D01*
X1674723Y1285093D01*
X1674520Y1285093D01*
X1673388Y1285217D01*
X1673017Y1286113D01*
X1672033Y1287097D01*
X1670746Y1287630D01*
D02*
G37*
G36*
X1588196Y1270960D02*
X1586804D01*
X1585517Y1270427D01*
X1584533Y1269443D01*
X1584000Y1268156D01*
Y1266764D01*
X1584533Y1265477D01*
X1585517Y1264493D01*
X1586804Y1263960D01*
X1588196D01*
X1589483Y1264493D01*
X1590467Y1265477D01*
X1591000Y1266764D01*
Y1268156D01*
X1590467Y1269443D01*
X1589483Y1270427D01*
X1588196Y1270960D01*
D02*
G37*
G36*
X1678366Y1263450D02*
X1676974D01*
X1675687Y1262917D01*
X1674703Y1261933D01*
X1674170Y1260646D01*
Y1259254D01*
X1674703Y1257967D01*
X1675687Y1256983D01*
X1676974Y1256450D01*
X1678366D01*
X1679653Y1256983D01*
X1680637Y1257967D01*
X1681170Y1259254D01*
Y1260646D01*
X1680637Y1261933D01*
X1679653Y1262917D01*
X1678366Y1263450D01*
D02*
G37*
G36*
X2174168Y1274020D02*
X2171772D01*
X2169458Y1273400D01*
X2167383Y1272202D01*
X2165688Y1270508D01*
X2164490Y1268432D01*
X2163870Y1266118D01*
Y1263722D01*
X2164490Y1261407D01*
X2165688Y1259333D01*
X2167383Y1257638D01*
X2169458Y1256440D01*
X2171772Y1255820D01*
X2174168D01*
X2176483Y1256440D01*
X2178557Y1257638D01*
X2180252Y1259333D01*
X2181450Y1261407D01*
X2182070Y1263722D01*
Y1266118D01*
X2181450Y1268432D01*
X2180252Y1270508D01*
X2178557Y1272202D01*
X2176483Y1273400D01*
X2174168Y1274020D01*
D02*
G37*
G36*
X1350407Y1270900D02*
X1348093D01*
X1345857Y1270301D01*
X1343853Y1269144D01*
X1342216Y1267507D01*
X1341059Y1265503D01*
X1340460Y1263267D01*
Y1260953D01*
X1341059Y1258717D01*
X1342216Y1256713D01*
X1343853Y1255076D01*
X1345857Y1253919D01*
X1348093Y1253320D01*
X1350407D01*
X1352643Y1253919D01*
X1354647Y1255076D01*
X1356284Y1256713D01*
X1357441Y1258717D01*
X1358040Y1260953D01*
Y1263267D01*
X1357441Y1265503D01*
X1356284Y1267507D01*
X1354647Y1269144D01*
X1352643Y1270301D01*
X1350407Y1270900D01*
D02*
G37*
G36*
X1302907D02*
X1300593D01*
X1298357Y1270301D01*
X1296353Y1269144D01*
X1294716Y1267507D01*
X1293559Y1265503D01*
X1292960Y1263267D01*
Y1260953D01*
X1293559Y1258717D01*
X1294716Y1256713D01*
X1296353Y1255076D01*
X1298357Y1253919D01*
X1300593Y1253320D01*
X1302907D01*
X1305143Y1253919D01*
X1307147Y1255076D01*
X1308784Y1256713D01*
X1309941Y1258717D01*
X1310540Y1260953D01*
Y1263267D01*
X1309941Y1265503D01*
X1308784Y1267507D01*
X1307147Y1269144D01*
X1305143Y1270301D01*
X1302907Y1270900D01*
D02*
G37*
G36*
X1618676Y1258260D02*
X1617284D01*
X1615997Y1257727D01*
X1615013Y1256743D01*
X1614480Y1255456D01*
Y1254064D01*
X1615013Y1252777D01*
X1615997Y1251793D01*
X1617284Y1251260D01*
X1618676D01*
X1619963Y1251793D01*
X1620947Y1252777D01*
X1621480Y1254064D01*
Y1255456D01*
X1620947Y1256743D01*
X1619963Y1257727D01*
X1618676Y1258260D01*
D02*
G37*
G36*
X1677096Y1254450D02*
X1675704D01*
X1674417Y1253917D01*
X1673433Y1252933D01*
X1672900Y1251646D01*
Y1250254D01*
X1673433Y1248967D01*
X1674417Y1247983D01*
X1675704Y1247450D01*
X1677096D01*
X1678383Y1247983D01*
X1679367Y1248967D01*
X1679900Y1250254D01*
Y1251646D01*
X1679367Y1252933D01*
X1678383Y1253917D01*
X1677096Y1254450D01*
D02*
G37*
G36*
X1729166Y1251910D02*
X1727774D01*
X1726487Y1251377D01*
X1725503Y1250393D01*
X1724970Y1249106D01*
Y1247714D01*
X1725315Y1246881D01*
X1724238Y1246161D01*
X1724103Y1246297D01*
X1722816Y1246830D01*
X1721424D01*
X1720137Y1246297D01*
X1719153Y1245313D01*
X1718620Y1244026D01*
Y1242634D01*
X1719153Y1241347D01*
X1720137Y1240363D01*
X1721424Y1239830D01*
X1722816D01*
X1724103Y1240363D01*
X1725087Y1241347D01*
X1725620Y1242634D01*
Y1244026D01*
X1725275Y1244859D01*
X1726352Y1245579D01*
X1726487Y1245443D01*
X1727774Y1244910D01*
X1729166D01*
X1730453Y1245443D01*
X1731437Y1246427D01*
X1731970Y1247714D01*
Y1249106D01*
X1731437Y1250393D01*
X1730453Y1251377D01*
X1729166Y1251910D01*
D02*
G37*
G36*
X1715196D02*
X1713804D01*
X1712517Y1251377D01*
X1711533Y1250393D01*
X1711000Y1249106D01*
Y1247714D01*
X1711533Y1246427D01*
X1712517Y1245443D01*
X1713804Y1244910D01*
X1715196D01*
X1716483Y1245443D01*
X1717467Y1246427D01*
X1718000Y1247714D01*
Y1249106D01*
X1717467Y1250393D01*
X1716483Y1251377D01*
X1715196Y1251910D01*
D02*
G37*
G36*
X1706564Y1249923D02*
X1705171D01*
X1703885Y1249390D01*
X1702900Y1248406D01*
X1702367Y1247119D01*
Y1245727D01*
X1702900Y1244440D01*
X1703885Y1243456D01*
X1705171Y1242923D01*
X1706564D01*
X1707850Y1243456D01*
X1708835Y1244440D01*
X1709367Y1245727D01*
Y1247119D01*
X1708835Y1248406D01*
X1707850Y1249390D01*
X1706564Y1249923D01*
D02*
G37*
G36*
X1599626Y1248680D02*
X1598234D01*
X1596947Y1248147D01*
X1595963Y1247163D01*
X1595430Y1245876D01*
Y1244484D01*
X1595963Y1243197D01*
X1596947Y1242213D01*
X1598234Y1241680D01*
X1599626D01*
X1600913Y1242213D01*
X1601897Y1243197D01*
X1602430Y1244484D01*
Y1245876D01*
X1601897Y1247163D01*
X1600913Y1248147D01*
X1599626Y1248680D01*
D02*
G37*
G36*
X1649156Y1248100D02*
X1647764D01*
X1646477Y1247567D01*
X1645493Y1246583D01*
X1644960Y1245296D01*
Y1243904D01*
X1645493Y1242617D01*
X1646477Y1241633D01*
X1646419Y1240282D01*
X1646230Y1239826D01*
Y1238434D01*
X1646763Y1237147D01*
X1647747Y1236163D01*
X1649034Y1235630D01*
X1650426D01*
X1651713Y1236163D01*
X1652697Y1237147D01*
X1653230Y1238434D01*
Y1239826D01*
X1652697Y1241113D01*
X1651713Y1242097D01*
X1651771Y1243448D01*
X1651960Y1243904D01*
Y1245296D01*
X1651427Y1246583D01*
X1650443Y1247567D01*
X1649156Y1248100D01*
D02*
G37*
G36*
X1604706Y1240590D02*
X1603314D01*
X1602027Y1240057D01*
X1601043Y1239073D01*
X1600510Y1237786D01*
Y1236394D01*
X1601043Y1235107D01*
X1602027Y1234123D01*
X1603314Y1233590D01*
X1604706D01*
X1605993Y1234123D01*
X1606977Y1235107D01*
X1607510Y1236394D01*
Y1237786D01*
X1606977Y1239073D01*
X1605993Y1240057D01*
X1604706Y1240590D01*
D02*
G37*
G36*
X1785046Y1234130D02*
X1783654D01*
X1782367Y1233597D01*
X1781383Y1232613D01*
X1780850Y1231326D01*
Y1229934D01*
X1781383Y1228647D01*
X1782367Y1227663D01*
X1783654Y1227130D01*
X1785046D01*
X1786333Y1227663D01*
X1787317Y1228647D01*
X1787850Y1229934D01*
Y1231326D01*
X1787317Y1232613D01*
X1786333Y1233597D01*
X1785046Y1234130D01*
D02*
G37*
G36*
X1683056Y1225814D02*
X1681664D01*
X1680377Y1225281D01*
X1679393Y1224297D01*
X1678860Y1223010D01*
Y1221618D01*
X1679393Y1220332D01*
X1680377Y1219347D01*
X1681664Y1218814D01*
X1683056D01*
X1684343Y1219347D01*
X1685327Y1220332D01*
X1685860Y1221618D01*
Y1223010D01*
X1685327Y1224297D01*
X1684343Y1225281D01*
X1683056Y1225814D01*
D02*
G37*
G36*
X1733056Y1225630D02*
X1731664D01*
X1730377Y1225097D01*
X1729393Y1224113D01*
X1728860Y1222826D01*
Y1221434D01*
X1729393Y1220147D01*
X1730377Y1219163D01*
X1731664Y1218630D01*
X1733056D01*
X1734343Y1219163D01*
X1735327Y1220147D01*
X1735860Y1221434D01*
Y1222826D01*
X1735327Y1224113D01*
X1734343Y1225097D01*
X1733056Y1225630D01*
D02*
G37*
G36*
X1849816Y1220160D02*
X1848424D01*
X1847137Y1219627D01*
X1846153Y1218643D01*
X1845620Y1217356D01*
Y1215964D01*
X1846153Y1214677D01*
X1847137Y1213693D01*
X1848424Y1213160D01*
X1849816D01*
X1851103Y1213693D01*
X1852087Y1214677D01*
X1852620Y1215964D01*
Y1217356D01*
X1852087Y1218643D01*
X1851103Y1219627D01*
X1849816Y1220160D01*
D02*
G37*
G36*
X1738056Y1207460D02*
X1736664D01*
X1735377Y1206927D01*
X1734393Y1205943D01*
X1733860Y1204656D01*
Y1203264D01*
X1734393Y1201977D01*
X1735377Y1200993D01*
X1736664Y1200460D01*
X1738056D01*
X1739343Y1200993D01*
X1740327Y1201977D01*
X1740860Y1203264D01*
Y1204656D01*
X1740327Y1205943D01*
X1739343Y1206927D01*
X1738056Y1207460D01*
D02*
G37*
G36*
X2176126Y1206760D02*
X2174734D01*
X2173447Y1206227D01*
X2172463Y1205243D01*
X2171930Y1203956D01*
Y1202564D01*
X2172463Y1201277D01*
X2173447Y1200293D01*
X2174734Y1199760D01*
X2176126D01*
X2177413Y1200293D01*
X2178397Y1201277D01*
X2178930Y1202564D01*
Y1203956D01*
X2178397Y1205243D01*
X2177413Y1206227D01*
X2176126Y1206760D01*
D02*
G37*
G36*
X1849815Y1206191D02*
X1848423D01*
X1847136Y1205658D01*
X1846152Y1204674D01*
X1845619Y1203387D01*
Y1201995D01*
X1846152Y1200709D01*
X1847136Y1199724D01*
X1848423Y1199191D01*
X1849815D01*
X1851101Y1199724D01*
X1852086Y1200709D01*
X1852619Y1201995D01*
Y1203387D01*
X1852086Y1204674D01*
X1851101Y1205658D01*
X1849815Y1206191D01*
D02*
G37*
G36*
X1689796Y1196030D02*
X1688404D01*
X1687117Y1195497D01*
X1686133Y1194513D01*
X1685600Y1193226D01*
Y1191834D01*
X1686133Y1190547D01*
X1687117Y1189563D01*
X1688404Y1189030D01*
X1689796D01*
X1691083Y1189563D01*
X1692067Y1190547D01*
X1692600Y1191834D01*
Y1193226D01*
X1692067Y1194513D01*
X1691083Y1195497D01*
X1689796Y1196030D01*
D02*
G37*
G36*
X1333329Y1189450D02*
X1331131D01*
X1329007Y1188881D01*
X1327103Y1187782D01*
X1325548Y1186227D01*
X1324449Y1184323D01*
X1323880Y1182199D01*
Y1180001D01*
X1324449Y1177877D01*
X1325548Y1175973D01*
X1327103Y1174418D01*
X1329007Y1173319D01*
X1331131Y1172750D01*
X1333329D01*
X1335453Y1173319D01*
X1337357Y1174418D01*
X1338912Y1175973D01*
X1340011Y1177877D01*
X1340580Y1180001D01*
Y1182199D01*
X1340011Y1184323D01*
X1338912Y1186227D01*
X1337357Y1187782D01*
X1335453Y1188881D01*
X1333329Y1189450D01*
D02*
G37*
G36*
X1307929D02*
X1305731D01*
X1303607Y1188881D01*
X1301703Y1187782D01*
X1300148Y1186227D01*
X1299049Y1184323D01*
X1298480Y1182199D01*
Y1180001D01*
X1299049Y1177877D01*
X1300148Y1175973D01*
X1301703Y1174418D01*
X1303607Y1173319D01*
X1305731Y1172750D01*
X1307929D01*
X1310053Y1173319D01*
X1311957Y1174418D01*
X1313512Y1175973D01*
X1314611Y1177877D01*
X1315180Y1180001D01*
Y1182199D01*
X1314611Y1184323D01*
X1313512Y1186227D01*
X1311957Y1187782D01*
X1310053Y1188881D01*
X1307929Y1189450D01*
D02*
G37*
G36*
X1875216Y1169360D02*
X1873824D01*
X1872537Y1168827D01*
X1871553Y1167843D01*
X1871020Y1166556D01*
Y1165164D01*
X1871553Y1163877D01*
X1872537Y1162893D01*
X1873824Y1162360D01*
X1875216D01*
X1876503Y1162893D01*
X1877487Y1163877D01*
X1878020Y1165164D01*
Y1166556D01*
X1877487Y1167843D01*
X1876503Y1168827D01*
X1875216Y1169360D01*
D02*
G37*
G36*
X1767266D02*
X1765874D01*
X1764587Y1168827D01*
X1763603Y1167843D01*
X1763070Y1166556D01*
Y1165164D01*
X1763603Y1163877D01*
X1764587Y1162893D01*
X1765874Y1162360D01*
X1767266D01*
X1768553Y1162893D01*
X1769537Y1163877D01*
X1770070Y1165164D01*
Y1166556D01*
X1769537Y1167843D01*
X1768553Y1168827D01*
X1767266Y1169360D01*
D02*
G37*
G36*
X1746946D02*
X1745554D01*
X1744267Y1168827D01*
X1743283Y1167843D01*
X1742750Y1166556D01*
Y1165164D01*
X1743283Y1163877D01*
X1744267Y1162893D01*
X1745554Y1162360D01*
X1746946D01*
X1748233Y1162893D01*
X1749217Y1163877D01*
X1749750Y1165164D01*
Y1166556D01*
X1749217Y1167843D01*
X1748233Y1168827D01*
X1746946Y1169360D01*
D02*
G37*
G36*
X1804096Y1168090D02*
X1802704D01*
X1801417Y1167557D01*
X1800433Y1166573D01*
X1799900Y1165286D01*
Y1163894D01*
X1800433Y1162607D01*
X1801417Y1161623D01*
X1802704Y1161090D01*
X1804096D01*
X1805383Y1161623D01*
X1806367Y1162607D01*
X1806900Y1163894D01*
Y1165286D01*
X1806367Y1166573D01*
X1805383Y1167557D01*
X1804096Y1168090D01*
D02*
G37*
G36*
X1788856D02*
X1787464D01*
X1786177Y1167557D01*
X1785193Y1166573D01*
X1784660Y1165286D01*
Y1163894D01*
X1785193Y1162607D01*
X1786177Y1161623D01*
X1787464Y1161090D01*
X1788856D01*
X1790143Y1161623D01*
X1791127Y1162607D01*
X1791660Y1163894D01*
Y1165286D01*
X1791127Y1166573D01*
X1790143Y1167557D01*
X1788856Y1168090D01*
D02*
G37*
G36*
X1333329Y1164050D02*
X1331131D01*
X1329007Y1163481D01*
X1327103Y1162382D01*
X1325548Y1160827D01*
X1324449Y1158923D01*
X1323880Y1156799D01*
Y1154601D01*
X1324449Y1152477D01*
X1325548Y1150573D01*
X1327103Y1149018D01*
X1329007Y1147919D01*
X1331131Y1147350D01*
X1333329D01*
X1335453Y1147919D01*
X1337357Y1149018D01*
X1338912Y1150573D01*
X1340011Y1152477D01*
X1340580Y1154601D01*
Y1156799D01*
X1340011Y1158923D01*
X1338912Y1160827D01*
X1337357Y1162382D01*
X1335453Y1163481D01*
X1333329Y1164050D01*
D02*
G37*
G36*
X1307929D02*
X1305731D01*
X1303607Y1163481D01*
X1301703Y1162382D01*
X1300148Y1160827D01*
X1299049Y1158923D01*
X1298480Y1156799D01*
Y1154601D01*
X1299049Y1152477D01*
X1300148Y1150573D01*
X1301703Y1149018D01*
X1303607Y1147919D01*
X1305731Y1147350D01*
X1307929D01*
X1310053Y1147919D01*
X1311957Y1149018D01*
X1313512Y1150573D01*
X1314611Y1152477D01*
X1315180Y1154601D01*
Y1156799D01*
X1314611Y1158923D01*
X1313512Y1160827D01*
X1311957Y1162382D01*
X1310053Y1163481D01*
X1307929Y1164050D01*
D02*
G37*
G36*
X2177476Y1147770D02*
X2176084D01*
X2174797Y1147237D01*
X2173813Y1146253D01*
X2173280Y1144966D01*
Y1143574D01*
X2173813Y1142287D01*
X2174797Y1141303D01*
X2176084Y1140770D01*
X2177476D01*
X2178763Y1141303D01*
X2179747Y1142287D01*
X2180280Y1143574D01*
Y1144966D01*
X2179747Y1146253D01*
X2178763Y1147237D01*
X2177476Y1147770D01*
D02*
G37*
G36*
X1791396Y1143960D02*
X1790004D01*
X1788717Y1143427D01*
X1787733Y1142443D01*
X1787200Y1141156D01*
Y1139764D01*
X1787733Y1138477D01*
X1788717Y1137493D01*
X1790004Y1136960D01*
X1791396D01*
X1792683Y1137493D01*
X1793667Y1138477D01*
X1794200Y1139764D01*
Y1141156D01*
X1793667Y1142443D01*
X1792683Y1143427D01*
X1791396Y1143960D01*
D02*
G37*
G36*
X1333329Y1138650D02*
X1331131D01*
X1329007Y1138081D01*
X1327103Y1136982D01*
X1325548Y1135427D01*
X1324449Y1133523D01*
X1323880Y1131399D01*
Y1129201D01*
X1324449Y1127077D01*
X1325548Y1125173D01*
X1327103Y1123618D01*
X1329007Y1122519D01*
X1331131Y1121950D01*
X1333329D01*
X1335453Y1122519D01*
X1337357Y1123618D01*
X1338912Y1125173D01*
X1340011Y1127077D01*
X1340580Y1129201D01*
Y1131399D01*
X1340011Y1133523D01*
X1338912Y1135427D01*
X1337357Y1136982D01*
X1335453Y1138081D01*
X1333329Y1138650D01*
D02*
G37*
G36*
X1307929D02*
X1305731D01*
X1303607Y1138081D01*
X1301703Y1136982D01*
X1300148Y1135427D01*
X1299049Y1133523D01*
X1298480Y1131399D01*
Y1129201D01*
X1299049Y1127077D01*
X1300148Y1125173D01*
X1301703Y1123618D01*
X1303607Y1122519D01*
X1305731Y1121950D01*
X1307929D01*
X1310053Y1122519D01*
X1311957Y1123618D01*
X1313512Y1125173D01*
X1314611Y1127077D01*
X1315180Y1129201D01*
Y1131399D01*
X1314611Y1133523D01*
X1313512Y1135427D01*
X1311957Y1136982D01*
X1310053Y1138081D01*
X1307929Y1138650D01*
D02*
G37*
G36*
X1612326Y1126760D02*
X1610934D01*
X1609647Y1126227D01*
X1608663Y1125243D01*
X1608130Y1123956D01*
Y1122564D01*
X1608663Y1121277D01*
X1609647Y1120293D01*
X1610934Y1119760D01*
X1612326D01*
X1613613Y1120293D01*
X1614597Y1121277D01*
X1615130Y1122564D01*
Y1123956D01*
X1614597Y1125243D01*
X1613613Y1126227D01*
X1612326Y1126760D01*
D02*
G37*
G36*
X1909506Y1124910D02*
X1908114D01*
X1906827Y1124377D01*
X1905843Y1123393D01*
X1905310Y1122106D01*
Y1120714D01*
X1905843Y1119427D01*
X1906827Y1118443D01*
X1908114Y1117910D01*
X1909506D01*
X1910793Y1118443D01*
X1911777Y1119427D01*
X1912310Y1120714D01*
Y1122106D01*
X1911777Y1123393D01*
X1910793Y1124377D01*
X1909506Y1124910D01*
D02*
G37*
G36*
X1651696Y1118560D02*
X1650304D01*
X1649017Y1118027D01*
X1648033Y1117043D01*
X1647500Y1115756D01*
Y1114364D01*
X1648033Y1113077D01*
X1649017Y1112093D01*
X1650304Y1111560D01*
X1651696D01*
X1652983Y1112093D01*
X1653967Y1113077D01*
X1654500Y1114364D01*
Y1115756D01*
X1653967Y1117043D01*
X1652983Y1118027D01*
X1651696Y1118560D01*
D02*
G37*
G36*
X1612326Y1114750D02*
X1610934D01*
X1609647Y1114217D01*
X1608663Y1113233D01*
X1608130Y1111946D01*
Y1110554D01*
X1608663Y1109267D01*
X1609647Y1108283D01*
X1610934Y1107750D01*
X1612326D01*
X1613613Y1108283D01*
X1614597Y1109267D01*
X1615130Y1110554D01*
Y1111946D01*
X1614597Y1113233D01*
X1613613Y1114217D01*
X1612326Y1114750D01*
D02*
G37*
G36*
X1825679Y1107123D02*
X1824287D01*
X1823000Y1106590D01*
X1822016Y1105606D01*
X1821483Y1104319D01*
Y1102927D01*
X1822016Y1101640D01*
X1823000Y1100656D01*
X1824287Y1100123D01*
X1825679D01*
X1826966Y1100656D01*
X1827950Y1101640D01*
X1828483Y1102927D01*
Y1104319D01*
X1827950Y1105606D01*
X1826966Y1106590D01*
X1825679Y1107123D01*
D02*
G37*
G36*
X1730436Y1105860D02*
X1729044D01*
X1727757Y1105327D01*
X1726773Y1104343D01*
X1726240Y1103056D01*
Y1101664D01*
X1726773Y1100377D01*
X1727757Y1099393D01*
X1729044Y1098860D01*
X1730436D01*
X1731723Y1099393D01*
X1732707Y1100377D01*
X1733240Y1101664D01*
Y1103056D01*
X1732707Y1104343D01*
X1731723Y1105327D01*
X1730436Y1105860D01*
D02*
G37*
G36*
X1333329Y1113250D02*
X1331131D01*
X1329007Y1112681D01*
X1327103Y1111582D01*
X1325548Y1110027D01*
X1324449Y1108123D01*
X1323880Y1105999D01*
Y1103801D01*
X1324449Y1101677D01*
X1325548Y1099773D01*
X1327103Y1098218D01*
X1329007Y1097119D01*
X1331131Y1096550D01*
X1333329D01*
X1335453Y1097119D01*
X1337357Y1098218D01*
X1338912Y1099773D01*
X1340011Y1101677D01*
X1340580Y1103801D01*
Y1105999D01*
X1340011Y1108123D01*
X1338912Y1110027D01*
X1337357Y1111582D01*
X1335453Y1112681D01*
X1333329Y1113250D01*
D02*
G37*
G36*
X1307929D02*
X1305731D01*
X1303607Y1112681D01*
X1301703Y1111582D01*
X1300148Y1110027D01*
X1299049Y1108123D01*
X1298480Y1105999D01*
Y1103801D01*
X1299049Y1101677D01*
X1300148Y1099773D01*
X1301703Y1098218D01*
X1303607Y1097119D01*
X1305731Y1096550D01*
X1307929D01*
X1310053Y1097119D01*
X1311957Y1098218D01*
X1313512Y1099773D01*
X1314611Y1101677D01*
X1315180Y1103801D01*
Y1105999D01*
X1314611Y1108123D01*
X1313512Y1110027D01*
X1311957Y1111582D01*
X1310053Y1112681D01*
X1307929Y1113250D01*
D02*
G37*
G36*
X1651696Y1103320D02*
X1650304D01*
X1649017Y1102787D01*
X1648033Y1101803D01*
X1647500Y1100516D01*
Y1099124D01*
X1648033Y1097837D01*
X1649017Y1096853D01*
X1650304Y1096320D01*
X1651696D01*
X1652983Y1096853D01*
X1653967Y1097837D01*
X1654500Y1099124D01*
Y1100516D01*
X1653967Y1101803D01*
X1652983Y1102787D01*
X1651696Y1103320D01*
D02*
G37*
G36*
X1891726Y1096970D02*
X1890334D01*
X1889047Y1096437D01*
X1888063Y1095453D01*
X1887530Y1094166D01*
Y1092774D01*
X1888063Y1091487D01*
X1889047Y1090503D01*
X1890334Y1089970D01*
X1891726D01*
X1893013Y1090503D01*
X1893997Y1091487D01*
X1894530Y1092774D01*
Y1094166D01*
X1893997Y1095453D01*
X1893013Y1096437D01*
X1891726Y1096970D01*
D02*
G37*
G36*
X1826956Y1093160D02*
X1825564D01*
X1824277Y1092627D01*
X1823293Y1091643D01*
X1822760Y1090356D01*
Y1088964D01*
X1823293Y1087677D01*
X1824277Y1086693D01*
X1825564Y1086160D01*
X1826956D01*
X1828243Y1086693D01*
X1829227Y1087677D01*
X1829760Y1088964D01*
Y1090356D01*
X1829227Y1091643D01*
X1828243Y1092627D01*
X1826956Y1093160D01*
D02*
G37*
G36*
X1730436D02*
X1729044D01*
X1727757Y1092627D01*
X1726773Y1091643D01*
X1726240Y1090356D01*
Y1088964D01*
X1726773Y1087677D01*
X1727757Y1086693D01*
X1729044Y1086160D01*
X1730436D01*
X1731723Y1086693D01*
X1732707Y1087677D01*
X1733240Y1088964D01*
Y1090356D01*
X1732707Y1091643D01*
X1731723Y1092627D01*
X1730436Y1093160D01*
D02*
G37*
G36*
X1909506Y1084270D02*
X1908114D01*
X1906827Y1083737D01*
X1905843Y1082753D01*
X1905310Y1081466D01*
Y1080074D01*
X1905843Y1078787D01*
X1906827Y1077803D01*
X1908114Y1077270D01*
X1909506D01*
X1910793Y1077803D01*
X1911777Y1078787D01*
X1912310Y1080074D01*
Y1081466D01*
X1911777Y1082753D01*
X1910793Y1083737D01*
X1909506Y1084270D01*
D02*
G37*
G36*
X1668780Y1475946D02*
X1667083Y1475723D01*
X1665502Y1475068D01*
X1664144Y1474026D01*
X1663102Y1472668D01*
X1662447Y1471087D01*
X1662224Y1469390D01*
X1662447Y1467693D01*
X1662804Y1466832D01*
Y1423156D01*
X1626044Y1386396D01*
X1625002Y1385038D01*
X1624347Y1383457D01*
X1624124Y1381760D01*
Y1077562D01*
X1622854Y1077036D01*
X1622503Y1077387D01*
X1621216Y1077920D01*
X1619824D01*
X1618537Y1077387D01*
X1617553Y1076403D01*
X1617020Y1075116D01*
Y1073724D01*
X1617553Y1072437D01*
X1618537Y1071453D01*
X1619824Y1070920D01*
X1621216D01*
X1622503Y1071453D01*
X1622854Y1071804D01*
X1624124Y1071278D01*
Y984436D01*
X1455638Y815950D01*
X1454159D01*
X1451743Y815303D01*
X1449577Y814052D01*
X1447808Y812283D01*
X1446557Y810117D01*
X1445910Y807701D01*
Y805199D01*
X1446557Y802783D01*
X1447808Y800617D01*
X1449577Y798848D01*
X1451743Y797597D01*
X1454159Y796950D01*
X1456661D01*
X1459077Y797597D01*
X1461243Y798848D01*
X1463012Y800617D01*
X1464263Y802783D01*
X1464910Y805199D01*
Y806678D01*
X1635316Y977084D01*
X1636358Y978442D01*
X1637013Y980023D01*
X1637236Y981720D01*
Y1379044D01*
X1673996Y1415804D01*
X1675038Y1417162D01*
X1675693Y1418743D01*
X1675916Y1420440D01*
Y1468810D01*
X1675693Y1470507D01*
X1675038Y1472088D01*
X1673996Y1473446D01*
X1673416Y1474026D01*
X1672058Y1475068D01*
X1670477Y1475723D01*
X1668780Y1475946D01*
D02*
G37*
G36*
X1730436Y1080460D02*
X1729044D01*
X1727757Y1079927D01*
X1726773Y1078943D01*
X1726240Y1077656D01*
Y1076264D01*
X1726773Y1074977D01*
X1727757Y1073993D01*
X1729044Y1073460D01*
X1730436D01*
X1731723Y1073993D01*
X1732707Y1074977D01*
X1733240Y1076264D01*
Y1077656D01*
X1732707Y1078943D01*
X1731723Y1079927D01*
X1730436Y1080460D01*
D02*
G37*
G36*
X1333329Y1087850D02*
X1331131D01*
X1329007Y1087281D01*
X1327103Y1086182D01*
X1325548Y1084627D01*
X1324449Y1082723D01*
X1323880Y1080599D01*
Y1078401D01*
X1324449Y1076277D01*
X1325548Y1074373D01*
X1327103Y1072818D01*
X1329007Y1071719D01*
X1331131Y1071150D01*
X1333329D01*
X1335453Y1071719D01*
X1337357Y1072818D01*
X1338912Y1074373D01*
X1340011Y1076277D01*
X1340580Y1078401D01*
Y1080599D01*
X1340011Y1082723D01*
X1338912Y1084627D01*
X1337357Y1086182D01*
X1335453Y1087281D01*
X1333329Y1087850D01*
D02*
G37*
G36*
X1307929D02*
X1305731D01*
X1303607Y1087281D01*
X1301703Y1086182D01*
X1300148Y1084627D01*
X1299049Y1082723D01*
X1298480Y1080599D01*
Y1078401D01*
X1299049Y1076277D01*
X1300148Y1074373D01*
X1301703Y1072818D01*
X1303607Y1071719D01*
X1305731Y1071150D01*
X1307929D01*
X1310053Y1071719D01*
X1311957Y1072818D01*
X1313512Y1074373D01*
X1314611Y1076277D01*
X1315180Y1078401D01*
Y1080599D01*
X1314611Y1082723D01*
X1313512Y1084627D01*
X1311957Y1086182D01*
X1310053Y1087281D01*
X1307929Y1087850D01*
D02*
G37*
G36*
X1826955Y1077921D02*
X1825563D01*
X1824276Y1077388D01*
X1823292Y1076404D01*
X1822759Y1075117D01*
Y1073725D01*
X1823292Y1072439D01*
X1824276Y1071454D01*
X1825563Y1070921D01*
X1826955D01*
X1828241Y1071454D01*
X1829226Y1072439D01*
X1829759Y1073725D01*
Y1075117D01*
X1829226Y1076404D01*
X1828241Y1077388D01*
X1826955Y1077921D01*
D02*
G37*
G36*
X1909506Y1074110D02*
X1908114D01*
X1906827Y1073577D01*
X1905843Y1072593D01*
X1905310Y1071306D01*
Y1069914D01*
X1905843Y1068627D01*
X1906827Y1067643D01*
X1908114Y1067110D01*
X1909506D01*
X1910793Y1067643D01*
X1911777Y1068627D01*
X1912310Y1069914D01*
Y1071306D01*
X1911777Y1072593D01*
X1910793Y1073577D01*
X1909506Y1074110D01*
D02*
G37*
G36*
X1730436Y1067760D02*
X1729044D01*
X1727757Y1067227D01*
X1726773Y1066243D01*
X1726240Y1064956D01*
Y1063564D01*
X1726773Y1062277D01*
X1727757Y1061293D01*
X1729044Y1060760D01*
X1730436D01*
X1731723Y1061293D01*
X1732707Y1062277D01*
X1733240Y1063564D01*
Y1064956D01*
X1732707Y1066243D01*
X1731723Y1067227D01*
X1730436Y1067760D01*
D02*
G37*
G36*
X1589466Y1065220D02*
X1588074D01*
X1586787Y1064687D01*
X1585803Y1063703D01*
X1585270Y1062416D01*
Y1061024D01*
X1585803Y1059737D01*
X1586787Y1058753D01*
X1588074Y1058220D01*
X1589466D01*
X1590753Y1058753D01*
X1591737Y1059737D01*
X1592270Y1061024D01*
Y1062416D01*
X1591737Y1063703D01*
X1590753Y1064687D01*
X1589466Y1065220D01*
D02*
G37*
G36*
X1826956Y1062680D02*
X1825564D01*
X1824277Y1062147D01*
X1823293Y1061163D01*
X1822760Y1059876D01*
Y1058484D01*
X1823293Y1057197D01*
X1824277Y1056213D01*
X1825564Y1055680D01*
X1826956D01*
X1828243Y1056213D01*
X1829227Y1057197D01*
X1829760Y1058484D01*
Y1059876D01*
X1829227Y1061163D01*
X1828243Y1062147D01*
X1826956Y1062680D01*
D02*
G37*
G36*
X1705036Y1059020D02*
X1703644D01*
X1702357Y1058487D01*
X1701373Y1057503D01*
X1700840Y1056216D01*
Y1054824D01*
X1701373Y1053537D01*
X1702357Y1052553D01*
X1703644Y1052020D01*
X1705036D01*
X1706322Y1052553D01*
X1707307Y1053537D01*
X1707840Y1054824D01*
Y1056216D01*
X1707307Y1057503D01*
X1706322Y1058487D01*
X1705036Y1059020D01*
D02*
G37*
G36*
X2176126Y1055760D02*
X2174734D01*
X2173447Y1055227D01*
X2172463Y1054243D01*
X2171930Y1052956D01*
Y1051564D01*
X2172463Y1050277D01*
X2173447Y1049293D01*
X2174734Y1048760D01*
X2176126D01*
X2177413Y1049293D01*
X2178397Y1050277D01*
X2178930Y1051564D01*
Y1052956D01*
X2178397Y1054243D01*
X2177413Y1055227D01*
X2176126Y1055760D01*
D02*
G37*
G36*
X1589466Y1052520D02*
X1588074D01*
X1586787Y1051987D01*
X1585803Y1051003D01*
X1585270Y1049716D01*
Y1048324D01*
X1585803Y1047037D01*
X1586787Y1046053D01*
X1588074Y1045520D01*
X1589466D01*
X1590753Y1046053D01*
X1591737Y1047037D01*
X1592270Y1048324D01*
Y1049716D01*
X1591737Y1051003D01*
X1590753Y1051987D01*
X1589466Y1052520D01*
D02*
G37*
G36*
X1705036Y1046320D02*
X1703644D01*
X1702357Y1045787D01*
X1701373Y1044803D01*
X1700840Y1043516D01*
Y1042124D01*
X1701373Y1040837D01*
X1702357Y1039853D01*
X1703644Y1039320D01*
X1705036D01*
X1706322Y1039853D01*
X1707307Y1040837D01*
X1707840Y1042124D01*
Y1043516D01*
X1707307Y1044803D01*
X1706322Y1045787D01*
X1705036Y1046320D01*
D02*
G37*
G36*
X1588196Y1039820D02*
X1586804D01*
X1585517Y1039287D01*
X1584533Y1038303D01*
X1584000Y1037016D01*
Y1035624D01*
X1584533Y1034337D01*
X1585517Y1033353D01*
X1586804Y1032820D01*
X1588196D01*
X1589483Y1033353D01*
X1590467Y1034337D01*
X1591000Y1035624D01*
Y1037016D01*
X1590467Y1038303D01*
X1589483Y1039287D01*
X1588196Y1039820D01*
D02*
G37*
G36*
X1749486Y1034740D02*
X1748094D01*
X1746807Y1034207D01*
X1745823Y1033223D01*
X1745290Y1031936D01*
Y1030544D01*
X1745823Y1029257D01*
X1746807Y1028273D01*
X1748094Y1027740D01*
X1749486D01*
X1750773Y1028273D01*
X1751757Y1029257D01*
X1752290Y1030544D01*
Y1031936D01*
X1751757Y1033223D01*
X1750773Y1034207D01*
X1749486Y1034740D01*
D02*
G37*
G36*
X2172926Y1019500D02*
X2171534D01*
X2170247Y1018967D01*
X2169263Y1017983D01*
X2168730Y1016696D01*
Y1015304D01*
X2169263Y1014017D01*
X2170247Y1013033D01*
X2171534Y1012500D01*
X2172926D01*
X2174213Y1013033D01*
X2175197Y1014017D01*
X2175730Y1015304D01*
Y1016696D01*
X2175197Y1017983D01*
X2174213Y1018967D01*
X2172926Y1019500D01*
D02*
G37*
G36*
X1749486D02*
X1748094D01*
X1746807Y1018967D01*
X1745823Y1017983D01*
X1745290Y1016696D01*
Y1015304D01*
X1745823Y1014017D01*
X1746807Y1013033D01*
X1748094Y1012500D01*
X1749486D01*
X1750773Y1013033D01*
X1751757Y1014017D01*
X1752290Y1015304D01*
Y1016696D01*
X1751757Y1017983D01*
X1750773Y1018967D01*
X1749486Y1019500D01*
D02*
G37*
G36*
X2055556Y969970D02*
X2054164D01*
X2052877Y969437D01*
X2051893Y968453D01*
X2051360Y967166D01*
Y965774D01*
X2051893Y964487D01*
X2052877Y963503D01*
X2054164Y962970D01*
X2055556D01*
X2056843Y963503D01*
X2057827Y964487D01*
X2058360Y965774D01*
Y967166D01*
X2057827Y968453D01*
X2056843Y969437D01*
X2055556Y969970D01*
D02*
G37*
G36*
X1980626Y968700D02*
X1979234D01*
X1977947Y968167D01*
X1976963Y967183D01*
X1976430Y965896D01*
Y964504D01*
X1976963Y963217D01*
X1977947Y962233D01*
X1979234Y961700D01*
X1980626D01*
X1981913Y962233D01*
X1982897Y963217D01*
X1983430Y964504D01*
Y965896D01*
X1982897Y967183D01*
X1981913Y968167D01*
X1980626Y968700D01*
D02*
G37*
G36*
X1434746Y962350D02*
X1433354D01*
X1432067Y961817D01*
X1431083Y960833D01*
X1430550Y959546D01*
Y958154D01*
X1431083Y956867D01*
X1432067Y955883D01*
X1433354Y955350D01*
X1434746D01*
X1436033Y955883D01*
X1437017Y956867D01*
X1437550Y958154D01*
Y959546D01*
X1437017Y960833D01*
X1436033Y961817D01*
X1434746Y962350D01*
D02*
G37*
G36*
X1638996Y961080D02*
X1637604D01*
X1636317Y960547D01*
X1635333Y959563D01*
X1634800Y958276D01*
Y956884D01*
X1635333Y955597D01*
X1636317Y954613D01*
X1637604Y954080D01*
X1638996D01*
X1640283Y954613D01*
X1641267Y955597D01*
X1641800Y956884D01*
Y958276D01*
X1641267Y959563D01*
X1640283Y960547D01*
X1638996Y961080D01*
D02*
G37*
G36*
X2172926Y956200D02*
X2171534D01*
X2170247Y955667D01*
X2169263Y954683D01*
X2168730Y953396D01*
Y952004D01*
X2169263Y950717D01*
X2170247Y949733D01*
X2171534Y949200D01*
X2172926D01*
X2174213Y949733D01*
X2175197Y950717D01*
X2175730Y952004D01*
Y953396D01*
X2175197Y954683D01*
X2174213Y955667D01*
X2172926Y956200D01*
D02*
G37*
G36*
X1995866Y938220D02*
X1994474D01*
X1993187Y937687D01*
X1992203Y936703D01*
X1991670Y935416D01*
Y934024D01*
X1992203Y932737D01*
X1993187Y931753D01*
X1994474Y931220D01*
X1995866D01*
X1997153Y931753D01*
X1998137Y932737D01*
X1998670Y934024D01*
Y935416D01*
X1998137Y936703D01*
X1997153Y937687D01*
X1995866Y938220D01*
D02*
G37*
G36*
X1341816Y935680D02*
X1340424D01*
X1339137Y935147D01*
X1338153Y934163D01*
X1337620Y932876D01*
Y931484D01*
X1338153Y930197D01*
X1339137Y929213D01*
X1340424Y928680D01*
X1341816D01*
X1343103Y929213D01*
X1344087Y930197D01*
X1344620Y931484D01*
Y932876D01*
X1344087Y934163D01*
X1343103Y935147D01*
X1341816Y935680D01*
D02*
G37*
G36*
X1524806Y931870D02*
X1523414D01*
X1522127Y931337D01*
X1521143Y930353D01*
X1520610Y929066D01*
Y927674D01*
X1521143Y926387D01*
X1522127Y925403D01*
X1523414Y924870D01*
X1524806D01*
X1526093Y925403D01*
X1527077Y926387D01*
X1527610Y927674D01*
Y929066D01*
X1527077Y930353D01*
X1526093Y931337D01*
X1524806Y931870D01*
D02*
G37*
G36*
X1456106Y931180D02*
X1454714D01*
X1453427Y930647D01*
X1452443Y929663D01*
X1451910Y928376D01*
Y926984D01*
X1452443Y925697D01*
X1453427Y924713D01*
X1454714Y924180D01*
X1456106D01*
X1457393Y924713D01*
X1458377Y925697D01*
X1458910Y926984D01*
Y928376D01*
X1458377Y929663D01*
X1457393Y930647D01*
X1456106Y931180D01*
D02*
G37*
G36*
X1341816Y920440D02*
X1340424D01*
X1339137Y919907D01*
X1338153Y918923D01*
X1337620Y917636D01*
Y916244D01*
X1338153Y914957D01*
X1339137Y913973D01*
X1340424Y913440D01*
X1341816D01*
X1343103Y913973D01*
X1344087Y914957D01*
X1344620Y916244D01*
Y917636D01*
X1344087Y918923D01*
X1343103Y919907D01*
X1341816Y920440D01*
D02*
G37*
G36*
X2174936Y907740D02*
X2173544D01*
X2172257Y907207D01*
X2171273Y906223D01*
X2170740Y904936D01*
Y903544D01*
X2171273Y902257D01*
X2172257Y901273D01*
X2173544Y900740D01*
X2174936D01*
X2176223Y901273D01*
X2177207Y902257D01*
X2177740Y903544D01*
Y904936D01*
X2177207Y906223D01*
X2176223Y907207D01*
X2174936Y907740D01*
D02*
G37*
G36*
X1586915Y906470D02*
X1585523D01*
X1584237Y905937D01*
X1583252Y904953D01*
X1582719Y903666D01*
Y902274D01*
X1583252Y900987D01*
X1584237Y900003D01*
X1585523Y899470D01*
X1586915D01*
X1588202Y900003D01*
X1589186Y900987D01*
X1589719Y902274D01*
Y903666D01*
X1589186Y904953D01*
X1588202Y905937D01*
X1586915Y906470D01*
D02*
G37*
G36*
X1381176D02*
X1379784D01*
X1378497Y905937D01*
X1377513Y904953D01*
X1376980Y903666D01*
Y902274D01*
X1377513Y900987D01*
X1378497Y900003D01*
X1379784Y899470D01*
X1381176D01*
X1382463Y900003D01*
X1383447Y900987D01*
X1383980Y902274D01*
Y903666D01*
X1383447Y904953D01*
X1382463Y905937D01*
X1381176Y906470D01*
D02*
G37*
G36*
X1627556Y898850D02*
X1626164D01*
X1624877Y898317D01*
X1623893Y897333D01*
X1623360Y896046D01*
Y894654D01*
X1623893Y893367D01*
X1624877Y892383D01*
X1626164Y891850D01*
X1627556D01*
X1628843Y892383D01*
X1629827Y893367D01*
X1630360Y894654D01*
Y896046D01*
X1629827Y897333D01*
X1628843Y898317D01*
X1627556Y898850D01*
D02*
G37*
G36*
X1460856Y893750D02*
X1459264D01*
X1457794Y893141D01*
X1456669Y892016D01*
X1456060Y890546D01*
Y888954D01*
X1456669Y887484D01*
X1457794Y886359D01*
X1459264Y885750D01*
X1460856D01*
X1462326Y886359D01*
X1463451Y887484D01*
X1464060Y888954D01*
Y890546D01*
X1463451Y892016D01*
X1462326Y893141D01*
X1460856Y893750D01*
D02*
G37*
G36*
X1449856D02*
X1448264D01*
X1446794Y893141D01*
X1445669Y892016D01*
X1445060Y890546D01*
Y888954D01*
X1445669Y887484D01*
X1446794Y886359D01*
X1448264Y885750D01*
X1449856D01*
X1451326Y886359D01*
X1452451Y887484D01*
X1453060Y888954D01*
Y890546D01*
X1452451Y892016D01*
X1451326Y893141D01*
X1449856Y893750D01*
D02*
G37*
G36*
X1438856D02*
X1437264D01*
X1435794Y893141D01*
X1434669Y892016D01*
X1434060Y890546D01*
Y888954D01*
X1434669Y887484D01*
X1435794Y886359D01*
X1437264Y885750D01*
X1438856D01*
X1440326Y886359D01*
X1441451Y887484D01*
X1442060Y888954D01*
Y890546D01*
X1441451Y892016D01*
X1440326Y893141D01*
X1438856Y893750D01*
D02*
G37*
G36*
X1409116Y884880D02*
X1407724D01*
X1406437Y884347D01*
X1405453Y883363D01*
X1404920Y882076D01*
Y880684D01*
X1405453Y879397D01*
X1406437Y878413D01*
X1407724Y877880D01*
X1409116D01*
X1410403Y878413D01*
X1411387Y879397D01*
X1411920Y880684D01*
Y882076D01*
X1411387Y883363D01*
X1410403Y884347D01*
X1409116Y884880D01*
D02*
G37*
G36*
X1460856Y882750D02*
X1459264D01*
X1457794Y882141D01*
X1456669Y881016D01*
X1456060Y879546D01*
Y877954D01*
X1456669Y876484D01*
X1457794Y875359D01*
X1459264Y874750D01*
X1460856D01*
X1462326Y875359D01*
X1463451Y876484D01*
X1464060Y877954D01*
Y879546D01*
X1463451Y881016D01*
X1462326Y882141D01*
X1460856Y882750D01*
D02*
G37*
G36*
X1449856D02*
X1448264D01*
X1446794Y882141D01*
X1445669Y881016D01*
X1445060Y879546D01*
Y877954D01*
X1445669Y876484D01*
X1446794Y875359D01*
X1448264Y874750D01*
X1449856D01*
X1451326Y875359D01*
X1452451Y876484D01*
X1453060Y877954D01*
Y879546D01*
X1452451Y881016D01*
X1451326Y882141D01*
X1449856Y882750D01*
D02*
G37*
G36*
X1438856D02*
X1437264D01*
X1435794Y882141D01*
X1434669Y881016D01*
X1434060Y879546D01*
Y877954D01*
X1434669Y876484D01*
X1435794Y875359D01*
X1437264Y874750D01*
X1438856D01*
X1440326Y875359D01*
X1441451Y876484D01*
X1442060Y877954D01*
Y879546D01*
X1441451Y881016D01*
X1440326Y882141D01*
X1438856Y882750D01*
D02*
G37*
G36*
X1604696Y877260D02*
X1603304D01*
X1602017Y876727D01*
X1601033Y875743D01*
X1600500Y874456D01*
Y873064D01*
X1601033Y871777D01*
X1602017Y870793D01*
X1603304Y870260D01*
X1604696D01*
X1605983Y870793D01*
X1606967Y871777D01*
X1607500Y873064D01*
Y874456D01*
X1606967Y875743D01*
X1605983Y876727D01*
X1604696Y877260D01*
D02*
G37*
G36*
X1341816Y848050D02*
X1340424D01*
X1339137Y847517D01*
X1338153Y846533D01*
X1337620Y845246D01*
Y843854D01*
X1338153Y842567D01*
X1339137Y841583D01*
X1340424Y841050D01*
X1341816D01*
X1343103Y841583D01*
X1344087Y842567D01*
X1344620Y843854D01*
Y845246D01*
X1344087Y846533D01*
X1343103Y847517D01*
X1341816Y848050D01*
D02*
G37*
G36*
X2172396Y845510D02*
X2171004D01*
X2169717Y844977D01*
X2168733Y843993D01*
X2168200Y842706D01*
Y841314D01*
X2168733Y840027D01*
X2169717Y839043D01*
X2171004Y838510D01*
X2172396D01*
X2173683Y839043D01*
X2174667Y840027D01*
X2175200Y841314D01*
Y842706D01*
X2174667Y843993D01*
X2173683Y844977D01*
X2172396Y845510D01*
D02*
G37*
G36*
X2106930Y1594056D02*
X2105233Y1593833D01*
X2103652Y1593178D01*
X2102294Y1592136D01*
X2101252Y1590778D01*
X2100597Y1589197D01*
X2100374Y1587500D01*
X2100597Y1585803D01*
X2101252Y1584222D01*
X2102294Y1582864D01*
X2124504Y1560654D01*
Y920926D01*
X2047064Y843486D01*
X1540510D01*
X1538813Y843263D01*
X1537232Y842608D01*
X1535874Y841566D01*
X1534832Y840208D01*
X1534177Y838627D01*
X1533954Y836930D01*
X1534177Y835233D01*
X1534832Y833652D01*
X1535874Y832294D01*
X1537232Y831252D01*
X1538813Y830597D01*
X1540510Y830374D01*
X2049780D01*
X2051477Y830597D01*
X2053058Y831252D01*
X2054416Y832294D01*
X2135696Y913574D01*
X2136738Y914932D01*
X2137393Y916513D01*
X2137616Y918210D01*
Y1563370D01*
X2137393Y1565067D01*
X2136738Y1566648D01*
X2135696Y1568006D01*
X2111566Y1592136D01*
X2110208Y1593178D01*
X2108627Y1593833D01*
X2106930Y1594056D01*
D02*
G37*
G36*
X1332730Y830073D02*
X1331337D01*
X1330051Y829541D01*
X1329066Y828556D01*
X1328533Y827270D01*
Y825877D01*
X1329066Y824591D01*
X1330051Y823606D01*
X1331337Y823073D01*
X1332730D01*
X1334016Y823606D01*
X1335001Y824591D01*
X1335533Y825877D01*
Y827270D01*
X1335001Y828556D01*
X1334016Y829541D01*
X1332730Y830073D01*
D02*
G37*
G36*
X1334196Y815030D02*
X1332804D01*
X1331517Y814497D01*
X1330533Y813513D01*
X1330000Y812226D01*
Y810834D01*
X1330533Y809547D01*
X1331517Y808563D01*
X1332804Y808030D01*
X1334196D01*
X1335483Y808563D01*
X1336467Y809547D01*
X1337000Y810834D01*
Y812226D01*
X1336467Y813513D01*
X1335483Y814497D01*
X1334196Y815030D01*
D02*
G37*
G36*
X1945686Y811700D02*
X1943634D01*
X1941653Y811169D01*
X1939877Y810144D01*
X1938427Y808693D01*
X1937401Y806917D01*
X1936870Y804936D01*
Y802884D01*
X1937401Y800903D01*
X1938427Y799127D01*
X1939877Y797676D01*
X1941653Y796651D01*
X1943634Y796120D01*
X1945686D01*
X1947667Y796651D01*
X1949443Y797676D01*
X1950894Y799127D01*
X1951919Y800903D01*
X1952450Y802884D01*
Y804936D01*
X1951919Y806917D01*
X1950894Y808693D01*
X1949443Y810144D01*
X1947667Y811169D01*
X1945686Y811700D01*
D02*
G37*
G36*
X1925686D02*
X1923634D01*
X1921653Y811169D01*
X1919877Y810144D01*
X1918427Y808693D01*
X1917401Y806917D01*
X1916870Y804936D01*
Y802884D01*
X1917401Y800903D01*
X1918427Y799127D01*
X1919877Y797676D01*
X1921653Y796651D01*
X1923634Y796120D01*
X1925686D01*
X1927667Y796651D01*
X1929443Y797676D01*
X1930894Y799127D01*
X1931919Y800903D01*
X1932450Y802884D01*
Y804936D01*
X1931919Y806917D01*
X1930894Y808693D01*
X1929443Y810144D01*
X1927667Y811169D01*
X1925686Y811700D01*
D02*
G37*
G36*
X1905686D02*
X1903634D01*
X1901653Y811169D01*
X1899877Y810144D01*
X1898427Y808693D01*
X1897401Y806917D01*
X1896870Y804936D01*
Y802884D01*
X1897401Y800903D01*
X1898427Y799127D01*
X1899877Y797676D01*
X1901653Y796651D01*
X1903634Y796120D01*
X1905686D01*
X1907667Y796651D01*
X1909443Y797676D01*
X1910894Y799127D01*
X1911919Y800903D01*
X1912450Y802884D01*
Y804936D01*
X1911919Y806917D01*
X1910894Y808693D01*
X1909443Y810144D01*
X1907667Y811169D01*
X1905686Y811700D01*
D02*
G37*
G36*
X1885686D02*
X1883634D01*
X1881653Y811169D01*
X1879877Y810144D01*
X1878427Y808693D01*
X1877401Y806917D01*
X1876870Y804936D01*
Y802884D01*
X1877401Y800903D01*
X1878427Y799127D01*
X1879877Y797676D01*
X1881653Y796651D01*
X1883634Y796120D01*
X1885686D01*
X1887667Y796651D01*
X1889443Y797676D01*
X1890894Y799127D01*
X1891919Y800903D01*
X1892450Y802884D01*
Y804936D01*
X1891919Y806917D01*
X1890894Y808693D01*
X1889443Y810144D01*
X1887667Y811169D01*
X1885686Y811700D01*
D02*
G37*
G36*
X1865686D02*
X1863634D01*
X1861653Y811169D01*
X1859877Y810144D01*
X1858427Y808693D01*
X1857401Y806917D01*
X1856870Y804936D01*
Y802884D01*
X1857401Y800903D01*
X1858427Y799127D01*
X1859877Y797676D01*
X1861653Y796651D01*
X1863634Y796120D01*
X1865686D01*
X1867667Y796651D01*
X1869443Y797676D01*
X1870894Y799127D01*
X1871919Y800903D01*
X1872450Y802884D01*
Y804936D01*
X1871919Y806917D01*
X1870894Y808693D01*
X1869443Y810144D01*
X1867667Y811169D01*
X1865686Y811700D01*
D02*
G37*
G36*
X1845686D02*
X1843634D01*
X1841653Y811169D01*
X1839877Y810144D01*
X1838427Y808693D01*
X1837401Y806917D01*
X1836870Y804936D01*
Y802884D01*
X1837401Y800903D01*
X1838427Y799127D01*
X1839877Y797676D01*
X1841653Y796651D01*
X1843634Y796120D01*
X1845686D01*
X1847667Y796651D01*
X1849443Y797676D01*
X1850894Y799127D01*
X1851919Y800903D01*
X1852450Y802884D01*
Y804936D01*
X1851919Y806917D01*
X1850894Y808693D01*
X1849443Y810144D01*
X1847667Y811169D01*
X1845686Y811700D01*
D02*
G37*
G36*
X1825686D02*
X1823634D01*
X1821653Y811169D01*
X1819877Y810144D01*
X1818427Y808693D01*
X1817401Y806917D01*
X1816870Y804936D01*
Y802884D01*
X1817401Y800903D01*
X1818427Y799127D01*
X1819877Y797676D01*
X1821653Y796651D01*
X1823634Y796120D01*
X1825686D01*
X1827667Y796651D01*
X1829443Y797676D01*
X1830894Y799127D01*
X1831919Y800903D01*
X1832450Y802884D01*
Y804936D01*
X1831919Y806917D01*
X1830894Y808693D01*
X1829443Y810144D01*
X1827667Y811169D01*
X1825686Y811700D01*
D02*
G37*
G36*
X1805686D02*
X1803634D01*
X1801653Y811169D01*
X1799877Y810144D01*
X1798427Y808693D01*
X1797401Y806917D01*
X1796870Y804936D01*
Y802884D01*
X1797401Y800903D01*
X1798427Y799127D01*
X1799877Y797676D01*
X1801653Y796651D01*
X1803634Y796120D01*
X1805686D01*
X1807667Y796651D01*
X1809443Y797676D01*
X1810894Y799127D01*
X1811919Y800903D01*
X1812450Y802884D01*
Y804936D01*
X1811919Y806917D01*
X1810894Y808693D01*
X1809443Y810144D01*
X1807667Y811169D01*
X1805686Y811700D01*
D02*
G37*
G36*
X1785686D02*
X1783634D01*
X1781653Y811169D01*
X1779877Y810144D01*
X1778427Y808693D01*
X1777401Y806917D01*
X1776870Y804936D01*
Y802884D01*
X1777401Y800903D01*
X1778427Y799127D01*
X1779877Y797676D01*
X1781653Y796651D01*
X1783634Y796120D01*
X1785686D01*
X1787667Y796651D01*
X1789443Y797676D01*
X1790894Y799127D01*
X1791919Y800903D01*
X1792450Y802884D01*
Y804936D01*
X1791919Y806917D01*
X1790894Y808693D01*
X1789443Y810144D01*
X1787667Y811169D01*
X1785686Y811700D01*
D02*
G37*
G36*
X1765686D02*
X1763634D01*
X1761653Y811169D01*
X1759877Y810144D01*
X1758427Y808693D01*
X1757401Y806917D01*
X1756870Y804936D01*
Y802884D01*
X1757401Y800903D01*
X1758427Y799127D01*
X1759877Y797676D01*
X1761653Y796651D01*
X1763634Y796120D01*
X1765686D01*
X1767667Y796651D01*
X1769443Y797676D01*
X1770894Y799127D01*
X1771919Y800903D01*
X1772450Y802884D01*
Y804936D01*
X1771919Y806917D01*
X1770894Y808693D01*
X1769443Y810144D01*
X1767667Y811169D01*
X1765686Y811700D01*
D02*
G37*
G36*
X1745686D02*
X1743634D01*
X1741653Y811169D01*
X1739877Y810144D01*
X1738427Y808693D01*
X1737401Y806917D01*
X1736870Y804936D01*
Y802884D01*
X1737401Y800903D01*
X1738427Y799127D01*
X1739877Y797676D01*
X1741653Y796651D01*
X1743634Y796120D01*
X1745686D01*
X1747667Y796651D01*
X1749443Y797676D01*
X1750894Y799127D01*
X1751919Y800903D01*
X1752450Y802884D01*
Y804936D01*
X1751919Y806917D01*
X1750894Y808693D01*
X1749443Y810144D01*
X1747667Y811169D01*
X1745686Y811700D01*
D02*
G37*
G36*
X1725686D02*
X1723634D01*
X1721653Y811169D01*
X1719877Y810144D01*
X1718427Y808693D01*
X1717401Y806917D01*
X1716870Y804936D01*
Y802884D01*
X1717401Y800903D01*
X1718427Y799127D01*
X1719877Y797676D01*
X1721653Y796651D01*
X1723634Y796120D01*
X1725686D01*
X1727667Y796651D01*
X1729443Y797676D01*
X1730894Y799127D01*
X1731919Y800903D01*
X1732450Y802884D01*
Y804936D01*
X1731919Y806917D01*
X1730894Y808693D01*
X1729443Y810144D01*
X1727667Y811169D01*
X1725686Y811700D01*
D02*
G37*
G36*
X1705686D02*
X1703634D01*
X1701653Y811169D01*
X1699877Y810144D01*
X1698427Y808693D01*
X1697401Y806917D01*
X1696870Y804936D01*
Y802884D01*
X1697401Y800903D01*
X1698427Y799127D01*
X1699877Y797676D01*
X1701653Y796651D01*
X1703634Y796120D01*
X1705686D01*
X1707667Y796651D01*
X1709443Y797676D01*
X1710894Y799127D01*
X1711919Y800903D01*
X1712450Y802884D01*
Y804936D01*
X1711919Y806917D01*
X1710894Y808693D01*
X1709443Y810144D01*
X1707667Y811169D01*
X1705686Y811700D01*
D02*
G37*
G36*
X1685686D02*
X1683634D01*
X1681653Y811169D01*
X1679877Y810144D01*
X1678427Y808693D01*
X1677401Y806917D01*
X1676870Y804936D01*
Y802884D01*
X1677401Y800903D01*
X1678427Y799127D01*
X1679877Y797676D01*
X1681653Y796651D01*
X1683634Y796120D01*
X1685686D01*
X1687667Y796651D01*
X1689443Y797676D01*
X1690894Y799127D01*
X1691919Y800903D01*
X1692450Y802884D01*
Y804936D01*
X1691919Y806917D01*
X1690894Y808693D01*
X1689443Y810144D01*
X1687667Y811169D01*
X1685686Y811700D01*
D02*
G37*
G36*
X1665686D02*
X1663634D01*
X1661653Y811169D01*
X1659877Y810144D01*
X1658427Y808693D01*
X1657401Y806917D01*
X1656870Y804936D01*
Y802884D01*
X1657401Y800903D01*
X1658427Y799127D01*
X1659877Y797676D01*
X1661653Y796651D01*
X1663634Y796120D01*
X1665686D01*
X1667667Y796651D01*
X1669443Y797676D01*
X1670894Y799127D01*
X1671919Y800903D01*
X1672450Y802884D01*
Y804936D01*
X1671919Y806917D01*
X1670894Y808693D01*
X1669443Y810144D01*
X1667667Y811169D01*
X1665686Y811700D01*
D02*
G37*
G36*
X1645686D02*
X1643634D01*
X1641653Y811169D01*
X1639877Y810144D01*
X1638427Y808693D01*
X1637401Y806917D01*
X1636870Y804936D01*
Y802884D01*
X1637401Y800903D01*
X1638427Y799127D01*
X1639877Y797676D01*
X1641653Y796651D01*
X1643634Y796120D01*
X1645686D01*
X1647667Y796651D01*
X1649443Y797676D01*
X1650894Y799127D01*
X1651919Y800903D01*
X1652450Y802884D01*
Y804936D01*
X1651919Y806917D01*
X1650894Y808693D01*
X1649443Y810144D01*
X1647667Y811169D01*
X1645686Y811700D01*
D02*
G37*
G36*
X1625686D02*
X1623634D01*
X1621653Y811169D01*
X1619877Y810144D01*
X1618427Y808693D01*
X1617401Y806917D01*
X1616870Y804936D01*
Y802884D01*
X1617401Y800903D01*
X1618427Y799127D01*
X1619877Y797676D01*
X1621653Y796651D01*
X1623634Y796120D01*
X1625686D01*
X1627667Y796651D01*
X1629443Y797676D01*
X1630894Y799127D01*
X1631919Y800903D01*
X1632450Y802884D01*
Y804936D01*
X1631919Y806917D01*
X1630894Y808693D01*
X1629443Y810144D01*
X1627667Y811169D01*
X1625686Y811700D01*
D02*
G37*
G36*
X1605686D02*
X1603634D01*
X1601653Y811169D01*
X1599877Y810144D01*
X1598427Y808693D01*
X1597401Y806917D01*
X1596870Y804936D01*
Y802884D01*
X1597401Y800903D01*
X1598427Y799127D01*
X1599877Y797676D01*
X1601653Y796651D01*
X1603634Y796120D01*
X1605686D01*
X1607667Y796651D01*
X1609443Y797676D01*
X1610894Y799127D01*
X1611919Y800903D01*
X1612450Y802884D01*
Y804936D01*
X1611919Y806917D01*
X1610894Y808693D01*
X1609443Y810144D01*
X1607667Y811169D01*
X1605686Y811700D01*
D02*
G37*
G36*
X1585686D02*
X1583634D01*
X1581653Y811169D01*
X1579877Y810144D01*
X1578427Y808693D01*
X1577401Y806917D01*
X1576870Y804936D01*
Y802884D01*
X1577401Y800903D01*
X1578427Y799127D01*
X1579877Y797676D01*
X1581653Y796651D01*
X1583634Y796120D01*
X1585686D01*
X1587667Y796651D01*
X1589443Y797676D01*
X1590894Y799127D01*
X1591919Y800903D01*
X1592450Y802884D01*
Y804936D01*
X1591919Y806917D01*
X1590894Y808693D01*
X1589443Y810144D01*
X1587667Y811169D01*
X1585686Y811700D01*
D02*
G37*
G36*
X1565686D02*
X1563634D01*
X1561653Y811169D01*
X1559877Y810144D01*
X1558427Y808693D01*
X1557401Y806917D01*
X1556870Y804936D01*
Y802884D01*
X1557401Y800903D01*
X1558427Y799127D01*
X1559877Y797676D01*
X1561653Y796651D01*
X1563634Y796120D01*
X1565686D01*
X1567667Y796651D01*
X1569443Y797676D01*
X1570894Y799127D01*
X1571919Y800903D01*
X1572450Y802884D01*
Y804936D01*
X1571919Y806917D01*
X1570894Y808693D01*
X1569443Y810144D01*
X1567667Y811169D01*
X1565686Y811700D01*
D02*
G37*
G36*
X1545686D02*
X1543634D01*
X1541653Y811169D01*
X1539877Y810144D01*
X1538427Y808693D01*
X1537401Y806917D01*
X1536870Y804936D01*
Y802884D01*
X1537401Y800903D01*
X1538427Y799127D01*
X1539877Y797676D01*
X1541653Y796651D01*
X1543634Y796120D01*
X1545686D01*
X1547667Y796651D01*
X1549443Y797676D01*
X1550894Y799127D01*
X1551919Y800903D01*
X1552450Y802884D01*
Y804936D01*
X1551919Y806917D01*
X1550894Y808693D01*
X1549443Y810144D01*
X1547667Y811169D01*
X1545686Y811700D01*
D02*
G37*
G36*
X1417291Y814680D02*
X1414789D01*
X1412373Y814033D01*
X1410207Y812782D01*
X1408438Y811013D01*
X1407188Y808847D01*
X1406540Y806431D01*
Y803929D01*
X1407188Y801513D01*
X1408438Y799347D01*
X1410207Y797578D01*
X1412373Y796327D01*
X1414789Y795680D01*
X1417291D01*
X1419707Y796327D01*
X1421873Y797578D01*
X1423642Y799347D01*
X1424893Y801513D01*
X1425540Y803929D01*
Y806431D01*
X1424893Y808847D01*
X1423642Y811013D01*
X1421873Y812782D01*
X1419707Y814033D01*
X1417291Y814680D01*
D02*
G37*
G36*
X1336736Y799790D02*
X1335344D01*
X1334057Y799257D01*
X1333073Y798273D01*
X1332540Y796986D01*
Y795594D01*
X1333073Y794307D01*
X1334057Y793323D01*
X1335344Y792790D01*
X1336736D01*
X1338023Y793323D01*
X1339007Y794307D01*
X1339540Y795594D01*
Y796986D01*
X1339007Y798273D01*
X1338023Y799257D01*
X1336736Y799790D01*
D02*
G37*
G36*
X1981371Y806910D02*
X1977948D01*
X1974642Y806024D01*
X1971678Y804313D01*
X1969258Y801892D01*
X1967546Y798928D01*
X1966660Y795621D01*
Y792198D01*
X1967546Y788892D01*
X1969258Y785928D01*
X1971678Y783507D01*
X1974642Y781796D01*
X1977948Y780910D01*
X1981371D01*
X1984678Y781796D01*
X1987642Y783507D01*
X1990063Y785928D01*
X1991774Y788892D01*
X1992660Y792198D01*
Y795621D01*
X1991774Y798928D01*
X1990063Y801892D01*
X1987642Y804313D01*
X1984678Y806024D01*
X1981371Y806910D01*
D02*
G37*
G36*
X1511371D02*
X1507948D01*
X1504642Y806024D01*
X1501678Y804313D01*
X1499257Y801892D01*
X1497546Y798928D01*
X1496660Y795621D01*
Y792198D01*
X1497546Y788892D01*
X1499257Y785928D01*
X1501678Y783507D01*
X1504642Y781796D01*
X1507948Y780910D01*
X1511371D01*
X1514678Y781796D01*
X1517642Y783507D01*
X1520063Y785928D01*
X1521774Y788892D01*
X1522660Y792198D01*
Y795621D01*
X1521774Y798928D01*
X1520063Y801892D01*
X1517642Y804313D01*
X1514678Y806024D01*
X1511371Y806910D01*
D02*
G37*
G36*
X1945686Y791700D02*
X1943634D01*
X1941653Y791169D01*
X1939877Y790144D01*
X1938427Y788693D01*
X1937401Y786917D01*
X1936870Y784936D01*
Y782884D01*
X1937401Y780903D01*
X1938427Y779127D01*
X1939877Y777676D01*
X1941653Y776651D01*
X1943634Y776120D01*
X1945686D01*
X1947667Y776651D01*
X1949443Y777676D01*
X1950894Y779127D01*
X1951919Y780903D01*
X1952450Y782884D01*
Y784936D01*
X1951919Y786917D01*
X1950894Y788693D01*
X1949443Y790144D01*
X1947667Y791169D01*
X1945686Y791700D01*
D02*
G37*
G36*
X1925686D02*
X1923634D01*
X1921653Y791169D01*
X1919877Y790144D01*
X1918427Y788693D01*
X1917401Y786917D01*
X1916870Y784936D01*
Y782884D01*
X1917401Y780903D01*
X1918427Y779127D01*
X1919877Y777676D01*
X1921653Y776651D01*
X1923634Y776120D01*
X1925686D01*
X1927667Y776651D01*
X1929443Y777676D01*
X1930894Y779127D01*
X1931919Y780903D01*
X1932450Y782884D01*
Y784936D01*
X1931919Y786917D01*
X1930894Y788693D01*
X1929443Y790144D01*
X1927667Y791169D01*
X1925686Y791700D01*
D02*
G37*
G36*
X1905686D02*
X1903634D01*
X1901653Y791169D01*
X1899877Y790144D01*
X1898427Y788693D01*
X1897401Y786917D01*
X1896870Y784936D01*
Y782884D01*
X1897401Y780903D01*
X1898427Y779127D01*
X1899877Y777676D01*
X1901653Y776651D01*
X1903634Y776120D01*
X1905686D01*
X1907667Y776651D01*
X1909443Y777676D01*
X1910894Y779127D01*
X1911919Y780903D01*
X1912450Y782884D01*
Y784936D01*
X1911919Y786917D01*
X1910894Y788693D01*
X1909443Y790144D01*
X1907667Y791169D01*
X1905686Y791700D01*
D02*
G37*
G36*
X1885686D02*
X1883634D01*
X1881653Y791169D01*
X1879877Y790144D01*
X1878427Y788693D01*
X1877401Y786917D01*
X1876870Y784936D01*
Y782884D01*
X1877401Y780903D01*
X1878427Y779127D01*
X1879877Y777676D01*
X1881653Y776651D01*
X1883634Y776120D01*
X1885686D01*
X1887667Y776651D01*
X1889443Y777676D01*
X1890894Y779127D01*
X1891919Y780903D01*
X1892450Y782884D01*
Y784936D01*
X1891919Y786917D01*
X1890894Y788693D01*
X1889443Y790144D01*
X1887667Y791169D01*
X1885686Y791700D01*
D02*
G37*
G36*
X1865686D02*
X1863634D01*
X1861653Y791169D01*
X1859877Y790144D01*
X1858427Y788693D01*
X1857401Y786917D01*
X1856870Y784936D01*
Y782884D01*
X1857401Y780903D01*
X1858427Y779127D01*
X1859877Y777676D01*
X1861653Y776651D01*
X1863634Y776120D01*
X1865686D01*
X1867667Y776651D01*
X1869443Y777676D01*
X1870894Y779127D01*
X1871919Y780903D01*
X1872450Y782884D01*
Y784936D01*
X1871919Y786917D01*
X1870894Y788693D01*
X1869443Y790144D01*
X1867667Y791169D01*
X1865686Y791700D01*
D02*
G37*
G36*
X1845686D02*
X1843634D01*
X1841653Y791169D01*
X1839877Y790144D01*
X1838427Y788693D01*
X1837401Y786917D01*
X1836870Y784936D01*
Y782884D01*
X1837401Y780903D01*
X1838427Y779127D01*
X1839877Y777676D01*
X1841653Y776651D01*
X1843634Y776120D01*
X1845686D01*
X1847667Y776651D01*
X1849443Y777676D01*
X1850894Y779127D01*
X1851919Y780903D01*
X1852450Y782884D01*
Y784936D01*
X1851919Y786917D01*
X1850894Y788693D01*
X1849443Y790144D01*
X1847667Y791169D01*
X1845686Y791700D01*
D02*
G37*
G36*
X1825686D02*
X1823634D01*
X1821653Y791169D01*
X1819877Y790144D01*
X1818427Y788693D01*
X1817401Y786917D01*
X1816870Y784936D01*
Y782884D01*
X1817401Y780903D01*
X1818427Y779127D01*
X1819877Y777676D01*
X1821653Y776651D01*
X1823634Y776120D01*
X1825686D01*
X1827667Y776651D01*
X1829443Y777676D01*
X1830894Y779127D01*
X1831919Y780903D01*
X1832450Y782884D01*
Y784936D01*
X1831919Y786917D01*
X1830894Y788693D01*
X1829443Y790144D01*
X1827667Y791169D01*
X1825686Y791700D01*
D02*
G37*
G36*
X1805686D02*
X1803634D01*
X1801653Y791169D01*
X1799877Y790144D01*
X1798427Y788693D01*
X1797401Y786917D01*
X1796870Y784936D01*
Y782884D01*
X1797401Y780903D01*
X1798427Y779127D01*
X1799877Y777676D01*
X1801653Y776651D01*
X1803634Y776120D01*
X1805686D01*
X1807667Y776651D01*
X1809443Y777676D01*
X1810894Y779127D01*
X1811919Y780903D01*
X1812450Y782884D01*
Y784936D01*
X1811919Y786917D01*
X1810894Y788693D01*
X1809443Y790144D01*
X1807667Y791169D01*
X1805686Y791700D01*
D02*
G37*
G36*
X1785686D02*
X1783634D01*
X1781653Y791169D01*
X1779877Y790144D01*
X1778427Y788693D01*
X1777401Y786917D01*
X1776870Y784936D01*
Y782884D01*
X1777401Y780903D01*
X1778427Y779127D01*
X1779877Y777676D01*
X1781653Y776651D01*
X1783634Y776120D01*
X1785686D01*
X1787667Y776651D01*
X1789443Y777676D01*
X1790894Y779127D01*
X1791919Y780903D01*
X1792450Y782884D01*
Y784936D01*
X1791919Y786917D01*
X1790894Y788693D01*
X1789443Y790144D01*
X1787667Y791169D01*
X1785686Y791700D01*
D02*
G37*
G36*
X1765686D02*
X1763634D01*
X1761653Y791169D01*
X1759877Y790144D01*
X1758427Y788693D01*
X1757401Y786917D01*
X1756870Y784936D01*
Y782884D01*
X1757401Y780903D01*
X1758427Y779127D01*
X1759877Y777676D01*
X1761653Y776651D01*
X1763634Y776120D01*
X1765686D01*
X1767667Y776651D01*
X1769443Y777676D01*
X1770894Y779127D01*
X1771919Y780903D01*
X1772450Y782884D01*
Y784936D01*
X1771919Y786917D01*
X1770894Y788693D01*
X1769443Y790144D01*
X1767667Y791169D01*
X1765686Y791700D01*
D02*
G37*
G36*
X1745686D02*
X1743634D01*
X1741653Y791169D01*
X1739877Y790144D01*
X1738427Y788693D01*
X1737401Y786917D01*
X1736870Y784936D01*
Y782884D01*
X1737401Y780903D01*
X1738427Y779127D01*
X1739877Y777676D01*
X1741653Y776651D01*
X1743634Y776120D01*
X1745686D01*
X1747667Y776651D01*
X1749443Y777676D01*
X1750894Y779127D01*
X1751919Y780903D01*
X1752450Y782884D01*
Y784936D01*
X1751919Y786917D01*
X1750894Y788693D01*
X1749443Y790144D01*
X1747667Y791169D01*
X1745686Y791700D01*
D02*
G37*
G36*
X1725686D02*
X1723634D01*
X1721653Y791169D01*
X1719877Y790144D01*
X1718427Y788693D01*
X1717401Y786917D01*
X1716870Y784936D01*
Y782884D01*
X1717401Y780903D01*
X1718427Y779127D01*
X1719877Y777676D01*
X1721653Y776651D01*
X1723634Y776120D01*
X1725686D01*
X1727667Y776651D01*
X1729443Y777676D01*
X1730894Y779127D01*
X1731919Y780903D01*
X1732450Y782884D01*
Y784936D01*
X1731919Y786917D01*
X1730894Y788693D01*
X1729443Y790144D01*
X1727667Y791169D01*
X1725686Y791700D01*
D02*
G37*
G36*
X1705686D02*
X1703634D01*
X1701653Y791169D01*
X1699877Y790144D01*
X1698427Y788693D01*
X1697401Y786917D01*
X1696870Y784936D01*
Y782884D01*
X1697401Y780903D01*
X1698427Y779127D01*
X1699877Y777676D01*
X1701653Y776651D01*
X1703634Y776120D01*
X1705686D01*
X1707667Y776651D01*
X1709443Y777676D01*
X1710894Y779127D01*
X1711919Y780903D01*
X1712450Y782884D01*
Y784936D01*
X1711919Y786917D01*
X1710894Y788693D01*
X1709443Y790144D01*
X1707667Y791169D01*
X1705686Y791700D01*
D02*
G37*
G36*
X1685686D02*
X1683634D01*
X1681653Y791169D01*
X1679877Y790144D01*
X1678427Y788693D01*
X1677401Y786917D01*
X1676870Y784936D01*
Y782884D01*
X1677401Y780903D01*
X1678427Y779127D01*
X1679877Y777676D01*
X1681653Y776651D01*
X1683634Y776120D01*
X1685686D01*
X1687667Y776651D01*
X1689443Y777676D01*
X1690894Y779127D01*
X1691919Y780903D01*
X1692450Y782884D01*
Y784936D01*
X1691919Y786917D01*
X1690894Y788693D01*
X1689443Y790144D01*
X1687667Y791169D01*
X1685686Y791700D01*
D02*
G37*
G36*
X1665686D02*
X1663634D01*
X1661653Y791169D01*
X1659877Y790144D01*
X1658427Y788693D01*
X1657401Y786917D01*
X1656870Y784936D01*
Y782884D01*
X1657401Y780903D01*
X1658427Y779127D01*
X1659877Y777676D01*
X1661653Y776651D01*
X1663634Y776120D01*
X1665686D01*
X1667667Y776651D01*
X1669443Y777676D01*
X1670894Y779127D01*
X1671919Y780903D01*
X1672450Y782884D01*
Y784936D01*
X1671919Y786917D01*
X1670894Y788693D01*
X1669443Y790144D01*
X1667667Y791169D01*
X1665686Y791700D01*
D02*
G37*
G36*
X1645686D02*
X1643634D01*
X1641653Y791169D01*
X1639877Y790144D01*
X1638427Y788693D01*
X1637401Y786917D01*
X1636870Y784936D01*
Y782884D01*
X1637401Y780903D01*
X1638427Y779127D01*
X1639877Y777676D01*
X1641653Y776651D01*
X1643634Y776120D01*
X1645686D01*
X1647667Y776651D01*
X1649443Y777676D01*
X1650894Y779127D01*
X1651919Y780903D01*
X1652450Y782884D01*
Y784936D01*
X1651919Y786917D01*
X1650894Y788693D01*
X1649443Y790144D01*
X1647667Y791169D01*
X1645686Y791700D01*
D02*
G37*
G36*
X1625686D02*
X1623634D01*
X1621653Y791169D01*
X1619877Y790144D01*
X1618427Y788693D01*
X1617401Y786917D01*
X1616870Y784936D01*
Y782884D01*
X1617401Y780903D01*
X1618427Y779127D01*
X1619877Y777676D01*
X1621653Y776651D01*
X1623634Y776120D01*
X1625686D01*
X1627667Y776651D01*
X1629443Y777676D01*
X1630894Y779127D01*
X1631919Y780903D01*
X1632450Y782884D01*
Y784936D01*
X1631919Y786917D01*
X1630894Y788693D01*
X1629443Y790144D01*
X1627667Y791169D01*
X1625686Y791700D01*
D02*
G37*
G36*
X1605686D02*
X1603634D01*
X1601653Y791169D01*
X1599877Y790144D01*
X1598427Y788693D01*
X1597401Y786917D01*
X1596870Y784936D01*
Y782884D01*
X1597401Y780903D01*
X1598427Y779127D01*
X1599877Y777676D01*
X1601653Y776651D01*
X1603634Y776120D01*
X1605686D01*
X1607667Y776651D01*
X1609443Y777676D01*
X1610894Y779127D01*
X1611919Y780903D01*
X1612450Y782884D01*
Y784936D01*
X1611919Y786917D01*
X1610894Y788693D01*
X1609443Y790144D01*
X1607667Y791169D01*
X1605686Y791700D01*
D02*
G37*
G36*
X1585686D02*
X1583634D01*
X1581653Y791169D01*
X1579877Y790144D01*
X1578427Y788693D01*
X1577401Y786917D01*
X1576870Y784936D01*
Y782884D01*
X1577401Y780903D01*
X1578427Y779127D01*
X1579877Y777676D01*
X1581653Y776651D01*
X1583634Y776120D01*
X1585686D01*
X1587667Y776651D01*
X1589443Y777676D01*
X1590894Y779127D01*
X1591919Y780903D01*
X1592450Y782884D01*
Y784936D01*
X1591919Y786917D01*
X1590894Y788693D01*
X1589443Y790144D01*
X1587667Y791169D01*
X1585686Y791700D01*
D02*
G37*
G36*
X1565686D02*
X1563634D01*
X1561653Y791169D01*
X1559877Y790144D01*
X1558427Y788693D01*
X1557401Y786917D01*
X1556870Y784936D01*
Y782884D01*
X1557401Y780903D01*
X1558427Y779127D01*
X1559877Y777676D01*
X1561653Y776651D01*
X1563634Y776120D01*
X1565686D01*
X1567667Y776651D01*
X1569443Y777676D01*
X1570894Y779127D01*
X1571919Y780903D01*
X1572450Y782884D01*
Y784936D01*
X1571919Y786917D01*
X1570894Y788693D01*
X1569443Y790144D01*
X1567667Y791169D01*
X1565686Y791700D01*
D02*
G37*
G36*
X1545686D02*
X1543634D01*
X1541653Y791169D01*
X1539877Y790144D01*
X1538427Y788693D01*
X1537401Y786917D01*
X1536870Y784936D01*
Y782884D01*
X1537401Y780903D01*
X1538427Y779127D01*
X1539877Y777676D01*
X1541653Y776651D01*
X1543634Y776120D01*
X1545686D01*
X1547667Y776651D01*
X1549443Y777676D01*
X1550894Y779127D01*
X1551919Y780903D01*
X1552450Y782884D01*
Y784936D01*
X1551919Y786917D01*
X1550894Y788693D01*
X1549443Y790144D01*
X1547667Y791169D01*
X1545686Y791700D01*
D02*
G37*
%LPD*%
D117*
X1316990Y793750D02*
Y1013460D01*
Y793750D02*
X1345460Y765280D01*
X1316990Y1013460D02*
X1332230Y1028700D01*
X1345460Y765280D02*
X1439640D01*
X1332230Y1028700D02*
Y1054100D01*
X1540510Y836930D02*
X2049780D01*
X2131060Y918210D02*
Y1563370D01*
X2049780Y836930D02*
X2131060Y918210D01*
X2106930Y1587500D02*
X2131060Y1563370D01*
X1630680Y1381760D02*
X1669360Y1420440D01*
X1668780Y1469390D02*
X1669360Y1468810D01*
Y1420440D02*
Y1468810D01*
X1630680Y981720D02*
Y1381760D01*
X1455410Y806450D02*
X1630680Y981720D01*
X1439640Y765280D02*
X1455410Y781050D01*
X1306830Y1028700D02*
Y1054100D01*
D122*
X2216150Y1625600D02*
D03*
X1289050Y1629410D02*
D03*
X1283970Y755650D02*
D03*
X2221230D02*
D03*
D123*
X1273810Y1643380D02*
D03*
Y1615440D02*
D03*
X1303020D02*
D03*
Y1644650D02*
D03*
X1268730Y1630680D02*
D03*
X1309370D02*
D03*
X1289050Y1609090D02*
D03*
Y1649730D02*
D03*
X1268730Y769620D02*
D03*
Y741680D02*
D03*
X1297940D02*
D03*
Y770890D02*
D03*
X1263650Y756920D02*
D03*
X1304290D02*
D03*
X1283970Y735330D02*
D03*
Y775970D02*
D03*
X2205990Y769620D02*
D03*
Y741680D02*
D03*
X2235200D02*
D03*
Y770890D02*
D03*
X2200910Y756920D02*
D03*
X2241550D02*
D03*
X2221230Y735330D02*
D03*
Y775970D02*
D03*
X2200910Y1639570D02*
D03*
Y1611630D02*
D03*
X2230120D02*
D03*
Y1640840D02*
D03*
X2195830Y1626870D02*
D03*
X2236470D02*
D03*
X2216150Y1605280D02*
D03*
Y1645920D02*
D03*
X1438060Y889750D02*
D03*
Y878750D02*
D03*
X1449060Y889750D02*
D03*
Y878750D02*
D03*
X1460060Y889750D02*
D03*
Y878750D02*
D03*
D124*
X1349250Y1447110D02*
D03*
Y1262110D02*
D03*
X1301750Y1447110D02*
D03*
Y1262110D02*
D03*
X2129580Y1603180D02*
D03*
X1944580D02*
D03*
X2129580Y1650680D02*
D03*
X1944580D02*
D03*
D125*
X1979660Y793910D02*
D03*
X1509660D02*
D03*
D127*
X1944660Y803910D02*
D03*
Y783910D02*
D03*
X1924660Y803910D02*
D03*
Y783910D02*
D03*
X1904660Y803910D02*
D03*
Y783910D02*
D03*
X1884660Y803910D02*
D03*
Y783910D02*
D03*
X1864660Y803910D02*
D03*
Y783910D02*
D03*
X1844660Y803910D02*
D03*
Y783910D02*
D03*
X1824660Y803910D02*
D03*
Y783910D02*
D03*
X1804660Y803910D02*
D03*
Y783910D02*
D03*
X1784660Y803910D02*
D03*
Y783910D02*
D03*
X1764660Y803910D02*
D03*
Y783910D02*
D03*
X1744660Y803910D02*
D03*
Y783910D02*
D03*
X1724660Y803910D02*
D03*
Y783910D02*
D03*
X1704660Y803910D02*
D03*
Y783910D02*
D03*
X1684660Y803910D02*
D03*
Y783910D02*
D03*
X1664660Y803910D02*
D03*
Y783910D02*
D03*
X1644660Y803910D02*
D03*
Y783910D02*
D03*
X1624660Y803910D02*
D03*
Y783910D02*
D03*
X1604660Y803910D02*
D03*
Y783910D02*
D03*
X1584660Y803910D02*
D03*
Y783910D02*
D03*
X1564660Y803910D02*
D03*
Y783910D02*
D03*
X1544660Y803910D02*
D03*
Y783910D02*
D03*
D128*
X2172970Y1451610D02*
D03*
Y1426210D02*
D03*
Y1400810D02*
D03*
Y1375410D02*
D03*
Y1264920D02*
D03*
Y1290320D02*
D03*
D129*
Y1350010D02*
D03*
Y1315720D02*
D03*
D130*
X1332230Y1181100D02*
D03*
X1306830D02*
D03*
X1332230Y1155700D02*
D03*
X1306830D02*
D03*
X1332230Y1130300D02*
D03*
X1306830D02*
D03*
X1332230Y1104900D02*
D03*
X1306830D02*
D03*
X1332230Y1079500D02*
D03*
X1306830D02*
D03*
X1332230Y1054100D02*
D03*
X1306830D02*
D03*
X1332230Y1028700D02*
D03*
D131*
X1306830D02*
D03*
D132*
X1416040Y779780D02*
D03*
X1455410Y781050D02*
D03*
D133*
X1416040Y805180D02*
D03*
X1455410Y806450D02*
D03*
D134*
X2260001Y1640001D02*
D03*
X2270001Y1620001D02*
D03*
X2260001Y1600001D02*
D03*
X2270001Y1580001D02*
D03*
X2260001Y1560001D02*
D03*
X2270001Y1540001D02*
D03*
X2260001Y1520001D02*
D03*
X2270001Y1500001D02*
D03*
X2260001Y1480001D02*
D03*
X2270001Y1460001D02*
D03*
X2260001Y1440001D02*
D03*
X2270001Y1420001D02*
D03*
X2260001Y1400001D02*
D03*
X2270001Y1380001D02*
D03*
X2260001Y1360001D02*
D03*
X2270001Y1340001D02*
D03*
X2260001Y1320001D02*
D03*
X2270001Y1300001D02*
D03*
X2260001Y1280001D02*
D03*
X2270001Y1260001D02*
D03*
X2260001Y1240001D02*
D03*
X2270001Y1220001D02*
D03*
X2260001Y1200001D02*
D03*
X2270001Y1180001D02*
D03*
X2260001Y1160001D02*
D03*
X2270001Y1140001D02*
D03*
X2260001Y1120001D02*
D03*
X2270001Y1100001D02*
D03*
X2260001Y1080001D02*
D03*
X2270001Y1060001D02*
D03*
X2260001Y1040001D02*
D03*
X2270001Y1020001D02*
D03*
X2260001Y1000001D02*
D03*
X2270001Y980001D02*
D03*
X2260001Y960001D02*
D03*
X2270001Y940001D02*
D03*
X2260001Y920001D02*
D03*
X2270001Y900001D02*
D03*
X2260001Y880001D02*
D03*
X2270001Y860001D02*
D03*
X2260001Y840001D02*
D03*
X2270001Y820000D02*
D03*
X2260001Y800000D02*
D03*
X2270001Y780000D02*
D03*
X2260001Y760000D02*
D03*
X2250001Y1660001D02*
D03*
Y1620001D02*
D03*
X2240001Y1600001D02*
D03*
X2250001Y1580001D02*
D03*
X2240001Y1560001D02*
D03*
X2250001Y1540001D02*
D03*
X2240001Y1520001D02*
D03*
X2250001Y1500001D02*
D03*
X2240001Y1480001D02*
D03*
X2250001Y1460001D02*
D03*
X2240001Y1440001D02*
D03*
X2250001Y1420001D02*
D03*
X2240001Y1400001D02*
D03*
X2250001Y1380001D02*
D03*
X2240001Y1360001D02*
D03*
X2250001Y1340001D02*
D03*
X2240001Y1320001D02*
D03*
X2250001Y1300001D02*
D03*
X2240001Y1280001D02*
D03*
X2250001Y1260001D02*
D03*
X2240001Y1240001D02*
D03*
X2250001Y1220001D02*
D03*
X2240001Y1200001D02*
D03*
X2250001Y1180001D02*
D03*
X2240001Y1160001D02*
D03*
X2250001Y1140001D02*
D03*
X2240001Y1120001D02*
D03*
X2250001Y1100001D02*
D03*
X2240001Y1080001D02*
D03*
X2250001Y1060001D02*
D03*
X2240001Y1040001D02*
D03*
X2250001Y1020001D02*
D03*
X2240001Y1000001D02*
D03*
X2250001Y980001D02*
D03*
X2240001Y960001D02*
D03*
X2250001Y940001D02*
D03*
X2240001Y920001D02*
D03*
X2250001Y900001D02*
D03*
X2240001Y880001D02*
D03*
X2250001Y860001D02*
D03*
X2240001Y840001D02*
D03*
X2250001Y820000D02*
D03*
X2240001Y800000D02*
D03*
X2250001Y780000D02*
D03*
Y740000D02*
D03*
X2240001Y720000D02*
D03*
X2230001Y1660001D02*
D03*
Y1580001D02*
D03*
X2220001Y1560001D02*
D03*
X2230001Y1540001D02*
D03*
X2220001Y1520001D02*
D03*
X2230001Y1500001D02*
D03*
X2220001Y1480001D02*
D03*
X2230001Y1460001D02*
D03*
X2220001Y1440001D02*
D03*
X2230001Y1420001D02*
D03*
X2220001Y1400001D02*
D03*
X2230001Y1380001D02*
D03*
X2220001Y1360001D02*
D03*
X2230001Y1340001D02*
D03*
X2220001Y1320001D02*
D03*
X2230001Y1300001D02*
D03*
X2220001Y1280001D02*
D03*
X2230001Y1260001D02*
D03*
X2220001Y1240001D02*
D03*
X2230001Y1220001D02*
D03*
X2220001Y1200001D02*
D03*
X2230001Y1180001D02*
D03*
X2220001Y1160001D02*
D03*
X2230001Y1140001D02*
D03*
X2220001Y1120001D02*
D03*
X2230001Y1100001D02*
D03*
X2220001Y1080001D02*
D03*
X2230001Y1060001D02*
D03*
X2220001Y1040001D02*
D03*
X2230001Y1020001D02*
D03*
X2220001Y1000001D02*
D03*
X2230001Y980001D02*
D03*
X2220001Y960001D02*
D03*
X2230001Y940001D02*
D03*
X2220001Y920001D02*
D03*
X2230001Y900001D02*
D03*
X2220001Y880001D02*
D03*
X2230001Y860001D02*
D03*
X2220001Y840001D02*
D03*
X2230001Y820000D02*
D03*
X2220001Y800000D02*
D03*
Y720000D02*
D03*
X2210001Y1660001D02*
D03*
X2200001Y1600001D02*
D03*
X2210001Y1580001D02*
D03*
Y1540001D02*
D03*
Y1500001D02*
D03*
Y1460001D02*
D03*
Y1420001D02*
D03*
Y1380001D02*
D03*
Y1340001D02*
D03*
Y1300001D02*
D03*
Y1260001D02*
D03*
Y1220001D02*
D03*
Y1180001D02*
D03*
Y1140001D02*
D03*
Y1100001D02*
D03*
Y820000D02*
D03*
X2200001Y720000D02*
D03*
X2190001Y1660001D02*
D03*
X2180001Y1640001D02*
D03*
Y760000D02*
D03*
X2190001Y740000D02*
D03*
X2180001Y720000D02*
D03*
X2170001Y1660001D02*
D03*
X2160001Y1640001D02*
D03*
Y760000D02*
D03*
X2170001Y740000D02*
D03*
X2160001Y720000D02*
D03*
X2150001Y1660001D02*
D03*
X2140001Y1640001D02*
D03*
X2150001Y740000D02*
D03*
X2140001Y720000D02*
D03*
X2120001Y1640001D02*
D03*
X2130001Y740000D02*
D03*
X2120001Y720000D02*
D03*
X2110001Y1660001D02*
D03*
X2100001Y1640001D02*
D03*
X2110001Y740000D02*
D03*
X2100001Y720000D02*
D03*
X2090001Y1660001D02*
D03*
X2080001Y1640001D02*
D03*
X2090001Y740000D02*
D03*
X2080001Y720000D02*
D03*
X2070001Y1660001D02*
D03*
X2060001Y1640001D02*
D03*
X2070001Y1620001D02*
D03*
X2060001Y1600001D02*
D03*
Y1360001D02*
D03*
Y1280001D02*
D03*
Y1240001D02*
D03*
Y1120001D02*
D03*
X2070001Y740000D02*
D03*
X2060001Y720000D02*
D03*
X2050001Y1660001D02*
D03*
X2040001Y1640001D02*
D03*
X2050001Y1620001D02*
D03*
X2040001Y1600001D02*
D03*
Y1360001D02*
D03*
X2050001Y1340001D02*
D03*
X2040001Y1280001D02*
D03*
X2050001Y1260001D02*
D03*
Y1220001D02*
D03*
X2040001Y1160001D02*
D03*
Y1120001D02*
D03*
X2050001Y740000D02*
D03*
X2040001Y720000D02*
D03*
X2030001Y1660001D02*
D03*
X2020001Y1640001D02*
D03*
X2030001Y1620001D02*
D03*
X2020001Y1600001D02*
D03*
Y1400001D02*
D03*
Y1360001D02*
D03*
X2030001Y1340001D02*
D03*
X2020001Y1280001D02*
D03*
X2030001Y740000D02*
D03*
X2020001Y720000D02*
D03*
X2010001Y1660001D02*
D03*
X2000001Y1640001D02*
D03*
X2010001Y1620001D02*
D03*
X2000001Y1600001D02*
D03*
Y1360001D02*
D03*
X2010001Y1340001D02*
D03*
Y1260001D02*
D03*
X2000001Y1200001D02*
D03*
Y1160001D02*
D03*
Y1120001D02*
D03*
X2010001Y1100001D02*
D03*
Y740000D02*
D03*
X2000001Y720000D02*
D03*
X1990001Y1660001D02*
D03*
X1980001Y1640001D02*
D03*
X1990001Y1620001D02*
D03*
Y1540001D02*
D03*
X1980001Y1360001D02*
D03*
X1990001Y1340001D02*
D03*
Y1220001D02*
D03*
Y1140001D02*
D03*
X1980001Y1120001D02*
D03*
X1990001Y1100001D02*
D03*
Y740000D02*
D03*
X1980001Y720000D02*
D03*
X1970001Y1660001D02*
D03*
X1960001Y1640001D02*
D03*
Y1600001D02*
D03*
Y1360001D02*
D03*
X1970001Y1340001D02*
D03*
X1960001Y1240001D02*
D03*
Y1200001D02*
D03*
Y1160001D02*
D03*
X1970001Y1140001D02*
D03*
X1960001Y1120001D02*
D03*
X1970001Y740000D02*
D03*
X1960001Y720000D02*
D03*
X1940001Y1640001D02*
D03*
Y1560001D02*
D03*
Y1360001D02*
D03*
X1950001Y1340001D02*
D03*
Y1260001D02*
D03*
Y740000D02*
D03*
X1940001Y720000D02*
D03*
X1930001Y1660001D02*
D03*
X1920001Y1640001D02*
D03*
Y1600001D02*
D03*
Y1360001D02*
D03*
X1930001Y1340001D02*
D03*
X1920001Y1280001D02*
D03*
X1930001Y1260001D02*
D03*
X1920001Y1200001D02*
D03*
X1930001Y740000D02*
D03*
X1920001Y720000D02*
D03*
X1910001Y1660001D02*
D03*
X1900001Y1640001D02*
D03*
Y1600001D02*
D03*
X1910001Y1580001D02*
D03*
X1900001Y1560001D02*
D03*
Y1520001D02*
D03*
Y1440001D02*
D03*
X1910001Y740000D02*
D03*
X1900001Y720000D02*
D03*
X1890001Y1660001D02*
D03*
X1880001Y1640001D02*
D03*
Y1600001D02*
D03*
X1890001Y1580001D02*
D03*
X1880001Y1560001D02*
D03*
Y1520001D02*
D03*
X1890001Y740000D02*
D03*
X1880001Y720000D02*
D03*
X1870001Y1660001D02*
D03*
X1860001Y1640001D02*
D03*
X1870001Y1580001D02*
D03*
X1860001Y1560001D02*
D03*
X1870001Y740000D02*
D03*
X1860001Y720000D02*
D03*
X1850001Y1660001D02*
D03*
X1840001Y1640001D02*
D03*
X1850001Y1620001D02*
D03*
X1840001Y1600001D02*
D03*
X1850001Y1580001D02*
D03*
X1840001Y1560001D02*
D03*
X1850001Y740000D02*
D03*
X1840001Y720000D02*
D03*
X1830001Y1660001D02*
D03*
X1820001Y1640001D02*
D03*
X1830001Y1620001D02*
D03*
X1820001Y1600001D02*
D03*
X1830001Y740000D02*
D03*
X1820001Y720000D02*
D03*
X1810001Y1660001D02*
D03*
X1800001Y1640001D02*
D03*
X1810001Y1620001D02*
D03*
X1800001Y1600001D02*
D03*
X1810001Y740000D02*
D03*
X1800001Y720000D02*
D03*
X1790001Y1660001D02*
D03*
X1780001Y1640001D02*
D03*
X1790001Y1620001D02*
D03*
Y740000D02*
D03*
X1780001Y720000D02*
D03*
X1770001Y1660001D02*
D03*
X1760001Y1640001D02*
D03*
X1770001Y1620001D02*
D03*
Y740000D02*
D03*
X1760001Y720000D02*
D03*
X1750001Y1660001D02*
D03*
X1740001Y1640001D02*
D03*
X1750001Y1620001D02*
D03*
Y740000D02*
D03*
X1740001Y720000D02*
D03*
X1730001Y1660001D02*
D03*
X1720001Y1640001D02*
D03*
X1730001Y1620001D02*
D03*
Y740000D02*
D03*
X1720001Y720000D02*
D03*
X1710001Y1660001D02*
D03*
Y1620001D02*
D03*
Y740000D02*
D03*
X1700001Y720000D02*
D03*
X1690001Y1660001D02*
D03*
X1680001Y1640001D02*
D03*
X1690001Y740000D02*
D03*
X1680001Y720000D02*
D03*
X1670001Y1660001D02*
D03*
X1660001Y1640001D02*
D03*
X1670001Y740000D02*
D03*
X1660001Y720000D02*
D03*
X1650001Y1660001D02*
D03*
Y1620001D02*
D03*
Y740000D02*
D03*
X1640001Y720000D02*
D03*
X1630001Y1660001D02*
D03*
X1620001Y1640001D02*
D03*
X1630001Y1620001D02*
D03*
Y740000D02*
D03*
X1620001Y720000D02*
D03*
X1610001Y1660001D02*
D03*
X1600001Y1640001D02*
D03*
X1610001Y1620001D02*
D03*
Y740000D02*
D03*
X1600001Y720000D02*
D03*
X1590001Y1660001D02*
D03*
X1580001Y1640001D02*
D03*
X1590001Y1620001D02*
D03*
Y740000D02*
D03*
X1580001Y720000D02*
D03*
X1570001Y1660001D02*
D03*
Y1620001D02*
D03*
Y740000D02*
D03*
X1560001Y720000D02*
D03*
X1550001Y1660001D02*
D03*
X1540001Y1640001D02*
D03*
X1550001Y740000D02*
D03*
X1540001Y720000D02*
D03*
X1530001Y1660001D02*
D03*
X1520001Y1640001D02*
D03*
X1530001Y740000D02*
D03*
X1520001Y720000D02*
D03*
X1510001Y1660001D02*
D03*
Y740000D02*
D03*
X1500001Y720000D02*
D03*
X1490001Y1660001D02*
D03*
X1480001Y1640001D02*
D03*
X1490001Y1620001D02*
D03*
Y740000D02*
D03*
X1480001Y720000D02*
D03*
X1470001Y1660001D02*
D03*
X1460001Y1640001D02*
D03*
X1470001Y1620001D02*
D03*
Y740000D02*
D03*
X1460001Y720000D02*
D03*
X1450001Y1660001D02*
D03*
X1440001Y1640001D02*
D03*
X1450001Y1620001D02*
D03*
X1440001Y1520001D02*
D03*
X1450001Y1460001D02*
D03*
X1440001Y1440001D02*
D03*
X1450001Y740000D02*
D03*
X1440001Y720000D02*
D03*
X1430001Y1660001D02*
D03*
X1420001Y1640001D02*
D03*
X1430001Y1620001D02*
D03*
X1420001Y1600001D02*
D03*
Y1560001D02*
D03*
Y1520001D02*
D03*
X1430001Y1500001D02*
D03*
X1420001Y1480001D02*
D03*
Y1440001D02*
D03*
X1430001Y740000D02*
D03*
X1420001Y720000D02*
D03*
X1410001Y1660001D02*
D03*
X1400001Y1640001D02*
D03*
X1410001Y1620001D02*
D03*
X1400001Y1600001D02*
D03*
X1410001Y1580001D02*
D03*
X1400001Y1560001D02*
D03*
X1410001Y1540001D02*
D03*
X1400001Y1520001D02*
D03*
X1410001Y1500001D02*
D03*
X1400001Y1480001D02*
D03*
Y1440001D02*
D03*
X1410001Y740000D02*
D03*
X1400001Y720000D02*
D03*
X1390001Y1660001D02*
D03*
X1380001Y1640001D02*
D03*
X1390001Y1620001D02*
D03*
X1380001Y1600001D02*
D03*
X1390001Y1580001D02*
D03*
X1380001Y1560001D02*
D03*
X1390001Y1540001D02*
D03*
X1380001Y1520001D02*
D03*
X1390001Y1500001D02*
D03*
X1380001Y1480001D02*
D03*
X1390001Y1460001D02*
D03*
X1380001Y1440001D02*
D03*
X1390001Y740000D02*
D03*
X1380001Y720000D02*
D03*
X1370001Y1660001D02*
D03*
X1360001Y1640001D02*
D03*
X1370001Y1620001D02*
D03*
X1360001Y1600001D02*
D03*
X1370001Y1580001D02*
D03*
X1360001Y1560001D02*
D03*
X1370001Y1540001D02*
D03*
X1360001Y1520001D02*
D03*
X1370001Y1500001D02*
D03*
X1360001Y1480001D02*
D03*
X1370001Y1460001D02*
D03*
X1360001Y1440001D02*
D03*
X1370001Y740000D02*
D03*
X1360001Y720000D02*
D03*
X1350001Y1660001D02*
D03*
X1340001Y1640001D02*
D03*
X1350001Y1620001D02*
D03*
X1340001Y1600001D02*
D03*
X1350001Y1580001D02*
D03*
X1340001Y1560001D02*
D03*
X1350001Y1540001D02*
D03*
X1340001Y1520001D02*
D03*
X1350001Y1500001D02*
D03*
X1340001Y1480001D02*
D03*
X1350001Y1460001D02*
D03*
X1340001Y1440001D02*
D03*
X1350001Y1420001D02*
D03*
X1340001Y1400001D02*
D03*
X1350001Y740000D02*
D03*
X1340001Y720000D02*
D03*
X1330001Y1660001D02*
D03*
X1320001Y1640001D02*
D03*
X1330001Y1620001D02*
D03*
X1320001Y1600001D02*
D03*
X1330001Y1580001D02*
D03*
X1320001Y1560001D02*
D03*
X1330001Y1540001D02*
D03*
X1320001Y1520001D02*
D03*
X1330001Y1500001D02*
D03*
X1320001Y1480001D02*
D03*
X1330001Y1460001D02*
D03*
X1320001Y1440001D02*
D03*
X1330001Y1420001D02*
D03*
X1320001Y1400001D02*
D03*
X1330001Y1380001D02*
D03*
X1320001Y760000D02*
D03*
X1330001Y740000D02*
D03*
X1320001Y720000D02*
D03*
X1310001Y1660001D02*
D03*
X1300001Y1600001D02*
D03*
X1310001Y1580001D02*
D03*
X1300001Y1560001D02*
D03*
X1310001Y1540001D02*
D03*
X1300001Y1520001D02*
D03*
X1310001Y1500001D02*
D03*
X1300001Y1480001D02*
D03*
X1310001Y1460001D02*
D03*
Y1420001D02*
D03*
X1300001Y1400001D02*
D03*
X1310001Y1380001D02*
D03*
X1300001Y1360001D02*
D03*
X1310001Y740000D02*
D03*
X1300001Y720000D02*
D03*
X1290001Y1660001D02*
D03*
X1280001Y1600001D02*
D03*
X1290001Y1580001D02*
D03*
X1280001Y1560001D02*
D03*
X1290001Y1540001D02*
D03*
X1280001Y1520001D02*
D03*
X1290001Y1500001D02*
D03*
X1280001Y1480001D02*
D03*
X1290001Y1460001D02*
D03*
X1280001Y1440001D02*
D03*
X1290001Y1420001D02*
D03*
X1280001Y1400001D02*
D03*
X1290001Y1380001D02*
D03*
X1280001Y1360001D02*
D03*
X1290001Y1340001D02*
D03*
X1280001Y1320001D02*
D03*
X1290001Y1300001D02*
D03*
X1280001Y1280001D02*
D03*
Y1240001D02*
D03*
Y1200001D02*
D03*
Y1160001D02*
D03*
Y1120001D02*
D03*
Y1080001D02*
D03*
Y1040001D02*
D03*
Y1000001D02*
D03*
Y960001D02*
D03*
Y920001D02*
D03*
Y880001D02*
D03*
Y840001D02*
D03*
Y800000D02*
D03*
Y720000D02*
D03*
X1270001Y1660001D02*
D03*
X1260001Y1640001D02*
D03*
Y1600001D02*
D03*
X1270001Y1580001D02*
D03*
X1260001Y1560001D02*
D03*
X1270001Y1540001D02*
D03*
X1260001Y1520001D02*
D03*
X1270001Y1500001D02*
D03*
X1260001Y1480001D02*
D03*
X1270001Y1460001D02*
D03*
X1260001Y1440001D02*
D03*
X1270001Y1420001D02*
D03*
X1260001Y1400001D02*
D03*
X1270001Y1380001D02*
D03*
X1260001Y1360001D02*
D03*
X1270001Y1340001D02*
D03*
X1260001Y1320001D02*
D03*
X1270001Y1300001D02*
D03*
X1260001Y1280001D02*
D03*
X1270001Y1260001D02*
D03*
X1260001Y1240001D02*
D03*
X1270001Y1220001D02*
D03*
X1260001Y1200001D02*
D03*
X1270001Y1180001D02*
D03*
X1260001Y1160001D02*
D03*
X1270001Y1140001D02*
D03*
X1260001Y1120001D02*
D03*
X1270001Y1100001D02*
D03*
X1260001Y1080001D02*
D03*
X1270001Y1060001D02*
D03*
X1260001Y1040001D02*
D03*
X1270001Y1020001D02*
D03*
X1260001Y1000001D02*
D03*
X1270001Y980001D02*
D03*
X1260001Y960001D02*
D03*
X1270001Y940001D02*
D03*
X1260001Y920001D02*
D03*
X1270001Y900001D02*
D03*
X1260001Y880001D02*
D03*
X1270001Y860001D02*
D03*
X1260001Y840001D02*
D03*
X1270001Y820000D02*
D03*
X1260001Y800000D02*
D03*
Y720000D02*
D03*
X1250001Y1660001D02*
D03*
X1240001Y1640001D02*
D03*
X1250001Y1620001D02*
D03*
X1240001Y1600001D02*
D03*
X1250001Y1580001D02*
D03*
X1240001Y1560001D02*
D03*
X1250001Y1540001D02*
D03*
X1240001Y1520001D02*
D03*
X1250001Y1500001D02*
D03*
X1240001Y1480001D02*
D03*
X1250001Y1460001D02*
D03*
X1240001Y1440001D02*
D03*
X1250001Y1420001D02*
D03*
X1240001Y1400001D02*
D03*
X1250001Y1380001D02*
D03*
X1240001Y1360001D02*
D03*
X1250001Y1340001D02*
D03*
X1240001Y1320001D02*
D03*
X1250001Y1300001D02*
D03*
X1240001Y1280001D02*
D03*
X1250001Y1260001D02*
D03*
X1240001Y1240001D02*
D03*
X1250001Y1220001D02*
D03*
X1240001Y1200001D02*
D03*
X1250001Y1180001D02*
D03*
X1240001Y1160001D02*
D03*
X1250001Y1140001D02*
D03*
X1240001Y1120001D02*
D03*
X1250001Y1100001D02*
D03*
X1240001Y1080001D02*
D03*
X1250001Y1060001D02*
D03*
X1240001Y1040001D02*
D03*
X1250001Y1020001D02*
D03*
X1240001Y1000001D02*
D03*
X1250001Y980001D02*
D03*
X1240001Y960001D02*
D03*
X1250001Y940001D02*
D03*
X1240001Y920001D02*
D03*
X1250001Y900001D02*
D03*
X1240001Y880001D02*
D03*
X1250001Y860001D02*
D03*
X1240001Y840001D02*
D03*
X1250001Y820000D02*
D03*
X1240001Y800000D02*
D03*
X1250001Y780000D02*
D03*
X1240001Y760000D02*
D03*
X1250001Y740000D02*
D03*
X1824750Y1309130D02*
D03*
X1824835Y1314629D02*
D03*
X1829982Y1299629D02*
D03*
X1830070Y1294130D02*
D03*
X1831340Y1278632D02*
D03*
X1831180Y1284130D02*
D03*
X1824750Y1279130D02*
D03*
X1336040Y796290D02*
D03*
X1333500Y811530D02*
D03*
X1332033Y826573D02*
D03*
X1350010Y859790D02*
D03*
X1341120Y932180D02*
D03*
Y844550D02*
D03*
Y916940D02*
D03*
X1380480Y902970D02*
D03*
X1795780Y1474470D02*
D03*
X1726337Y1405310D02*
D03*
X1726620Y1517070D02*
D03*
X1669360Y1480736D02*
D03*
X1783446Y1307734D02*
D03*
X1639192Y1508761D02*
D03*
X1437640Y1592580D02*
D03*
X1523365Y1315600D02*
D03*
X1525270Y1403739D02*
D03*
Y1453904D02*
D03*
X1517650Y1521460D02*
D03*
X1419860Y1315720D02*
D03*
X1377750Y1284610D02*
D03*
Y1324610D02*
D03*
Y1364610D02*
D03*
Y1404610D02*
D03*
X1791977Y1191253D02*
D03*
X1748790Y1016000D02*
D03*
X1540510Y836930D02*
D03*
X1791970Y1031240D02*
D03*
X1938185Y1106170D02*
D03*
X1748790Y1031240D02*
D03*
X1737280Y1405970D02*
D03*
X1742070Y1478650D02*
D03*
X1811020Y1407160D02*
D03*
X1808480Y1413510D02*
D03*
X1807210Y1478280D02*
D03*
X1582420Y1221740D02*
D03*
X1686176Y1576191D02*
D03*
X1645760Y1594710D02*
D03*
X1566786Y1584566D02*
D03*
X1459230Y1593850D02*
D03*
X1617980Y1254760D02*
D03*
X1569140Y1374140D02*
D03*
X2075180Y1469390D02*
D03*
X2105660Y1427480D02*
D03*
X2039620Y1428750D02*
D03*
X1948180Y1535430D02*
D03*
X1949450Y1438910D02*
D03*
X1929130Y1468120D02*
D03*
X1910080Y1504950D02*
D03*
X1587500Y1036320D02*
D03*
X1685290Y1567180D02*
D03*
X2175430Y1203260D02*
D03*
X2176780Y1144270D02*
D03*
X2175430Y1052260D02*
D03*
X2172230Y1016000D02*
D03*
X2172230Y952700D02*
D03*
X2174240Y904240D02*
D03*
X2171700Y842010D02*
D03*
X1892300Y1346200D02*
D03*
X1908810Y1121410D02*
D03*
X1892300Y1270000D02*
D03*
X1860543Y1360163D02*
D03*
X1695145Y1593650D02*
D03*
X1675892Y1593596D02*
D03*
X1630644Y1581980D02*
D03*
X1638300Y1588460D02*
D03*
X1639570Y1574800D02*
D03*
X1493520Y1574190D02*
D03*
X1487170Y1580690D02*
D03*
X1494822Y1586674D02*
D03*
X1528572Y1591056D02*
D03*
X1547825Y1591110D02*
D03*
X1446530Y1580690D02*
D03*
X1513840Y1616710D02*
D03*
X1658620Y1615440D02*
D03*
X1537970Y1565910D02*
D03*
X1591310Y1581960D02*
D03*
Y1588460D02*
D03*
X1717342Y1378640D02*
D03*
X1706880Y1381760D02*
D03*
X1687360Y1379150D02*
D03*
X1722120Y1381760D02*
D03*
X1732908Y1384942D02*
D03*
X1711960Y1433830D02*
D03*
X1712887Y1422043D02*
D03*
X1727193Y1470667D02*
D03*
X1740590Y1465580D02*
D03*
X1746640Y1394070D02*
D03*
X2054860Y966470D02*
D03*
X1979930Y965200D02*
D03*
X1824983Y1103623D02*
D03*
X1995170Y934720D02*
D03*
X1826260Y1059180D02*
D03*
X1790700Y1140460D02*
D03*
X1874520Y1165860D02*
D03*
X1766570D02*
D03*
X1803400Y1164590D02*
D03*
X1746250Y1165860D02*
D03*
X1788160Y1164590D02*
D03*
X1776730Y1383030D02*
D03*
X1785620D02*
D03*
X1769165Y1381117D02*
D03*
X1757687Y1386833D02*
D03*
X1604010Y1237090D02*
D03*
X1475944Y1374344D02*
D03*
X1714500Y1248410D02*
D03*
X1722120Y1243330D02*
D03*
X1673860Y1303710D02*
D03*
X1569140Y1428122D02*
D03*
X1549400Y1402080D02*
D03*
Y1348740D02*
D03*
X1600200Y1410970D02*
D03*
X1602740Y1459230D02*
D03*
X1587500Y1267460D02*
D03*
X1501589Y1335578D02*
D03*
X1598930Y1245180D02*
D03*
X1494790Y1436370D02*
D03*
X1677670Y1259950D02*
D03*
X1675130Y1264920D02*
D03*
X1600200Y1508760D02*
D03*
X1602740Y1428750D02*
D03*
X1550670Y1461770D02*
D03*
Y1508760D02*
D03*
X1728470Y1248410D02*
D03*
X1705867Y1246423D02*
D03*
X1677670Y1276350D02*
D03*
Y1283090D02*
D03*
X1670050Y1284130D02*
D03*
X1677670Y1270000D02*
D03*
X1676400Y1250950D02*
D03*
X1502410Y1483360D02*
D03*
X1548130Y1496060D02*
D03*
X1499870Y1389380D02*
D03*
X1550670Y1449070D02*
D03*
X1785620Y1236980D02*
D03*
X1784350Y1230630D02*
D03*
X1849120Y1216660D02*
D03*
X1802130Y1391230D02*
D03*
X1794510Y1289050D02*
D03*
X1849119Y1202691D02*
D03*
X1891030Y1093470D02*
D03*
X1908810Y1070610D02*
D03*
Y1080770D02*
D03*
X1656080Y1453460D02*
D03*
X1751337Y1350003D02*
D03*
X1758950Y1351280D02*
D03*
X1668780Y1469390D02*
D03*
X1708143Y1488447D02*
D03*
X1753090Y1424940D02*
D03*
X1751910Y1500415D02*
D03*
X1612845Y1352550D02*
D03*
X1746250Y1405890D02*
D03*
X1778644Y1489084D02*
D03*
X1748210Y1496060D02*
D03*
X1675130Y1357630D02*
D03*
X1684020D02*
D03*
X1732287Y1348733D02*
D03*
X1756030Y1484630D02*
D03*
X1752257Y1490637D02*
D03*
X1689100Y1192530D02*
D03*
X1926590Y1418590D02*
D03*
X1691870Y1363844D02*
D03*
X1732280Y1408430D02*
D03*
X1814830Y1503680D02*
D03*
X1802459Y1495770D02*
D03*
X1833880Y1402080D02*
D03*
X1727200Y1449070D02*
D03*
X1827530Y1466850D02*
D03*
X1962150Y1550670D02*
D03*
X1797050Y1500760D02*
D03*
X1833880Y1461770D02*
D03*
X1775950Y1498520D02*
D03*
X1818257Y1435483D02*
D03*
X1814830Y1445260D02*
D03*
X1798320Y1431290D02*
D03*
X1711960Y1498400D02*
D03*
X1776730Y1424240D02*
D03*
X1777060Y1434240D02*
D03*
X1798160Y1424160D02*
D03*
X1733550Y1422400D02*
D03*
Y1432560D02*
D03*
X1733060Y1498480D02*
D03*
Y1488320D02*
D03*
X1797050Y1485900D02*
D03*
X1757680Y1430020D02*
D03*
X1808461Y1485847D02*
D03*
X2067560Y1559560D02*
D03*
X2047240D02*
D03*
X2026920D02*
D03*
X2006600D02*
D03*
X1987550D02*
D03*
X1965960Y1560830D02*
D03*
X2106930Y1559560D02*
D03*
X2087880D02*
D03*
X1826260Y1124099D02*
D03*
X1611630Y1123260D02*
D03*
Y1111250D02*
D03*
X2101850Y1477010D02*
D03*
X1612900Y1338580D02*
D03*
Y1366520D02*
D03*
Y1380490D02*
D03*
X1816742Y1383658D02*
D03*
X1808480Y1390650D02*
D03*
X1810330Y1491020D02*
D03*
X1990090Y1477010D02*
D03*
X1791970Y1381760D02*
D03*
X1697826Y1363885D02*
D03*
X1706015Y1360575D02*
D03*
X1647190Y1343660D02*
D03*
X1651000Y1365250D02*
D03*
X1656810Y1361440D02*
D03*
X1645920Y1369060D02*
D03*
X1741170Y953770D02*
D03*
X1826260Y1342390D02*
D03*
Y1336040D02*
D03*
X1824910Y1289130D02*
D03*
X2026920Y1477010D02*
D03*
X2062480D02*
D03*
X1986280Y1587500D02*
D03*
X2026920D02*
D03*
X2067560D02*
D03*
X2106930D02*
D03*
X1455410Y927680D02*
D03*
X1588770Y1049020D02*
D03*
X1620520Y1074420D02*
D03*
X1588770Y1061720D02*
D03*
X1737360Y1203960D02*
D03*
X1732360Y1222130D02*
D03*
X1682360Y1222314D02*
D03*
X1689100Y1228090D02*
D03*
X1649730Y1239130D02*
D03*
X1826259Y1074421D02*
D03*
X1826260Y1089660D02*
D03*
X1696720Y1042820D02*
D03*
X1729740Y1076960D02*
D03*
Y1064260D02*
D03*
X1704340Y1042820D02*
D03*
X1651000Y1099820D02*
D03*
X1710689Y1320422D02*
D03*
X1651000Y1115060D02*
D03*
X1672590Y1098550D02*
D03*
X1826260Y1329690D02*
D03*
X1704340Y1055520D02*
D03*
X1729740Y1089660D02*
D03*
Y1102360D02*
D03*
X1638300Y957580D02*
D03*
X1598920Y862099D02*
D03*
X1656080Y993140D02*
D03*
X1434050Y958850D02*
D03*
X1408420Y881380D02*
D03*
X1604000Y873760D02*
D03*
X1524110Y928370D02*
D03*
X1586219Y902970D02*
D03*
X1626860Y895350D02*
D03*
X1648460Y1244600D02*
D03*
X1798320Y1334770D02*
D03*
X1673860Y1322070D02*
D03*
Y1311910D02*
D03*
X1797050Y1356360D02*
D03*
Y1347470D02*
D03*
M02*
