G04*
G04 #@! TF.GenerationSoftware,Altium Limited,Altium Designer,24.1.2 (44)*
G04*
G04 Layer_Color=8388736*
%FSLAX44Y44*%
%MOMM*%
G71*
G04*
G04 #@! TF.SameCoordinates,8DB790BD-C0D2-442E-8808-D1DB86FAA070*
G04*
G04*
G04 #@! TF.FilePolarity,Negative*
G04*
G01*
G75*
%ADD63R,1.8032X1.0932*%
%ADD64R,0.5032X0.9032*%
%ADD65R,0.8032X1.1032*%
%ADD66R,1.7032X1.2032*%
%ADD67R,1.2032X2.0032*%
%ADD68R,0.8032X1.8432*%
%ADD69R,1.2032X1.7032*%
%ADD70R,1.8032X1.0132*%
%ADD71R,3.2032X2.3032*%
%ADD72O,1.7532X0.9032*%
%ADD73R,1.7524X0.9524*%
%ADD74R,3.1524X2.2524*%
%ADD75R,1.2032X0.9032*%
%ADD76R,0.5032X0.8532*%
%ADD77R,0.4532X0.9032*%
%ADD78R,0.9032X0.4532*%
%ADD79R,1.0532X1.4032*%
%ADD80R,0.5032X1.4032*%
%ADD81R,1.4032X0.5032*%
%ADD82R,1.2032X1.2532*%
%ADD83R,1.2532X1.2032*%
G04:AMPARAMS|DCode=84|XSize=1.1132mm|YSize=1.0332mm|CornerRadius=0.3216mm|HoleSize=0mm|Usage=FLASHONLY|Rotation=180.000|XOffset=0mm|YOffset=0mm|HoleType=Round|Shape=RoundedRectangle|*
%AMROUNDEDRECTD84*
21,1,1.1132,0.3901,0,0,180.0*
21,1,0.4701,1.0332,0,0,180.0*
1,1,0.6431,-0.2351,0.1951*
1,1,0.6431,0.2351,0.1951*
1,1,0.6431,0.2351,-0.1951*
1,1,0.6431,-0.2351,-0.1951*
%
%ADD84ROUNDEDRECTD84*%
%ADD85R,2.3032X4.2032*%
%ADD86R,2.3032X0.8032*%
%ADD87R,1.0032X1.4032*%
%ADD88R,1.1032X0.8032*%
%ADD89R,1.1532X1.1032*%
G04:AMPARAMS|DCode=90|XSize=2.0032mm|YSize=2.0432mm|CornerRadius=0.3266mm|HoleSize=0mm|Usage=FLASHONLY|Rotation=180.000|XOffset=0mm|YOffset=0mm|HoleType=Round|Shape=RoundedRectangle|*
%AMROUNDEDRECTD90*
21,1,2.0032,1.3900,0,0,180.0*
21,1,1.3500,2.0432,0,0,180.0*
1,1,0.6532,-0.6750,0.6950*
1,1,0.6532,0.6750,0.6950*
1,1,0.6532,0.6750,-0.6950*
1,1,0.6532,-0.6750,-0.6950*
%
%ADD90ROUNDEDRECTD90*%
G04:AMPARAMS|DCode=91|XSize=2.4432mm|YSize=2.5232mm|CornerRadius=0.3816mm|HoleSize=0mm|Usage=FLASHONLY|Rotation=180.000|XOffset=0mm|YOffset=0mm|HoleType=Round|Shape=RoundedRectangle|*
%AMROUNDEDRECTD91*
21,1,2.4432,1.7600,0,0,180.0*
21,1,1.6800,2.5232,0,0,180.0*
1,1,0.7632,-0.8400,0.8800*
1,1,0.7632,0.8400,0.8800*
1,1,0.7632,0.8400,-0.8800*
1,1,0.7632,-0.8400,-0.8800*
%
%ADD91ROUNDEDRECTD91*%
%ADD92R,0.5032X2.6032*%
%ADD93R,0.5532X0.8532*%
%ADD94R,0.8032X0.5032*%
%ADD95R,0.8032X0.4532*%
%ADD96R,2.7032X1.9032*%
%ADD97O,1.5532X0.7532*%
G04:AMPARAMS|DCode=98|XSize=1.4732mm|YSize=2.3032mm|CornerRadius=0.2604mm|HoleSize=0mm|Usage=FLASHONLY|Rotation=270.000|XOffset=0mm|YOffset=0mm|HoleType=Round|Shape=RoundedRectangle|*
%AMROUNDEDRECTD98*
21,1,1.4732,1.7825,0,0,270.0*
21,1,0.9525,2.3032,0,0,270.0*
1,1,0.5207,-0.8913,-0.4763*
1,1,0.5207,-0.8913,0.4763*
1,1,0.5207,0.8913,0.4763*
1,1,0.5207,0.8913,-0.4763*
%
%ADD98ROUNDEDRECTD98*%
%ADD99R,2.6532X3.2532*%
%ADD100R,2.7032X3.2032*%
%ADD101O,1.7032X0.8032*%
%ADD102R,1.3032X1.5032*%
%ADD103R,1.3032X0.9032*%
G04:AMPARAMS|DCode=104|XSize=1.1132mm|YSize=1.0332mm|CornerRadius=0.3216mm|HoleSize=0mm|Usage=FLASHONLY|Rotation=270.000|XOffset=0mm|YOffset=0mm|HoleType=Round|Shape=RoundedRectangle|*
%AMROUNDEDRECTD104*
21,1,1.1132,0.3901,0,0,270.0*
21,1,0.4701,1.0332,0,0,270.0*
1,1,0.6431,-0.1951,-0.2351*
1,1,0.6431,-0.1951,0.2351*
1,1,0.6431,0.1951,0.2351*
1,1,0.6431,0.1951,-0.2351*
%
%ADD104ROUNDEDRECTD104*%
%ADD105C,5.2032*%
%ADD106C,0.7032*%
%ADD107C,1.6612*%
%ADD108C,2.5032*%
%ADD109R,1.4612X1.4612*%
%ADD110C,1.4612*%
%ADD111C,1.7232*%
%ADD112R,1.7232X1.7232*%
%ADD113C,1.5732*%
%ADD114R,1.5732X1.5732*%
%ADD115R,1.8032X1.8032*%
%ADD116C,1.8032*%
D63*
X1560670Y853230D02*
D03*
X1681470Y883920D02*
D03*
D64*
X1554170Y863180D02*
D03*
X1560670D02*
D03*
X1567170D02*
D03*
Y843280D02*
D03*
X1560670D02*
D03*
X1554170D02*
D03*
X1687970Y893870D02*
D03*
X1681470D02*
D03*
X1674970D02*
D03*
X1687970Y873970D02*
D03*
X1681470D02*
D03*
X1674970D02*
D03*
D65*
X1583312Y1394459D02*
D03*
X1601471Y1394460D02*
D03*
X1840608Y1202691D02*
D03*
X1822449Y1202690D02*
D03*
X1840608Y1174751D02*
D03*
X1822449Y1174750D02*
D03*
X1840608Y1216661D02*
D03*
X1822449Y1216660D02*
D03*
X1840608Y1188721D02*
D03*
X1822449Y1188720D02*
D03*
X1673859Y1174750D02*
D03*
X1692018Y1174751D02*
D03*
X1630679Y1220470D02*
D03*
X1648838Y1220471D02*
D03*
X1630679Y1168400D02*
D03*
X1648838Y1168401D02*
D03*
X1874519Y1224280D02*
D03*
X1892678Y1224281D02*
D03*
X1874520Y1239520D02*
D03*
X1892679Y1239521D02*
D03*
X1874519Y1254760D02*
D03*
X1892678Y1254761D02*
D03*
X1874141Y1285239D02*
D03*
X1892300Y1285240D02*
D03*
X1874141Y1300479D02*
D03*
X1892300Y1300480D02*
D03*
X1874141Y1315719D02*
D03*
X1892300Y1315720D02*
D03*
X1874141Y1330959D02*
D03*
X1892300Y1330960D02*
D03*
X1767839Y942340D02*
D03*
X1785998Y942341D02*
D03*
X1767839Y928370D02*
D03*
X1785998Y928371D02*
D03*
X1341119Y859790D02*
D03*
X1359278Y859791D02*
D03*
X1341119Y875030D02*
D03*
X1359278Y875031D02*
D03*
X1341119Y900430D02*
D03*
X1359278Y900431D02*
D03*
X1358901Y932180D02*
D03*
X1340742Y932179D02*
D03*
X1358901Y844550D02*
D03*
X1340742Y844549D02*
D03*
X1341119Y916940D02*
D03*
X1359278Y916941D02*
D03*
X1649731Y1099820D02*
D03*
X1631572Y1099819D02*
D03*
X1649731Y1115060D02*
D03*
X1631572Y1115059D02*
D03*
X1734821Y1031240D02*
D03*
X1716662Y1031239D02*
D03*
X1734821Y1043940D02*
D03*
X1716662Y1043939D02*
D03*
X1734821Y1017270D02*
D03*
X1716662Y1017269D02*
D03*
X1799589Y1104900D02*
D03*
X1817748Y1104901D02*
D03*
X1799589Y1059180D02*
D03*
X1817748Y1059181D02*
D03*
X1799589Y1074420D02*
D03*
X1817748Y1074421D02*
D03*
X1892301Y1361440D02*
D03*
X1874142Y1361439D02*
D03*
X1892301Y1270000D02*
D03*
X1874142Y1269999D02*
D03*
X1892301Y1209040D02*
D03*
X1874142Y1209039D02*
D03*
X1892301Y1346200D02*
D03*
X1874142Y1346199D02*
D03*
X1817371Y1089660D02*
D03*
X1799212Y1089659D02*
D03*
X1630681Y1380490D02*
D03*
X1612522Y1380489D02*
D03*
X1630681Y1366520D02*
D03*
X1612522Y1366519D02*
D03*
X1583689Y1380490D02*
D03*
X1601848Y1380491D02*
D03*
X1583689Y1366520D02*
D03*
X1601848Y1366521D02*
D03*
X1630681Y1352550D02*
D03*
X1612522Y1352549D02*
D03*
X1630681Y1338580D02*
D03*
X1612522Y1338579D02*
D03*
X1583689Y1352550D02*
D03*
X1601848Y1352551D02*
D03*
X1583689Y1338580D02*
D03*
X1601848Y1338581D02*
D03*
X1602741Y1460500D02*
D03*
X1584582Y1460499D02*
D03*
X1428749Y1269880D02*
D03*
X1446908Y1269881D02*
D03*
X1449071Y1400690D02*
D03*
X1430912Y1400689D02*
D03*
X1446531Y1283850D02*
D03*
X1428372Y1283849D02*
D03*
X1431289Y1414660D02*
D03*
X1449448Y1414661D02*
D03*
X1602741Y1493520D02*
D03*
X1584582Y1493519D02*
D03*
X1449071Y1334650D02*
D03*
X1430912Y1334649D02*
D03*
X1432559Y1468000D02*
D03*
X1450718Y1468001D02*
D03*
X1431289Y1348620D02*
D03*
X1449448Y1348621D02*
D03*
X1450341Y1481970D02*
D03*
X1432182Y1481969D02*
D03*
X1446531Y1252100D02*
D03*
X1428372Y1252099D02*
D03*
X1431289Y1381640D02*
D03*
X1449448Y1381641D02*
D03*
X1428749Y1236860D02*
D03*
X1446908Y1236861D02*
D03*
X1449071Y1366400D02*
D03*
X1430912Y1366399D02*
D03*
X1602741Y1427480D02*
D03*
X1584582Y1427479D02*
D03*
X1450341Y1447680D02*
D03*
X1432182Y1447679D02*
D03*
X1430019Y1315600D02*
D03*
X1448178Y1315601D02*
D03*
X1432559Y1433710D02*
D03*
X1450718Y1433711D02*
D03*
X1447801Y1301630D02*
D03*
X1429642Y1301629D02*
D03*
X1891029Y1121410D02*
D03*
X1909188Y1121411D02*
D03*
X2014221Y918210D02*
D03*
X1996062Y918209D02*
D03*
X2014221Y934720D02*
D03*
X1996062Y934719D02*
D03*
X1858011Y1078230D02*
D03*
X1839852Y1078229D02*
D03*
X1858011Y1093470D02*
D03*
X1839852Y1093469D02*
D03*
X1573531Y1221740D02*
D03*
X1555372Y1221739D02*
D03*
X1555749Y1239520D02*
D03*
X1573908Y1239521D02*
D03*
D66*
X1390250Y1284610D02*
D03*
X1365250D02*
D03*
X1390250Y1304610D02*
D03*
X1365250D02*
D03*
X1390250Y1324610D02*
D03*
X1365250D02*
D03*
X1390250Y1344610D02*
D03*
X1365250D02*
D03*
X1390250Y1364610D02*
D03*
X1365250D02*
D03*
X1390250Y1384610D02*
D03*
X1365250D02*
D03*
X1390250Y1404610D02*
D03*
X1365250D02*
D03*
X1390250Y1424610D02*
D03*
X1365250D02*
D03*
D67*
X1502730Y1643380D02*
D03*
X1556070D02*
D03*
X1647190D02*
D03*
X1700530D02*
D03*
D68*
X1524160Y1616710D02*
D03*
X1544160D02*
D03*
X1534160D02*
D03*
X1514160D02*
D03*
X1668620D02*
D03*
X1688620D02*
D03*
X1678620D02*
D03*
X1658620D02*
D03*
D69*
X1967080Y1562180D02*
D03*
Y1587180D02*
D03*
X1987080Y1562180D02*
D03*
Y1587180D02*
D03*
X2007080Y1562180D02*
D03*
Y1587180D02*
D03*
X2027080Y1562180D02*
D03*
Y1587180D02*
D03*
X2047080Y1562180D02*
D03*
Y1587180D02*
D03*
X2067080Y1562180D02*
D03*
Y1587180D02*
D03*
X2087080Y1562180D02*
D03*
Y1587180D02*
D03*
X2107080Y1562180D02*
D03*
Y1587180D02*
D03*
D70*
X2143230Y990700D02*
D03*
Y978200D02*
D03*
X2142700Y880010D02*
D03*
Y867510D02*
D03*
D71*
X2172230Y952700D02*
D03*
X2172230Y1016000D02*
D03*
X2171700Y905310D02*
D03*
X2171700Y842010D02*
D03*
D72*
X2033850Y977900D02*
D03*
X1979350Y965200D02*
D03*
Y952500D02*
D03*
Y990600D02*
D03*
Y977900D02*
D03*
X2033850Y990600D02*
D03*
Y965200D02*
D03*
Y952500D02*
D03*
D73*
X2146430Y1077760D02*
D03*
Y1090260D02*
D03*
Y1102760D02*
D03*
Y1115260D02*
D03*
Y1127760D02*
D03*
Y1140260D02*
D03*
Y1152760D02*
D03*
Y1165260D02*
D03*
Y1177760D02*
D03*
D74*
X2175430Y1203260D02*
D03*
Y1052260D02*
D03*
D75*
X1789270Y1424160D02*
D03*
Y1434320D02*
D03*
X1788160Y1488440D02*
D03*
Y1498600D02*
D03*
X1724660Y1422400D02*
D03*
Y1432560D02*
D03*
X1724170Y1488320D02*
D03*
Y1498480D02*
D03*
D76*
X1798160Y1424160D02*
D03*
Y1434320D02*
D03*
X1797050Y1488440D02*
D03*
Y1498600D02*
D03*
X1733550Y1422400D02*
D03*
Y1432560D02*
D03*
X1733060Y1488320D02*
D03*
Y1498480D02*
D03*
X1604330Y901560D02*
D03*
X1618830D02*
D03*
X1371960Y892670D02*
D03*
X1386460D02*
D03*
D77*
X1801810Y1443990D02*
D03*
X1796810D02*
D03*
X1791810D02*
D03*
X1786810D02*
D03*
X1781810D02*
D03*
Y1414490D02*
D03*
X1786810D02*
D03*
X1791810D02*
D03*
X1796810D02*
D03*
X1801810D02*
D03*
X1800700Y1508270D02*
D03*
X1795700D02*
D03*
X1790700D02*
D03*
X1785700D02*
D03*
X1780700D02*
D03*
Y1478770D02*
D03*
X1785700D02*
D03*
X1790700D02*
D03*
X1795700D02*
D03*
X1800700D02*
D03*
X1737200Y1442230D02*
D03*
X1732200D02*
D03*
X1727200D02*
D03*
X1722200D02*
D03*
X1717200D02*
D03*
Y1412730D02*
D03*
X1722200D02*
D03*
X1727200D02*
D03*
X1732200D02*
D03*
X1737200D02*
D03*
X1736710Y1508150D02*
D03*
X1731710D02*
D03*
X1726710D02*
D03*
X1721710D02*
D03*
X1716710D02*
D03*
Y1478650D02*
D03*
X1721710D02*
D03*
X1726710D02*
D03*
X1731710D02*
D03*
X1736710D02*
D03*
D78*
X1777060Y1436740D02*
D03*
Y1431740D02*
D03*
Y1426740D02*
D03*
Y1421740D02*
D03*
X1806560Y1426740D02*
D03*
Y1431740D02*
D03*
Y1436740D02*
D03*
Y1421740D02*
D03*
X1775950Y1501020D02*
D03*
Y1496020D02*
D03*
Y1491020D02*
D03*
Y1486020D02*
D03*
X1805450Y1491020D02*
D03*
Y1496020D02*
D03*
Y1501020D02*
D03*
Y1486020D02*
D03*
X1712450Y1434980D02*
D03*
Y1429980D02*
D03*
Y1424980D02*
D03*
Y1419980D02*
D03*
X1741950D02*
D03*
Y1424980D02*
D03*
Y1429980D02*
D03*
Y1434980D02*
D03*
X1711960Y1500900D02*
D03*
Y1495900D02*
D03*
Y1490900D02*
D03*
Y1485900D02*
D03*
X1741460Y1490900D02*
D03*
Y1495900D02*
D03*
Y1500900D02*
D03*
Y1485900D02*
D03*
D79*
X1989785Y1507690D02*
D03*
X1970532Y1507744D02*
D03*
X1979981Y1532690D02*
D03*
X2016811D02*
D03*
X2007362Y1507744D02*
D03*
X2026615Y1507690D02*
D03*
X2091690Y1532890D02*
D03*
X2082241Y1507944D02*
D03*
X2101494Y1507890D02*
D03*
X2054860Y1532890D02*
D03*
X2045411Y1507944D02*
D03*
X2064664Y1507890D02*
D03*
D80*
X1687360Y1371630D02*
D03*
X1697360D02*
D03*
X1702360D02*
D03*
X1677360Y1216630D02*
D03*
X1682360D02*
D03*
X1687360D02*
D03*
X1692360D02*
D03*
X1697360D02*
D03*
X1702360D02*
D03*
X1707360D02*
D03*
X1712360D02*
D03*
X1717360D02*
D03*
X1722360D02*
D03*
X1727360D02*
D03*
X1732360D02*
D03*
X1737360D02*
D03*
X1742360D02*
D03*
X1747360D02*
D03*
X1752360D02*
D03*
X1757360D02*
D03*
X1762360D02*
D03*
X1767360D02*
D03*
X1772360D02*
D03*
X1777360D02*
D03*
X1782360D02*
D03*
X1787360D02*
D03*
X1792360D02*
D03*
X1797360D02*
D03*
Y1371630D02*
D03*
X1792360D02*
D03*
X1787360D02*
D03*
X1782360D02*
D03*
X1777360D02*
D03*
X1772360D02*
D03*
X1767360D02*
D03*
X1762360D02*
D03*
X1757360D02*
D03*
X1752360D02*
D03*
X1747360D02*
D03*
X1742360D02*
D03*
X1737360D02*
D03*
X1732360D02*
D03*
X1727360D02*
D03*
X1722360D02*
D03*
X1717360D02*
D03*
X1712360D02*
D03*
X1707360D02*
D03*
X1692360D02*
D03*
X1682360D02*
D03*
X1677360D02*
D03*
D81*
X1814860Y1249130D02*
D03*
X1659860Y1354130D02*
D03*
Y1349130D02*
D03*
Y1344130D02*
D03*
Y1339130D02*
D03*
Y1334130D02*
D03*
Y1329130D02*
D03*
Y1324130D02*
D03*
Y1319130D02*
D03*
Y1314130D02*
D03*
Y1309130D02*
D03*
Y1304130D02*
D03*
Y1299130D02*
D03*
Y1294130D02*
D03*
Y1289130D02*
D03*
Y1284130D02*
D03*
Y1279130D02*
D03*
Y1274130D02*
D03*
Y1269130D02*
D03*
Y1264130D02*
D03*
Y1259130D02*
D03*
Y1254130D02*
D03*
Y1249130D02*
D03*
Y1244130D02*
D03*
Y1239130D02*
D03*
Y1234130D02*
D03*
X1814860D02*
D03*
Y1239130D02*
D03*
Y1244130D02*
D03*
Y1254130D02*
D03*
Y1259130D02*
D03*
Y1264130D02*
D03*
Y1269130D02*
D03*
Y1274130D02*
D03*
Y1279130D02*
D03*
Y1284130D02*
D03*
Y1289130D02*
D03*
Y1294130D02*
D03*
Y1299130D02*
D03*
Y1304130D02*
D03*
Y1309130D02*
D03*
Y1314130D02*
D03*
Y1319130D02*
D03*
Y1324130D02*
D03*
Y1329130D02*
D03*
Y1334130D02*
D03*
Y1339130D02*
D03*
Y1344130D02*
D03*
Y1349130D02*
D03*
Y1354130D02*
D03*
D82*
X1971040Y1414660D02*
D03*
Y1399660D02*
D03*
X2011680Y1414660D02*
D03*
Y1399660D02*
D03*
X1991360Y1414660D02*
D03*
Y1399660D02*
D03*
X2091690Y1414660D02*
D03*
Y1399660D02*
D03*
X2112010Y1414660D02*
D03*
Y1399660D02*
D03*
X2113280Y1439030D02*
D03*
Y1454030D02*
D03*
X2072640Y1439150D02*
D03*
Y1454150D02*
D03*
X2052320Y1439150D02*
D03*
Y1454150D02*
D03*
X2032000Y1414660D02*
D03*
Y1399660D02*
D03*
X2011680Y1439150D02*
D03*
Y1454150D02*
D03*
X2071370Y1414780D02*
D03*
Y1399780D02*
D03*
X2052320Y1414660D02*
D03*
Y1399660D02*
D03*
X1969770Y1438910D02*
D03*
Y1453910D02*
D03*
X1990090Y1439030D02*
D03*
Y1454030D02*
D03*
X2092960Y1439030D02*
D03*
Y1454030D02*
D03*
X2032000Y1439030D02*
D03*
Y1454030D02*
D03*
X2084070Y986910D02*
D03*
X2105660D02*
D03*
X1640830Y886580D02*
D03*
Y901580D02*
D03*
X1659890Y942220D02*
D03*
Y927220D02*
D03*
X1398260Y861060D02*
D03*
Y846060D02*
D03*
X1386830Y915790D02*
D03*
Y930790D02*
D03*
X1690370Y1438910D02*
D03*
Y1423910D02*
D03*
X1689100Y1501020D02*
D03*
Y1486020D02*
D03*
X1464310Y1283730D02*
D03*
Y1268730D02*
D03*
Y1415810D02*
D03*
Y1400810D02*
D03*
Y1349770D02*
D03*
Y1334770D02*
D03*
X1465580Y1481850D02*
D03*
Y1466850D02*
D03*
X1464310Y1235710D02*
D03*
Y1250710D02*
D03*
Y1367790D02*
D03*
Y1382790D02*
D03*
X1465580Y1433830D02*
D03*
Y1448830D02*
D03*
X1464310Y1301750D02*
D03*
Y1316750D02*
D03*
X1511300Y1576190D02*
D03*
Y1591190D02*
D03*
X1658620Y1577460D02*
D03*
Y1592460D02*
D03*
X2105660Y1001910D02*
D03*
X2084070D02*
D03*
X2034540Y934600D02*
D03*
Y919600D02*
D03*
X1535430Y1238130D02*
D03*
Y1223130D02*
D03*
X1630680Y1285120D02*
D03*
Y1270120D02*
D03*
Y1305680D02*
D03*
Y1320680D02*
D03*
D83*
X1847730Y1438910D02*
D03*
X1832730D02*
D03*
X1632070Y1203960D02*
D03*
X1647070D02*
D03*
X1632070Y1184910D02*
D03*
X1647070D02*
D03*
X1625710Y920750D02*
D03*
X1640710D02*
D03*
X1723510Y887730D02*
D03*
X1738510D02*
D03*
X1675010Y966470D02*
D03*
X1660010D02*
D03*
X1738510Y868680D02*
D03*
X1723510D02*
D03*
X1738510Y850900D02*
D03*
X1723510D02*
D03*
X1723510Y831850D02*
D03*
X1738510D02*
D03*
X1634610Y1040130D02*
D03*
X1649610D02*
D03*
X1634610Y1082040D02*
D03*
X1649610D02*
D03*
X1671440Y1040130D02*
D03*
X1686440D02*
D03*
X1671440Y1082040D02*
D03*
X1686440D02*
D03*
X1634610Y1019810D02*
D03*
X1649610D02*
D03*
X1634610Y1060450D02*
D03*
X1649610D02*
D03*
X1671440Y1019810D02*
D03*
X1686440D02*
D03*
X1671440Y1060450D02*
D03*
X1686440D02*
D03*
X1834120Y1483360D02*
D03*
X1849120D02*
D03*
X1673905Y1192335D02*
D03*
X1688905D02*
D03*
X1586350Y1477010D02*
D03*
X1601350D02*
D03*
X1586350Y1510030D02*
D03*
X1601350D02*
D03*
X1585080Y1410970D02*
D03*
X1600080D02*
D03*
X1586350Y1443990D02*
D03*
X1601350D02*
D03*
X1526300Y1557020D02*
D03*
X1511300D02*
D03*
X1675010Y1558290D02*
D03*
X1660010D02*
D03*
X2088000Y946150D02*
D03*
X2103000D02*
D03*
X2088000Y927100D02*
D03*
X2103000D02*
D03*
X1964450Y1106170D02*
D03*
X1949450D02*
D03*
X1949570Y1088390D02*
D03*
X1964570D02*
D03*
D84*
X1342510Y828040D02*
D03*
X1357510D02*
D03*
X1769230Y957580D02*
D03*
X1784230D02*
D03*
X1770500Y913130D02*
D03*
X1785500D02*
D03*
X1357630Y811530D02*
D03*
X1342630D02*
D03*
D85*
X1682210Y934720D02*
D03*
D86*
X1741710Y960120D02*
D03*
Y947420D02*
D03*
Y934720D02*
D03*
Y922020D02*
D03*
Y909320D02*
D03*
D87*
X1555750Y1326590D02*
D03*
Y1256590D02*
D03*
D88*
X1714500Y1174749D02*
D03*
X1714499Y1192908D02*
D03*
X1729740Y1174749D02*
D03*
X1729739Y1192908D02*
D03*
X1717040Y1075691D02*
D03*
X1551930Y883919D02*
D03*
X1586220Y850899D02*
D03*
X1586219Y869058D02*
D03*
X1551929Y902078D02*
D03*
X1569710Y901701D02*
D03*
X1569711Y883542D02*
D03*
X1586220Y883919D02*
D03*
X1586219Y902078D02*
D03*
X1325880Y882649D02*
D03*
X1325879Y900808D02*
D03*
X1410960Y934721D02*
D03*
X1410961Y916562D02*
D03*
X1803400Y1191261D02*
D03*
X1803401Y1173102D02*
D03*
X1789430Y1191261D02*
D03*
X1789431Y1173102D02*
D03*
X1717040Y1104901D02*
D03*
X1717041Y1086742D02*
D03*
Y1057532D02*
D03*
X2026920Y1477009D02*
D03*
X2026919Y1495168D02*
D03*
X1990090Y1477009D02*
D03*
X1990089Y1495168D02*
D03*
X2006600Y1477009D02*
D03*
X2006599Y1495168D02*
D03*
X1969770Y1477009D02*
D03*
X1969769Y1495168D02*
D03*
X2101850Y1477009D02*
D03*
X2101849Y1495168D02*
D03*
X2063750Y1477009D02*
D03*
X2063749Y1495168D02*
D03*
X2082800Y1477009D02*
D03*
X2082799Y1495168D02*
D03*
X2047240Y1477009D02*
D03*
X2047239Y1495168D02*
D03*
X1546860Y1592581D02*
D03*
X1546861Y1574422D02*
D03*
X1527810Y1592581D02*
D03*
X1527811Y1574422D02*
D03*
X1428750Y1574799D02*
D03*
X1428749Y1592958D02*
D03*
X1695450Y1593851D02*
D03*
X1695451Y1575692D02*
D03*
X1676400Y1593850D02*
D03*
X1676401Y1575691D02*
D03*
D89*
X2054860Y965960D02*
D03*
Y997460D02*
D03*
D90*
X2080500Y966470D02*
D03*
X2110500D02*
D03*
D91*
X1525480Y891540D02*
D03*
X1476780D02*
D03*
X1525490Y993140D02*
D03*
X1476790D02*
D03*
X1434050Y958850D02*
D03*
X1385350D02*
D03*
X1671540Y993140D02*
D03*
X1622840D02*
D03*
X1435320D02*
D03*
X1386620D02*
D03*
X1681690Y850900D02*
D03*
X1632990D02*
D03*
X1524210Y928370D02*
D03*
X1475510D02*
D03*
D92*
X1609080Y892810D02*
D03*
X1614080D02*
D03*
X1381710Y883920D02*
D03*
X1376710D02*
D03*
D93*
X1604330Y884060D02*
D03*
X1618830D02*
D03*
X1371960Y875170D02*
D03*
X1386460D02*
D03*
D94*
X1620580Y899810D02*
D03*
Y885810D02*
D03*
X1602580D02*
D03*
Y899810D02*
D03*
X1388210Y890920D02*
D03*
Y876920D02*
D03*
X1370210D02*
D03*
Y890920D02*
D03*
D95*
X1620580Y895060D02*
D03*
Y890560D02*
D03*
X1602580D02*
D03*
Y895060D02*
D03*
X1388210Y886170D02*
D03*
Y881670D02*
D03*
X1370210D02*
D03*
Y886170D02*
D03*
D96*
X1599870Y960120D02*
D03*
X1559870D02*
D03*
X1332550Y783590D02*
D03*
X1372550D02*
D03*
D97*
X1445870Y1593440D02*
D03*
Y1586940D02*
D03*
Y1580440D02*
D03*
Y1573940D02*
D03*
X1490370Y1593440D02*
D03*
Y1586940D02*
D03*
Y1580440D02*
D03*
Y1573940D02*
D03*
X1590650Y1594710D02*
D03*
Y1588210D02*
D03*
Y1581710D02*
D03*
Y1575210D02*
D03*
X1635150Y1594710D02*
D03*
Y1588210D02*
D03*
Y1581710D02*
D03*
Y1575210D02*
D03*
D98*
X1940560Y952970D02*
D03*
Y992670D02*
D03*
D99*
X2006600Y971550D02*
D03*
D100*
X2033490Y1029970D02*
D03*
X1997490D02*
D03*
D101*
X1926920Y1068070D02*
D03*
Y1080770D02*
D03*
Y1093470D02*
D03*
Y1106170D02*
D03*
X1872920Y1068070D02*
D03*
Y1080770D02*
D03*
Y1093470D02*
D03*
Y1106170D02*
D03*
D102*
X1609200Y1283900D02*
D03*
Y1306900D02*
D03*
X1591200D02*
D03*
Y1283900D02*
D03*
D103*
X1588490Y1236370D02*
D03*
Y1245870D02*
D03*
Y1255370D02*
D03*
X1616990D02*
D03*
Y1245870D02*
D03*
Y1236370D02*
D03*
D104*
X1766570Y1189870D02*
D03*
Y1174870D02*
D03*
X1746250Y1189870D02*
D03*
Y1174870D02*
D03*
D105*
X2216150Y1625600D02*
D03*
X1289050Y1629410D02*
D03*
X1283970Y755650D02*
D03*
X2221230D02*
D03*
D106*
X1273810Y1643380D02*
D03*
Y1615440D02*
D03*
X1303020D02*
D03*
Y1644650D02*
D03*
X1268730Y1630680D02*
D03*
X1309370D02*
D03*
X1289050Y1609090D02*
D03*
Y1649730D02*
D03*
X1268730Y769620D02*
D03*
Y741680D02*
D03*
X1297940D02*
D03*
Y770890D02*
D03*
X1263650Y756920D02*
D03*
X1304290D02*
D03*
X1283970Y735330D02*
D03*
Y775970D02*
D03*
X2205990Y769620D02*
D03*
Y741680D02*
D03*
X2235200D02*
D03*
Y770890D02*
D03*
X2200910Y756920D02*
D03*
X2241550D02*
D03*
X2221230Y735330D02*
D03*
Y775970D02*
D03*
X2200910Y1639570D02*
D03*
Y1611630D02*
D03*
X2230120D02*
D03*
Y1640840D02*
D03*
X2195830Y1626870D02*
D03*
X2236470D02*
D03*
X2216150Y1605280D02*
D03*
Y1645920D02*
D03*
D107*
X1349250Y1447110D02*
D03*
Y1262110D02*
D03*
X1301750Y1447110D02*
D03*
Y1262110D02*
D03*
X2129580Y1603180D02*
D03*
X1944580D02*
D03*
X2129580Y1650680D02*
D03*
X1944580D02*
D03*
D108*
X1979660Y793910D02*
D03*
X1509660D02*
D03*
D109*
X1944660Y803910D02*
D03*
D110*
Y783910D02*
D03*
X1924660Y803910D02*
D03*
Y783910D02*
D03*
X1904660Y803910D02*
D03*
Y783910D02*
D03*
X1884660Y803910D02*
D03*
Y783910D02*
D03*
X1864660Y803910D02*
D03*
Y783910D02*
D03*
X1844660Y803910D02*
D03*
Y783910D02*
D03*
X1824660Y803910D02*
D03*
Y783910D02*
D03*
X1804660Y803910D02*
D03*
Y783910D02*
D03*
X1784660Y803910D02*
D03*
Y783910D02*
D03*
X1764660Y803910D02*
D03*
Y783910D02*
D03*
X1744660Y803910D02*
D03*
Y783910D02*
D03*
X1724660Y803910D02*
D03*
Y783910D02*
D03*
X1704660Y803910D02*
D03*
Y783910D02*
D03*
X1684660Y803910D02*
D03*
Y783910D02*
D03*
X1664660Y803910D02*
D03*
Y783910D02*
D03*
X1644660Y803910D02*
D03*
Y783910D02*
D03*
X1624660Y803910D02*
D03*
Y783910D02*
D03*
X1604660Y803910D02*
D03*
Y783910D02*
D03*
X1584660Y803910D02*
D03*
Y783910D02*
D03*
X1564660Y803910D02*
D03*
Y783910D02*
D03*
X1544660Y803910D02*
D03*
Y783910D02*
D03*
D111*
X2172970Y1451610D02*
D03*
Y1426210D02*
D03*
Y1400810D02*
D03*
Y1375410D02*
D03*
Y1264920D02*
D03*
Y1290320D02*
D03*
D112*
Y1350010D02*
D03*
Y1315720D02*
D03*
D113*
X1332230Y1181100D02*
D03*
X1306830D02*
D03*
X1332230Y1155700D02*
D03*
X1306830D02*
D03*
X1332230Y1130300D02*
D03*
X1306830D02*
D03*
X1332230Y1104900D02*
D03*
X1306830D02*
D03*
X1332230Y1079500D02*
D03*
X1306830D02*
D03*
X1332230Y1054100D02*
D03*
X1306830D02*
D03*
X1332230Y1028700D02*
D03*
D114*
X1306830D02*
D03*
D115*
X1416040Y779780D02*
D03*
X1455410Y781050D02*
D03*
D116*
X1416040Y805180D02*
D03*
X1455410Y806450D02*
D03*
M02*
