G04*
G04 #@! TF.GenerationSoftware,Altium Limited,Altium Designer,24.1.2 (44)*
G04*
G04 Layer_Color=65535*
%FSLAX44Y44*%
%MOMM*%
G71*
G04*
G04 #@! TF.SameCoordinates,8DB790BD-C0D2-442E-8808-D1DB86FAA070*
G04*
G04*
G04 #@! TF.FilePolarity,Positive*
G04*
G01*
G75*
%ADD10C,0.2540*%
%ADD11C,0.1000*%
%ADD12C,0.2000*%
%ADD13C,0.2500*%
%ADD14C,0.6000*%
%ADD15C,0.3000*%
%ADD16C,0.1270*%
%ADD17C,0.2032*%
%ADD18C,0.1500*%
%ADD19C,0.1524*%
%ADD20R,1.2700X2.5400*%
D10*
X1317019Y1629410D02*
G03*
X1317019Y1629410I-27969J0D01*
G01*
X1311939Y755650D02*
G03*
X1311939Y755650I-27969J0D01*
G01*
X2249199D02*
G03*
X2249199Y755650I-27969J0D01*
G01*
X2244119Y1625600D02*
G03*
X2244119Y1625600I-27969J0D01*
G01*
X2195576Y954278D02*
Y1014730D01*
X2189480Y954278D02*
X2195576D01*
X2189480Y1014730D02*
X2195576D01*
X2153920Y954278D02*
Y1014730D01*
X2153390Y843588D02*
Y904040D01*
X2188950D02*
X2195046D01*
X2188950Y843588D02*
X2195046D01*
Y904040D01*
X1963540Y1392160D02*
Y1422160D01*
Y1392160D02*
X1978540D01*
X1963540Y1422160D02*
X1978540D01*
Y1392160D02*
Y1422160D01*
X2004180Y1392160D02*
Y1422160D01*
Y1392160D02*
X2019180D01*
X2004180Y1422160D02*
X2019180D01*
Y1392160D02*
Y1422160D01*
X1983860Y1392160D02*
Y1422160D01*
Y1392160D02*
X1998860D01*
X1983860Y1422160D02*
X1998860D01*
Y1392160D02*
Y1422160D01*
X2084190Y1392160D02*
Y1422160D01*
Y1392160D02*
X2099190D01*
X2084190Y1422160D02*
X2099190D01*
Y1392160D02*
Y1422160D01*
X2104510Y1392160D02*
Y1422160D01*
Y1392160D02*
X2119510D01*
X2104510Y1422160D02*
X2119510D01*
Y1392160D02*
Y1422160D01*
X2120780Y1431530D02*
Y1461530D01*
X2105780D02*
X2120780D01*
X2105780Y1431530D02*
X2120780D01*
X2105780D02*
Y1461530D01*
X2080140Y1431650D02*
Y1461650D01*
X2065140D02*
X2080140D01*
X2065140Y1431650D02*
X2080140D01*
X2065140D02*
Y1461650D01*
X2059820Y1431650D02*
Y1461650D01*
X2044820D02*
X2059820D01*
X2044820Y1431650D02*
X2059820D01*
X2044820D02*
Y1461650D01*
X2024500Y1392160D02*
Y1422160D01*
Y1392160D02*
X2039500D01*
X2024500Y1422160D02*
X2039500D01*
Y1392160D02*
Y1422160D01*
X2019180Y1431650D02*
Y1461650D01*
X2004180D02*
X2019180D01*
X2004180Y1431650D02*
X2019180D01*
X2004180D02*
Y1461650D01*
X2063870Y1392280D02*
Y1422280D01*
Y1392280D02*
X2078870D01*
X2063870Y1422280D02*
X2078870D01*
Y1392280D02*
Y1422280D01*
X2044820Y1392160D02*
Y1422160D01*
Y1392160D02*
X2059820D01*
X2044820Y1422160D02*
X2059820D01*
Y1392160D02*
Y1422160D01*
X1977270Y1431410D02*
Y1461410D01*
X1962270D02*
X1977270D01*
X1962270Y1431410D02*
X1977270D01*
X1962270D02*
Y1461410D01*
X1997590Y1431530D02*
Y1461530D01*
X1982590D02*
X1997590D01*
X1982590Y1431530D02*
X1997590D01*
X1982590D02*
Y1461530D01*
X2100460Y1431530D02*
Y1461530D01*
X2085460D02*
X2100460D01*
X2085460Y1431530D02*
X2100460D01*
X2085460D02*
Y1461530D01*
X2039500Y1431530D02*
Y1461530D01*
X2024500D02*
X2039500D01*
X2024500Y1431530D02*
X2039500D01*
X2024500D02*
Y1461530D01*
X1825230Y1446410D02*
X1855230D01*
X1825230Y1431410D02*
Y1446410D01*
X1855230Y1431410D02*
Y1446410D01*
X1825230Y1431410D02*
X1855230D01*
X1336310Y834390D02*
X1363710D01*
X1336310Y821690D02*
Y834390D01*
Y821690D02*
X1363710D01*
Y834390D01*
X1562862Y1319784D02*
X1574292D01*
X1537208D02*
X1548638D01*
X1549400Y1278890D02*
X1562100D01*
Y1304290D01*
X1549400D02*
X1562100D01*
X1549400Y1278890D02*
Y1304290D01*
X1537208Y1263396D02*
Y1319784D01*
X1574292Y1263396D02*
Y1319784D01*
X1562862Y1263396D02*
X1574292D01*
X1537208D02*
X1548638D01*
X1624570Y1196460D02*
X1654570D01*
Y1211460D01*
X1624570Y1196460D02*
Y1211460D01*
X1654570D01*
X1624570Y1177410D02*
X1654570D01*
Y1192410D01*
X1624570Y1177410D02*
Y1192410D01*
X1654570D01*
X1763030Y951230D02*
Y963930D01*
X1790430D01*
Y951230D02*
Y963930D01*
X1763030Y951230D02*
X1790430D01*
X1764300Y906780D02*
Y919480D01*
X1791700D01*
Y906780D02*
Y919480D01*
X1764300Y906780D02*
X1791700D01*
X1363830Y805180D02*
Y817880D01*
X1336430Y805180D02*
X1363830D01*
X1336430D02*
Y817880D01*
X1363830D01*
X1648330Y879080D02*
Y909080D01*
X1633330D02*
X1648330D01*
X1633330Y879080D02*
X1648330D01*
X1633330D02*
Y909080D01*
X1618210Y913250D02*
X1648210D01*
Y928250D01*
X1618210Y913250D02*
Y928250D01*
X1648210D01*
X1716010Y880230D02*
X1746010D01*
Y895230D01*
X1716010Y880230D02*
Y895230D01*
X1746010D01*
X1652510Y973970D02*
X1682510D01*
X1652510Y958970D02*
Y973970D01*
X1682510Y958970D02*
Y973970D01*
X1652510Y958970D02*
X1682510D01*
X1716010Y876180D02*
X1746010D01*
X1716010Y861180D02*
Y876180D01*
X1746010Y861180D02*
Y876180D01*
X1716010Y861180D02*
X1746010D01*
X1652390Y919720D02*
Y949720D01*
Y919720D02*
X1667390D01*
X1652390Y949720D02*
X1667390D01*
Y919720D02*
Y949720D01*
X1390760Y838560D02*
Y868560D01*
Y838560D02*
X1405760D01*
X1390760Y868560D02*
X1405760D01*
Y838560D02*
Y868560D01*
X1394330Y908290D02*
Y938290D01*
X1379330D02*
X1394330D01*
X1379330Y908290D02*
X1394330D01*
X1379330D02*
Y938290D01*
X1716010Y858400D02*
X1746010D01*
X1716010Y843400D02*
Y858400D01*
X1746010Y843400D02*
Y858400D01*
X1716010Y843400D02*
X1746010D01*
X1716010Y824350D02*
X1746010D01*
Y839350D01*
X1716010Y824350D02*
Y839350D01*
X1746010D01*
X1627110Y1032630D02*
X1657110D01*
Y1047630D01*
X1627110Y1032630D02*
Y1047630D01*
X1657110D01*
X1627110Y1074540D02*
X1657110D01*
Y1089540D01*
X1627110Y1074540D02*
Y1089540D01*
X1657110D01*
X1663940Y1032630D02*
X1693940D01*
Y1047630D01*
X1663940Y1032630D02*
Y1047630D01*
X1693940D01*
X1663940Y1074540D02*
X1693940D01*
Y1089540D01*
X1663940Y1074540D02*
Y1089540D01*
X1693940D01*
X1627110Y1012310D02*
X1657110D01*
Y1027310D01*
X1627110Y1012310D02*
Y1027310D01*
X1657110D01*
X1627110Y1052950D02*
X1657110D01*
Y1067950D01*
X1627110Y1052950D02*
Y1067950D01*
X1657110D01*
X1663940Y1012310D02*
X1693940D01*
Y1027310D01*
X1663940Y1012310D02*
Y1027310D01*
X1693940D01*
X1663940Y1052950D02*
X1693940D01*
Y1067950D01*
X1663940Y1052950D02*
Y1067950D01*
X1693940D01*
X1682870Y1416410D02*
Y1446410D01*
Y1416410D02*
X1697870D01*
X1682870Y1446410D02*
X1697870D01*
Y1416410D02*
Y1446410D01*
X1681600Y1478520D02*
Y1508520D01*
Y1478520D02*
X1696600D01*
X1681600Y1508520D02*
X1696600D01*
Y1478520D02*
Y1508520D01*
X1826620Y1475860D02*
X1856620D01*
Y1490860D01*
X1826620Y1475860D02*
Y1490860D01*
X1856620D01*
X1666405Y1184835D02*
X1696405D01*
Y1199835D01*
X1666405Y1184835D02*
Y1199835D01*
X1696405D01*
X1578850Y1469510D02*
X1608850D01*
Y1484510D01*
X1578850Y1469510D02*
Y1484510D01*
X1608850D01*
X1456810Y1261230D02*
Y1291230D01*
Y1261230D02*
X1471810D01*
X1456810Y1291230D02*
X1471810D01*
Y1261230D02*
Y1291230D01*
X1456810Y1393310D02*
Y1423310D01*
Y1393310D02*
X1471810D01*
X1456810Y1423310D02*
X1471810D01*
Y1393310D02*
Y1423310D01*
X1456810Y1327270D02*
Y1357270D01*
Y1327270D02*
X1471810D01*
X1456810Y1357270D02*
X1471810D01*
Y1327270D02*
Y1357270D01*
X1578850Y1502530D02*
X1608850D01*
Y1517530D01*
X1578850Y1502530D02*
Y1517530D01*
X1608850D01*
X1458080Y1459350D02*
Y1489350D01*
Y1459350D02*
X1473080D01*
X1458080Y1489350D02*
X1473080D01*
Y1459350D02*
Y1489350D01*
X1471810Y1228210D02*
Y1258210D01*
X1456810D02*
X1471810D01*
X1456810Y1228210D02*
X1471810D01*
X1456810D02*
Y1258210D01*
X1577580Y1403470D02*
X1607580D01*
Y1418470D01*
X1577580Y1403470D02*
Y1418470D01*
X1607580D01*
X1471810Y1360290D02*
Y1390290D01*
X1456810D02*
X1471810D01*
X1456810Y1360290D02*
X1471810D01*
X1456810D02*
Y1390290D01*
X1473080Y1426330D02*
Y1456330D01*
X1458080D02*
X1473080D01*
X1458080Y1426330D02*
X1473080D01*
X1458080D02*
Y1456330D01*
X1578850Y1436490D02*
X1608850D01*
Y1451490D01*
X1578850Y1436490D02*
Y1451490D01*
X1608850D01*
X1471810Y1294250D02*
Y1324250D01*
X1456810D02*
X1471810D01*
X1456810Y1294250D02*
X1471810D01*
X1456810D02*
Y1324250D01*
X1518800Y1568690D02*
Y1598690D01*
X1503800D02*
X1518800D01*
X1503800Y1568690D02*
X1518800D01*
X1503800D02*
Y1598690D01*
X1666120Y1569960D02*
Y1599960D01*
X1651120D02*
X1666120D01*
X1651120Y1569960D02*
X1666120D01*
X1651120D02*
Y1599960D01*
X1503800Y1564520D02*
X1533800D01*
X1503800Y1549520D02*
Y1564520D01*
X1533800Y1549520D02*
Y1564520D01*
X1503800Y1549520D02*
X1533800D01*
X1652510Y1565790D02*
X1682510D01*
X1652510Y1550790D02*
Y1565790D01*
X1682510Y1550790D02*
Y1565790D01*
X1652510Y1550790D02*
X1682510D01*
X2098160Y979410D02*
Y1009410D01*
Y979410D02*
X2113160D01*
X2098160Y1009410D02*
X2113160D01*
Y979410D02*
Y1009410D01*
X2076570Y979410D02*
Y1009410D01*
Y979410D02*
X2091570D01*
X2076570Y1009410D02*
X2091570D01*
Y979410D02*
Y1009410D01*
X2080500Y938650D02*
X2110500D01*
Y953650D01*
X2080500Y938650D02*
Y953650D01*
X2110500D01*
X2027040Y912100D02*
Y942100D01*
Y912100D02*
X2042040D01*
X2027040Y942100D02*
X2042040D01*
Y912100D02*
Y942100D01*
X2080500Y919600D02*
X2110500D01*
Y934600D01*
X2080500Y919600D02*
Y934600D01*
X2110500D01*
X1941950Y1113670D02*
X1971950D01*
X1941950Y1098670D02*
Y1113670D01*
X1971950Y1098670D02*
Y1113670D01*
X1941950Y1098670D02*
X1971950D01*
X1942070Y1080890D02*
X1972070D01*
Y1095890D01*
X1942070Y1080890D02*
Y1095890D01*
X1972070D01*
X1527930Y1215630D02*
Y1245630D01*
Y1215630D02*
X1542930D01*
X1527930Y1245630D02*
X1542930D01*
Y1215630D02*
Y1245630D01*
X1583200Y1274900D02*
X1617200D01*
X1583200D02*
Y1315900D01*
X1617200D01*
Y1274900D02*
Y1315900D01*
X1623180Y1262620D02*
Y1292620D01*
Y1262620D02*
X1638180D01*
X1623180Y1292620D02*
X1638180D01*
Y1262620D02*
Y1292620D01*
X1638180Y1298180D02*
Y1328180D01*
X1623180D02*
X1638180D01*
X1623180Y1298180D02*
X1638180D01*
X1623180D02*
Y1328180D01*
X1760220Y1196070D02*
X1772920D01*
Y1168670D02*
Y1196070D01*
X1760220Y1168670D02*
X1772920D01*
X1760220D02*
Y1196070D01*
X1739900D02*
X1752600D01*
Y1168670D02*
Y1196070D01*
X1739900Y1168670D02*
X1752600D01*
X1739900D02*
Y1196070D01*
X1323341Y1477007D02*
X1318262D01*
X1320802D01*
Y1464312D01*
X1318262Y1461772D01*
X1315723D01*
X1313184Y1464312D01*
X1328419Y1477007D02*
X1338576D01*
Y1474468D01*
X1328419Y1464312D01*
Y1461772D01*
X1577341Y1647188D02*
X1572263D01*
X1574802D01*
Y1634492D01*
X1572263Y1631953D01*
X1569723D01*
X1567184Y1634492D01*
X1582419Y1644648D02*
X1584958Y1647188D01*
X1590037D01*
X1592576Y1644648D01*
Y1642109D01*
X1590037Y1639570D01*
X1592576Y1637031D01*
Y1634492D01*
X1590037Y1631953D01*
X1584958D01*
X1582419Y1634492D01*
Y1637031D01*
X1584958Y1639570D01*
X1582419Y1642109D01*
Y1644648D01*
X1584958Y1639570D02*
X1590037D01*
X1724661Y1644648D02*
X1719583D01*
X1722122D01*
Y1631952D01*
X1719583Y1629413D01*
X1717043D01*
X1714504Y1631952D01*
X1729739D02*
X1732278Y1629413D01*
X1737357D01*
X1739896Y1631952D01*
Y1642108D01*
X1737357Y1644648D01*
X1732278D01*
X1729739Y1642108D01*
Y1639569D01*
X1732278Y1637030D01*
X1739896D01*
X1916431Y1630677D02*
X1911353D01*
X1913892D01*
Y1617982D01*
X1911353Y1615443D01*
X1908813D01*
X1906274Y1617982D01*
X1931666Y1630677D02*
X1921509D01*
Y1623060D01*
X1926588Y1625599D01*
X1929127D01*
X1931666Y1623060D01*
Y1617982D01*
X1929127Y1615443D01*
X1924048D01*
X1921509Y1617982D01*
X2213613Y996947D02*
X2208535D01*
X2211074D01*
Y984252D01*
X2208535Y981712D01*
X2205995D01*
X2203456Y984252D01*
X2218691Y981712D02*
X2223770D01*
X2221230D01*
Y996947D01*
X2218691Y994408D01*
X2231387D02*
X2233926Y996947D01*
X2239005D01*
X2241544Y994408D01*
Y984252D01*
X2239005Y981712D01*
X2233926D01*
X2231387Y984252D01*
Y994408D01*
X2216151Y880107D02*
X2211073D01*
X2213612D01*
Y867412D01*
X2211073Y864873D01*
X2208533D01*
X2205994Y867412D01*
X2231386Y864873D02*
X2221229D01*
X2231386Y875029D01*
Y877568D01*
X2228847Y880107D01*
X2223768D01*
X2221229Y877568D01*
X1304795Y1221989D02*
X1299716D01*
X1302256D01*
Y1209293D01*
X1299716Y1206754D01*
X1297177D01*
X1294638Y1209293D01*
X1309873Y1206754D02*
X1314951D01*
X1312412D01*
Y1221989D01*
X1309873Y1219450D01*
X1332726Y1206754D02*
X1322569D01*
X1332726Y1216911D01*
Y1219450D01*
X1330186Y1221989D01*
X1325108D01*
X1322569Y1219450D01*
X2169161Y1233167D02*
X2164082D01*
X2166622D01*
Y1220472D01*
X2164082Y1217933D01*
X2161543D01*
X2159004Y1220472D01*
X2181857Y1217933D02*
Y1233167D01*
X2174239Y1225550D01*
X2184396D01*
X1503680Y750567D02*
X1498602D01*
X1501141D01*
Y737872D01*
X1498602Y735332D01*
X1496062D01*
X1493523Y737872D01*
X1508758Y735332D02*
X1513837D01*
X1511298D01*
Y750567D01*
X1508758Y748028D01*
X1394453Y751837D02*
X1389375D01*
X1391914D01*
Y739142D01*
X1389375Y736602D01*
X1386836D01*
X1384297Y739142D01*
X1399532Y736602D02*
Y751837D01*
X1407149D01*
X1409688Y749298D01*
Y744220D01*
X1407149Y741681D01*
X1399532D01*
X1424924Y736602D02*
X1414767D01*
X1424924Y746759D01*
Y749298D01*
X1422384Y751837D01*
X1417306D01*
X1414767Y749298D01*
X1449062Y751837D02*
X1443984D01*
X1446523D01*
Y739142D01*
X1443984Y736602D01*
X1441445D01*
X1438906Y739142D01*
X1454141Y736602D02*
Y751837D01*
X1461758D01*
X1464298Y749298D01*
Y744220D01*
X1461758Y741681D01*
X1454141D01*
X1469376Y736602D02*
X1474454D01*
X1471915D01*
Y751837D01*
X1469376Y749298D01*
X2134872Y1324608D02*
X2129794D01*
X2132333D01*
Y1311912D01*
X2129794Y1309373D01*
X2127254D01*
X2124715Y1311912D01*
X2139950Y1309373D02*
X2145029D01*
X2142490D01*
Y1324608D01*
X2139950Y1322068D01*
X2152646Y1309373D02*
X2157725D01*
X2155186D01*
Y1324608D01*
X2152646Y1322068D01*
X2171701Y1488438D02*
X2166622D01*
X2169162D01*
Y1475742D01*
X2166622Y1473203D01*
X2164083D01*
X2161544Y1475742D01*
X2186936Y1488438D02*
X2181857Y1485898D01*
X2176779Y1480820D01*
Y1475742D01*
X2179318Y1473203D01*
X2184397D01*
X2186936Y1475742D01*
Y1478281D01*
X2184397Y1480820D01*
X2176779D01*
D11*
X1573170Y867730D02*
G03*
X1573170Y867730I-500J0D01*
G01*
X1693970Y898420D02*
G03*
X1693970Y898420I-500J0D01*
G01*
X1588771Y1389380D02*
X1596391D01*
X1588771D02*
Y1399540D01*
X1596391D01*
Y1389380D02*
Y1399540D01*
X1578611Y1388110D02*
X1606551D01*
X1578611D02*
Y1400810D01*
X1583691D01*
X1606551D01*
Y1388110D02*
Y1400810D01*
X1558610Y1621790D02*
Y1631950D01*
X1510350Y1651000D02*
X1548450D01*
X1500190Y1621790D02*
Y1631950D01*
Y1621790D02*
X1507810D01*
X1549720D02*
X1558610D01*
X1703070D02*
Y1631950D01*
X1654810Y1651000D02*
X1692910D01*
X1644650Y1621790D02*
Y1631950D01*
Y1621790D02*
X1652270D01*
X1694180D02*
X1703070D01*
X1827529Y1207770D02*
X1835149D01*
Y1197610D02*
Y1207770D01*
X1827529Y1197610D02*
X1835149D01*
X1827529D02*
Y1207770D01*
X1817369Y1209040D02*
X1845309D01*
Y1196340D02*
Y1209040D01*
X1840229Y1196340D02*
X1845309D01*
X1817369D02*
X1840229D01*
X1817369D02*
Y1209040D01*
X1827529Y1179830D02*
X1835149D01*
Y1169670D02*
Y1179830D01*
X1827529Y1169670D02*
X1835149D01*
X1827529D02*
Y1179830D01*
X1817369Y1181100D02*
X1845309D01*
Y1168400D02*
Y1181100D01*
X1840229Y1168400D02*
X1845309D01*
X1817369D02*
X1840229D01*
X1817369D02*
Y1181100D01*
X1827529Y1221740D02*
X1835149D01*
Y1211580D02*
Y1221740D01*
X1827529Y1211580D02*
X1835149D01*
X1827529D02*
Y1221740D01*
X1817369Y1223010D02*
X1845309D01*
Y1210310D02*
Y1223010D01*
X1840229Y1210310D02*
X1845309D01*
X1817369D02*
X1840229D01*
X1817369D02*
Y1223010D01*
X1827529Y1193800D02*
X1835149D01*
Y1183640D02*
Y1193800D01*
X1827529Y1183640D02*
X1835149D01*
X1827529D02*
Y1193800D01*
X1817369Y1195070D02*
X1845309D01*
Y1182370D02*
Y1195070D01*
X1840229Y1182370D02*
X1845309D01*
X1817369D02*
X1840229D01*
X1817369D02*
Y1195070D01*
X1668779Y1168400D02*
Y1181100D01*
Y1168400D02*
X1691639D01*
X1696719D01*
Y1181100D01*
X1668779D02*
X1696719D01*
X1678939Y1169670D02*
Y1179830D01*
Y1169670D02*
X1686559D01*
Y1179830D01*
X1678939D02*
X1686559D01*
X1708150Y1169669D02*
X1720850D01*
Y1192529D01*
Y1197609D01*
X1708150D02*
X1720850D01*
X1708150Y1169669D02*
Y1197609D01*
X1709420Y1179829D02*
X1719580D01*
Y1187449D01*
X1709420D02*
X1719580D01*
X1709420Y1179829D02*
Y1187449D01*
X1723390Y1169669D02*
X1736090D01*
Y1192529D01*
Y1197609D01*
X1723390D02*
X1736090D01*
X1723390Y1169669D02*
Y1197609D01*
X1724660Y1179829D02*
X1734820D01*
Y1187449D01*
X1724660D02*
X1734820D01*
X1724660Y1179829D02*
Y1187449D01*
X1625599Y1214120D02*
Y1226820D01*
Y1214120D02*
X1648459D01*
X1653539D01*
Y1226820D01*
X1625599D02*
X1653539D01*
X1635759Y1215390D02*
Y1225550D01*
Y1215390D02*
X1643379D01*
Y1225550D01*
X1635759D02*
X1643379D01*
X1625599Y1162050D02*
Y1174750D01*
Y1162050D02*
X1648459D01*
X1653539D01*
Y1174750D01*
X1625599D02*
X1653539D01*
X1635759Y1163320D02*
Y1173480D01*
Y1163320D02*
X1643379D01*
Y1173480D01*
X1635759D02*
X1643379D01*
X1869439Y1217930D02*
Y1230630D01*
Y1217930D02*
X1892299D01*
X1897379D01*
Y1230630D01*
X1869439D02*
X1897379D01*
X1879599Y1219200D02*
Y1229360D01*
Y1219200D02*
X1887219D01*
Y1229360D01*
X1879599D02*
X1887219D01*
X1869440Y1233170D02*
Y1245870D01*
Y1233170D02*
X1892300D01*
X1897380D01*
Y1245870D01*
X1869440D02*
X1897380D01*
X1879600Y1234440D02*
Y1244600D01*
Y1234440D02*
X1887220D01*
Y1244600D01*
X1879600D02*
X1887220D01*
X1869439Y1248410D02*
Y1261110D01*
Y1248410D02*
X1892299D01*
X1897379D01*
Y1261110D01*
X1869439D02*
X1897379D01*
X1879599Y1249680D02*
Y1259840D01*
Y1249680D02*
X1887219D01*
Y1259840D01*
X1879599D02*
X1887219D01*
X1869061Y1278889D02*
Y1291589D01*
Y1278889D02*
X1891921D01*
X1897001D01*
Y1291589D01*
X1869061D02*
X1897001D01*
X1879221Y1280159D02*
Y1290319D01*
Y1280159D02*
X1886841D01*
Y1290319D01*
X1879221D02*
X1886841D01*
X1869061Y1294129D02*
Y1306829D01*
Y1294129D02*
X1891921D01*
X1897001D01*
Y1306829D01*
X1869061D02*
X1897001D01*
X1879221Y1295399D02*
Y1305559D01*
Y1295399D02*
X1886841D01*
Y1305559D01*
X1879221D02*
X1886841D01*
X1869061Y1309369D02*
Y1322069D01*
Y1309369D02*
X1891921D01*
X1897001D01*
Y1322069D01*
X1869061D02*
X1897001D01*
X1879221Y1310639D02*
Y1320799D01*
Y1310639D02*
X1886841D01*
Y1320799D01*
X1879221D02*
X1886841D01*
X1869061Y1324609D02*
Y1337309D01*
Y1324609D02*
X1891921D01*
X1897001D01*
Y1337309D01*
X1869061D02*
X1897001D01*
X1879221Y1325879D02*
Y1336039D01*
Y1325879D02*
X1886841D01*
Y1336039D01*
X1879221D02*
X1886841D01*
X1579870Y845819D02*
X1592570D01*
Y868679D01*
Y873759D01*
X1579870D02*
X1592570D01*
X1579870Y845819D02*
Y873759D01*
X1581140Y855979D02*
X1591300D01*
Y863599D01*
X1581140D02*
X1591300D01*
X1581140Y855979D02*
Y863599D01*
X1545580Y878839D02*
X1558280D01*
Y901699D01*
Y906779D01*
X1545580D02*
X1558280D01*
X1545580Y878839D02*
Y906779D01*
X1546850Y888999D02*
X1557010D01*
Y896619D01*
X1546850D02*
X1557010D01*
X1546850Y888999D02*
Y896619D01*
X1563360Y906781D02*
X1576060D01*
X1563360Y883921D02*
Y906781D01*
Y878841D02*
Y883921D01*
Y878841D02*
X1576060D01*
Y906781D01*
X1564630Y896621D02*
X1574790D01*
X1564630Y889001D02*
Y896621D01*
Y889001D02*
X1574790D01*
Y896621D01*
X1762759Y935990D02*
Y948690D01*
Y935990D02*
X1785619D01*
X1790699D01*
Y948690D01*
X1762759D02*
X1790699D01*
X1772919Y937260D02*
Y947420D01*
Y937260D02*
X1780539D01*
Y947420D01*
X1772919D02*
X1780539D01*
X1762759Y922020D02*
Y934720D01*
Y922020D02*
X1785619D01*
X1790699D01*
Y934720D01*
X1762759D02*
X1790699D01*
X1772919Y923290D02*
Y933450D01*
Y923290D02*
X1780539D01*
Y933450D01*
X1772919D02*
X1780539D01*
X1579870Y878839D02*
X1592570D01*
Y901699D01*
Y906779D01*
X1579870D02*
X1592570D01*
X1579870Y878839D02*
Y906779D01*
X1581140Y888999D02*
X1591300D01*
Y896619D01*
X1581140D02*
X1591300D01*
X1581140Y888999D02*
Y896619D01*
X1336039Y853440D02*
Y866140D01*
Y853440D02*
X1358899D01*
X1363979D01*
Y866140D01*
X1336039D02*
X1363979D01*
X1346199Y854710D02*
Y864870D01*
Y854710D02*
X1353819D01*
Y864870D01*
X1346199D02*
X1353819D01*
X1336039Y868680D02*
Y881380D01*
Y868680D02*
X1358899D01*
X1363979D01*
Y881380D01*
X1336039D02*
X1363979D01*
X1346199Y869950D02*
Y880110D01*
Y869950D02*
X1353819D01*
Y880110D01*
X1346199D02*
X1353819D01*
X1336039Y894080D02*
Y906780D01*
Y894080D02*
X1358899D01*
X1363979D01*
Y906780D01*
X1336039D02*
X1363979D01*
X1346199Y895350D02*
Y905510D01*
Y895350D02*
X1353819D01*
Y905510D01*
X1346199D02*
X1353819D01*
X1363981Y925830D02*
Y938530D01*
X1341121D02*
X1363981D01*
X1336041D02*
X1341121D01*
X1336041Y925830D02*
Y938530D01*
Y925830D02*
X1363981D01*
X1353821Y927100D02*
Y937260D01*
X1346201D02*
X1353821D01*
X1346201Y927100D02*
Y937260D01*
Y927100D02*
X1353821D01*
X1363981Y838200D02*
Y850900D01*
X1341121D02*
X1363981D01*
X1336041D02*
X1341121D01*
X1336041Y838200D02*
Y850900D01*
Y838200D02*
X1363981D01*
X1353821Y839470D02*
Y849630D01*
X1346201D02*
X1353821D01*
X1346201Y839470D02*
Y849630D01*
Y839470D02*
X1353821D01*
X1336039Y910590D02*
Y923290D01*
Y910590D02*
X1358899D01*
X1363979D01*
Y923290D01*
X1336039D02*
X1363979D01*
X1346199Y911860D02*
Y922020D01*
Y911860D02*
X1353819D01*
Y922020D01*
X1346199D02*
X1353819D01*
X1319530Y877569D02*
X1332230D01*
Y900429D01*
Y905509D01*
X1319530D02*
X1332230D01*
X1319530Y877569D02*
Y905509D01*
X1320800Y887729D02*
X1330960D01*
Y895349D01*
X1320800D02*
X1330960D01*
X1320800Y887729D02*
Y895349D01*
X1404610Y939801D02*
X1417310D01*
X1404610Y916941D02*
Y939801D01*
Y911861D02*
Y916941D01*
Y911861D02*
X1417310D01*
Y939801D01*
X1405880Y929641D02*
X1416040D01*
X1405880Y922021D02*
Y929641D01*
Y922021D02*
X1416040D01*
Y929641D01*
X1654811Y1093470D02*
Y1106170D01*
X1631951D02*
X1654811D01*
X1626871D02*
X1631951D01*
X1626871Y1093470D02*
Y1106170D01*
Y1093470D02*
X1654811D01*
X1644651Y1094740D02*
Y1104900D01*
X1637031D02*
X1644651D01*
X1637031Y1094740D02*
Y1104900D01*
Y1094740D02*
X1644651D01*
X1654811Y1108710D02*
Y1121410D01*
X1631951D02*
X1654811D01*
X1626871D02*
X1631951D01*
X1626871Y1108710D02*
Y1121410D01*
Y1108710D02*
X1654811D01*
X1644651Y1109980D02*
Y1120140D01*
X1637031D02*
X1644651D01*
X1637031Y1109980D02*
Y1120140D01*
Y1109980D02*
X1644651D01*
X1797050Y1196341D02*
X1809750D01*
X1797050Y1173481D02*
Y1196341D01*
Y1168401D02*
Y1173481D01*
Y1168401D02*
X1809750D01*
Y1196341D01*
X1798320Y1186181D02*
X1808480D01*
X1798320Y1178561D02*
Y1186181D01*
Y1178561D02*
X1808480D01*
Y1186181D01*
X1783080Y1196341D02*
X1795780D01*
X1783080Y1173481D02*
Y1196341D01*
Y1168401D02*
Y1173481D01*
Y1168401D02*
X1795780D01*
Y1196341D01*
X1784350Y1186181D02*
X1794510D01*
X1784350Y1178561D02*
Y1186181D01*
Y1178561D02*
X1794510D01*
Y1186181D01*
X1739901Y1024890D02*
Y1037590D01*
X1717041D02*
X1739901D01*
X1711961D02*
X1717041D01*
X1711961Y1024890D02*
Y1037590D01*
Y1024890D02*
X1739901D01*
X1729741Y1026160D02*
Y1036320D01*
X1722121D02*
X1729741D01*
X1722121Y1026160D02*
Y1036320D01*
Y1026160D02*
X1729741D01*
X1739901Y1037590D02*
Y1050290D01*
X1717041D02*
X1739901D01*
X1711961D02*
X1717041D01*
X1711961Y1037590D02*
Y1050290D01*
Y1037590D02*
X1739901D01*
X1729741Y1038860D02*
Y1049020D01*
X1722121D02*
X1729741D01*
X1722121Y1038860D02*
Y1049020D01*
Y1038860D02*
X1729741D01*
X1739901Y1010920D02*
Y1023620D01*
X1717041D02*
X1739901D01*
X1711961D02*
X1717041D01*
X1711961Y1010920D02*
Y1023620D01*
Y1010920D02*
X1739901D01*
X1729741Y1012190D02*
Y1022350D01*
X1722121D02*
X1729741D01*
X1722121Y1012190D02*
Y1022350D01*
Y1012190D02*
X1729741D01*
X1794509Y1098550D02*
Y1111250D01*
Y1098550D02*
X1817369D01*
X1822449D01*
Y1111250D01*
X1794509D02*
X1822449D01*
X1804669Y1099820D02*
Y1109980D01*
Y1099820D02*
X1812289D01*
Y1109980D01*
X1804669D02*
X1812289D01*
X1794509Y1052830D02*
Y1065530D01*
Y1052830D02*
X1817369D01*
X1822449D01*
Y1065530D01*
X1794509D02*
X1822449D01*
X1804669Y1054100D02*
Y1064260D01*
Y1054100D02*
X1812289D01*
Y1064260D01*
X1804669D02*
X1812289D01*
X1794509Y1068070D02*
Y1080770D01*
Y1068070D02*
X1817369D01*
X1822449D01*
Y1080770D01*
X1794509D02*
X1822449D01*
X1804669Y1069340D02*
Y1079500D01*
Y1069340D02*
X1812289D01*
Y1079500D01*
X1804669D02*
X1812289D01*
X1710690Y1109981D02*
X1723390D01*
X1710690Y1087121D02*
Y1109981D01*
Y1082041D02*
Y1087121D01*
Y1082041D02*
X1723390D01*
Y1109981D01*
X1711960Y1099821D02*
X1722120D01*
X1711960Y1092201D02*
Y1099821D01*
Y1092201D02*
X1722120D01*
Y1099821D01*
X1897381Y1355090D02*
Y1367790D01*
X1874521D02*
X1897381D01*
X1869441D02*
X1874521D01*
X1869441Y1355090D02*
Y1367790D01*
Y1355090D02*
X1897381D01*
X1887221Y1356360D02*
Y1366520D01*
X1879601D02*
X1887221D01*
X1879601Y1356360D02*
Y1366520D01*
Y1356360D02*
X1887221D01*
X1897381Y1263650D02*
Y1276350D01*
X1874521D02*
X1897381D01*
X1869441D02*
X1874521D01*
X1869441Y1263650D02*
Y1276350D01*
Y1263650D02*
X1897381D01*
X1887221Y1264920D02*
Y1275080D01*
X1879601D02*
X1887221D01*
X1879601Y1264920D02*
Y1275080D01*
Y1264920D02*
X1887221D01*
X1897381Y1202690D02*
Y1215390D01*
X1874521D02*
X1897381D01*
X1869441D02*
X1874521D01*
X1869441Y1202690D02*
Y1215390D01*
Y1202690D02*
X1897381D01*
X1887221Y1203960D02*
Y1214120D01*
X1879601D02*
X1887221D01*
X1879601Y1203960D02*
Y1214120D01*
Y1203960D02*
X1887221D01*
X1897381Y1339850D02*
Y1352550D01*
X1874521D02*
X1897381D01*
X1869441D02*
X1874521D01*
X1869441Y1339850D02*
Y1352550D01*
Y1339850D02*
X1897381D01*
X1887221Y1341120D02*
Y1351280D01*
X1879601D02*
X1887221D01*
X1879601Y1341120D02*
Y1351280D01*
Y1341120D02*
X1887221D01*
X1710690Y1080771D02*
X1723390D01*
X1710690Y1057911D02*
Y1080771D01*
Y1052831D02*
Y1057911D01*
Y1052831D02*
X1723390D01*
Y1080771D01*
X1711960Y1070611D02*
X1722120D01*
X1711960Y1062991D02*
Y1070611D01*
Y1062991D02*
X1722120D01*
Y1070611D01*
X1822451Y1083310D02*
Y1096010D01*
X1799591D02*
X1822451D01*
X1794511D02*
X1799591D01*
X1794511Y1083310D02*
Y1096010D01*
Y1083310D02*
X1822451D01*
X1812291Y1084580D02*
Y1094740D01*
X1804671D02*
X1812291D01*
X1804671Y1084580D02*
Y1094740D01*
Y1084580D02*
X1812291D01*
X1635761Y1374140D02*
Y1386840D01*
X1612901D02*
X1635761D01*
X1607821D02*
X1612901D01*
X1607821Y1374140D02*
Y1386840D01*
Y1374140D02*
X1635761D01*
X1625601Y1375410D02*
Y1385570D01*
X1617981D02*
X1625601D01*
X1617981Y1375410D02*
Y1385570D01*
Y1375410D02*
X1625601D01*
X1635761Y1360170D02*
Y1372870D01*
X1612901D02*
X1635761D01*
X1607821D02*
X1612901D01*
X1607821Y1360170D02*
Y1372870D01*
Y1360170D02*
X1635761D01*
X1625601Y1361440D02*
Y1371600D01*
X1617981D02*
X1625601D01*
X1617981Y1361440D02*
Y1371600D01*
Y1361440D02*
X1625601D01*
X1578609Y1374140D02*
Y1386840D01*
Y1374140D02*
X1601469D01*
X1606549D01*
Y1386840D01*
X1578609D02*
X1606549D01*
X1588769Y1375410D02*
Y1385570D01*
Y1375410D02*
X1596389D01*
Y1385570D01*
X1588769D02*
X1596389D01*
X1578609Y1360170D02*
Y1372870D01*
Y1360170D02*
X1601469D01*
X1606549D01*
Y1372870D01*
X1578609D02*
X1606549D01*
X1588769Y1361440D02*
Y1371600D01*
Y1361440D02*
X1596389D01*
Y1371600D01*
X1588769D02*
X1596389D01*
X1635761Y1346200D02*
Y1358900D01*
X1612901D02*
X1635761D01*
X1607821D02*
X1612901D01*
X1607821Y1346200D02*
Y1358900D01*
Y1346200D02*
X1635761D01*
X1625601Y1347470D02*
Y1357630D01*
X1617981D02*
X1625601D01*
X1617981Y1347470D02*
Y1357630D01*
Y1347470D02*
X1625601D01*
X1635761Y1332230D02*
Y1344930D01*
X1612901D02*
X1635761D01*
X1607821D02*
X1612901D01*
X1607821Y1332230D02*
Y1344930D01*
Y1332230D02*
X1635761D01*
X1625601Y1333500D02*
Y1343660D01*
X1617981D02*
X1625601D01*
X1617981Y1333500D02*
Y1343660D01*
Y1333500D02*
X1625601D01*
X1578609Y1346200D02*
Y1358900D01*
Y1346200D02*
X1601469D01*
X1606549D01*
Y1358900D01*
X1578609D02*
X1606549D01*
X1588769Y1347470D02*
Y1357630D01*
Y1347470D02*
X1596389D01*
Y1357630D01*
X1588769D02*
X1596389D01*
X1578609Y1332230D02*
Y1344930D01*
Y1332230D02*
X1601469D01*
X1606549D01*
Y1344930D01*
X1578609D02*
X1606549D01*
X1588769Y1333500D02*
Y1343660D01*
Y1333500D02*
X1596389D01*
Y1343660D01*
X1588769D02*
X1596389D01*
X2020570Y1471929D02*
X2033270D01*
Y1494789D01*
Y1499869D01*
X2020570D02*
X2033270D01*
X2020570Y1471929D02*
Y1499869D01*
X2021840Y1482089D02*
X2032000D01*
Y1489709D01*
X2021840D02*
X2032000D01*
X2021840Y1482089D02*
Y1489709D01*
X1983740Y1471929D02*
X1996440D01*
Y1494789D01*
Y1499869D01*
X1983740D02*
X1996440D01*
X1983740Y1471929D02*
Y1499869D01*
X1985010Y1482089D02*
X1995170D01*
Y1489709D01*
X1985010D02*
X1995170D01*
X1985010Y1482089D02*
Y1489709D01*
X2000250Y1471929D02*
X2012950D01*
Y1494789D01*
Y1499869D01*
X2000250D02*
X2012950D01*
X2000250Y1471929D02*
Y1499869D01*
X2001520Y1482089D02*
X2011680D01*
Y1489709D01*
X2001520D02*
X2011680D01*
X2001520Y1482089D02*
Y1489709D01*
X1963420Y1471929D02*
X1976120D01*
Y1494789D01*
Y1499869D01*
X1963420D02*
X1976120D01*
X1963420Y1471929D02*
Y1499869D01*
X1964690Y1482089D02*
X1974850D01*
Y1489709D01*
X1964690D02*
X1974850D01*
X1964690Y1482089D02*
Y1489709D01*
X2095500Y1471929D02*
X2108200D01*
Y1494789D01*
Y1499869D01*
X2095500D02*
X2108200D01*
X2095500Y1471929D02*
Y1499869D01*
X2096770Y1482089D02*
X2106930D01*
Y1489709D01*
X2096770D02*
X2106930D01*
X2096770Y1482089D02*
Y1489709D01*
X2057400Y1471929D02*
X2070100D01*
Y1494789D01*
Y1499869D01*
X2057400D02*
X2070100D01*
X2057400Y1471929D02*
Y1499869D01*
X2058670Y1482089D02*
X2068830D01*
Y1489709D01*
X2058670D02*
X2068830D01*
X2058670Y1482089D02*
Y1489709D01*
X2076450Y1471929D02*
X2089150D01*
Y1494789D01*
Y1499869D01*
X2076450D02*
X2089150D01*
X2076450Y1471929D02*
Y1499869D01*
X2077720Y1482089D02*
X2087880D01*
Y1489709D01*
X2077720D02*
X2087880D01*
X2077720Y1482089D02*
Y1489709D01*
X2040890Y1471929D02*
X2053590D01*
Y1494789D01*
Y1499869D01*
X2040890D02*
X2053590D01*
X2040890Y1471929D02*
Y1499869D01*
X2042160Y1482089D02*
X2052320D01*
Y1489709D01*
X2042160D02*
X2052320D01*
X2042160Y1482089D02*
Y1489709D01*
X1607821Y1454150D02*
Y1466850D01*
X1584961D02*
X1607821D01*
X1579881D02*
X1584961D01*
X1579881Y1454150D02*
Y1466850D01*
Y1454150D02*
X1607821D01*
X1597661Y1455420D02*
Y1465580D01*
X1590041D02*
X1597661D01*
X1590041Y1455420D02*
Y1465580D01*
Y1455420D02*
X1597661D01*
X1423669Y1263530D02*
Y1276230D01*
Y1263530D02*
X1446529D01*
X1451609D01*
Y1276230D01*
X1423669D02*
X1451609D01*
X1433829Y1264800D02*
Y1274960D01*
Y1264800D02*
X1441449D01*
Y1274960D01*
X1433829D02*
X1441449D01*
X1454151Y1394340D02*
Y1407040D01*
X1431291D02*
X1454151D01*
X1426211D02*
X1431291D01*
X1426211Y1394340D02*
Y1407040D01*
Y1394340D02*
X1454151D01*
X1443991Y1395610D02*
Y1405770D01*
X1436371D02*
X1443991D01*
X1436371Y1395610D02*
Y1405770D01*
Y1395610D02*
X1443991D01*
X1451611Y1277500D02*
Y1290200D01*
X1428751D02*
X1451611D01*
X1423671D02*
X1428751D01*
X1423671Y1277500D02*
Y1290200D01*
Y1277500D02*
X1451611D01*
X1441451Y1278770D02*
Y1288930D01*
X1433831D02*
X1441451D01*
X1433831Y1278770D02*
Y1288930D01*
Y1278770D02*
X1441451D01*
X1426209Y1408310D02*
Y1421010D01*
Y1408310D02*
X1449069D01*
X1454149D01*
Y1421010D01*
X1426209D02*
X1454149D01*
X1436369Y1409580D02*
Y1419740D01*
Y1409580D02*
X1443989D01*
Y1419740D01*
X1436369D02*
X1443989D01*
X1607821Y1487170D02*
Y1499870D01*
X1584961D02*
X1607821D01*
X1579881D02*
X1584961D01*
X1579881Y1487170D02*
Y1499870D01*
Y1487170D02*
X1607821D01*
X1597661Y1488440D02*
Y1498600D01*
X1590041D02*
X1597661D01*
X1590041Y1488440D02*
Y1498600D01*
Y1488440D02*
X1597661D01*
X1454151Y1328300D02*
Y1341000D01*
X1431291D02*
X1454151D01*
X1426211D02*
X1431291D01*
X1426211Y1328300D02*
Y1341000D01*
Y1328300D02*
X1454151D01*
X1443991Y1329570D02*
Y1339730D01*
X1436371D02*
X1443991D01*
X1436371Y1329570D02*
Y1339730D01*
Y1329570D02*
X1443991D01*
X1427479Y1461650D02*
Y1474350D01*
Y1461650D02*
X1450339D01*
X1455419D01*
Y1474350D01*
X1427479D02*
X1455419D01*
X1437639Y1462920D02*
Y1473080D01*
Y1462920D02*
X1445259D01*
Y1473080D01*
X1437639D02*
X1445259D01*
X1426209Y1342270D02*
Y1354970D01*
Y1342270D02*
X1449069D01*
X1454149D01*
Y1354970D01*
X1426209D02*
X1454149D01*
X1436369Y1343540D02*
Y1353700D01*
Y1343540D02*
X1443989D01*
Y1353700D01*
X1436369D02*
X1443989D01*
X1455421Y1475620D02*
Y1488320D01*
X1432561D02*
X1455421D01*
X1427481D02*
X1432561D01*
X1427481Y1475620D02*
Y1488320D01*
Y1475620D02*
X1455421D01*
X1445261Y1476890D02*
Y1487050D01*
X1437641D02*
X1445261D01*
X1437641Y1476890D02*
Y1487050D01*
Y1476890D02*
X1445261D01*
X1451611Y1245750D02*
Y1258450D01*
X1428751D02*
X1451611D01*
X1423671D02*
X1428751D01*
X1423671Y1245750D02*
Y1258450D01*
Y1245750D02*
X1451611D01*
X1441451Y1247020D02*
Y1257180D01*
X1433831D02*
X1441451D01*
X1433831Y1247020D02*
Y1257180D01*
Y1247020D02*
X1441451D01*
X1426209Y1375290D02*
Y1387990D01*
Y1375290D02*
X1449069D01*
X1454149D01*
Y1387990D01*
X1426209D02*
X1454149D01*
X1436369Y1376560D02*
Y1386720D01*
Y1376560D02*
X1443989D01*
Y1386720D01*
X1436369D02*
X1443989D01*
X1423669Y1230510D02*
Y1243210D01*
Y1230510D02*
X1446529D01*
X1451609D01*
Y1243210D01*
X1423669D02*
X1451609D01*
X1433829Y1231780D02*
Y1241940D01*
Y1231780D02*
X1441449D01*
Y1241940D01*
X1433829D02*
X1441449D01*
X1454151Y1360050D02*
Y1372750D01*
X1431291D02*
X1454151D01*
X1426211D02*
X1431291D01*
X1426211Y1360050D02*
Y1372750D01*
Y1360050D02*
X1454151D01*
X1443991Y1361320D02*
Y1371480D01*
X1436371D02*
X1443991D01*
X1436371Y1361320D02*
Y1371480D01*
Y1361320D02*
X1443991D01*
X1607821Y1421130D02*
Y1433830D01*
X1584961D02*
X1607821D01*
X1579881D02*
X1584961D01*
X1579881Y1421130D02*
Y1433830D01*
Y1421130D02*
X1607821D01*
X1597661Y1422400D02*
Y1432560D01*
X1590041D02*
X1597661D01*
X1590041Y1422400D02*
Y1432560D01*
Y1422400D02*
X1597661D01*
X1455421Y1441330D02*
Y1454030D01*
X1432561D02*
X1455421D01*
X1427481D02*
X1432561D01*
X1427481Y1441330D02*
Y1454030D01*
Y1441330D02*
X1455421D01*
X1445261Y1442600D02*
Y1452760D01*
X1437641D02*
X1445261D01*
X1437641Y1442600D02*
Y1452760D01*
Y1442600D02*
X1445261D01*
X1424939Y1309250D02*
Y1321950D01*
Y1309250D02*
X1447799D01*
X1452879D01*
Y1321950D01*
X1424939D02*
X1452879D01*
X1435099Y1310520D02*
Y1320680D01*
Y1310520D02*
X1442719D01*
Y1320680D01*
X1435099D02*
X1442719D01*
X1427479Y1427360D02*
Y1440060D01*
Y1427360D02*
X1450339D01*
X1455419D01*
Y1440060D01*
X1427479D02*
X1455419D01*
X1437639Y1428630D02*
Y1438790D01*
Y1428630D02*
X1445259D01*
Y1438790D01*
X1437639D02*
X1445259D01*
X1452881Y1295280D02*
Y1307980D01*
X1430021D02*
X1452881D01*
X1424941D02*
X1430021D01*
X1424941Y1295280D02*
Y1307980D01*
Y1295280D02*
X1452881D01*
X1442721Y1296550D02*
Y1306710D01*
X1435101D02*
X1442721D01*
X1435101Y1296550D02*
Y1306710D01*
Y1296550D02*
X1442721D01*
X1540510Y1597661D02*
X1553210D01*
X1540510Y1574801D02*
Y1597661D01*
Y1569721D02*
Y1574801D01*
Y1569721D02*
X1553210D01*
Y1597661D01*
X1541780Y1587501D02*
X1551940D01*
X1541780Y1579881D02*
Y1587501D01*
Y1579881D02*
X1551940D01*
Y1587501D01*
X1521460Y1597661D02*
X1534160D01*
X1521460Y1574801D02*
Y1597661D01*
Y1569721D02*
Y1574801D01*
Y1569721D02*
X1534160D01*
Y1597661D01*
X1522730Y1587501D02*
X1532890D01*
X1522730Y1579881D02*
Y1587501D01*
Y1579881D02*
X1532890D01*
Y1587501D01*
X1422400Y1569719D02*
X1435100D01*
Y1592579D01*
Y1597659D01*
X1422400D02*
X1435100D01*
X1422400Y1569719D02*
Y1597659D01*
X1423670Y1579879D02*
X1433830D01*
Y1587499D01*
X1423670D02*
X1433830D01*
X1423670Y1579879D02*
Y1587499D01*
X1689100Y1598931D02*
X1701800D01*
X1689100Y1576071D02*
Y1598931D01*
Y1570991D02*
Y1576071D01*
Y1570991D02*
X1701800D01*
Y1598931D01*
X1690370Y1588771D02*
X1700530D01*
X1690370Y1581151D02*
Y1588771D01*
Y1581151D02*
X1700530D01*
Y1588771D01*
X1670050Y1598930D02*
X1682750D01*
X1670050Y1576070D02*
Y1598930D01*
Y1570990D02*
Y1576070D01*
Y1570990D02*
X1682750D01*
Y1598930D01*
X1671320Y1588770D02*
X1681480D01*
X1671320Y1581150D02*
Y1588770D01*
Y1581150D02*
X1681480D01*
Y1588770D01*
X1885949Y1115060D02*
Y1127760D01*
Y1115060D02*
X1908809D01*
X1913889D01*
Y1127760D01*
X1885949D02*
X1913889D01*
X1896109Y1116330D02*
Y1126490D01*
Y1116330D02*
X1903729D01*
Y1126490D01*
X1896109D02*
X1903729D01*
X2019301Y911860D02*
Y924560D01*
X1996441D02*
X2019301D01*
X1991361D02*
X1996441D01*
X1991361Y911860D02*
Y924560D01*
Y911860D02*
X2019301D01*
X2009141Y913130D02*
Y923290D01*
X2001521D02*
X2009141D01*
X2001521Y913130D02*
Y923290D01*
Y913130D02*
X2009141D01*
X2019301Y928370D02*
Y941070D01*
X1996441D02*
X2019301D01*
X1991361D02*
X1996441D01*
X1991361Y928370D02*
Y941070D01*
Y928370D02*
X2019301D01*
X2009141Y929640D02*
Y939800D01*
X2001521D02*
X2009141D01*
X2001521Y929640D02*
Y939800D01*
Y929640D02*
X2009141D01*
X1863091Y1071880D02*
Y1084580D01*
X1840231D02*
X1863091D01*
X1835151D02*
X1840231D01*
X1835151Y1071880D02*
Y1084580D01*
Y1071880D02*
X1863091D01*
X1852931Y1073150D02*
Y1083310D01*
X1845311D02*
X1852931D01*
X1845311Y1073150D02*
Y1083310D01*
Y1073150D02*
X1852931D01*
X1863091Y1087120D02*
Y1099820D01*
X1840231D02*
X1863091D01*
X1835151D02*
X1840231D01*
X1835151Y1087120D02*
Y1099820D01*
Y1087120D02*
X1863091D01*
X1852931Y1088390D02*
Y1098550D01*
X1845311D02*
X1852931D01*
X1845311Y1088390D02*
Y1098550D01*
Y1088390D02*
X1852931D01*
X1578611Y1215390D02*
Y1228090D01*
X1555751D02*
X1578611D01*
X1550671D02*
X1555751D01*
X1550671Y1215390D02*
Y1228090D01*
Y1215390D02*
X1578611D01*
X1568451Y1216660D02*
Y1226820D01*
X1560831D02*
X1568451D01*
X1560831Y1216660D02*
Y1226820D01*
Y1216660D02*
X1568451D01*
X1550669Y1233170D02*
Y1245870D01*
Y1233170D02*
X1573529D01*
X1578609D01*
Y1245870D01*
X1550669D02*
X1578609D01*
X1560829Y1234440D02*
Y1244600D01*
Y1234440D02*
X1568449D01*
Y1244600D01*
X1560829D02*
X1568449D01*
D12*
X1405250Y1284610D02*
G03*
X1405250Y1284610I-1000J0D01*
G01*
X1968080Y1548180D02*
G03*
X1968080Y1548180I-1000J0D01*
G01*
X1945660Y826910D02*
G03*
X1945660Y826910I-1000J0D01*
G01*
X1307830Y1006950D02*
G03*
X1307830Y1006950I-1000J0D01*
G01*
X1548670Y842730D02*
Y845780D01*
Y860680D02*
Y863730D01*
X1572670Y842730D02*
Y845780D01*
Y860680D02*
Y863730D01*
X2160270Y1334812D02*
X2185670D01*
X2160270D02*
Y1466812D01*
X2185670Y1334812D02*
Y1466812D01*
X2160270D02*
X2185670D01*
X2160270Y1362710D02*
X2185670D01*
X2160270Y1303020D02*
X2185670D01*
X2160270Y1330919D02*
X2185670D01*
Y1249719D02*
Y1330919D01*
X2160270Y1249719D02*
X2185670D01*
X2160270D02*
Y1330919D01*
X1807060Y1445740D02*
X1808310D01*
Y1441990D02*
Y1445740D01*
Y1412740D02*
Y1416490D01*
X1807060Y1412740D02*
X1808310D01*
X1775310D02*
X1776560D01*
X1775310D02*
Y1416490D01*
Y1445740D02*
X1776560D01*
X1775310Y1441990D02*
Y1445740D01*
X1805950Y1510020D02*
X1807200D01*
Y1506270D02*
Y1510020D01*
Y1477020D02*
Y1480770D01*
X1805950Y1477020D02*
X1807200D01*
X1774200D02*
X1775450D01*
X1774200D02*
Y1480770D01*
Y1510020D02*
X1775450D01*
X1774200Y1506270D02*
Y1510020D01*
X1742450Y1443980D02*
X1743700D01*
Y1440230D02*
Y1443980D01*
Y1410980D02*
Y1414730D01*
X1742450Y1410980D02*
X1743700D01*
X1710700D02*
X1711950D01*
X1710700D02*
Y1414730D01*
Y1443980D02*
X1711950D01*
X1710700Y1440230D02*
Y1443980D01*
X1741960Y1509900D02*
X1743210D01*
Y1506150D02*
Y1509900D01*
Y1476900D02*
Y1480650D01*
X1741960Y1476900D02*
X1743210D01*
X1710210D02*
X1711460D01*
X1710210D02*
Y1480650D01*
Y1509900D02*
X1711460D01*
X1710210Y1506150D02*
Y1509900D01*
X1294780Y1013450D02*
Y1196350D01*
X1344280Y1013450D02*
Y1196350D01*
X1294780Y1013450D02*
X1344280D01*
X1294780Y1196350D02*
X1344280D01*
X1669860Y1226630D02*
Y1361630D01*
X1804860Y1226630D02*
Y1361630D01*
X1669860D02*
X1804860D01*
X1669860Y1226630D02*
X1804860D01*
X1695460Y967720D02*
X1728460D01*
X1695460Y901720D02*
X1728460D01*
X1695460D02*
Y967720D01*
X1728460Y901720D02*
Y967720D01*
X1403340Y817880D02*
X1428740D01*
Y767080D02*
Y817880D01*
X1403340Y767080D02*
X1428740D01*
X1403340D02*
Y817880D01*
X1442710Y819150D02*
X1468110D01*
Y768350D02*
Y819150D01*
X1442710Y768350D02*
X1468110D01*
X1442710D02*
Y819150D01*
X1542370Y943610D02*
X1616700D01*
Y948370D01*
X1542370Y943610D02*
Y957580D01*
X1616700Y971870D02*
Y976630D01*
X1542370Y957580D02*
X1544310D01*
Y943610D02*
Y957580D01*
Y962660D02*
Y976630D01*
X1542370Y962660D02*
X1544310D01*
X1542370Y976630D02*
X1616700D01*
X1542370Y962660D02*
Y976630D01*
X1575870Y955120D02*
Y965120D01*
Y960120D02*
X1582870Y956120D01*
X1575870Y960120D02*
X1582870Y965120D01*
Y956120D02*
Y965120D01*
X1574870Y960120D02*
X1575870D01*
X1582870D02*
X1584870D01*
X1693470Y891370D02*
Y894420D01*
Y873420D02*
Y876470D01*
X1669470Y891370D02*
Y894420D01*
Y873420D02*
Y876470D01*
X1315720Y800100D02*
X1390050D01*
X1315720Y795340D02*
Y800100D01*
X1390050Y786130D02*
Y800100D01*
X1315720Y767080D02*
Y771840D01*
X1388110Y786130D02*
X1390050D01*
X1388110D02*
Y800100D01*
Y767080D02*
Y781050D01*
X1390050D01*
X1315720Y767080D02*
X1390050D01*
Y781050D01*
X1356550Y778590D02*
Y788590D01*
X1349550Y787590D02*
X1356550Y783590D01*
X1349550Y778590D02*
X1356550Y783590D01*
X1349550Y778590D02*
Y787590D01*
X1356550Y783590D02*
X1357550D01*
X1347550D02*
X1349550D01*
X1456620Y1568190D02*
Y1599190D01*
X1479620Y1568190D02*
Y1599190D01*
X1456620D02*
X1479620D01*
X1456620Y1568190D02*
X1479620D01*
X1601400Y1569460D02*
Y1600460D01*
X1624400Y1569460D02*
Y1600460D01*
X1601400D02*
X1624400D01*
X1601400Y1569460D02*
X1624400D01*
X1940560Y964820D02*
Y980820D01*
Y964820D02*
Y964820D01*
X1946560Y970820D01*
X1934560D02*
X1940560Y964820D01*
X1955560Y942820D02*
Y1002820D01*
X1925560Y942820D02*
X1955560D01*
X1925560D02*
Y1002820D01*
X1955560D01*
X2049860Y977710D02*
X2059860D01*
X2054860D02*
X2058860Y984710D01*
X2049860D02*
X2054860Y977710D01*
X2049860Y984710D02*
X2058860D01*
X2054860Y975710D02*
Y977710D01*
Y984710D02*
Y987710D01*
X1991100Y996550D02*
X2022100D01*
X1991100Y946550D02*
X2022100D01*
X2039490Y1005970D02*
Y1010970D01*
X1991490Y1005970D02*
Y1010970D01*
X2039490Y1048970D02*
Y1053970D01*
X1991490Y1048970D02*
Y1053970D01*
Y1005970D02*
X2039490D01*
X1991490Y1053970D02*
X2039490D01*
X1884420Y1062620D02*
X1915420D01*
X1884420Y1111620D02*
X1915420D01*
Y1062620D02*
Y1111620D01*
X1884420Y1062620D02*
Y1111620D01*
X1597740Y1230370D02*
Y1261370D01*
X1607740Y1230370D02*
Y1261370D01*
X1597740D02*
X1607740D01*
X1597740Y1230370D02*
X1607740D01*
D13*
X1808060Y1452240D02*
G03*
X1808060Y1452240I-1250J0D01*
G01*
X1806950Y1516520D02*
G03*
X1806950Y1516520I-1250J0D01*
G01*
X1743450Y1450480D02*
G03*
X1743450Y1450480I-1250J0D01*
G01*
X1742960Y1516400D02*
G03*
X1742960Y1516400I-1250J0D01*
G01*
X1973580Y1518920D02*
G03*
X1973580Y1518920I-1250J0D01*
G01*
X1661110Y1361130D02*
G03*
X1661110Y1361130I-1250J0D01*
G01*
X1742960Y900820D02*
G03*
X1742960Y900820I-1250J0D01*
G01*
X2010410Y1518920D02*
G03*
X2010410Y1518920I-1250J0D01*
G01*
X2085289Y1519120D02*
G03*
X2085289Y1519120I-1250J0D01*
G01*
X2048459D02*
G03*
X2048459Y1519120I-1250J0D01*
G01*
X1447120Y1601690D02*
G03*
X1447120Y1601690I-1250J0D01*
G01*
X1591900Y1602960D02*
G03*
X1591900Y1602960I-1250J0D01*
G01*
X1980600Y999600D02*
G03*
X1980600Y999600I-1250J0D01*
G01*
X1874170Y1114670D02*
G03*
X1874170Y1114670I-1250J0D01*
G01*
X1618240Y1227370D02*
G03*
X1618240Y1227370I-1250J0D01*
G01*
D14*
X1682860Y1351630D02*
G03*
X1682860Y1351630I-3000J0D01*
G01*
X1469620Y1589190D02*
G03*
X1469620Y1589190I-3000J0D01*
G01*
X1614400Y1590460D02*
G03*
X1614400Y1590460I-3000J0D01*
G01*
X1897420Y1101620D02*
G03*
X1897420Y1101620I-3000J0D01*
G01*
D15*
X1598580Y906810D02*
G03*
X1598580Y906810I-1000J0D01*
G01*
X1366210Y897920D02*
G03*
X1366210Y897920I-1000J0D01*
G01*
D16*
X1312250Y1455110D02*
X1338750D01*
X1312250Y1254110D02*
X1338750D01*
X1347750Y1272610D02*
Y1436610D01*
X2137580Y1613680D02*
Y1640180D01*
X1936580Y1613680D02*
Y1640180D01*
X1955080Y1604680D02*
X2119080D01*
X1484660Y761160D02*
X2004660D01*
X1484660D02*
Y821660D01*
X2004660D01*
Y761160D02*
Y821660D01*
X2144430Y1184960D02*
Y1209760D01*
Y1045760D02*
Y1070560D01*
X2196430Y1045760D02*
Y1209760D01*
X2144430Y1045760D02*
X2157430D01*
X2144430Y1209760D02*
X2157430D01*
X2124680Y1073710D02*
Y1079710D01*
X2129680Y1076710D01*
X2124680Y1073710D02*
X2129680Y1076710D01*
X2193930Y1045760D02*
X2196430D01*
X2193930Y1209760D02*
X2196430D01*
X1366012Y822452D02*
Y833628D01*
X1348610Y832040D02*
X1351410D01*
X1348610Y824040D02*
X1351410D01*
X1775330Y961580D02*
X1778130D01*
X1775330Y953580D02*
X1778130D01*
X1760728Y951992D02*
Y963168D01*
X1776600Y917130D02*
X1779400D01*
X1776600Y909130D02*
X1779400D01*
X1761998Y907542D02*
Y918718D01*
X1348730Y807530D02*
X1351530D01*
X1348730Y815530D02*
X1351530D01*
X1366132Y805942D02*
Y817118D01*
X1511404Y875540D02*
Y907540D01*
X1471130Y875540D02*
X1531130D01*
X1471130Y907540D02*
X1531130D01*
X1511414Y977140D02*
Y1009140D01*
X1471140Y977140D02*
X1531140D01*
X1471140Y1009140D02*
X1531140D01*
X1419974Y942850D02*
Y974850D01*
X1379700Y942850D02*
X1439700D01*
X1379700Y974850D02*
X1439700D01*
X1657464Y977140D02*
Y1009140D01*
X1617190Y977140D02*
X1677190D01*
X1617190Y1009140D02*
X1677190D01*
X1421244Y977140D02*
Y1009140D01*
X1380970Y977140D02*
X1440970D01*
X1380970Y1009140D02*
X1440970D01*
X1667614Y834900D02*
Y866900D01*
X1627340Y834900D02*
X1687340D01*
X1627340Y866900D02*
X1687340D01*
X1510134Y912370D02*
Y944370D01*
X1469860Y912370D02*
X1529860D01*
X1469860Y944370D02*
X1529860D01*
X1587700Y1292700D02*
Y1298100D01*
X1612700Y1292700D02*
Y1298100D01*
X1770570Y1180970D02*
Y1183770D01*
X1762570Y1180970D02*
Y1183770D01*
X1760982Y1198372D02*
X1772158D01*
X1750250Y1180970D02*
Y1183770D01*
X1742250Y1180970D02*
Y1183770D01*
X1740662Y1198372D02*
X1751838D01*
D17*
X1996440Y1507490D02*
Y1532890D01*
X1986280D02*
X1996440D01*
X1963420Y1507490D02*
Y1532890D01*
X1973580D01*
X2000250D02*
X2010410D01*
X2000250Y1507490D02*
Y1532890D01*
X2023110D02*
X2033270D01*
Y1507490D02*
Y1532890D01*
X2075129Y1533090D02*
X2085289D01*
X2075129Y1507690D02*
Y1533090D01*
X2097989D02*
X2108149D01*
Y1507690D02*
Y1533090D01*
X2038299D02*
X2048459D01*
X2038299Y1507690D02*
Y1533090D01*
X2061159D02*
X2071319D01*
Y1507690D02*
Y1533090D01*
D18*
X2045700Y1004710D02*
X2048110D01*
X2045700Y958850D02*
Y1004710D01*
Y957580D02*
Y958850D01*
Y957580D02*
X2052320D01*
Y958850D01*
X2045700D02*
X2052320D01*
X2057400D02*
X2064020D01*
X2057400Y957580D02*
Y958850D01*
Y957580D02*
X2064020D01*
Y958850D01*
Y1004710D01*
X2061610D02*
X2064020D01*
D19*
X1601724Y1292352D02*
X1617472D01*
X1601724Y1274826D02*
Y1292352D01*
D20*
X1555750Y1291560D02*
D03*
M02*
